<?xml version="1.0" standalone="no"?> <!DOCTYPE svg PUBLIC "-//W3C//DTD SVG 1.0//EN" "http://www.w3.org/TR/2001/REC-SVG-20010904/DTD/svg10.dtd" > <svg xmlns="http://www.w3.org/2000/svg" width="100%" height="100%">
<defs >
<font id="FlingLetPlain" horiz-adv-x="620" ><font-face
    font-family="Fling LET"
    units-per-em="2048"
    panose-1="0 0 0 0 0 0 0 0 0 0"
    ascent="1869"
    descent="-492"
    alphabetic="0" />
<missing-glyph horiz-adv-x="1024" d="M82 1365H942V0H82V1365ZM123 1324V41H901V1324H123Z" />
<glyph unicode=" " glyph-name="space" horiz-adv-x="492" />
<glyph unicode="!" glyph-name="exclam" horiz-adv-x="686" d="M281 1335Q281 1361 299 1377T342 1393Q367 1393 385 1377T403 1335L387 385Q387 332 342 332Q301 332 297 385L281 1335ZM342 150Q373 150 392 126T412 63Q412 28 392 4T342 -20Q312 -20 292 4T272
63Q272 99 292 124T342 150Z" />
<glyph unicode="&quot;" glyph-name="quotedbl" horiz-adv-x="666" d="M303 1294L266 993Q263 956 233 956Q216 956 209 971T201 997L188 1296Q188 1302 188 1305T186 1313Q186 1393 248 1393Q273 1393 289 1374T305 1317Q305 1307 305 1303T303 1294ZM477 1294L440
993Q437 956 408 956Q389 956 382 970T375 997L360 1296V1313Q360 1393 422 1393Q477 1393 477 1317V1294Z" />
<glyph unicode="#" glyph-name="numbersign" horiz-adv-x="623" d="M-59 -123Q-59 -90 -39 -90Q-14 -90 -14 -123Q-14 -267 50 -355T231 -444Q317 -444 372 -397T453 -275T479 -123Q479 -55 453 -3T386 79T301 115L190 127Q115 137 115 184Q115 200 119 211T129
233T145 254T164 276L414 573H74Q47 573 47 590Q47 608 74 608H502Q521 608 531 597T541 569Q541 551 528 539L221 168L342 156Q421 148 482 105T575 1T608 -123Q608 -207 563 -290T432 -425T231 -477Q79 -477 10 -375T-59 -123ZM231 -100Q257 -100 275 -118T293
-162Q293 -186 275 -203T231 -221Q208 -221 190 -203T172 -162Q172 -137 189 -119T231 -100Z" />
<glyph unicode="$" glyph-name="dollar" horiz-adv-x="1020" d="M502 -10Q333 -10 208 58T82 238Q82 269 99 296T147 324Q177 324 195 301T213 246Q213 221 198 198T162 172Q183 128 240 97T366 52T502 37V629Q409 666 344 704T238 787T177 884T158 1004Q158 1090
208 1159T338 1268T502 1313V1421Q502 1448 524 1448Q549 1448 549 1421V1313Q639 1312 714 1277T833 1190T877 1092Q877 1061 859 1035T813 1008Q785 1008 765 1026T745 1081Q745 1101 758 1123T786 1157Q752 1208 688 1236T549 1266V737Q694 667 768 622T890
512T938 358Q938 253 880 169T732 38T549 -10V-127Q549 -154 524 -154Q502 -154 502 -127V-10ZM549 37Q615 38 677 74T779 172T819 305Q819 416 755 484T549 612V37ZM502 756V1264Q447 1258 394 1226T307 1141T272 1028Q272 959 295 913T367 833T502 756Z" />
<glyph unicode="%" glyph-name="percent" horiz-adv-x="1393" d="M1004 -20Q922 -20 851 21T738 132T696 285Q696 368 737 438T849 550T1004 592Q1069 592 1124 569T1222 503T1288 405T1311 285Q1311 221 1288 167T1222 70T1122 3T1004 -20ZM1004 551Q919 551
877 483T834 285Q834 161 877 91T1004 20Q1088 20 1131 90T1174 285Q1174 371 1155 430T1098 520T1004 551ZM461 1257Q492 1257 538 1240T612 1200Q748 1095 891 1079L963 1219Q1010 1315 1087 1315Q1134 1315 1167 1286T1200 1204Q1200 1161 1167 1118T1069 1046T918
1016L403 -8Q394 -27 379 -27Q356 -27 356 -12Q356 1 362 10L866 1024Q762 1041 664 1120Q696 1072 696 1008Q696 944 673 890T607 793T507 726T389 702Q262 702 172 792T82 1008Q82 1091 123 1162T235 1274T389 1315Q420 1315 420 1294Q420 1274 389 1274Q304
1274 262 1206T219 1008Q219 884 262 814T389 743Q473 743 516 813T559 1008Q559 1113 532 1159T455 1212Q448 1214 435 1216T416 1223T410 1235Q410 1257 461 1257ZM946 1077Q1049 1078 1101 1117T1153 1204Q1153 1238 1134 1255T1087 1272Q1047 1272 1010 1202L946
1077Z" />
<glyph unicode="&amp;" glyph-name="ampersand" horiz-adv-x="1647" d="M485 676Q544 716 578 748T630 820T649 913Q649 985 606 1035T502 1085Q427 1085 386 1033T344 922Q344 887 358 851T391 785T447 717T485 676ZM430 582Q342 517 299 451T256 289Q256 218
290 161T386 71T532 39Q621 39 680 66T801 162L430 582ZM1489 733Q1489 664 1454 602T1361 504T1237 467Q1188 467 1134 480T1029 511T901 557Q958 494 958 391Q958 341 946 298T909 223Q926 207 1014 115T1158 -27T1269 -109T1372 -143Q1480 -143 1526 -61Q1454
-48 1454 31Q1454 60 1474 80T1522 100Q1560 100 1583 70T1606 -8Q1606 -62 1565 -104T1465 -169T1358 -193Q1265 -193 1176 -148T1008 -35T844 125Q714 -20 518 -20Q424 -20 353 5T233 74T161 173T137 279Q137 386 202 456T397 616Q351 669 324 704T274 785T252
881Q252 985 317 1056T500 1128Q595 1128 668 1067T741 913Q741 855 712 809T646 734T518 639L872 260Q901 307 901 373Q901 422 886 465T843 537T778 565Q757 565 731 559T700 553Q684 553 684 569Q684 594 720 611T793 629Q851 629 894 620T1008 588Q1104 557
1235 557Q1326 557 1383 607T1440 729Q1440 787 1414 831T1339 897Q1335 872 1320 851T1285 818T1249 807Q1220 807 1200 828T1180 877Q1180 914 1205 936T1276 958Q1356 958 1422 893T1489 733Z" />
<glyph unicode="&apos;" glyph-name="quotesingle" horiz-adv-x="492" d="M303 1294L266 993Q263 956 233 956Q216 956 209 971T201 997L188 1296Q188 1302 188 1305T186 1313Q186 1393 248 1393Q273 1393 289 1374T305 1317Q305 1307 305 1303T303 1294Z" />
<glyph unicode="(" glyph-name="parenleft" horiz-adv-x="848" d="M373 455Q373 290 393 143T463 -145T598 -412Q612 -435 612 -442Q612 -457 598 -457Q587 -457 575 -438Q393 -193 310 17T227 455Q227 570 248 679T310 893T418 1112T575 1348Q590 1366 598 1366Q612
1366 612 1352Q612 1344 598 1321Q513 1195 464 1054T394 766T373 455Z" />
<glyph unicode=")" glyph-name="parenright" horiz-adv-x="848" d="M475 455Q475 986 248 1321Q233 1346 233 1352Q233 1358 238 1362T250 1366Q260 1366 272 1348Q365 1226 430 1113T537 893T598 680T618 455Q618 225 537 16T272 -438Q263 -457 250 -457Q233
-457 233 -442Q233 -437 248 -412Q373 -229 424 -11T475 455Z" />
<glyph unicode="*" glyph-name="asterisk" horiz-adv-x="967" d="M461 1161L438 1337V1343Q438 1364 451 1378T483 1393Q502 1393 516 1379T530 1343Q530 1339 528 1337L506 1161Q502 1130 483 1130Q465 1130 461 1161ZM461 995Q465 1026 483 1026Q502 1026 506
995L528 819Q530 817 530 813Q530 790 516 777T483 764Q465 764 452 777T438 813V819L461 995ZM401 1100L238 1167Q205 1181 205 1214Q205 1229 217 1243T252 1257Q269 1257 283 1247L424 1139Q440 1121 440 1114Q440 1096 422 1096Q415 1096 401 1100ZM543 1018Q526
1035 526 1042Q526 1061 545 1061Q553 1061 565 1057L731 989Q762 976 762 942Q762 925 751 912T717 899Q698 899 684 909L543 1018ZM543 1139L684 1247Q699 1257 717 1257Q733 1257 747 1246T762 1214Q762 1182 731 1167L565 1100Q553 1096 545 1096Q526 1096
526 1114Q526 1120 543 1139ZM401 1057Q415 1061 422 1061Q440 1061 440 1042Q440 1034 424 1018L283 909Q273 899 252 899Q229 899 217 913T205 942Q205 978 238 989L401 1057Z" />
<glyph unicode="+" glyph-name="plus" horiz-adv-x="1587" d="M1516 836Q1516 912 1462 947T1327 999Q1282 981 1264 981Q1214 981 1214 1006Q1214 1020 1231 1029T1278 1038Q1289 1038 1317 1034Q1372 1042 1415 1087T1458 1204Q1458 1269 1420 1309T1323 1356Q1335
1330 1335 1307Q1335 1274 1318 1255T1270 1235Q1242 1235 1224 1256T1206 1307Q1206 1342 1234 1367T1307 1393Q1379 1393 1443 1344T1507 1200Q1507 1140 1467 1090T1372 1020Q1449 1005 1509 953T1569 807Q1569 741 1536 690T1449 609T1339 580Q1284 580 1239
597T1098 655T942 713Q1015 669 1055 588T1096 432Q1096 339 1069 270Q1178 161 1247 61T1317 -135Q1317 -226 1279 -304T1167 -430T995 -477Q910 -477 830 -438T750 -322Q750 -274 774 -244T836 -213Q863 -213 882 -234T901 -283Q901 -314 884 -342T829 -375Q892
-430 995 -430Q1081 -430 1141 -365T1202 -215Q1202 -125 1153 -47T1004 145Q850 -27 592 -27Q451 -27 335 24T150 167T82 377Q82 500 143 604T367 838Q316 896 295 927T256 1011T238 1135Q238 1200 270 1259T361 1355T500 1393Q606 1393 673 1339T741 1198Q741
1131 709 1077T636 986T498 872L1010 319Q1020 365 1020 432Q1020 518 992 579T922 673T834 705Q810 705 788 699T758 692Q751 692 744 698T737 711Q737 728 752 741T791 762T836 770Q900 770 955 757T1094 715Q1111 709 1139 699T1198 678T1260 661T1323 655Q1405
655 1460 704T1516 836ZM950 203L403 799Q225 650 225 410Q225 296 281 213T428 84T614 39Q724 39 816 84T950 203ZM461 909Q565 996 607 1056T649 1202Q649 1260 608 1305T500 1350Q423 1350 384 1282T344 1135Q344 1072 368 1029T461 909Z" />
<glyph unicode="," glyph-name="comma" horiz-adv-x="492" d="M293 35L188 -272Q182 -299 156 -299Q144 -299 136 -290T127 -268Q127 -255 131 -233L180 63Q191 150 248 150Q277 150 291 132T305 82Q305 59 293 35Z" />
<glyph unicode="-" glyph-name="hyphen" horiz-adv-x="645" d="M141 354H502Q522 354 535 343T549 313Q549 293 537 281T502 268H141Q123 268 110 279T96 311Q96 330 109 342T141 354Z" />
<glyph unicode="." glyph-name="period" horiz-adv-x="492" d="M246 150Q277 150 296 126T315 63Q315 29 296 5T246 -20Q216 -20 196 4T176 63Q176 99 196 124T246 150Z" />
<glyph unicode="/" glyph-name="slash" horiz-adv-x="809" d="M160 -317Q147 -352 125 -352Q116 -352 106 -344T96 -324Q97 -318 97 -314T98 -303L649 1214Q659 1241 684 1241Q713 1241 713 1210Q713 1200 707 1188L160 -317Z" />
<glyph unicode="0" glyph-name="zero" horiz-adv-x="903" d="M453 745Q557 745 645 694T784 554T836 362Q836 259 785 171T645 32T453 -20Q349 -20 260 31T120 171T68 362Q68 466 119 554T260 693T453 745ZM453 711Q380 711 324 667T237 545T205 362Q205 258 236
180T324 58T453 14Q560 14 629 110T698 362Q698 518 629 614T453 711Z" />
<glyph unicode="1" glyph-name="one" horiz-adv-x="588" d="M231 41V653L61 612Q61 612 60 612T57 610Q48 610 43 616T37 631Q37 647 61 653L408 733Q410 734 411 734T416 735Q426 735 430 730T434 717Q434 698 412 694L354 682V41H492Q500 41 506 35T512 20Q512
0 492 0H96Q72 0 72 20Q72 41 96 41H231Z" />
<glyph unicode="2" glyph-name="two" horiz-adv-x="805" d="M231 158Q266 158 301 147L512 88Q590 68 616 68Q685 68 729 86Q740 91 762 104T788 117Q801 117 801 106Q801 96 780 74T735 35Q654 -27 575 -27Q530 -27 508 -18L258 55Q218 63 211 63Q142 63 109
49T43 -2Q33 -16 25 -16Q14 -16 14 -2Q14 7 31 27Q64 72 85 93T143 141L387 317Q443 358 476 406T510 545Q510 590 487 627T426 685T344 705Q300 705 240 688Q262 662 262 618Q262 584 244 557T195 530Q164 530 147 550T129 606Q129 652 166 684Q227 745 375 745Q469
745 551 700T633 551Q633 494 601 445T533 367T432 293L231 158Z" />
<glyph unicode="3" glyph-name="three" horiz-adv-x="745" d="M211 145Q176 145 176 172Q176 196 207 203Q323 229 391 269T489 363T518 489Q518 554 487 603T407 679T305 705Q228 705 174 668Q195 637 195 600Q195 566 177 539T127 512Q61 512 61 588Q61 627
98 666Q130 698 184 721T305 745Q442 745 548 678T655 481Q655 411 619 355T517 260T369 207Q433 200 494 172T601 100T675 -1T702 -129Q702 -281 593 -379T305 -477Q216 -477 154 -444T57 -369Q27 -335 27 -289Q27 -255 44 -234T92 -213Q112 -213 127 -224T151
-255T160 -293Q160 -346 119 -360Q146 -393 196 -414T305 -436Q375 -436 428 -411T514 -343T565 -247T582 -129Q582 -73 555 -25T478 62T361 122T211 145Z" />
<glyph unicode="4" glyph-name="four" horiz-adv-x="958" d="M551 0H104Q68 0 68 20Q68 38 82 55L543 688Q563 717 578 731T614 745Q674 745 674 672V88H915Q931 88 944 77T958 47Q958 26 945 13T915 0H674V-410Q674 -477 614 -477Q551 -477 551 -410V0ZM551 88V629L160
88H551Z" />
<glyph unicode="5" glyph-name="five" horiz-adv-x="842" d="M328 246Q429 243 525 202T682 79T743 -117Q743 -216 688 -299T541 -429T346 -477Q168 -477 88 -373Q57 -337 57 -289Q57 -256 75 -235T123 -213Q153 -213 170 -237T188 -293Q188 -347 147 -360Q176
-393 228 -414T346 -436Q438 -436 503 -396T604 -284T639 -117Q639 -56 610 -9T530 72T409 122T256 139Q174 139 174 223L221 666Q229 725 299 725H696Q723 725 741 710T760 666Q760 608 696 608H270L242 330Q241 320 241 304Q241 272 258 260T328 246Z" />
<glyph unicode="6" glyph-name="six" horiz-adv-x="940" d="M573 1270Q401 1270 303 1088T205 567Q205 296 272 155T485 14Q598 14 668 110T739 354Q739 496 673 575T494 655Q425 655 362 627Q348 619 339 619Q330 619 326 627Q324 631 324 634Q324 646 338 655Q367
676 415 693T510 711Q620 711 703 665T832 538T877 354Q877 257 822 170T676 32T485 -20Q406 -20 332 10T198 111T103 294T68 567Q68 718 100 851T197 1090T358 1255T573 1315Q648 1315 719 1288T835 1212T879 1104Q879 1072 862 1049T817 1026Q788 1026 771 1047T754
1098Q754 1122 766 1147T801 1180Q777 1217 712 1243T573 1270Z" />
<glyph unicode="7" glyph-name="seven" horiz-adv-x="766" d="M702 606L104 -455Q91 -477 74 -477Q55 -477 55 -463Q55 -463 58 -451T63 -434L608 608H86Q23 608 23 666Q23 694 41 709T86 725H647Q689 725 707 708T725 666Q725 650 719 637T702 606Z" />
<glyph unicode="8" glyph-name="eight" horiz-adv-x="903" d="M362 666Q314 698 262 733T176 805T124 895T104 1024Q104 1097 151 1163T279 1272T451 1315Q543 1315 623 1279T751 1176T799 1024Q799 918 726 841T551 709Q639 651 678 624T753 559T813 467T836
336Q836 247 784 164T643 30T451 -20Q348 -20 260 18T120 127T68 299Q68 410 148 502T362 666ZM408 639Q180 507 180 299Q180 213 216 149T314 49T451 14Q533 14 590 54T676 159T705 303Q705 362 680 410T616 494T538 556T408 639ZM506 735Q596 791 642 862T688
1038Q688 1146 625 1213T451 1280Q352 1280 296 1210T240 1047Q240 984 256 943T304 871T417 791T506 735Z" />
<glyph unicode="9" glyph-name="nine" horiz-adv-x="948" d="M375 -434Q447 -434 512 -394T625 -275T701 -76T729 205Q729 337 700 452T610 639T457 711Q383 711 334 661T260 538T236 399Q236 256 293 191T455 125Q530 125 586 156Q600 163 608 163Q617 163 623
156Q623 135 610 125Q581 103 532 88T436 72Q332 72 257 115T141 234T100 399Q100 490 149 570T280 697T453 745Q533 745 608 709T740 604T832 435T866 205Q866 68 831 -54T729 -272T571 -422T369 -477Q238 -477 153 -418T68 -274Q68 -237 84 -214T131 -190Q162
-190 178 -213T195 -268Q195 -326 147 -342Q176 -381 240 -407T375 -434Z" />
<glyph unicode=":" glyph-name="colon" horiz-adv-x="492" d="M246 150Q277 150 296 126T315 63Q315 29 296 5T246 -20Q216 -20 196 4T176 63Q176 99 196 124T246 150ZM246 629Q277 629 296 605T315 543Q315 507 296 482T246 457Q216 457 196 482T176 543Q176
577 197 603T246 629Z" />
<glyph unicode=";" glyph-name="semicolon" horiz-adv-x="492" d="M293 35L188 -272Q182 -299 156 -299Q144 -299 136 -290T127 -268Q127 -255 131 -233L180 63Q191 150 248 150Q277 150 291 132T305 82Q305 59 293 35ZM246 629Q277 629 296 605T315 543Q315 507
296 482T246 457Q216 457 196 482T176 543Q176 577 197 603T246 629Z" />
<glyph unicode="&lt;" glyph-name="less" horiz-adv-x="768" d="M-14 -477Q-120 -477 -193 -423T-266 -276Q-266 -241 -251 -218T-209 -195Q-150 -195 -150 -266Q-150 -291 -167 -313T-209 -344Q-191 -393 -132 -419T-14 -446Q58 -446 100 -375T143 -215V600Q143
623 161 639T205 655Q231 655 248 640T266 600V498Q297 563 345 596T469 629Q547 629 603 583T686 464T713 317Q713 230 676 152T574 27T436 -20Q313 -20 266 63V-215Q266 -280 234 -340T138 -439T-14 -477ZM414 14Q463 14 501 54T560 162T582 305Q582 584 428
584Q344 584 302 494T260 276Q260 166 295 90T414 14Z" />
<glyph unicode="=" glyph-name="equal" horiz-adv-x="1067" d="M440 625Q377 659 337 719T297 848Q297 912 332 975T432 1079T584 1120Q690 1120 768 1082T885 979T924 840V608H1092Q1112 608 1112 590Q1112 573 1092 573H924V109Q924 77 955 52T1034 27Q1116
27 1192 78Q1198 82 1206 82Q1219 82 1219 72Q1219 45 1139 14Q1064 -14 977 -14Q900 -14 851 20T801 109V573H678Q653 573 653 590Q653 608 678 608H801V840Q801 906 777 962T704 1051T584 1085Q518 1085 463 1052T377 964T346 848Q346 804 361 766T404 698T461
646T520 602Q594 548 594 502Q594 467 577 442T528 416Q457 416 457 502Q457 545 481 573Q450 594 387 594Q330 594 284 557T211 452T184 301Q184 190 261 107T459 23Q563 23 606 36T700 78Q714 82 713 82Q727 82 727 72Q727 46 645 14Q554 -20 420 -20Q307 -20
225 16T99 123T55 301Q55 373 81 434T152 537T257 604T387 629Q408 629 440 625Z" />
<glyph unicode="&gt;" glyph-name="greater" horiz-adv-x="573" d="M459 596Q443 600 434 600Q372 600 329 540T266 399V41Q266 -14 205 -14Q183 -14 163 -1T143 41V600Q143 623 161 639T205 655Q231 655 248 640T266 600V483Q291 557 339 593T438 629Q485 629
522 599T559 512Q559 476 541 454T496 432Q465 432 448 453T430 512Q430 534 438 557T459 596Z" />
<glyph unicode="?" glyph-name="question" horiz-adv-x="1096" d="M506 150Q537 150 556 126T575 63Q575 29 556 5T506 -20Q476 -20 456 4T436 63Q436 101 456 125T506 150ZM506 328Q426 328 368 374T309 502Q309 570 356 619T485 725Q558 774 607 815T693 925T731
1087Q731 1156 696 1214T599 1306T471 1341Q343 1341 266 1278Q303 1246 303 1200Q303 1164 283 1139T231 1114Q164 1114 164 1196Q164 1241 207 1288T320 1364T471 1393Q572 1393 663 1353T809 1237T864 1061Q864 926 766 838T510 657Q445 620 414 582T383 492Q383
436 414 403T506 369Q539 369 572 383T621 426Q599 438 585 463T571 512Q571 548 592 573T643 598Q675 598 693 574T711 510Q711 447 651 388T506 328Z" />
<glyph unicode="@" glyph-name="at" horiz-adv-x="1014" d="M444 598Q482 572 502 547T522 485Q522 455 507 438T467 420Q440 420 422 440T403 485Q403 538 430 563Q387 594 307 594Q261 594 228 567T195 492Q195 455 213 435T259 402T352 367Q448 336 502 298T557
186Q557 87 480 34T287 -20Q179 -20 110 15T41 127Q41 161 61 183T106 205Q136 205 158 185T180 129Q180 76 145 43Q201 14 287 14Q361 14 405 55T449 152Q449 179 435 197T394 228T334 251T262 274Q181 305 139 338T96 449Q96 496 125 538T203 604T307 629Q326
629 358 625Q244 710 244 848Q244 905 279 969T381 1077T530 1120Q691 1120 779 1040T870 840V608H1038Q1057 608 1057 590Q1057 573 1038 573H870V109Q870 77 901 52T979 27Q1032 27 1074 44T1139 78Q1145 82 1153 82Q1165 82 1165 72Q1165 46 1083 14Q1012 -14
922 -14Q846 -14 797 20T748 109V573H625Q600 573 600 590Q600 608 625 608H748V840Q748 944 693 1014T530 1085Q467 1085 412 1054T325 967T293 848Q293 755 330 704T444 598Z" />
<glyph unicode="A" glyph-name="A" horiz-adv-x="1382" d="M555 436Q365 436 242 361T119 143Q119 20 179 -49T342 -119Q393 -119 431 -97T492 -33T522 74L555 436ZM123 991Q123 1079 177 1172T339 1329T596 1393Q790 1393 919 1320T1109 1138T1178 924L1229 109Q1232
79 1262 57T1339 35Q1380 35 1400 41T1466 66Q1474 69 1490 78T1513 88Q1534 88 1534 72Q1534 48 1452 12Q1382 -14 1268 -14Q1194 -14 1149 19T1100 109L1040 924Q1032 1035 978 1130T823 1282T596 1339Q446 1339 352 1283T215 1146T172 991Q172 840 238 778T400
716Q416 716 424 717Q399 742 399 786Q399 818 418 839T469 860Q502 860 519 837T537 778Q537 730 497 698T399 666Q317 666 255 703T158 814T123 991ZM598 856Q609 960 649 1027T732 1126T813 1174Q841 1186 862 1186Q885 1186 885 1171Q885 1154 842 1135Q684
1062 664 858L625 483H999Q1028 483 1028 459Q1028 436 999 436H621L588 72Q582 13 560 -31T504 -105T428 -149T342 -164Q258 -164 197 -128T102 -23T68 143Q68 235 110 301T224 408T379 466T559 485L598 856Z" />
<glyph unicode="B" glyph-name="B" horiz-adv-x="1667" d="M588 125Q502 173 442 198T313 223Q227 223 172 189T117 113Q117 70 159 45T317 20Q408 20 468 42T588 125ZM1155 666Q1224 661 1299 639T1439 577T1542 482T1581 354Q1581 263 1530 175T1366 30T1083
-27Q962 -27 865 3T645 96Q571 27 503 0T305 -27Q68 -27 68 113Q68 189 147 235T313 281Q419 281 495 264T645 207Q685 266 705 317T737 465L793 965Q803 1041 864 1110T958 1180Q981 1180 981 1161Q981 1150 965 1129T944 1096Q926 1062 916 1035T901 946L860
502Q852 417 815 331T715 174Q830 107 871 84T969 42T1083 23Q1190 23 1270 68T1391 190T1432 354Q1432 409 1402 460T1318 548T1191 607T1034 629Q1001 629 1001 655Q1001 682 1032 682Q1107 682 1164 719T1251 824T1282 983Q1282 1052 1241 1114T1129 1221T958
1292T737 1319Q559 1319 418 1271T197 1134T117 932Q117 800 193 743T365 686Q377 686 381 688Q356 713 356 762Q356 791 377 812T428 834Q456 834 475 809T494 752Q494 702 455 674T358 645Q239 645 154 718T68 932Q68 1023 114 1102T248 1241T461 1333T737 1366Q916
1366 1073 1315T1324 1174T1419 983Q1419 907 1385 841T1289 728T1155 666Z" />
<glyph unicode="C" glyph-name="C" horiz-adv-x="1249" d="M588 852Q601 795 660 758T815 721Q880 721 939 756T1035 859T1073 1014Q1073 1081 1047 1140T973 1245T861 1319T725 1346Q628 1346 538 1299T378 1166T267 956T225 682Q225 505 321 357T575 125T905
41Q1034 41 1115 57T1327 121Q1385 141 1389 141Q1401 141 1401 129Q1401 104 1327 68Q1258 36 1210 19T1081 -13T901 -27Q644 -27 459 64T178 316T82 682Q82 818 126 946T255 1175T459 1334T725 1393Q807 1393 879 1363T1006 1280T1090 1158T1120 1014Q1120 913
1077 835T963 714T815 672Q675 672 595 745T514 936Q514 972 535 996T586 1020Q615 1020 634 1000T653 948Q653 916 635 888T588 852Z" />
<glyph unicode="D" glyph-name="D" horiz-adv-x="1774" d="M588 125Q542 151 496 174T406 210T313 223Q227 223 172 189T117 113Q117 20 317 20Q408 20 468 42T588 125ZM856 502Q827 375 794 307T715 174Q819 113 867 87T972 42T1083 23Q1188 23 1275 65T1424
180T1519 343T1552 530Q1552 720 1480 868T1286 1109T1014 1249L866 549Q952 549 1017 591T1118 699T1155 834Q1155 846 1151 850Q1124 827 1083 827Q1055 827 1031 846T1006 895Q1006 925 1027 944T1085 963Q1134 963 1168 927T1202 831Q1202 753 1160 676T1040
551T856 502ZM743 506Q663 515 588 542T447 617T343 730T305 877Q305 993 370 1094T557 1256T844 1317Q891 1317 915 1315Q926 1364 958 1415T1027 1498T1081 1530Q1104 1530 1104 1511Q1104 1500 1088 1479T1067 1446Q1043 1401 1024 1294Q1155 1261 1275 1196T1489
1036T1637 812T1692 530Q1692 422 1654 323T1541 146T1348 20T1083 -27Q998 -27 923 -12T783 30T645 96Q595 49 551 24T450 -14T305 -27Q200 -27 134 7T68 113Q68 186 148 233T313 281Q497 281 645 207Q677 255 697 317T743 506ZM756 551L905 1268Q865 1272 842
1272Q696 1272 584 1220T411 1079T350 877Q350 776 412 707T566 600T756 551Z" />
<glyph unicode="E" glyph-name="E" horiz-adv-x="1120" d="M352 758Q293 803 246 874T199 1040Q199 1134 251 1215T399 1344T621 1393Q711 1393 784 1359T898 1266T938 1135Q938 1084 914 1040T849 969T764 942Q676 942 617 996T557 1139Q557 1176 578 1204T629
1233Q659 1233 677 1210T696 1159Q696 1123 676 1096T616 1065Q630 1031 669 1004T764 977Q800 977 829 997T875 1052T893 1130Q893 1190 861 1239T766 1317T621 1346Q490 1346 416 1255T342 1040Q342 895 428 803Q473 826 530 843T641 860Q702 860 755 831T809
750Q809 715 783 690T717 652T641 639Q513 639 387 729Q320 679 273 591T225 399Q225 277 288 191T450 62T664 20Q749 20 828 61T956 169T1004 305Q1004 399 941 463T784 528Q707 528 655 496T575 416Q601 408 620 382T639 322Q639 292 621 271T573 250Q543 250
522 275T500 334Q500 385 535 441T635 534T784 571Q857 571 919 537T1017 441T1053 305Q1053 242 1022 182T936 75T810 1T657 -27Q392 -27 237 84T82 399Q82 477 125 548T230 673T352 758ZM455 772Q536 678 641 678Q692 678 730 696T768 750Q768 781 733 801T641
821Q595 821 544 808T455 772Z" />
<glyph unicode="F" glyph-name="F" horiz-adv-x="1059" d="M774 559L795 301Q796 289 796 262Q796 192 776 116T711 -22T590 -124T410 -164Q311 -164 233 -123T112 -4T68 182Q68 276 111 350T224 465T365 506Q422 506 461 476T500 397Q500 367 481 341T434 315Q403
315 384 336T365 387Q365 442 387 461Q383 463 373 463Q314 463 256 434T159 342T119 182Q119 44 194 -36T410 -117Q497 -117 555 -61T641 81T668 256Q668 273 666 301L643 559Q539 561 442 575T258 629T120 748T68 946Q68 1095 129 1189T281 1325T467 1366Q472
1366 489 1364T521 1360T545 1356L983 1262Q1037 1253 1069 1253Q1125 1253 1161 1269T1266 1346Q1282 1362 1292 1362Q1305 1362 1305 1350Q1305 1332 1276 1303Q1133 1147 1028 1147Q1015 1147 973 1153L500 1243Q469 1249 440 1249Q357 1249 285 1222T166 1127T119
946Q119 837 164 769T285 667T444 621T639 608L625 799Q624 809 624 829Q624 905 651 969T715 1072T774 1112Q791 1112 791 1096Q791 1091 788 1082T780 1063Q776 1054 770 1038T760 1010T753 971T749 902Q749 850 754 799L770 608H1028Q1039 608 1048 602T1057
584Q1057 559 1028 559H774Z" />
<glyph unicode="G" glyph-name="G" horiz-adv-x="1225" d="M465 -287Q492 -356 572 -393T723 -430Q800 -430 860 -385T951 -269T983 -123V207Q948 144 865 100T694 55Q561 55 447 100T252 231T126 439T82 711Q82 894 161 1050T387 1300T729 1393Q812 1393 887
1364T1020 1283T1110 1162T1143 1014Q1143 919 1099 843T984 724T838 680Q698 680 618 751T537 932Q537 967 557 993T606 1020Q637 1020 656 1001T676 948Q676 917 659 887T610 852Q632 793 690 760T838 727Q898 727 957 762T1055 862T1094 1014Q1094 1106 1046
1182T914 1302T729 1346Q637 1346 549 1303T386 1177T269 974T225 711Q225 545 284 406T449 188T694 109Q787 109 861 154T975 285Q1010 355 1025 379T1065 403Q1114 403 1114 346V-123Q1114 -214 1066 -295T930 -427T723 -477Q643 -477 565 -447T436 -356T385
-211Q385 -171 407 -145T457 -119Q488 -119 507 -139T526 -190Q526 -222 511 -249T465 -287Z" />
<glyph unicode="H" glyph-name="H" horiz-adv-x="1720" d="M657 629V1202Q657 1240 646 1274T612 1328T555 1348Q495 1348 448 1324T367 1256T318 1152T301 1024Q301 893 334 810T446 682T657 629ZM387 461Q376 465 358 465Q310 465 254 435T158 340T119 182Q119
42 196 -37T410 -117Q505 -117 560 -49T636 114T657 301V580Q448 589 351 695T254 1024Q254 1126 290 1210T399 1344T571 1393Q674 1393 731 1339T788 1202V629H1325Q1336 629 1345 623T1354 604Q1354 593 1345 587T1325 580H788V301Q788 200 756 95T639 -87T410
-164Q306 -164 230 -123T111 -3T68 182Q68 278 112 353T226 469T365 510Q422 510 461 479T500 397Q500 365 481 340T434 315Q402 315 384 335T365 387Q365 442 387 461ZM1563 109Q1563 78 1593 57T1673 35Q1714 35 1735 41T1800 66Q1808 69 1824 78T1847 88Q1866
88 1866 72Q1866 57 1847 45T1786 12Q1716 -14 1602 -14Q1528 -14 1481 20T1434 109V1079Q1434 1163 1460 1244T1523 1380T1583 1434Q1599 1434 1599 1419Q1599 1415 1594 1403T1587 1384Q1573 1347 1568 1281T1563 1079V109Z" />
<glyph unicode="I" glyph-name="I" horiz-adv-x="932" d="M795 301Q795 192 762 88T643 -90T410 -164Q307 -164 230 -122T111 0T68 182Q68 275 112 349T226 463T365 504Q424 504 462 476T500 397Q500 365 481 340T434 315Q402 315 384 335T365 387Q365 442 387
461Q287 461 203 387T119 182Q119 95 152 27T251 -79T410 -117Q548 -117 607 8T666 301V1202Q666 1263 633 1302T541 1341Q482 1341 430 1302T346 1192T313 1032Q314 874 382 782T588 641Q609 633 616 628T623 612Q623 603 616 597T600 590Q580 590 573 592Q459
633 392 692T294 835T264 1032Q264 1136 302 1219T407 1347T557 1393Q676 1393 735 1340T795 1202V301Z" />
<glyph unicode="J" glyph-name="J" horiz-adv-x="938" d="M666 606V1202Q666 1263 633 1305T543 1348Q483 1348 431 1304T348 1180T317 1004Q317 817 403 712T666 606ZM795 -14Q795 -193 709 -335T410 -477Q252 -477 160 -389T68 -131Q68 -36 112 37T225 150T365
190Q422 190 461 162T500 84Q500 52 481 27T434 2Q403 2 384 22T365 74Q365 128 387 147Q287 147 203 74T119 -131Q119 -269 194 -349T410 -430Q547 -430 606 -303T666 -14V559Q531 559 439 614T301 769T256 1004Q256 1078 277 1150T337 1277T428 1362T543 1393Q627
1393 683 1368T767 1299T795 1202V606H938Q967 606 967 584Q967 559 938 559H795V-14Z" />
<glyph unicode="K" glyph-name="K" horiz-adv-x="1690" d="M795 436Q795 328 762 224T643 46T410 -27Q304 -27 227 11T109 123T68 301Q68 394 112 462T224 565T365 600Q424 600 462 572T500 494Q500 463 482 438T434 412Q402 412 384 432T365 483Q365 531 387
557Q283 557 201 492T119 301Q119 172 196 96T410 20Q505 20 562 84T642 245T666 436V1202Q666 1241 651 1273T608 1324T541 1343Q481 1343 428 1305T341 1200T307 1053Q307 945 338 877T430 769T588 707Q604 702 612 697T621 678Q621 667 612 659T596 651Q582
651 573 653Q401 685 327 784T252 1053Q252 1147 293 1224T405 1347T557 1393Q676 1393 735 1340T795 1202V436ZM991 670Q1042 655 1084 633T1162 579T1217 516L1487 84Q1514 39 1559 2T1656 -56T1757 -78Q1825 -78 1852 -72T1923 -49Q1941 -42 1965 -29T1995 -16Q2009
-16 2009 -31Q2009 -40 1986 -57T1929 -92Q1833 -141 1743 -141Q1451 -141 1331 72L1124 434Q1067 536 996 585T852 635Q823 635 823 662Q823 690 852 690Q1015 690 1079 823L1245 1178Q1303 1300 1371 1346T1538 1393Q1574 1393 1607 1379T1658 1340T1677 1280Q1677
1246 1659 1222T1612 1198Q1580 1198 1561 1218T1542 1270Q1542 1318 1565 1343Q1554 1344 1533 1344Q1462 1344 1416 1309T1323 1184L1126 795Q1101 746 1065 713T991 670Z" />
<glyph unicode="L" glyph-name="L" horiz-adv-x="1333" d="M426 449L471 930Q488 1115 571 1254T856 1393Q963 1393 1040 1350T1157 1229T1198 1047Q1198 960 1153 885T1040 767T901 725Q841 725 804 753T766 831Q766 863 785 888T831 913Q862 913 881 894T901
842Q901 790 879 768Q940 768 1003 799T1106 895T1147 1047Q1147 1138 1114 1205T1016 1309T856 1346Q729 1346 677 1228T600 930L543 440Q534 369 497 301T416 188T348 143Q326 143 326 158Q326 174 340 188Q361 209 377 234T405 312T426 449ZM1053 8H1108Q1221
8 1277 18T1417 70Q1433 78 1446 86T1468 98T1483 102Q1497 102 1497 88Q1497 77 1479 64T1425 29Q1332 -31 1243 -70T1053 -109Q1001 -109 987 -106L379 -6Q337 0 324 0Q226 0 191 -16T106 -92Q89 -109 82 -109Q68 -109 68 -92Q68 -81 98 -41Q121 -10 140 12T187
58T254 96T334 111Q340 111 347 110T364 108T383 104L987 14Q1020 8 1053 8Z" />
<glyph unicode="M" glyph-name="M" horiz-adv-x="2073" d="M119 147Q119 65 153 5T247 -87T375 -119Q485 -119 552 -55T625 119L662 856Q667 949 693 1003T754 1100Q780 1126 805 1126Q821 1126 821 1114Q821 1108 791 1063Q761 1010 748 976T729 858L688 119Q683
36 641 -28T529 -128T375 -164Q288 -164 218 -127T108 -18T68 147Q68 247 108 319T218 428T379 465Q416 465 448 452T498 413T516 354Q516 321 497 297T449 272Q418 272 399 293T379 346Q379 392 401 416Q379 418 366 418Q265 418 192 353T119 147ZM1872 1200L1921
109Q1923 79 1953 57T2032 35Q2073 35 2094 41T2159 66Q2169 71 2177 76T2193 84T2206 88Q2226 88 2226 72Q2226 48 2144 12Q2074 -14 1960 -14Q1886 -14 1841 20T1792 109L1747 1174Q1743 1235 1702 1235Q1665 1235 1655 1192L1395 252Q1386 215 1357 180T1276
145Q1223 145 1187 173T1139 256L987 924Q972 992 942 1064T862 1199T739 1300T569 1339Q449 1339 355 1295T207 1172T154 995Q154 719 395 719Q373 744 373 786Q373 816 392 838T442 860Q472 860 491 836T510 778Q510 731 472 703T375 674Q291 674 230 711T137
821T104 995Q104 1078 141 1151T243 1279T392 1363T569 1393Q713 1393 813 1348T976 1232T1073 1080T1124 924L1270 256Q1276 227 1300 227Q1326 227 1335 258L1599 1217Q1632 1337 1739 1337Q1868 1337 1872 1200Z" />
<glyph unicode="N" glyph-name="N" horiz-adv-x="1954" d="M1778 1268Q1753 1213 1753 1124V88Q1753 42 1728 8T1636 -27Q1580 -27 1543 -3T1464 88L944 950Q843 1118 740 1228T502 1339Q361 1339 276 1285T155 1155T119 1006Q119 845 183 782T342 719H358Q338
742 338 786Q338 818 357 839T408 860Q437 860 456 836T475 778Q475 731 436 703T338 674Q263 674 201 714T104 830T68 1006Q68 1116 123 1204T284 1342T522 1393Q642 1393 734 1350T892 1242T997 1117T1096 958L1610 92Q1629 57 1657 57Q1688 57 1688 88V1124Q1688
1189 1706 1253T1758 1355T1831 1393Q1865 1393 1887 1374T1909 1327Q1909 1295 1886 1273T1831 1251Q1804 1251 1778 1268ZM782 1026V139Q782 51 742 -18T631 -125T471 -164Q339 -164 252 -81T164 147Q164 240 206 312T318 423T475 461Q533 461 571 432T610 354Q610
320 592 296T545 272Q514 272 495 293T475 346Q475 393 498 416Q490 417 484 417T467 418Q371 418 293 350T215 147Q215 61 250 1T345 -89T471 -119Q582 -119 648 -49T715 137V1026Q715 1087 750 1087Q782 1087 782 1026Z" />
<glyph unicode="O" glyph-name="O" horiz-adv-x="1397" d="M698 -27Q551 -27 435 33T239 196T121 425T82 682Q82 893 161 1048T364 1284T610 1366Q655 1366 655 1341Q655 1315 604 1315Q533 1315 465 1267T341 1131T252 928T219 682Q219 502 285 349T463 107T698
18Q821 18 932 107T1111 349T1178 682Q1178 812 1147 915T1062 1090T939 1197T795 1233Q707 1233 641 1189T535 1080T475 938T455 799Q455 656 485 558T574 413T713 365Q725 365 735 367T745 369Q721 393 721 438Q721 468 741 491T791 514Q821 514 839 493T858
436Q858 388 820 354T713 319Q621 319 553 371T446 532T408 799Q408 906 441 996T530 1150T655 1246T795 1278Q911 1278 1007 1232T1172 1104T1278 912T1315 682Q1315 551 1275 424T1158 195T963 34T698 -27Z" />
<glyph unicode="P" glyph-name="P" horiz-adv-x="1352" d="M844 885L862 301Q862 220 839 139T768 -10T639 -121T449 -164Q274 -164 171 -73T68 182Q68 275 110 349T220 464T358 504Q417 504 455 476T494 397Q494 365 475 340T428 315Q397 315 377 335T356 387Q356
440 381 461Q377 463 367 463Q313 463 255 432T158 337T119 182Q119 46 207 -35T449 -117Q520 -117 574 -80T664 19T716 154T733 301L713 885Q713 970 740 1042T803 1157T862 1200Q879 1200 879 1184Q879 1181 878 1176T873 1163T868 1149Q863 1137 861 1129T853
1100T845 1046T842 964Q842 945 844 885ZM954 479Q943 479 933 486T922 508Q922 535 954 535Q1039 535 1114 576T1235 700T1282 901Q1282 1036 1211 1130T1015 1271T737 1319Q558 1319 418 1271T198 1134T119 932Q119 800 193 743T365 686Q377 686 381 688Q356
713 356 762Q356 796 377 815T428 834Q456 834 475 809T494 752Q494 702 455 674T358 645Q283 645 217 675T110 771T68 932Q68 1026 114 1106T247 1245T458 1334T737 1366Q881 1366 1001 1341T1215 1261T1364 1116T1419 901Q1419 769 1357 674T1188 529T954 479Z"
/>
<glyph unicode="Q" glyph-name="Q" horiz-adv-x="1561" d="M1303 139L1516 -8Q1762 -180 1878 -180Q1991 -180 2040 -168Q2059 -164 2084 -154T2114 -143Q2128 -143 2128 -160Q2128 -177 2046 -219Q1946 -270 1860 -270Q1780 -270 1713 -254T1576 -200T1415 -96L1219
49Q1105 -55 955 -112T623 -170Q503 -170 367 -125T136 12T41 236Q41 340 106 417T256 524Q246 596 246 655Q246 786 285 912T402 1142T598 1305T864 1366Q1012 1366 1129 1309T1323 1154T1439 926T1479 655Q1479 515 1432 379T1303 139ZM983 225L831 338Q753 399
646 452T457 506Q435 506 393 502Q412 374 461 285T581 151T737 106Q878 106 983 225ZM1221 197Q1277 286 1309 411T1341 655Q1341 799 1306 920T1208 1131T1058 1270T864 1319Q719 1319 610 1233T442 995T383 655Q383 592 385 563Q424 567 444 567Q561 567 683
526T897 420L1040 322Q1070 380 1088 453T1106 608Q1106 757 1037 866T862 975Q846 975 831 969Q856 944 856 901Q856 871 836 847T786 823Q757 823 738 845T719 903Q719 951 756 984T862 1018Q944 1018 1010 966T1115 821T1153 608Q1153 428 1079 295L1221 197ZM1155
96L1018 201Q978 156 931 125T834 76T737 59Q615 59 519 110T360 254T266 469Q88 391 88 236Q88 121 173 40T384 -82T623 -123Q737 -123 838 -96T1017 -20T1155 96Z" />
<glyph unicode="R" glyph-name="R" horiz-adv-x="1776" d="M844 885L862 301Q862 220 839 139T768 -10T639 -121T449 -164Q335 -164 249 -121T115 1T68 182Q68 276 112 350T223 465T358 506Q415 506 454 477T494 397Q494 365 475 340T428 315Q397 315 377 335T356
387Q356 436 381 461Q377 463 367 463Q313 463 255 432T158 337T119 182Q119 46 207 -35T449 -117Q520 -117 574 -80T664 19T716 154T733 301L713 885Q713 970 740 1042T803 1157T862 1200Q879 1200 879 1184Q879 1181 878 1176T873 1163T868 1149Q863 1137 861
1129T853 1100T845 1046T842 964Q842 945 844 885ZM1069 582Q1129 561 1189 518T1282 434L1573 84Q1705 -78 1843 -78Q1911 -78 1938 -72T2009 -49Q2027 -42 2051 -29T2081 -16Q2093 -16 2097 -31Q2097 -40 2073 -57T2015 -92Q1919 -141 1829 -141Q1723 -141 1613
-104T1409 59L1198 350Q1051 551 924 551Q895 551 895 578Q895 606 924 606Q1010 608 1092 645T1228 757T1282 942Q1282 1120 1133 1219T737 1319Q558 1319 418 1271T198 1134T119 932Q119 800 193 743T365 686Q377 686 381 688Q356 723 356 762Q356 796 377 815T428
834Q456 834 475 809T494 752Q494 702 455 673T358 643Q307 643 255 661T160 716T92 808T68 932Q68 1025 118 1106T257 1244T469 1334T737 1366Q931 1366 1085 1321T1329 1180T1419 942Q1419 847 1366 770T1231 645T1069 582Z" />
<glyph unicode="S" glyph-name="S" horiz-adv-x="1364" d="M895 864Q928 943 952 1030T977 1161Q977 1227 932 1278T805 1329Q738 1329 696 1274T653 1147Q653 1000 807 913L895 864ZM537 41Q466 -66 449 -90Q354 -217 219 -217Q158 -217 100 -178T41 -68Q41 -20
67 9T131 39Q155 39 172 22T190 -23Q190 -52 173 -80T121 -121Q151 -170 219 -170Q259 -170 296 -155T363 -115T416 -59Q463 10 496 68Q365 153 365 317Q365 415 414 485T540 592T690 629Q742 629 786 614Q798 637 820 685T856 762L756 821Q660 880 609 961T557
1147Q557 1208 590 1265T681 1357T805 1393Q883 1393 938 1359T1020 1268T1047 1147Q1047 1095 1023 1027T946 836L1059 770Q1118 737 1169 692T1257 582T1294 436Q1294 303 1220 196T1026 31T778 -27Q649 -27 537 41ZM522 111Q591 227 647 332T768 571Q729 584
686 584Q619 584 556 550T452 454T412 317Q412 255 442 200T522 111ZM563 84Q679 20 778 20Q861 20 933 51T1057 136T1136 258T1163 401Q1163 487 1119 554T979 682L899 735Q884 699 866 660T836 596Q893 572 934 515T975 403Q975 366 951 337T895 307Q864 307
845 326T825 379Q825 407 844 436T899 475Q864 532 817 555Q708 324 563 84Z" />
<glyph unicode="T" glyph-name="T" horiz-adv-x="1061" d="M987 1262Q1041 1253 1071 1253Q1128 1253 1164 1270T1268 1346Q1287 1362 1296 1362Q1307 1362 1307 1350Q1307 1332 1278 1303Q1135 1147 1030 1147Q1009 1147 979 1153L500 1243Q469 1249 440 1249Q356
1249 285 1224T166 1137T119 973Q119 881 159 816T259 720T375 688H387Q365 710 365 762Q365 796 384 815T434 834Q462 834 481 809T500 752Q500 702 461 674T365 645Q295 645 226 686T112 803T68 973Q68 1105 125 1193T272 1324T455 1366Q474 1366 522 1360L987
1262ZM854 745L868 301Q868 220 845 139T774 -10T646 -121T457 -164Q281 -164 175 -72T68 182Q68 275 112 349T226 463T365 504Q424 504 462 476T500 397Q500 365 481 340T434 315Q402 315 384 335T365 387Q365 442 387 461Q383 463 375 463Q319 463 259 432T159
336T119 182Q119 45 210 -36T457 -117Q597 -117 668 -2T739 280V301L725 745Q725 808 741 867T782 970T832 1037T874 1061Q891 1061 891 1044Q891 1045 881 1010Q879 1003 873 988T862 944T855 890T853 809Q853 768 854 745Z" />
<glyph unicode="U" glyph-name="U" horiz-adv-x="1700" d="M1509 369Q1552 435 1592 539T1661 777T1690 1038Q1690 1168 1662 1254T1585 1341Q1509 1341 1509 1178V369ZM410 1341Q264 1341 192 1238T119 1006Q119 851 185 785T342 719H358Q338 742 338 786Q338
818 357 839T408 860Q437 860 456 836T475 778Q475 731 436 703T338 674Q221 674 145 764T68 1006Q68 1107 111 1196T236 1339T426 1393Q522 1393 602 1359T729 1262T776 1112V272Q776 169 846 118T1012 66Q1131 66 1215 113T1380 260V1171Q1380 1268 1430 1330T1571
1393Q1664 1393 1703 1292T1743 1038Q1743 857 1682 646T1509 285V109Q1509 79 1539 58T1620 37Q1698 37 1778 76Q1821 94 1827 94Q1845 94 1845 78Q1845 51 1765 20Q1674 -14 1548 -14Q1470 -14 1425 18T1380 109V188Q1192 -27 987 -27Q895 -27 818 8T693 112T645
272V1112Q645 1186 610 1238T521 1315T410 1341Z" />
<glyph unicode="V" glyph-name="V" horiz-adv-x="1698" d="M1407 762L1528 1077Q1573 1193 1573 1245Q1573 1284 1547 1312T1470 1341Q1399 1341 1357 1231T1315 1008Q1315 878 1407 762ZM1427 655L1233 139Q1200 50 1174 12T1081 -27Q1036 -27 1008 -5T962 55T924
164L645 1112Q614 1223 553 1282T410 1341Q264 1341 192 1238T119 1006Q119 851 185 785T342 719H358Q338 742 338 786Q338 818 357 839T408 860Q437 860 456 836T475 778Q475 731 436 703T338 674Q221 674 145 764T68 1006Q68 1107 111 1196T236 1339T426 1393Q696
1393 776 1112L1053 145Q1064 101 1068 86T1080 60T1104 49Q1123 49 1134 64T1159 111L1382 696Q1321 764 1289 847T1257 1008Q1257 1110 1283 1198T1358 1339T1473 1393Q1548 1393 1590 1351T1632 1249Q1632 1206 1619 1163T1585 1065L1452 715Q1562 608 1696
608Q1724 608 1724 584Q1724 559 1696 559Q1547 559 1427 655Z" />
<glyph unicode="W" glyph-name="W" horiz-adv-x="2322" d="M2048 750L2154 1077Q2193 1195 2193 1257Q2193 1289 2171 1315T2107 1341Q2025 1341 1982 1233T1939 1008Q1939 874 2048 750ZM2028 688Q1965 753 1924 837T1882 1008Q1882 1112 1909 1199T1988 1340T2109
1393Q2175 1393 2215 1353T2255 1260Q2255 1204 2210 1065L2095 705Q2197 608 2322 608Q2351 608 2351 584Q2351 559 2322 559Q2194 559 2079 647L1917 141Q1893 63 1860 18T1757 -27Q1701 -27 1673 -4T1634 58T1614 164L1450 1221Q1442 1280 1435 1298T1401 1317Q1368
1317 1358 1255L1137 139Q1122 62 1095 18T999 -27Q933 -27 898 21T842 164L645 1112Q631 1186 596 1238T513 1315T410 1341Q264 1341 192 1238T119 1006Q119 851 185 785T342 719H358Q338 742 338 786Q338 818 357 839T408 860Q437 860 456 836T475 778Q475 731
436 703T338 674Q221 674 145 764T68 1006Q68 1107 111 1196T236 1339T426 1393Q719 1393 776 1112L971 145Q980 91 989 70T1022 49Q1042 49 1048 62T1063 111L1284 1227Q1301 1312 1325 1352T1427 1393Q1499 1393 1532 1344T1579 1202L1741 131Q1748 89 1757 69T1790
49Q1809 49 1819 64T1839 109L2028 688Z" />
<glyph unicode="X" glyph-name="X" horiz-adv-x="1776" d="M965 465Q928 307 855 197T681 30T465 -27Q372 -27 291 13T159 127T109 293Q109 433 200 527T406 621Q478 621 509 587T541 514Q541 484 523 459T471 434Q441 434 422 457T403 508Q403 521 411 546T428
580Q313 580 238 494T162 289Q162 213 202 151T314 53T467 18Q604 18 708 117T867 383T922 750Q922 950 852 1084T674 1279T453 1341Q366 1341 300 1300T198 1194T162 1061Q162 932 232 860T412 788Q401 799 394 822T387 860Q387 888 406 911T455 934Q489 934 506
911T524 854Q524 815 492 780T389 745Q275 745 192 830T109 1057Q109 1143 157 1220T293 1345T492 1393Q683 1393 829 1292T1036 1014Q1063 1124 1123 1210T1270 1344T1458 1393Q1550 1393 1628 1353T1753 1240T1800 1073Q1800 984 1757 907T1645 788T1503 745Q1432
745 1400 779T1368 852Q1368 884 1386 908T1438 932Q1469 932 1487 910T1505 858Q1505 841 1498 820T1481 786Q1554 786 1615 826T1712 933T1747 1077Q1747 1154 1709 1216T1599 1313T1442 1348Q1337 1348 1251 1270T1115 1059T1065 770Q1065 588 1119 447T1265
214T1471 79T1704 35Q1790 35 1862 66Q1872 71 1880 76T1896 84T1909 88Q1927 88 1927 72Q1927 57 1908 45T1847 12Q1777 -14 1634 -14Q1474 -14 1338 47T1106 216T965 465Z" />
<glyph unicode="Y" glyph-name="Y" horiz-adv-x="1479" d="M1239 510L1219 33Q1215 -48 1192 -132T1116 -296T972 -426T750 -477Q612 -477 512 -426T360 -285T307 -88Q307 9 351 82T463 194T602 233Q662 233 700 205T739 127Q739 93 720 69T672 45Q640 45 621
65T602 117Q602 170 627 190Q562 190 500 159T397 65T356 -88Q356 -235 455 -332T750 -430Q871 -430 945 -356T1052 -175T1090 33L1106 434Q1054 395 976 372T838 348Q702 348 619 418T522 608L469 1202Q454 1341 344 1341Q285 1341 233 1301T149 1191T117 1032Q117
877 183 787T387 639Q422 628 422 612Q422 592 403 592Q387 592 371 600Q263 641 197 699T99 837T68 1032Q68 1136 106 1219T211 1347T360 1393Q476 1393 533 1341T598 1202L653 608Q662 521 718 467T862 412Q923 412 995 436T1108 494L1139 1176Q1142 1268 1185
1330T1317 1393Q1393 1393 1438 1346T1502 1217T1520 1028Q1520 879 1443 741T1239 510ZM1241 573Q1310 629 1359 699T1436 855T1464 1032Q1464 1162 1435 1255T1352 1348Q1302 1348 1287 1303T1268 1176L1241 573Z" />
<glyph unicode="Z" glyph-name="Z" horiz-adv-x="1800" d="M1087 752H1311Q1334 752 1351 743T1368 715Q1368 668 1317 668H1018L705 254L1114 43Q1134 34 1163 19T1229 -12T1301 -34T1366 -41Q1452 -41 1515 -4T1610 97T1642 238Q1642 315 1604 374T1500 465T1366
498Q1257 498 1192 432T1126 254Q1148 274 1190 274Q1221 274 1243 257T1266 209Q1266 180 1240 159T1184 137Q1133 137 1103 174T1073 270Q1073 343 1111 407T1216 509T1366 547Q1460 547 1535 503T1651 387T1692 238Q1692 129 1640 45T1495 -86T1292 -133Q1237
-133 1182 -116T1068 -71T913 10L633 158Q484 -27 295 -27Q200 -27 134 17T68 158Q68 214 109 264T216 345T352 375Q416 375 487 351T653 279L944 668H715Q683 668 666 677T649 711Q649 752 709 752H1012L1331 1151Q1321 1149 1298 1149Q1269 1149 1227 1155L725
1243Q690 1249 659 1249Q574 1249 528 1237T461 1205T418 1147Q389 1097 381 1083T360 1069Q342 1069 342 1085Q342 1095 399 1196Q442 1273 497 1319T659 1366Q709 1366 725 1364L1243 1268Q1291 1260 1309 1260Q1363 1260 1391 1267T1434 1286T1499 1348Q1513
1366 1530 1366Q1552 1366 1552 1343Q1552 1327 1536 1307L1087 752ZM586 184Q506 228 429 257T281 287Q217 287 166 250T115 150Q115 88 167 54T295 20Q386 20 452 60T586 184Z" />
<glyph unicode="[" glyph-name="bracketleft" horiz-adv-x="848" d="M397 -416H641Q651 -416 657 -422T664 -436Q664 -457 641 -457H324Q274 -457 274 -401V1311Q274 1366 324 1366H641Q664 1366 664 1346Q664 1338 657 1332T641 1325H397V-416Z" />
<glyph unicode="\" glyph-name="backslash" horiz-adv-x="809" d="M649 -317L102 1188Q96 1200 96 1210Q96 1223 105 1232T125 1241Q150 1241 160 1214L711 -303Q712 -307 712 -311T713 -324Q713 -336 704 -344T684 -352Q662 -352 649 -317Z" />
<glyph unicode="]" glyph-name="bracketright" horiz-adv-x="848" d="M451 -416V1325H205Q199 1325 192 1331T184 1346Q184 1354 191 1360T205 1366H522Q573 1366 573 1311V-401Q573 -457 522 -457H205Q197 -457 191 -452T184 -436Q184 -429 190 -423T205 -416H451Z" />
<glyph unicode="^" glyph-name="asciicircum" horiz-adv-x="1866" d="M1763 270Q1763 344 1722 383T1626 436Q1642 416 1642 391Q1642 356 1622 335T1571 313Q1539 313 1518 336T1497 389Q1497 424 1527 448T1599 473Q1642 473 1689 446T1767 372T1798 270Q1798
164 1751 89T1624 -25T1454 -63Q1392 -63 1332 -50T1167 -8T994 35T860 49Q785 49 727 34T598 -16Q595 -18 588 -18Q567 -18 567 0V461Q567 492 552 520T507 565T438 582Q307 582 266 399V41Q266 -14 205 -14Q183 -14 163 -1T143 41V600Q143 623 161 639T205 655Q231
655 248 640T266 600V494Q334 629 479 629Q525 629 575 611T658 553T692 461V59Q780 106 930 106Q1011 106 1112 86T1316 44T1497 23Q1597 23 1679 86T1763 270Z" />
<glyph unicode="_" glyph-name="underscore" horiz-adv-x="1024" d="M0 -391V-272H1024V-391H0Z" />
<glyph unicode="`" glyph-name="grave" horiz-adv-x="668" d="M184 852Q137 871 137 913Q137 931 150 946T188 961Q203 961 213 957T240 942L506 772Q530 756 530 743Q530 725 510 725Q506 725 485 731L184 852Z" />
<glyph unicode="a" glyph-name="a" horiz-adv-x="766" d="M498 600Q498 623 516 639T559 655Q586 655 603 640T621 600V109Q621 78 652 53T731 27Q784 27 826 44T891 78Q897 82 905 82Q918 82 918 72Q918 46 836 14Q765 -14 674 -14Q599 -14 549 20T498 109Q476
46 421 13T285 -20Q207 -20 156 28T80 150T55 301Q55 383 92 460T192 583T330 629Q458 629 498 541V600ZM352 592Q277 592 231 508T184 301Q184 183 217 105T338 27Q427 27 466 112T506 332Q506 445 472 518T352 592Z" />
<glyph unicode="b" glyph-name="b" horiz-adv-x="803" d="M625 573Q654 552 676 517T711 432T725 328Q725 244 692 164T590 32T424 -20Q253 -20 198 98T143 395V1202Q143 1283 195 1338T344 1393Q404 1393 448 1364T517 1286T541 1180Q541 1058 468 952T266 780V272Q266
14 424 14Q478 14 516 54T574 165T594 328Q594 372 578 431T530 531T453 573H369Q344 573 344 590Q344 608 369 608H768Q791 608 791 590Q791 573 768 573H625ZM266 819Q323 852 374 903T459 1022T492 1176Q492 1225 477 1266T432 1331T360 1356Q266 1356 266 1202V819Z"
/>
<glyph unicode="c" glyph-name="c" horiz-adv-x="614" d="M184 301Q184 229 221 165T328 62T485 23Q585 23 641 38T739 78Q751 82 754 82Q766 82 766 72Q766 46 684 14Q654 2 584 -9T449 -20Q330 -20 242 15T104 122T55 301Q55 393 98 468T213 586T373 629Q469
629 515 592T561 502Q561 467 544 442T496 416Q422 416 422 502Q422 545 451 578Q417 594 373 594Q317 594 275 556T208 451T184 301Z" />
<glyph unicode="d" glyph-name="d" horiz-adv-x="752" d="M397 616Q397 593 369 588Q304 574 262 523T202 409T184 301Q184 206 204 142T262 46T354 14Q418 14 454 65T508 238T526 584Q457 590 397 616ZM377 629Q312 658 259 726T175 883T145 1061Q145 1157 172
1232T254 1350T383 1393Q465 1393 522 1333T614 1098T649 608H772Q793 608 793 590Q793 584 787 579T772 573H649Q649 437 637 330T595 146T505 25T354 -20Q205 -20 130 70T55 301Q55 375 96 452T211 579T377 629ZM526 616Q526 1043 473 1180T346 1317Q275 1317
234 1249T193 1061Q193 891 284 764T526 616Z" />
<glyph unicode="e" glyph-name="e" horiz-adv-x="573" d="M184 307Q309 320 373 360T438 479Q438 535 413 564T346 594Q299 594 262 559T205 459T184 307ZM184 281Q184 219 218 160T317 63T463 25Q509 25 537 27T596 38T653 58T698 80Q709 86 715 86Q727 86 727
76Q727 50 645 18Q558 -20 416 -20Q242 -20 149 62T55 301Q55 356 76 415T136 522T229 599T346 629Q433 629 488 590T543 481Q543 411 496 368T372 306T184 281Z" />
<glyph unicode="f" glyph-name="f" horiz-adv-x="410" d="M145 106V573H-47Q-70 573 -70 590Q-70 608 -47 608H145V1202Q145 1283 203 1338T338 1393Q393 1393 449 1378T542 1329T580 1245Q580 1210 561 1189T514 1167Q484 1167 465 1189T446 1245Q446 1292 477
1327Q431 1358 377 1358Q319 1358 294 1312T268 1202V608H492Q512 608 512 592Q512 573 492 573H268V-276Q268 -325 245 -372T176 -448T66 -477Q-25 -477 -78 -422T-131 -264Q-131 -168 -54 -61T145 106ZM145 68Q53 11 -11 -76T-76 -260Q-76 -341 -44 -390T51 -440Q102
-440 123 -398T145 -281V68Z" />
<glyph unicode="g" glyph-name="g" horiz-adv-x="733" d="M440 -23Q380 -49 342 -112T303 -260Q303 -340 343 -392T449 -444Q498 -444 519 -402T541 -301V59Q529 37 511 21T479 -3T440 -23ZM664 100V-276Q664 -359 611 -418T463 -477Q404 -477 356 -451T280 -377T252
-260Q252 -192 280 -127T358 -20Q209 -17 132 72T55 301Q55 372 82 431T159 536T275 605T418 629Q518 629 577 596T637 502Q637 465 618 441T569 416Q535 416 518 441T500 502Q500 551 524 575Q478 594 418 594Q350 594 297 556T214 451T184 301Q184 14 406 14Q450
14 481 44T543 129Q562 170 575 188T614 207Q645 207 654 179T664 100Z" />
<glyph unicode="h" glyph-name="h" horiz-adv-x="836" d="M143 1202Q143 1283 195 1338T344 1393Q433 1393 487 1335T541 1180Q541 1058 468 952T266 780V498Q302 565 353 597T479 629Q525 629 575 611T658 553T692 461V109Q692 77 723 52T801 27Q872 27 961 78Q967
82 975 82Q987 82 987 72Q987 46 905 14Q834 -14 743 -14Q667 -14 617 20T567 109V461Q567 492 552 520T507 565T438 582Q307 582 266 399V41Q266 -14 205 -14Q183 -14 163 -1T143 41V1202ZM266 819Q323 852 374 903T459 1022T492 1176Q492 1227 477 1268T432 1332T360
1356Q266 1356 266 1202V819Z" />
<glyph unicode="i" glyph-name="i" horiz-adv-x="410" d="M266 109Q266 77 297 52T377 27Q414 27 447 37T507 62T537 78Q541 82 549 82Q563 82 563 72Q563 46 481 14Q406 -14 319 -14Q243 -14 193 20T143 109V573Q143 597 161 613T205 629Q231 629 248 614T266
573V109ZM205 1022Q234 1022 254 998T274 938Q274 902 254 877T205 852Q177 852 156 878T135 938Q135 972 156 997T205 1022Z" />
<glyph unicode="j" glyph-name="j" horiz-adv-x="410" d="M143 106V573Q143 597 161 613T205 629Q231 629 248 614T266 573V-276Q266 -327 243 -373T175 -448T66 -477Q-24 -477 -77 -421T-131 -264Q-131 -168 -54 -61T143 106ZM205 1022Q234 1022 254 998T274
938Q274 902 254 877T205 852Q177 852 156 878T135 938Q135 972 156 997T205 1022ZM143 68Q51 9 -12 -77T-76 -260Q-76 -341 -44 -390T51 -440Q143 -440 143 -281V68Z" />
<glyph unicode="k" glyph-name="k" horiz-adv-x="848" d="M381 369L616 104Q654 63 694 46T788 29Q863 29 936 78Q942 82 950 82Q963 82 963 72Q963 47 874 10Q801 -20 715 -20Q648 -20 598 -9T514 37L270 305Q352 399 407 462T500 560T574 612T659 629Q699 629
729 616T776 575T793 506Q793 468 774 442T725 416Q691 416 673 442T655 506Q655 526 665 551T684 584Q672 588 647 588Q610 588 577 568T511 513T381 369ZM143 1202Q143 1283 195 1338T344 1393Q434 1393 487 1335T541 1180Q541 1058 468 952T266 780V41Q266 -14
205 -14Q183 -14 163 -1T143 41V1202ZM266 819Q323 852 374 903T459 1022T492 1176Q492 1227 477 1268T432 1332T360 1356Q266 1356 266 1202V819Z" />
<glyph unicode="l" glyph-name="l" horiz-adv-x="410" d="M266 109Q266 77 297 52T377 27Q428 27 470 44T535 78Q541 82 549 82Q563 82 563 72Q563 46 481 14Q406 -14 319 -14Q242 -14 193 20T143 109V1202Q143 1283 195 1338T344 1393Q404 1393 448 1364T517
1286T541 1180Q541 1058 468 952T266 780V109ZM266 819Q323 852 374 903T459 1022T492 1176Q492 1227 477 1268T432 1332T360 1356Q266 1356 266 1202V819Z" />
<glyph unicode="m" glyph-name="m" horiz-adv-x="1176" d="M1032 109Q1032 78 1063 53T1143 27Q1193 27 1237 45T1303 78Q1309 82 1317 82Q1329 82 1329 72Q1329 46 1247 14Q1172 -14 1085 -14Q1009 -14 959 20T909 109V461Q909 512 878 548T797 584Q739 584 701
531T649 399V41Q649 -14 588 -14Q566 -14 546 -1T526 41V469Q526 518 493 551T412 584Q360 584 319 530T266 399V41Q266 -14 205 -14Q183 -14 163 -1T143 41V600Q143 655 205 655Q231 655 248 640T266 600V494Q291 552 339 590T446 629Q526 629 578 592T645 485Q667
545 718 587T829 629Q870 629 906 617T971 580T1016 526T1032 461V109Z" />
<glyph unicode="n" glyph-name="n" horiz-adv-x="836" d="M692 109Q692 77 723 52T801 27Q872 27 961 78Q967 82 975 82Q987 82 987 72Q987 46 905 14Q834 -14 743 -14Q667 -14 617 20T567 109V461Q567 492 552 520T507 565T438 582Q307 582 266 399V41Q266 -14
205 -14Q183 -14 163 -1T143 41V600Q143 623 161 639T205 655Q231 655 248 640T266 600V494Q334 629 479 629Q525 629 575 611T658 553T692 461V109Z" />
<glyph unicode="o" glyph-name="o" horiz-adv-x="705" d="M479 573Q548 542 598 471T649 301Q649 213 612 140T507 23T352 -20Q261 -20 194 24T91 143T55 301Q55 413 103 490T215 605T326 643Q348 643 348 629Q348 612 326 608Q254 585 219 505T184 301Q184 219
196 158T246 55T352 14Q410 14 447 52T501 154T518 301Q518 379 499 442T451 539T391 573Q365 573 365 592Q365 608 391 608H594Q614 608 614 592Q614 573 598 573H479Z" />
<glyph unicode="p" glyph-name="p" horiz-adv-x="768" d="M414 14Q463 14 501 54T560 162T582 305Q582 584 428 584Q344 584 302 494T260 276Q260 166 295 90T414 14ZM143 68Q51 9 -12 -77T-76 -260Q-76 -341 -44 -390T51 -440Q143 -440 143 -281V68ZM266 70V-276Q266
-327 243 -373T175 -448T66 -477Q-25 -477 -78 -422T-131 -264Q-131 -168 -54 -61T143 106V600Q143 623 161 639T205 655Q231 655 248 640T266 600V498Q297 563 345 596T469 629Q547 629 603 583T686 464T713 317Q713 230 676 152T574 27T436 -20Q311 -20 266 70Z"
/>
<glyph unicode="q" glyph-name="q" horiz-adv-x="766" d="M498 545V600Q498 623 516 639T559 655Q586 655 603 640T621 600V135Q749 71 823 -34T897 -264Q897 -323 873 -372T804 -449T700 -477Q605 -477 552 -416T498 -276V109Q476 46 421 13T285 -20Q207 -20
156 28T80 150T55 301Q55 383 92 460T192 583T330 629Q393 629 436 607T498 545ZM621 96V-281Q621 -440 715 -440Q777 -440 809 -391T842 -260Q842 -40 621 96ZM352 592Q277 592 231 508T184 301Q184 183 217 105T338 27Q427 27 466 112T506 332Q506 445 472 518T352
592Z" />
<glyph unicode="r" glyph-name="r" horiz-adv-x="469" d="M266 121Q266 83 313 55T436 27Q489 27 531 44T596 78Q602 82 610 82Q623 82 623 72Q623 46 541 14Q469 -14 379 -14Q279 -14 215 24T150 131Q150 155 174 231L244 426Q268 491 268 520Q268 569 215 580L145
596Q136 580 121 577T66 573H43H-59Q-82 573 -82 590Q-82 608 -59 608H-32Q4 608 19 613T40 635T55 705Q62 741 67 754T81 769T115 772Q145 772 156 765T167 735Q167 722 164 702Q160 672 160 665Q160 643 173 633T223 614Q300 601 327 594T368 569T383 514Q383
478 360 420L281 203Q266 163 266 121Z" />
<glyph unicode="s" glyph-name="s" horiz-adv-x="614" d="M209 588Q212 727 276 727Q304 727 319 709T334 659Q334 626 322 615T285 590T260 563Q260 508 288 474T397 395Q479 352 520 305T561 195Q561 138 524 89T422 10T281 -20Q174 -20 109 16T43 127Q43 160
63 183T113 207Q145 207 164 186T184 127Q184 103 174 79T150 43Q191 14 281 14Q355 14 393 67T432 188Q432 295 334 369Q238 442 217 520L143 367Q138 354 127 354Q111 354 111 369Q111 371 115 383L209 588Z" />
<glyph unicode="t" glyph-name="t" horiz-adv-x="410" d="M266 109Q266 77 297 52T377 27Q414 27 447 37T507 62T537 78Q541 82 549 82Q563 82 563 72Q563 46 481 14Q406 -14 319 -14Q243 -14 193 20T143 109V573H23Q-4 573 -4 590Q-4 608 23 608H143V840Q143
869 160 885T205 901Q232 901 249 885T266 840V608H434Q443 608 449 604T455 590Q455 573 434 573H266V109Z" />
<glyph unicode="u" glyph-name="u" horiz-adv-x="821" d="M555 115Q497 -20 342 -20Q295 -20 248 -2T172 55T143 147V573Q143 597 161 613T205 629Q231 629 248 614T266 573V147Q266 96 295 62T381 27Q517 27 555 207V573Q555 597 573 613T616 629Q642 629 660
613T678 573V109Q678 77 709 52T788 27Q870 27 946 78Q952 82 961 82Q973 82 973 72Q973 46 893 14Q818 -14 731 -14Q652 -14 604 20T555 115Z" />
<glyph unicode="v" glyph-name="v" horiz-adv-x="645" d="M350 27Q441 27 484 120T528 336Q528 442 506 510Q486 502 464 502Q430 502 408 522T385 571Q385 605 402 627T453 649Q513 649 542 576T571 336Q571 176 507 78T340 -20Q234 -20 184 21T129 150L104 547Q104
573 72 573H29Q6 573 6 590Q6 608 29 608H147Q211 608 215 547L236 145Q240 27 350 27Z" />
<glyph unicode="w" glyph-name="w" horiz-adv-x="915" d="M799 336Q799 386 793 435T776 508Q756 500 733 500Q699 500 676 520T653 571Q653 604 671 626T725 649Q840 649 840 336Q840 176 780 78T612 -20Q450 -20 432 100Q419 39 372 10T266 -20Q134 -20 125
143L104 547Q104 573 72 573H29Q6 573 6 590Q6 608 29 608H147Q211 608 215 547L236 145Q240 27 313 27Q367 27 393 73T420 188V459Q420 482 438 498T481 514Q508 514 524 499T541 459V147Q541 27 639 27Q721 27 760 121T799 336Z" />
<glyph unicode="x" glyph-name="x" horiz-adv-x="766" d="M-33 -248Q-15 -246 -7 -246Q82 -246 82 -319Q82 -345 62 -363T14 -381Q-25 -381 -53 -349T-82 -264Q-82 -152 -9 -52T188 150L322 260L129 541Q113 562 107 567T82 573H43Q20 573 20 590Q20 608 43 608H170Q202
608 216 596T248 557L412 317L522 412Q547 432 564 453T586 502Q502 523 502 596Q502 626 520 645T567 664Q606 664 629 636T653 559Q653 514 625 469T547 383L434 289L563 102Q613 29 727 29Q793 29 885 78Q891 82 899 82Q911 82 911 72Q911 47 823 10Q744 -20
664 -20Q599 -20 548 -7T469 43L342 227L186 98Q95 21 31 -69T-33 -248Z" />
<glyph unicode="y" glyph-name="y" horiz-adv-x="786" d="M412 0Q358 -31 321 -105T283 -264Q283 -311 299 -353T348 -420T424 -444Q514 -444 518 -307L530 117Q520 87 500 65T457 28T412 0ZM96 545Q93 573 66 573H23Q0 573 0 590Q0 608 23 608H150Q213 608 217
547L252 147Q257 88 283 58T367 27Q424 27 472 80T524 211L541 567Q541 595 557 612T602 629Q631 629 647 611T664 567L635 -289Q632 -367 575 -422T424 -477Q336 -477 283 -421T229 -260Q229 -195 255 -131T330 -20Q151 -20 133 137L96 545Z" />
<glyph unicode="z" glyph-name="z" horiz-adv-x="623" d="M197 -86Q144 -89 103 -138T61 -262Q61 -347 123 -395T279 -444Q374 -444 426 -347T479 -123Q479 -60 463 -14T420 60T359 104T293 121L190 127Q115 134 115 184Q115 200 119 211T129 233T145 254T164
276L414 573H74Q47 573 47 590Q47 608 74 608H502Q521 608 531 597T541 569Q541 551 528 539L221 168L342 156Q425 147 486 106T577 3T608 -123Q606 -226 564 -306T448 -431T279 -477Q173 -477 100 -420T27 -262Q27 -200 55 -149T130 -69T229 -41Q277 -41 305 -66T334
-129Q334 -159 313 -183T262 -207Q229 -207 208 -187T186 -129Q186 -105 197 -86Z" />
<glyph unicode="{" glyph-name="braceleft" horiz-adv-x="410" d="M424 1229Q348 1229 306 1160T264 1004V608H492Q512 608 512 590Q512 573 492 573H264V-276Q264 -329 241 -374T174 -448T66 -477Q-25 -477 -78 -422T-131 -264Q-131 -168 -54 -61T145 106V573H-47Q-72
573 -72 590Q-72 608 -47 608H145V1004Q145 1066 179 1125T278 1222T424 1260Q474 1260 532 1243T630 1194T670 1122Q670 1089 654 1066T612 1042Q553 1042 553 1114Q553 1163 578 1190Q503 1229 424 1229ZM145 68Q53 11 -11 -76T-76 -260Q-76 -341 -44 -390T51
-440Q102 -440 123 -398T145 -281V68Z" />
<glyph unicode="|" glyph-name="bar" horiz-adv-x="1575" d="M715 881Q715 785 787 735T965 684Q1032 684 1091 728T1187 848T1223 1012Q1223 1082 1194 1143T1109 1249T978 1320T815 1346Q718 1346 642 1291T525 1148T483 969Q483 933 500 811T538 553T573 328T586
193Q586 144 579 103T551 8Q596 -13 690 -64T852 -147T989 -201T1124 -223Q1223 -223 1299 -178T1416 -57T1458 106Q1458 166 1439 217T1383 306T1295 363T1180 383Q1056 383 989 300T922 123V106Q945 131 995 131Q1030 131 1048 112T1067 59Q1067 30 1042 12T985
-6Q936 -6 908 32T879 129Q879 184 898 236T955 331T1050 400T1180 426Q1279 426 1354 386T1468 274T1507 109Q1507 9 1443 -91T1268 -255T1026 -319Q965 -319 900 -298T770 -241T612 -149T508 -84Q479 -133 444 -170T362 -230T264 -252Q182 -252 125 -209T68 -100Q68
-25 142 23T338 72Q384 72 461 47Q471 86 471 156Q471 233 457 319T410 572T365 821T352 973Q352 1039 385 1114T480 1251T629 1353T815 1393Q943 1393 1046 1345T1210 1210T1270 1012Q1270 918 1228 832T1115 693T965 641Q875 641 807 672T701 758T664 881Q664
958 704 1018T803 1112T920 1145Q957 1145 983 1122T1010 1061Q1010 1031 987 1010T934 989Q901 989 875 1013T848 1077Q793 1059 754 1009T715 881ZM436 -45Q336 4 260 4Q199 4 159 -25T119 -100Q119 -145 159 -174T264 -203Q319 -203 364 -160T436 -45Z" />
<glyph unicode="}" glyph-name="braceright" horiz-adv-x="1491" d="M440 -23Q380 -49 342 -112T303 -260Q303 -340 343 -392T449 -444Q498 -444 519 -402T541 -301V59Q529 37 511 21T479 -3T440 -23ZM639 1077Q586 1077 537 1048T458 968T428 856Q428 768 471
701T567 600Q637 559 637 502Q637 465 618 441T569 416Q535 416 518 441T500 502Q500 551 524 575Q478 594 418 594Q350 594 297 556T214 451T184 301Q184 14 406 14Q450 14 481 44T543 129Q562 170 575 188T614 207Q645 207 654 179T664 100V-276Q664 -359 611
-418T463 -477Q404 -477 356 -451T280 -377T252 -260Q252 -192 280 -127T358 -20Q209 -17 132 72T55 301Q55 372 82 431T159 536T275 605T418 629Q457 629 487 623Q379 704 379 840Q379 919 417 988T522 1097T678 1137Q772 1137 844 1099T965 999T1039 866T1065
735Q1092 771 1140 797T1237 823Q1325 823 1374 767T1423 629Q1423 578 1401 550T1348 522Q1321 522 1300 536T1278 580Q1278 606 1295 622T1339 639Q1353 639 1368 634T1391 618V631Q1391 664 1376 697T1324 753T1227 776Q1173 776 1130 747T1065 674Q1065 630
1054 604T1020 578Q995 578 995 612Q995 648 1032 692Q1032 753 1007 819T934 944T811 1040T639 1077Z" />
<glyph unicode="~" glyph-name="asciitilde" horiz-adv-x="705" d="M618 154Q587 80 518 30T352 -20Q261 -20 194 24T91 143T55 301Q55 413 103 490T215 605T326 643Q348 643 348 627Q348 612 330 606Q258 584 221 504T184 301Q184 176 218 95T352 14Q411 14 446
49T502 150Q406 167 350 227T293 383Q293 463 321 535T436 608Q483 608 533 571T616 463T649 301Q649 255 631 190Q679 198 723 221Q727 223 744 233T769 247T778 250Q795 250 795 236Q795 211 715 180Q672 163 618 154ZM510 184Q518 223 518 301Q518 578 420 578Q332
578 332 383Q332 294 379 246T510 184Z" />
<glyph unicode="&#xa1;" glyph-name="exclamdown" horiz-adv-x="686" d="M281 37L297 987Q301 1040 342 1040Q387 1040 387 987L403 37Q403 11 385 -4T342 -20Q317 -20 299 -4T281 37ZM342 1223Q314 1223 293 1249T272 1309Q272 1346 291 1369T342 1393Q373 1393
392 1370T412 1309Q412 1271 393 1247T342 1223Z" />
<glyph unicode="&#xa2;" glyph-name="cent" horiz-adv-x="895" d="M520 -18V-131Q520 -164 496 -164Q473 -164 473 -131V-14Q371 0 281 51T136 190T82 399Q82 521 140 618T288 769T473 825V938Q473 967 496 967Q520 967 520 938V823Q607 817 673 792T777 730T815
655Q815 619 798 593T750 567Q676 567 676 645Q676 667 688 689T715 721Q688 744 634 761T520 782V41Q555 35 592 35Q672 35 714 51T813 96Q822 102 827 102Q840 102 840 90Q840 64 760 29Q664 -20 557 -20Q535 -20 520 -18ZM473 53V782Q396 772 336 716T244 576T213
399Q213 332 230 277T281 177T363 101T473 53Z" />
<glyph unicode="&#xa3;" glyph-name="sterling" horiz-adv-x="1376" d="M537 608H784Q803 608 803 588Q803 567 784 567H543L547 514Q549 506 549 485Q549 424 512 362T426 259T356 217Q338 217 338 231Q338 242 360 264Q400 306 425 347T451 459Q451 475 442
520L432 567H215Q193 567 193 586Q193 608 215 608H426L381 848Q375 884 375 922Q375 1017 423 1108T565 1257T793 1315Q856 1315 916 1295T1024 1238T1102 1144T1133 1016Q1133 935 1100 872T1009 775T889 741Q830 741 792 769T754 848Q754 882 773 907T821 932Q852
932 871 911T891 858Q891 806 866 784Q874 782 893 782Q943 782 988 812T1059 895T1085 1008Q1085 1064 1061 1113T997 1196T903 1250T793 1270Q704 1270 637 1219T535 1086T500 920Q500 894 504 850L537 608ZM967 45Q1069 45 1116 55T1257 113Q1273 121 1284 128T1306
140T1321 145Q1335 145 1335 129Q1335 121 1326 112T1293 85T1264 61Q1209 19 1167 -7T1069 -52T938 -70Q907 -70 829 -49L379 76Q359 84 324 84Q232 84 196 64T106 -18Q89 -37 82 -37Q68 -37 68 -18Q68 -9 98 31Q137 83 162 109T233 159T334 182Q362 182 383 176L825
66Q906 45 967 45Z" />
<glyph unicode="&#xa4;" glyph-name="currency" horiz-adv-x="1864" d="M190 250Q204 151 270 88T463 25Q519 25 562 35T666 72Q675 78 682 78Q692 78 692 68Q692 54 673 43T610 10Q535 -20 416 -20Q242 -20 149 62T55 301Q55 377 94 454T202 580T356 629Q423
629 469 609T538 558T561 494Q561 457 544 432T496 406Q422 406 422 494Q422 540 453 569Q419 594 356 594Q312 594 274 558T212 458T188 315Q188 291 190 279Q343 327 429 349T616 371Q713 371 798 355T1031 303T1276 252T1481 236Q1555 236 1617 272T1717 369T1755
498Q1755 579 1716 630T1620 704T1507 727Q1487 727 1475 721Q1499 693 1499 651Q1499 617 1482 599T1436 580Q1408 580 1388 600T1368 655Q1368 698 1409 729T1507 760Q1581 760 1646 730T1754 640T1796 498Q1796 406 1738 325T1583 196T1372 147Q1288 147 1218
164T1002 224T751 289T541 311Q414 311 190 250Z" />
<glyph unicode="&#xa5;" glyph-name="yen" horiz-adv-x="1130" d="M487 471H254Q231 471 231 492Q231 512 254 512H487V567H254Q231 567 231 586Q231 608 254 608H473L94 1208Q82 1231 82 1249Q82 1276 99 1295T141 1315Q174 1315 201 1278L588 645L995 1286Q1015
1315 1030 1315Q1040 1315 1047 1309T1055 1292Q1055 1274 1047 1262L629 608H850Q870 608 870 588Q870 567 850 567H614V512H850Q870 512 870 492Q870 471 850 471H614V51Q614 -20 553 -20Q487 -20 487 51V471Z" />
<glyph unicode="&#xa6;" glyph-name="brokenbar" horiz-adv-x="2071" d="M1327 1163Q1333 1130 1333 1094V51Q1333 -20 1272 -20Q1240 -20 1222 0T1204 51V1094Q1204 1195 1158 1249T1032 1303Q949 1303 888 1269T754 1163Q795 1056 795 930V301Q795 194 764 89T647
-90T410 -164Q307 -164 230 -122T111 0T68 182Q68 245 91 293T160 342Q193 342 211 320T229 264Q229 227 213 201T164 174Q143 174 119 182Q119 95 152 27T251 -79T410 -117Q515 -117 572 -55T647 97T666 301V930Q666 1025 643 1121T562 1281T410 1346Q283 1346
201 1267T119 1065Q119 940 199 875T373 809H387Q365 835 365 883Q365 914 383 934T434 954Q453 954 468 942T491 911T500 872Q500 822 462 794T365 766Q293 766 225 800T112 903T68 1065Q68 1158 112 1233T233 1350T410 1393Q639 1393 735 1202Q814 1288 893 1340T1063
1393Q1157 1393 1224 1345T1317 1212Q1392 1302 1446 1347T1571 1393Q1628 1393 1681 1367T1788 1315T1901 1288Q1978 1288 2009 1346Q2035 1393 2048 1393Q2071 1393 2071 1372Q2071 1367 2054 1327Q2021 1265 1976 1162T1893 936T1826 651T1798 311Q1798 252
1812 200T1855 110T1921 54T1999 35Q2085 35 2157 66Q2167 71 2175 76T2191 84T2204 88Q2222 88 2222 72Q2222 47 2142 12Q2072 -14 1929 -14Q1851 -14 1791 30T1700 148T1669 311Q1669 436 1697 566T1767 812T1865 1053T1962 1264Q1939 1241 1897 1222T1819 1202Q1782
1202 1747 1213T1666 1245T1584 1280T1520 1294Q1465 1294 1435 1270T1327 1163Z" />
<glyph unicode="&#xa7;" glyph-name="section" horiz-adv-x="1444" d="M147 0V573H25Q0 573 0 590Q0 608 25 608H147V840Q147 869 164 885T209 901Q236 901 253 885T270 840V608H438Q457 608 457 590Q457 573 438 573H270V59Q358 106 508 106Q574 106 644 94T801
63T948 34T1075 23Q1175 23 1258 86T1341 270Q1341 344 1300 383T1204 436Q1221 415 1221 391Q1221 357 1201 335T1149 313Q1117 313 1096 336T1075 389Q1075 424 1105 448T1178 473Q1222 473 1268 446T1345 371T1376 270Q1376 164 1329 89T1202 -25T1032 -63Q970
-63 910 -50T748 -9T575 34T438 49Q363 49 307 34T178 -16Q174 -18 167 -18Q147 -18 147 0Z" />
<glyph unicode="&#xa8;" glyph-name="dieresis" horiz-adv-x="641" d="M207 895Q238 895 257 871T276 809Q276 774 257 750T207 725Q175 725 156 749T137 809Q137 845 157 870T207 895ZM436 895Q467 895 486 871T506 809Q506 776 486 751T436 725Q405 725 385
749T365 809Q365 843 386 869T436 895Z" />
<glyph unicode="&#xa9;" glyph-name="copyright" horiz-adv-x="1174" d="M283 -264Q283 -311 299 -353T348 -420T424 -444Q514 -444 518 -307L528 88Q474 42 434 5T360 -75T304 -164T283 -264ZM649 170L635 -289Q632 -367 575 -422T424 -477Q336 -477 283 -421T229
-260Q229 -199 262 -133T350 -20Q151 -20 133 137L96 545Q93 573 66 573H23Q0 573 0 590Q0 608 23 608H150Q213 608 217 547L252 147Q257 89 283 60T367 31Q422 31 471 83T524 211L541 567Q541 595 557 612T602 629Q631 629 647 611T664 567L651 219Q1040 476 1040
766Q1040 847 1000 909T891 1003T739 1036Q693 999 659 999Q625 999 625 1024Q625 1046 652 1057T721 1069Q765 1090 795 1134T825 1231Q825 1319 780 1357T678 1395H666Q686 1377 686 1343Q686 1318 669 1300T627 1282Q598 1282 584 1303T569 1352Q569 1383 597
1405T676 1427Q757 1427 814 1378T872 1241Q872 1193 846 1145T784 1071Q859 1071 933 1043T1055 948T1104 778Q1104 667 1058 572T938 400T800 274T649 170Z" />
<glyph unicode="&#xaa;" glyph-name="ordfeminine" horiz-adv-x="848" d="M995 -186L270 305Q356 404 408 463T500 559T577 612T659 629Q720 629 756 597T793 506Q793 468 774 442T725 416Q691 416 673 442T655 506Q655 526 665 551T684 584Q672 588 647 588Q610
588 577 568T511 513T381 369L1049 -88Q1153 -158 1210 -193T1334 -261T1471 -316T1604 -338Q1637 -338 1667 -328T1720 -306T1751 -289Q1757 -283 1765 -283Q1778 -283 1778 -295Q1778 -321 1690 -356Q1660 -368 1614 -377T1530 -387Q1460 -387 1373 -365T1188
-297T995 -186ZM268 1038L266 41Q266 -14 205 -14Q183 -14 163 -1T143 41V1038Q143 1127 178 1219T286 1372T465 1434Q542 1434 602 1403T697 1316T741 1192Q773 1236 839 1273T979 1311Q1070 1311 1137 1273T1237 1176T1270 1057Q1270 1004 1246 955T1182 876T1096
846Q1049 846 1017 867T985 938Q985 970 1004 994T1053 1018Q1081 1018 1100 996T1120 936Q1120 921 1116 906T1102 881Q1134 881 1164 903T1214 965T1233 1057Q1233 1101 1214 1139T1162 1207T1081 1253T977 1270Q849 1270 739 1153Q739 1106 723 1071T684 1036Q653
1036 653 1065Q653 1089 670 1120T717 1174Q701 1264 642 1325T469 1386Q399 1386 355 1341T289 1219T268 1038Z" />
<glyph unicode="&#xab;" glyph-name="guillemotleft" horiz-adv-x="758" d="M356 311Q356 341 391 389L522 571Q536 592 549 592Q565 592 565 573Q565 562 559 553L463 315V309L559 68Q565 58 565 47Q565 31 549 31Q537 31 522 51L391 233Q369 263 363 276T356
311ZM178 311Q178 341 213 389L344 571Q358 592 371 592Q387 592 387 573Q387 571 381 553L285 315V309L381 68Q383 63 385 58T387 47Q387 31 371 31Q359 31 344 51L213 233Q191 263 185 276T178 311Z" />
<glyph unicode="&#xac;" glyph-name="logicalnot" horiz-adv-x="1165" d="M657 688Q555 526 391 526Q327 526 275 560T223 653Q223 710 280 751T422 793Q537 793 645 760L930 1217Q909 1201 877 1189T821 1176Q791 1176 754 1186L459 1266Q410 1278 369 1278Q294
1278 245 1251T170 1176Q146 1132 135 1114T111 1096Q92 1096 92 1114Q92 1121 145 1225Q188 1305 239 1349T391 1393Q432 1393 459 1384L770 1298Q806 1286 840 1286Q895 1286 924 1293T974 1318T1028 1374Q1043 1393 1059 1393Q1083 1393 1083 1372Q1083 1362
1065 1333L694 745Q794 708 872 645T994 498T1038 311Q1038 175 969 60T776 -123T498 -190Q384 -190 286 -149T128 -31T68 141Q68 259 148 343T350 428Q411 428 461 406T546 349T601 272T621 193Q621 157 600 133T547 109Q519 109 500 129T481 180Q481 211 500
237T543 272Q483 387 350 387Q286 387 233 356T149 267T117 141Q117 58 170 -7T311 -108T492 -143Q580 -143 655 -109T783 -14T866 133T895 311Q895 383 865 455T782 587T657 688ZM614 713Q522 758 424 758Q347 758 306 728T264 653Q264 616 304 591T391 565Q465
565 515 598T614 713Z" />
<glyph unicode="&#xad;" glyph-name="uni00AD" horiz-adv-x="2951" d="M2042 -283L1860 -174L1823 -240Q1850 -265 1892 -280T1975 -296Q2013 -296 2042 -283ZM1774 -262Q1673 -192 1673 -78Q1673 -11 1697 45T1767 172Q1685 97 1579 55T1358 12Q1230 12 1116
63L1016 -199L1145 -125L1358 -317L1499 -147L1737 -326L1774 -262ZM1802 -213L1855 -123L2062 -254L1808 100Q1763 8 1763 -66Q1763 -156 1802 -213ZM510 475Q451 412 451 350Q451 295 490 257T613 162T744 57T795 -57Q817 -15 832 41T848 135Q848 182 828 206T777
230Q748 230 717 207Q736 230 748 244T768 274T776 311Q776 333 762 346T723 360Q669 360 614 291Q630 341 653 370T710 426T756 473T770 530Q770 556 756 572T720 589Q703 589 686 578Q691 687 734 793T853 989T1026 1135Q897 1116 750 1035T502 839T401 608Q401
562 430 535T502 508Q557 508 592 544T627 641Q617 636 609 636Q592 636 579 652T565 690Q565 712 576 725T606 739Q631 739 645 714T659 645Q659 570 613 524T510 475ZM1823 362Q1794 306 1766 273T1692 203Q1723 242 1746 282T1790 371L1741 379Q1689 264 1593
195T1358 125Q1257 125 1180 168T1049 282T966 427T924 575Q946 663 991 725T1092 819T1202 850Q1303 850 1358 797Q1424 850 1518 850Q1572 850 1627 819T1727 728T1794 578Q1791 526 1776 475L1821 465Q1835 518 1840 556T1849 649Q1863 601 1863 540Q1863 500
1855 457L1892 442Q1923 540 1923 625Q1923 741 1879 847T1758 1032T1577 1155T1358 1200Q1245 1200 1141 1156T960 1032T839 847T795 625Q795 509 839 403T960 219T1141 95T1358 49Q1522 49 1654 134T1855 352L1823 362ZM1982 315Q2016 291 2105 227T2259 126T2392
67T2529 45Q2710 45 2820 168L2693 197L2712 350Q2613 186 2451 186Q2359 186 2280 218T2077 320T1858 425T1659 461Q1574 461 1492 427T1349 335T1270 213Q1147 239 1057 336Q1105 258 1186 208T1358 158Q1441 158 1508 188T1624 270T1704 389Q1663 335 1620 298T1530
241T1430 209Q1462 312 1517 362T1681 412Q1739 412 1825 389T1982 315ZM1946 311L1901 336Q1889 312 1860 262T1820 189T1796 123Q1856 212 1946 311ZM1763 600Q1733 688 1663 750T1518 815Q1467 815 1430 806T1358 768Q1311 815 1202 815Q1132 815 1062 755T956
604Q1001 642 1071 674T1217 723T1358 741Q1422 741 1493 722T1635 671T1763 600ZM977 582L1106 444L1120 629L1196 547L1231 670L1288 514L1350 678L1399 571L1483 666L1511 510L1634 614L1653 489L1753 575Q1655 635 1549 670T1358 705Q1267 705 1155 669T977
582ZM881 668Q883 521 907 440T1028 252Q943 300 898 374T852 536Q852 602 877 670L881 668ZM1614 897Q1655 897 1675 902T1741 936L1745 932Q1670 849 1598 849Q1520 849 1446 944Q1444 936 1439 916T1426 883T1401 861T1358 852Q1312 852 1300 873T1276 942Q1220
855 1129 855Q1048 855 977 934L981 940Q1035 895 1102 895Q1111 938 1141 938Q1152 938 1163 924T1174 895Q1226 900 1270 958Q1265 1026 1206 1026Q1185 1026 1151 1002T1092 964T1016 950Q974 950 936 989Q953 980 960 977T975 972T1006 971Q1035 971 1056 987T1104
1036T1147 1084T1188 1100Q1230 1100 1254 1067T1286 995Q1298 924 1308 904T1358 883Q1400 883 1413 904T1434 983Q1441 1032 1464 1066T1526 1100Q1548 1100 1566 1085T1611 1037T1661 988T1712 971Q1742 971 1750 973T1784 989Q1747 950 1704 950Q1654 950 1629
963T1570 1001T1513 1026Q1460 1026 1448 956Q1456 950 1469 940T1495 921T1520 907T1552 895Q1552 911 1562 924T1583 938Q1614 938 1614 897ZM1276 1083Q1310 1134 1354 1134Q1399 1134 1446 1081Q1396 1105 1357 1105Q1319 1105 1276 1083ZM1300 1055Q1331 1086
1360 1086Q1388 1086 1423 1057Q1389 1069 1362 1069Q1334 1069 1300 1055ZM2869 182Q2788 89 2709 53T2527 16Q2433 16 2339 55T2167 147T1968 295Q1953 278 1925 245T1876 187T1839 135L2103 -250Q2131 -227 2151 -190T2171 -113Q2163 -118 2153 -118Q2134 -118
2118 -102T2101 -61Q2101 -40 2112 -26T2144 -12Q2169 -12 2185 -37T2202 -104Q2202 -148 2179 -192T2116 -272L2177 -362L2073 -301Q2022 -325 1962 -325Q1870 -325 1800 -281L1745 -375L1505 -211L1350 -379L1137 -172L934 -303L1075 82Q999 125 942 180Q939
93 902 13T803 -125Q801 -197 769 -264T677 -374T541 -416Q470 -416 406 -389T304 -313T266 -205Q266 -164 283 -138T326 -111Q344 -111 355 -125T367 -162Q367 -185 354 -200T322 -216Q310 -216 299 -209Q302 -256 336 -298T425 -365T543 -389Q600 -389 650 -358T731
-269T766 -141Q714 -186 633 -186Q573 -186 515 -165T413 -101T352 8Q312 -55 240 -55Q182 -55 132 -5T82 121Q82 162 96 188T135 215Q178 215 178 164Q178 143 164 127T133 110Q123 110 115 115Q115 53 152 13T240 -27Q306 -27 342 43Q338 71 338 88Q338 132 350
164T385 197Q418 197 418 154Q418 102 377 37Q394 -53 464 -104T633 -156Q671 -156 700 -139T764 -92Q764 -22 718 28T583 138T453 239T412 342Q412 417 467 479Q425 485 395 520T365 608Q365 718 467 844T740 1063T1094 1171Q1188 1259 1294 1303T1544 1348Q1677
1348 1793 1310T1994 1200T2125 1027T2171 799Q2171 585 2032 377Q2069 357 2122 327T2234 270T2345 228T2456 213Q2545 213 2619 278T2750 473L2718 217L2869 182ZM1327 207Q1345 270 1394 321T1520 403Q1465 362 1430 309T1389 205L1327 207ZM1942 422L2001 391Q2062
496 2097 595T2132 799Q2132 959 2049 1075T1832 1251T1544 1311Q1445 1311 1369 1291T1212 1221Q1345 1256 1467 1256Q1758 1256 1989 1040Q1957 1048 1929 1048Q1867 1048 1867 1004Q1867 968 1906 922T2013 840Q1951 840 1951 801Q1951 772 1981 730T2060 659Q2021
638 2008 612T1978 523T1942 422Z" />
<glyph unicode="&#xae;" glyph-name="registered" horiz-adv-x="766" d="M416 315L563 102Q613 29 727 29Q793 29 885 78Q891 82 899 82Q911 82 911 72Q911 47 823 10Q744 -20 664 -20Q599 -20 548 -7T469 43L356 209L137 -178Q79 -279 40 -334T-69 -433T-236
-477Q-309 -477 -373 -423T-453 -246Q-482 -290 -532 -319T-635 -348Q-710 -348 -764 -292T-819 -145Q-819 -91 -791 -61T-727 -31Q-695 -31 -674 -48T-653 -94Q-653 -120 -672 -139T-719 -158Q-749 -158 -784 -137Q-784 -203 -745 -251T-625 -299Q-568 -299 -521
-267T-457 -188V-178Q-457 -139 -445 -116T-416 -92Q-393 -92 -393 -129Q-393 -165 -426 -203Q-420 -278 -391 -328T-317 -401T-223 -424Q-103 -424 -28 -346T100 -166L332 244L129 541Q113 562 107 567T82 573H43Q20 573 20 590Q20 608 43 608H170Q202 608 216
596T248 557L393 350Q428 411 458 463T517 550T583 607T666 629Q701 629 722 603T743 543Q743 515 725 492T680 469Q651 469 632 491T612 549Q612 565 616 578Q584 570 553 535T496 456T416 315Z" />
<glyph unicode="&#xaf;" glyph-name="overscore" horiz-adv-x="653" d="M328 1104Q407 1104 462 1049T518 913Q518 834 463 780T328 725Q249 725 193 780T137 913Q137 992 193 1048T328 1104ZM328 1040Q277 1040 241 1002T205 913Q205 864 241 826T328 788Q378
788 413 825T449 913Q449 965 414 1002T328 1040Z" />
<glyph unicode="&#xb0;" glyph-name="degree" horiz-adv-x="596" d="M352 367Q448 336 502 298T557 186Q557 87 480 34T287 -20Q179 -20 110 15T41 127Q41 161 61 183T106 205Q136 205 158 185T180 129Q180 76 145 43Q201 14 287 14Q361 14 405 55T449 152Q449
179 435 197T394 228T334 251T262 274Q181 305 139 338T96 449Q96 496 125 538T203 604T307 629Q397 629 459 590T522 485Q522 455 507 438T467 420Q440 420 422 440T403 485Q403 538 430 563Q387 594 307 594Q261 594 228 567T195 492Q195 455 213 435T259 402T352
367Z" />
<glyph unicode="&#xb1;" glyph-name="plusminus" horiz-adv-x="1255" d="M1047 299Q1126 404 1126 516Q1126 596 1073 596Q1012 596 1012 471Q1012 433 1020 397T1047 299ZM467 -236Q467 -335 546 -382T723 -430Q799 -430 860 -376T956 -238T991 -76Q991 27 958
143Q830 55 694 55Q561 55 447 100T252 231T126 439T82 711Q82 894 161 1050T387 1300T729 1393Q812 1393 887 1364T1020 1283T1110 1162T1143 1014Q1143 919 1099 843T984 724T838 680Q767 680 703 712T599 801T559 924Q559 1050 630 1128T809 1206Q846 1206 872
1186T899 1137Q899 1107 879 1086T827 1065Q806 1065 786 1072T750 1095T731 1133Q604 1089 604 924Q604 877 635 831T720 756T838 727Q898 727 957 762T1055 862T1094 1014Q1094 1106 1046 1182T914 1302T729 1346Q637 1346 549 1303T386 1177T269 974T225 711Q225
540 283 403T448 190T694 115Q842 115 946 201Q922 327 922 360Q922 477 963 559T1073 641Q1127 641 1153 605T1180 516Q1180 451 1150 380T1065 242Q1094 168 1110 111T1126 0Q1126 -125 1074 -235T929 -411T723 -477Q588 -477 499 -413T410 -236Q410 -190 432
-135T495 -40T586 0Q618 0 638 -19T659 -68Q659 -95 640 -119T582 -143Q534 -143 510 -113Q491 -128 479 -164T467 -236Z" />
<glyph unicode="&#xb2;" glyph-name="uni00B2" horiz-adv-x="825" d="M553 1202Q494 1229 424 1229Q348 1229 306 1160T264 1004V608H492Q512 608 512 590Q512 573 492 573H264V-276Q264 -329 241 -374T174 -448T66 -477Q-25 -477 -78 -422T-131 -264Q-131 -168
-54 -61T145 106V573H-47Q-72 573 -72 590Q-72 608 -47 608H145V1004Q145 1066 179 1125T278 1222T424 1260Q488 1260 555 1235Q566 1305 617 1349T754 1393Q846 1393 899 1338T952 1180Q952 1058 878 952T676 780V109Q676 77 707 52T786 27Q868 27 944 78Q950
82 958 82Q973 82 973 72Q973 46 891 14Q816 -14 729 -14Q652 -14 603 20T553 109V1202ZM145 68Q53 11 -11 -76T-76 -260Q-76 -341 -44 -390T51 -440Q102 -440 123 -398T145 -281V68ZM676 819Q770 876 835 965T901 1176Q901 1227 886 1268T842 1332T770 1356Q718
1356 697 1314T676 1202V819Z" />
<glyph unicode="&#xb3;" glyph-name="uni00B3" horiz-adv-x="702" d="M37 -317Q20 -352 2 -352Q-8 -352 -17 -344T-27 -324Q-27 -309 -25 -303L666 1174Q681 1200 700 1200Q729 1200 729 1169Q729 1159 723 1147L37 -317Z" />
<glyph unicode="&#xb4;" glyph-name="acute" horiz-adv-x="668" d="M483 852L182 731Q170 725 158 725Q137 725 137 743Q137 755 162 772L428 942Q461 961 479 961Q504 961 517 947T530 913Q530 871 483 852Z" />
<glyph unicode="&#xb5;" glyph-name="uni00B5" horiz-adv-x="1638" d="M735 1202Q813 1298 869 1345T997 1393Q1048 1393 1104 1379T1240 1339T1373 1301T1470 1288Q1544 1288 1577 1346Q1594 1375 1601 1384T1616 1393Q1638 1393 1638 1372Q1638 1357 1622 1327Q1587
1261 1544 1164T1461 943T1394 658T1366 311Q1366 249 1381 197T1425 108T1491 53T1569 35Q1654 35 1724 66Q1732 69 1748 78T1772 88Q1792 88 1792 72Q1792 48 1710 12Q1640 -14 1497 -14Q1436 -14 1388 11T1306 83T1254 187T1237 311Q1237 436 1265 567T1335
814T1431 1049T1530 1264Q1506 1240 1466 1221T1389 1202Q1318 1202 1161 1248T946 1294Q916 1294 891 1284T843 1255T800 1214T754 1163Q795 1056 795 930V301Q795 194 764 89T647 -90T410 -164Q307 -164 230 -122T111 0T68 182Q68 245 91 293T160 342Q193 342
211 320T229 264Q229 227 213 201T164 174Q143 174 119 182Q119 95 152 27T251 -79T410 -117Q515 -117 572 -55T647 97T666 301V930Q666 1025 643 1121T562 1281T410 1346Q283 1346 201 1267T119 1065Q119 940 199 875T373 809H387Q365 835 365 883Q365 914 383
934T434 954Q453 954 468 942T491 911T500 872Q500 822 462 794T365 766Q293 766 225 800T112 903T68 1065Q68 1158 112 1233T233 1350T410 1393Q639 1393 735 1202Z" />
<glyph unicode="&#xb6;" glyph-name="paragraph" horiz-adv-x="1389" d="M123 72Q123 133 166 189T262 262Q204 279 160 314T92 397T68 502Q68 573 104 637T209 740T362 778Q470 778 540 733T645 614T684 459L709 145Q713 92 728 60T786 27Q840 27 866 73T893
188V459Q893 482 911 498T954 514Q981 514 997 499T1014 459V147Q1014 27 1112 27Q1155 27 1186 54T1235 129T1262 227T1270 336Q1270 451 1249 508Q1230 500 1206 500Q1173 500 1150 520T1126 571Q1126 603 1144 626T1196 649Q1313 649 1313 336Q1313 176 1253
78T1085 -20Q924 -20 905 100Q892 39 845 10T739 -20Q610 -20 598 143L578 465Q571 588 520 664T362 741Q265 741 194 670T123 502Q123 407 177 355T311 285Q349 301 373 301Q391 301 406 294T422 272Q422 259 405 250T365 240Q355 240 317 248Q263 240 221 191T178
72Q178 -67 315 -86Q303 -65 303 -41Q303 -8 318 11T358 31Q384 31 400 13T416 -33Q416 -66 394 -93T334 -121Q254 -121 189 -71T123 72Z" />
<glyph unicode="&#xb8;" glyph-name="cedilla" horiz-adv-x="1219" d="M412 0Q358 -31 321 -105T283 -264Q283 -311 299 -353T348 -420T424 -444Q514 -444 518 -307L530 117Q520 87 500 65T457 28T412 0ZM664 567L635 -289Q632 -367 575 -422T424 -477Q336 -477
283 -421T229 -260Q229 -195 255 -131T330 -20Q151 -20 133 137L96 545Q93 573 66 573H23Q0 573 0 590Q0 608 23 608H150Q213 608 217 547L252 147Q257 88 283 58T367 27Q424 27 472 80T524 211L541 567Q544 654 577 727T683 847T864 893Q951 893 1016 855T1116
755T1151 621Q1151 537 1100 472T965 381Q995 370 1026 340T1077 270T1096 190Q1096 98 1034 48T891 -2Q856 -2 833 24T809 84Q809 110 825 130T866 150Q892 150 907 130T922 76Q922 52 911 33Q972 40 1010 77T1049 190Q1049 255 1004 306T907 367Q886 358 860
358Q834 358 819 367T803 391Q803 400 811 406T831 415T852 418Q877 418 915 401Q993 421 1047 473T1102 621Q1102 683 1070 739T983 828T864 860Q759 860 713 779T664 567Z" />
<glyph unicode="&#xb9;" glyph-name="uni00B9" horiz-adv-x="819" d="M553 573H264V-276Q264 -327 241 -373T174 -448T66 -477Q-25 -477 -78 -422T-131 -264Q-131 -168 -54 -61T145 106V573H-47Q-70 573 -70 590Q-70 608 -47 608H145V1120Q145 1262 235 1327T444
1393Q497 1393 552 1379T646 1331T684 1245Q684 1208 665 1182T616 1155Q585 1155 566 1180T547 1245Q547 1267 555 1290T575 1323Q517 1352 444 1352Q394 1352 353 1322T288 1239T264 1120V608H567Q585 629 614 629Q640 629 658 613T676 573V109Q676 78 707 53T786
27Q823 27 855 37T912 60T946 78Q952 82 961 82Q973 82 973 72Q973 46 891 14Q816 -14 729 -14Q653 -14 603 20T553 109V573ZM145 68Q53 11 -11 -76T-76 -260Q-76 -341 -44 -390T51 -440Q102 -440 123 -398T145 -281V68Z" />
<glyph unicode="&#xba;" glyph-name="ordmasculine" horiz-adv-x="410" d="M143 1004Q143 1066 177 1125T277 1222T424 1260Q476 1260 534 1242T631 1193T670 1122Q670 1089 654 1066T612 1042Q553 1042 553 1114Q553 1163 578 1190Q508 1229 424 1229Q348 1229
307 1160T266 1004V109Q266 77 297 52T377 27Q428 27 470 44T535 78Q541 82 549 82Q561 82 561 72Q561 45 481 14Q406 -14 319 -14Q242 -14 193 20T143 109V1004Z" />
<glyph unicode="&#xbb;" glyph-name="guillemotright" horiz-adv-x="758" d="M401 311Q401 284 367 233L233 51Q218 31 207 31Q190 31 190 47Q190 54 192 58T197 68L293 309V315L197 553Q195 558 193 563T190 573Q190 580 196 586T207 592Q219 592 233 571L367
389Q401 336 401 311ZM580 311Q580 288 573 275T545 233L414 51Q399 31 387 31Q371 31 371 47Q371 52 372 56T377 68L473 309V315L377 553Q371 571 371 573Q371 592 387 592Q400 592 414 571L545 389Q580 341 580 311Z" />
<glyph unicode="&#xbc;" glyph-name="onequarter" horiz-adv-x="1372" d="M397 616Q397 593 369 588Q304 574 262 523T202 409T184 301Q184 206 204 142T262 46T354 14Q418 14 454 64T508 236T526 580Q460 589 397 616ZM649 608Q680 606 701 604T735 602Q851 602
945 629T1104 704T1202 810T1235 930Q1235 1091 1063 1137Q1027 1116 1001 1116Q984 1116 968 1123T952 1143Q952 1157 970 1166T1016 1176Q1034 1176 1055 1169Q1106 1178 1150 1231T1194 1346Q1194 1413 1157 1453T1061 1501Q1071 1481 1071 1450Q1071 1418 1053
1399T1006 1380Q979 1380 962 1400T944 1450Q944 1486 972 1512T1042 1538Q1085 1538 1132 1518T1212 1454T1245 1346Q1245 1286 1205 1231T1110 1155Q1196 1141 1250 1087T1305 948Q1305 858 1239 768T1043 620T737 561Q724 561 702 563T649 567Q649 431 637 325T594
143T504 23T354 -20Q205 -20 130 70T55 301Q55 375 96 452T211 579T377 629Q312 658 259 726T175 883T145 1061Q145 1157 172 1232T254 1350T383 1393Q465 1393 522 1333T614 1098T649 608ZM526 616Q526 1043 473 1180T346 1317Q275 1317 234 1249T193 1061Q193
891 284 764T526 616Z" />
<glyph unicode="&#xbd;" glyph-name="onehalf" horiz-adv-x="1866" d="M266 399V41Q266 -14 205 -14Q183 -14 163 -1T143 41V1202Q143 1283 195 1338T344 1393Q433 1393 487 1335T541 1180Q541 1058 468 952T266 780V494Q334 629 479 629Q525 629 575 611T658
553T692 461V59Q780 106 930 106Q1011 106 1112 86T1316 44T1497 23Q1597 23 1679 86T1763 270Q1763 344 1722 383T1626 436Q1642 416 1642 391Q1642 356 1622 335T1571 313Q1539 313 1518 336T1497 389Q1497 424 1527 448T1599 473Q1642 473 1689 446T1767 372T1798
270Q1798 164 1751 89T1624 -25T1454 -63Q1392 -63 1332 -50T1167 -8T994 35T860 49Q785 49 727 34T598 -16Q595 -18 588 -18Q567 -18 567 0V461Q567 492 552 520T507 565T438 582Q307 582 266 399ZM266 819Q323 852 374 903T459 1022T492 1176Q492 1227 477 1268T432
1332T360 1356Q266 1356 266 1202V819Z" />
<glyph unicode="&#xbe;" glyph-name="threequarters" horiz-adv-x="1354" d="M184 307Q309 320 373 360T438 479Q438 535 413 564T346 594Q299 594 262 559T205 459T184 307ZM1286 270Q1286 171 1230 97T1084 -25T892 -97T698 -121Q472 -121 327 -64T119 89T55
301Q55 356 76 415T136 522T229 599T346 629Q433 629 488 590T543 481Q543 411 496 368T372 306T184 281Q184 142 299 33T698 -76Q811 -76 910 -52T1086 17T1207 127T1251 270Q1251 344 1210 383T1114 436Q1130 416 1130 391Q1130 356 1110 335T1059 313Q1027 313
1006 336T985 389Q985 424 1015 448T1087 473Q1130 473 1177 446T1255 372T1286 270Z" />
<glyph unicode="&#xbf;" glyph-name="questiondown" horiz-adv-x="1096" d="M584 1223Q553 1223 534 1247T514 1309Q514 1346 533 1369T584 1393Q615 1393 634 1369T653 1309Q653 1273 634 1248T584 1223ZM584 1044Q664 1044 722 999T780 870Q780 803 734 754T604
649Q494 577 426 498T358 285Q358 181 436 106T618 31Q746 31 823 94Q786 129 786 172Q786 209 806 234T858 260Q890 260 908 238T926 178Q926 131 883 85T770 10T618 -20Q514 -20 424 20T280 136T225 313Q225 406 283 484T412 610T580 715Q646 754 676 792T707
881Q707 936 676 970T584 1004Q553 1004 520 989T469 946Q492 935 505 912T518 862Q518 825 499 800T446 774Q416 774 398 799T379 862Q379 903 407 946T482 1016T584 1044Z" />
<glyph unicode="&#xc0;" glyph-name="afii10017" horiz-adv-x="1382" d="M555 436Q365 436 242 361T119 143Q119 20 179 -49T342 -119Q393 -119 431 -97T492 -33T522 74L555 436ZM123 991Q123 1079 177 1172T339 1329T596 1393Q790 1393 919 1320T1109 1138T1178
924L1229 109Q1232 79 1262 57T1339 35Q1380 35 1400 41T1466 66Q1474 69 1490 78T1513 88Q1534 88 1534 72Q1534 48 1452 12Q1382 -14 1268 -14Q1194 -14 1149 19T1100 109L1040 924Q1032 1035 978 1130T823 1282T596 1339Q446 1339 352 1283T215 1146T172 991Q172
840 238 778T400 716Q416 716 424 717Q399 742 399 786Q399 818 418 839T469 860Q502 860 519 837T537 778Q537 730 497 698T399 666Q317 666 255 703T158 814T123 991ZM598 856Q609 960 649 1027T732 1126T813 1174Q841 1186 862 1186Q885 1186 885 1171Q885 1154
842 1135Q684 1062 664 858L625 483H999Q1028 483 1028 459Q1028 436 999 436H621L588 72Q582 13 560 -31T504 -105T428 -149T342 -164Q258 -164 197 -128T102 -23T68 143Q68 235 110 301T224 408T379 466T559 485L598 856ZM708 1618Q661 1637 661 1679Q661 1697
674 1712T712 1727Q727 1727 737 1723T764 1708L1030 1538Q1054 1522 1054 1509Q1054 1491 1034 1491Q1030 1491 1009 1497L708 1618Z" />
<glyph unicode="&#xc1;" glyph-name="afii10018" horiz-adv-x="1382" d="M555 436Q365 436 242 361T119 143Q119 20 179 -49T342 -119Q393 -119 431 -97T492 -33T522 74L555 436ZM123 991Q123 1079 177 1172T339 1329T596 1393Q790 1393 919 1320T1109 1138T1178
924L1229 109Q1232 79 1262 57T1339 35Q1380 35 1400 41T1466 66Q1474 69 1490 78T1513 88Q1534 88 1534 72Q1534 48 1452 12Q1382 -14 1268 -14Q1194 -14 1149 19T1100 109L1040 924Q1032 1035 978 1130T823 1282T596 1339Q446 1339 352 1283T215 1146T172 991Q172
840 238 778T400 716Q416 716 424 717Q399 742 399 786Q399 818 418 839T469 860Q502 860 519 837T537 778Q537 730 497 698T399 666Q317 666 255 703T158 814T123 991ZM598 856Q609 960 649 1027T732 1126T813 1174Q841 1186 862 1186Q885 1186 885 1171Q885 1154
842 1135Q684 1062 664 858L625 483H999Q1028 483 1028 459Q1028 436 999 436H621L588 72Q582 13 560 -31T504 -105T428 -149T342 -164Q258 -164 197 -128T102 -23T68 143Q68 235 110 301T224 408T379 466T559 485L598 856ZM1050 1618L749 1497Q737 1491 725 1491Q704
1491 704 1509Q704 1521 729 1538L995 1708Q1028 1727 1046 1727Q1071 1727 1084 1713T1097 1679Q1097 1637 1050 1618Z" />
<glyph unicode="&#xc2;" glyph-name="afii10019" horiz-adv-x="1382" d="M883 1760Q922 1760 953 1713L1078 1529Q1090 1517 1090 1506Q1090 1490 1071 1490Q1057 1490 1051 1502L887 1668H881L719 1502Q707 1490 699 1490Q680 1490 680 1506Q680 1519 690 1529L815
1713Q846 1760 883 1760ZM555 436Q365 436 242 361T119 143Q119 20 179 -49T342 -119Q393 -119 431 -97T492 -33T522 74L555 436ZM123 991Q123 1079 177 1172T339 1329T596 1393Q790 1393 919 1320T1109 1138T1178 924L1229 109Q1232 79 1262 57T1339 35Q1380 35
1400 41T1466 66Q1474 69 1490 78T1513 88Q1534 88 1534 72Q1534 48 1452 12Q1382 -14 1268 -14Q1194 -14 1149 19T1100 109L1040 924Q1032 1035 978 1130T823 1282T596 1339Q446 1339 352 1283T215 1146T172 991Q172 840 238 778T400 716Q416 716 424 717Q399
742 399 786Q399 818 418 839T469 860Q502 860 519 837T537 778Q537 730 497 698T399 666Q317 666 255 703T158 814T123 991ZM598 856Q609 960 649 1027T732 1126T813 1174Q841 1186 862 1186Q885 1186 885 1171Q885 1154 842 1135Q684 1062 664 858L625 483H999Q1028
483 1028 459Q1028 436 999 436H621L588 72Q582 13 560 -31T504 -105T428 -149T342 -164Q258 -164 197 -128T102 -23T68 143Q68 235 110 301T224 408T379 466T559 485L598 856Z" />
<glyph unicode="&#xc3;" glyph-name="afii10020" horiz-adv-x="1382" d="M555 436Q365 436 242 361T119 143Q119 20 179 -49T342 -119Q393 -119 431 -97T492 -33T522 74L555 436ZM123 991Q123 1079 177 1172T339 1329T596 1393Q790 1393 919 1320T1109 1138T1178
924L1229 109Q1232 79 1262 57T1339 35Q1380 35 1400 41T1466 66Q1474 69 1490 78T1513 88Q1534 88 1534 72Q1534 48 1452 12Q1382 -14 1268 -14Q1194 -14 1149 19T1100 109L1040 924Q1032 1035 978 1130T823 1282T596 1339Q446 1339 352 1283T215 1146T172 991Q172
840 238 778T400 716Q416 716 424 717Q399 742 399 786Q399 818 418 839T469 860Q502 860 519 837T537 778Q537 730 497 698T399 666Q317 666 255 703T158 814T123 991ZM598 856Q609 960 649 1027T732 1126T813 1174Q841 1186 862 1186Q885 1186 885 1171Q885 1154
842 1135Q684 1062 664 858L625 483H999Q1028 483 1028 459Q1028 436 999 436H621L588 72Q582 13 560 -31T504 -105T428 -149T342 -164Q258 -164 197 -128T102 -23T68 143Q68 235 110 301T224 408T379 466T559 485L598 856ZM883 1634Q931 1584 946 1574T987 1563Q1033
1563 1054 1600T1075 1696Q1075 1718 1094 1718Q1103 1718 1107 1712T1112 1696Q1112 1606 1075 1549T973 1491Q945 1491 926 1497T890 1515T861 1540T825 1577Q787 1620 770 1632T721 1645Q681 1645 661 1605T641 1511Q641 1491 623 1491Q604 1491 604 1511Q604
1602 641 1660T743 1718Q791 1718 816 1700T883 1634Z" />
<glyph unicode="&#xc4;" glyph-name="afii10021" horiz-adv-x="1382" d="M753 1660Q784 1660 803 1636T822 1574Q822 1539 803 1515T753 1490Q721 1490 702 1514T683 1574Q683 1610 703 1635T753 1660ZM982 1660Q1013 1660 1032 1636T1052 1574Q1052 1541 1032
1516T982 1490Q951 1490 931 1514T911 1574Q911 1608 932 1634T982 1660ZM555 436Q365 436 242 361T119 143Q119 20 179 -49T342 -119Q393 -119 431 -97T492 -33T522 74L555 436ZM123 991Q123 1079 177 1172T339 1329T596 1393Q790 1393 919 1320T1109 1138T1178
924L1229 109Q1232 79 1262 57T1339 35Q1380 35 1400 41T1466 66Q1474 69 1490 78T1513 88Q1534 88 1534 72Q1534 48 1452 12Q1382 -14 1268 -14Q1194 -14 1149 19T1100 109L1040 924Q1032 1035 978 1130T823 1282T596 1339Q446 1339 352 1283T215 1146T172 991Q172
840 238 778T400 716Q416 716 424 717Q399 742 399 786Q399 818 418 839T469 860Q502 860 519 837T537 778Q537 730 497 698T399 666Q317 666 255 703T158 814T123 991ZM598 856Q609 960 649 1027T732 1126T813 1174Q841 1186 862 1186Q885 1186 885 1171Q885 1154
842 1135Q684 1062 664 858L625 483H999Q1028 483 1028 459Q1028 436 999 436H621L588 72Q582 13 560 -31T504 -105T428 -149T342 -164Q258 -164 197 -128T102 -23T68 143Q68 235 110 301T224 408T379 466T559 485L598 856Z" />
<glyph unicode="&#xc5;" glyph-name="afii10022" horiz-adv-x="1382" d="M832 1869Q911 1869 966 1814T1022 1678Q1022 1599 967 1545T832 1490Q753 1490 697 1545T641 1678Q641 1757 697 1813T832 1869ZM832 1805Q781 1805 745 1767T709 1678Q709 1629 745 1591T832
1553Q882 1553 917 1590T953 1678Q953 1730 918 1767T832 1805ZM555 436Q365 436 242 361T119 143Q119 20 179 -49T342 -119Q393 -119 431 -97T492 -33T522 74L555 436ZM123 991Q123 1079 177 1172T339 1329T596 1393Q790 1393 919 1320T1109 1138T1178 924L1229
109Q1232 79 1262 57T1339 35Q1380 35 1400 41T1466 66Q1474 69 1490 78T1513 88Q1534 88 1534 72Q1534 48 1452 12Q1382 -14 1268 -14Q1194 -14 1149 19T1100 109L1040 924Q1032 1035 978 1130T823 1282T596 1339Q446 1339 352 1283T215 1146T172 991Q172 840
238 778T400 716Q416 716 424 717Q399 742 399 786Q399 818 418 839T469 860Q502 860 519 837T537 778Q537 730 497 698T399 666Q317 666 255 703T158 814T123 991ZM598 856Q609 960 649 1027T732 1126T813 1174Q841 1186 862 1186Q885 1186 885 1171Q885 1154
842 1135Q684 1062 664 858L625 483H999Q1028 483 1028 459Q1028 436 999 436H621L588 72Q582 13 560 -31T504 -105T428 -149T342 -164Q258 -164 197 -128T102 -23T68 143Q68 235 110 301T224 408T379 466T559 485L598 856Z" />
<glyph unicode="&#xc6;" glyph-name="afii10024" horiz-adv-x="2136" d="M555 436Q365 436 242 361T119 143Q119 20 179 -49T342 -119Q393 -119 431 -97T492 -33T522 74L555 436ZM1192 588Q1217 628 1244 658T1303 715T1368 758Q1314 798 1272 872T1229 1040Q1229
1109 1259 1174T1344 1287T1473 1364T1636 1393Q1706 1393 1764 1374T1865 1319T1931 1236T1954 1135Q1954 1084 1930 1040T1865 969T1780 942Q1692 942 1633 996T1573 1139Q1573 1176 1594 1204T1645 1233Q1676 1233 1695 1210T1714 1159Q1714 1124 1694 1096T1632
1065Q1646 1031 1685 1004T1780 977Q1816 977 1845 997T1891 1052T1909 1130Q1909 1191 1876 1240T1782 1317T1636 1346Q1559 1346 1499 1303T1405 1188T1372 1040Q1372 962 1387 905T1444 803Q1489 826 1546 843T1657 860Q1718 860 1771 831T1825 750Q1825 698
1771 669T1657 639Q1529 639 1405 729Q1325 669 1273 581T1221 399Q1221 277 1284 191T1447 62T1661 20Q1746 20 1830 61T1967 169T2019 305Q2019 400 1955 464T1800 528Q1724 528 1672 496T1593 416Q1619 408 1638 382T1657 322Q1657 292 1638 271T1589 250Q1560
250 1538 276T1516 334Q1516 385 1551 441T1651 534T1800 571Q1873 571 1935 536T2033 440T2068 305Q2068 243 2035 183T1942 75T1810 0T1655 -27Q1528 -27 1422 1T1243 83T1127 217T1077 399L1040 924Q1032 1035 978 1130T823 1282T596 1339Q450 1339 354 1283T215
1145T172 991Q172 840 238 778T400 716Q416 716 424 717Q399 742 399 786Q399 818 418 839T469 860Q502 860 519 837T537 778Q537 730 497 698T399 666Q317 666 255 703T158 814T123 991Q123 1083 178 1176T340 1331T596 1393Q789 1393 919 1320T1111 1139T1178
924L1192 588ZM598 856Q609 960 649 1027T732 1126T813 1174Q841 1186 862 1186Q885 1186 885 1171Q885 1154 842 1135Q684 1062 664 858L625 483H999Q1028 483 1028 459Q1028 436 999 436H621L588 72Q582 13 560 -31T504 -105T428 -149T342 -164Q258 -164 197
-128T102 -23T68 143Q68 235 110 301T224 408T379 466T559 485L598 856ZM1470 772Q1559 678 1657 678Q1707 678 1745 696T1784 750Q1784 781 1749 801T1657 821Q1611 821 1560 808T1470 772Z" />
<glyph unicode="&#xc7;" glyph-name="afii10025" horiz-adv-x="1249" d="M588 852Q601 795 660 758T815 721Q880 721 939 756T1035 859T1073 1014Q1073 1081 1047 1140T973 1245T861 1319T725 1346Q628 1346 538 1299T378 1166T267 956T225 682Q225 505 321 357T575
125T905 41Q1034 41 1115 57T1327 121Q1385 141 1389 141Q1401 141 1401 129Q1401 104 1327 68Q1258 36 1210 19T1081 -13T901 -27Q644 -27 459 64T178 316T82 682Q82 818 126 946T255 1175T459 1334T725 1393Q807 1393 879 1363T1006 1280T1090 1158T1120 1014Q1120
913 1077 835T963 714T815 672Q675 672 595 745T514 936Q514 972 535 996T586 1020Q615 1020 634 1000T653 948Q653 916 635 888T588 852ZM614 -373Q623 -407 671 -429T776 -451Q847 -451 883 -408T920 -307Q920 -262 890 -236T821 -201L637 -156Q588 -146 588
-111Q588 -94 599 -82T629 -70Q638 -70 643 -72L856 -121Q923 -137 962 -178T1001 -268Q1001 -351 939 -421T776 -492Q692 -492 627 -455T561 -350Q561 -307 584 -285T635 -262Q662 -262 676 -276T690 -311Q690 -373 614 -373Z" />
<glyph unicode="&#xc8;" glyph-name="afii10026" horiz-adv-x="1120" d="M352 758Q293 803 246 874T199 1040Q199 1134 251 1215T399 1344T621 1393Q711 1393 784 1359T898 1266T938 1135Q938 1084 914 1040T849 969T764 942Q676 942 617 996T557 1139Q557 1176
578 1204T629 1233Q659 1233 677 1210T696 1159Q696 1123 676 1096T616 1065Q630 1031 669 1004T764 977Q800 977 829 997T875 1052T893 1130Q893 1190 861 1239T766 1317T621 1346Q490 1346 416 1255T342 1040Q342 895 428 803Q473 826 530 843T641 860Q702 860
755 831T809 750Q809 715 783 690T717 652T641 639Q513 639 387 729Q320 679 273 591T225 399Q225 277 288 191T450 62T664 20Q749 20 828 61T956 169T1004 305Q1004 399 941 463T784 528Q707 528 655 496T575 416Q601 408 620 382T639 322Q639 292 621 271T573
250Q543 250 522 275T500 334Q500 385 535 441T635 534T784 571Q857 571 919 537T1017 441T1053 305Q1053 242 1022 182T936 75T810 1T657 -27Q392 -27 237 84T82 399Q82 477 125 548T230 673T352 758ZM455 772Q536 678 641 678Q692 678 730 696T768 750Q768 781
733 801T641 821Q595 821 544 808T455 772ZM448 1617Q401 1636 401 1678Q401 1696 414 1711T452 1726Q467 1726 477 1722T504 1707L770 1537Q794 1521 794 1508Q794 1490 774 1490Q770 1490 749 1496L448 1617Z" />
<glyph unicode="&#xc9;" glyph-name="afii10027" horiz-adv-x="1120" d="M352 758Q293 803 246 874T199 1040Q199 1134 251 1215T399 1344T621 1393Q711 1393 784 1359T898 1266T938 1135Q938 1084 914 1040T849 969T764 942Q676 942 617 996T557 1139Q557 1176
578 1204T629 1233Q659 1233 677 1210T696 1159Q696 1123 676 1096T616 1065Q630 1031 669 1004T764 977Q800 977 829 997T875 1052T893 1130Q893 1190 861 1239T766 1317T621 1346Q490 1346 416 1255T342 1040Q342 895 428 803Q473 826 530 843T641 860Q702 860
755 831T809 750Q809 715 783 690T717 652T641 639Q513 639 387 729Q320 679 273 591T225 399Q225 277 288 191T450 62T664 20Q749 20 828 61T956 169T1004 305Q1004 399 941 463T784 528Q707 528 655 496T575 416Q601 408 620 382T639 322Q639 292 621 271T573
250Q543 250 522 275T500 334Q500 385 535 441T635 534T784 571Q857 571 919 537T1017 441T1053 305Q1053 242 1022 182T936 75T810 1T657 -27Q392 -27 237 84T82 399Q82 477 125 548T230 673T352 758ZM455 772Q536 678 641 678Q692 678 730 696T768 750Q768 781
733 801T641 821Q595 821 544 808T455 772ZM786 1617L485 1496Q473 1490 461 1490Q440 1490 440 1508Q440 1520 465 1537L731 1707Q764 1726 782 1726Q807 1726 820 1712T833 1678Q833 1636 786 1617Z" />
<glyph unicode="&#xca;" glyph-name="afii10028" horiz-adv-x="1120" d="M352 758Q293 803 246 874T199 1040Q199 1134 251 1215T399 1344T621 1393Q711 1393 784 1359T898 1266T938 1135Q938 1084 914 1040T849 969T764 942Q676 942 617 996T557 1139Q557 1176
578 1204T629 1233Q659 1233 677 1210T696 1159Q696 1123 676 1096T616 1065Q630 1031 669 1004T764 977Q800 977 829 997T875 1052T893 1130Q893 1190 861 1239T766 1317T621 1346Q490 1346 416 1255T342 1040Q342 895 428 803Q473 826 530 843T641 860Q702 860
755 831T809 750Q809 715 783 690T717 652T641 639Q513 639 387 729Q320 679 273 591T225 399Q225 277 288 191T450 62T664 20Q749 20 828 61T956 169T1004 305Q1004 399 941 463T784 528Q707 528 655 496T575 416Q601 408 620 382T639 322Q639 292 621 271T573
250Q543 250 522 275T500 334Q500 385 535 441T635 534T784 571Q857 571 919 537T1017 441T1053 305Q1053 242 1022 182T936 75T810 1T657 -27Q392 -27 237 84T82 399Q82 477 125 548T230 673T352 758ZM455 772Q536 678 641 678Q692 678 730 696T768 750Q768 781
733 801T641 821Q595 821 544 808T455 772ZM592 1760Q631 1760 662 1713L787 1529Q799 1517 799 1506Q799 1490 780 1490Q766 1490 760 1502L596 1668H590L428 1502Q416 1490 408 1490Q389 1490 389 1506Q389 1519 399 1529L524 1713Q555 1760 592 1760Z" />
<glyph unicode="&#xcb;" glyph-name="afii10029" horiz-adv-x="1120" d="M352 758Q293 803 246 874T199 1040Q199 1134 251 1215T399 1344T621 1393Q711 1393 784 1359T898 1266T938 1135Q938 1084 914 1040T849 969T764 942Q676 942 617 996T557 1139Q557 1176
578 1204T629 1233Q659 1233 677 1210T696 1159Q696 1123 676 1096T616 1065Q630 1031 669 1004T764 977Q800 977 829 997T875 1052T893 1130Q893 1190 861 1239T766 1317T621 1346Q490 1346 416 1255T342 1040Q342 895 428 803Q473 826 530 843T641 860Q702 860
755 831T809 750Q809 715 783 690T717 652T641 639Q513 639 387 729Q320 679 273 591T225 399Q225 277 288 191T450 62T664 20Q749 20 828 61T956 169T1004 305Q1004 399 941 463T784 528Q707 528 655 496T575 416Q601 408 620 382T639 322Q639 292 621 271T573
250Q543 250 522 275T500 334Q500 385 535 441T635 534T784 571Q857 571 919 537T1017 441T1053 305Q1053 242 1022 182T936 75T810 1T657 -27Q392 -27 237 84T82 399Q82 477 125 548T230 673T352 758ZM455 772Q536 678 641 678Q692 678 730 696T768 750Q768 781
733 801T641 821Q595 821 544 808T455 772ZM495 1660Q526 1660 545 1636T564 1574Q564 1539 545 1515T495 1490Q463 1490 444 1514T425 1574Q425 1610 445 1635T495 1660ZM724 1660Q755 1660 774 1636T794 1574Q794 1541 774 1516T724 1490Q693 1490 673 1514T653
1574Q653 1608 674 1634T724 1660Z" />
<glyph unicode="&#xcc;" glyph-name="afii10030" horiz-adv-x="932" d="M795 301Q795 192 762 88T643 -90T410 -164Q307 -164 230 -122T111 0T68 182Q68 275 112 349T226 463T365 504Q424 504 462 476T500 397Q500 365 481 340T434 315Q402 315 384 335T365 387Q365
442 387 461Q287 461 203 387T119 182Q119 95 152 27T251 -79T410 -117Q548 -117 607 8T666 301V1202Q666 1263 633 1302T541 1341Q482 1341 430 1302T346 1192T313 1032Q314 874 382 782T588 641Q609 633 616 628T623 612Q623 603 616 597T600 590Q580 590 573
592Q459 633 392 692T294 835T264 1032Q264 1136 302 1219T407 1347T557 1393Q676 1393 735 1340T795 1202V301ZM397 1618Q350 1637 350 1679Q350 1697 363 1712T401 1727Q416 1727 426 1723T453 1708L719 1538Q743 1522 743 1509Q743 1491 723 1491Q719 1491 698
1497L397 1618Z" />
<glyph unicode="&#xcd;" glyph-name="afii10031" horiz-adv-x="932" d="M795 301Q795 192 762 88T643 -90T410 -164Q307 -164 230 -122T111 0T68 182Q68 275 112 349T226 463T365 504Q424 504 462 476T500 397Q500 365 481 340T434 315Q402 315 384 335T365 387Q365
442 387 461Q287 461 203 387T119 182Q119 95 152 27T251 -79T410 -117Q548 -117 607 8T666 301V1202Q666 1263 633 1302T541 1341Q482 1341 430 1302T346 1192T313 1032Q314 874 382 782T588 641Q609 633 616 628T623 612Q623 603 616 597T600 590Q580 590 573
592Q459 633 392 692T294 835T264 1032Q264 1136 302 1219T407 1347T557 1393Q676 1393 735 1340T795 1202V301ZM673 1618L372 1497Q360 1491 348 1491Q327 1491 327 1509Q327 1521 352 1538L618 1708Q651 1727 669 1727Q694 1727 707 1713T720 1679Q720 1637 673
1618Z" />
<glyph unicode="&#xce;" glyph-name="afii10032" horiz-adv-x="932" d="M795 301Q795 192 762 88T643 -90T410 -164Q307 -164 230 -122T111 0T68 182Q68 275 112 349T226 463T365 504Q424 504 462 476T500 397Q500 365 481 340T434 315Q402 315 384 335T365 387Q365
442 387 461Q287 461 203 387T119 182Q119 95 152 27T251 -79T410 -117Q548 -117 607 8T666 301V1202Q666 1263 633 1302T541 1341Q482 1341 430 1302T346 1192T313 1032Q314 874 382 782T588 641Q609 633 616 628T623 612Q623 603 616 597T600 590Q580 590 573
592Q459 633 392 692T294 835T264 1032Q264 1136 302 1219T407 1347T557 1393Q676 1393 735 1340T795 1202V301ZM530 1761Q569 1761 600 1714L725 1530Q737 1518 737 1507Q737 1491 718 1491Q704 1491 698 1503L534 1669H528L366 1503Q354 1491 346 1491Q327 1491
327 1507Q327 1520 337 1530L462 1714Q493 1761 530 1761Z" />
<glyph unicode="&#xcf;" glyph-name="afii10033" horiz-adv-x="932" d="M795 301Q795 192 762 88T643 -90T410 -164Q307 -164 230 -122T111 0T68 182Q68 275 112 349T226 463T365 504Q424 504 462 476T500 397Q500 365 481 340T434 315Q402 315 384 335T365 387Q365
442 387 461Q287 461 203 387T119 182Q119 95 152 27T251 -79T410 -117Q548 -117 607 8T666 301V1202Q666 1263 633 1302T541 1341Q482 1341 430 1302T346 1192T313 1032Q314 874 382 782T588 641Q609 633 616 628T623 612Q623 603 616 597T600 590Q580 590 573
592Q459 633 392 692T294 835T264 1032Q264 1136 302 1219T407 1347T557 1393Q676 1393 735 1340T795 1202V301ZM420 1661Q451 1661 470 1637T489 1575Q489 1540 470 1516T420 1491Q388 1491 369 1515T350 1575Q350 1611 370 1636T420 1661ZM649 1661Q680 1661
699 1637T719 1575Q719 1542 699 1517T649 1491Q618 1491 598 1515T578 1575Q578 1609 599 1635T649 1661Z" />
<glyph unicode="&#xd0;" glyph-name="afii10034" horiz-adv-x="2304" d="M1458 109Q1344 -27 1202 -27Q990 -27 867 160T743 649Q743 779 794 965T905 1262Q825 1216 803 1206T750 1196Q704 1196 658 1208T549 1244T437 1281T344 1294Q247 1294 183 1224T119 1051Q119
927 198 868T373 809H387Q365 835 365 883Q365 914 383 934T434 954Q453 954 468 942T491 911T500 872Q500 822 462 794T365 766Q292 766 224 798T112 895T68 1051Q68 1114 97 1176T175 1288T283 1365T403 1393Q453 1393 497 1380T605 1341T723 1302T840 1288Q915
1288 946 1346Q975 1393 985 1393Q1008 1393 1008 1372Q1008 1367 991 1327Q954 1232 928 1132T888 913T874 649Q874 464 918 336T1047 141T1245 74Q1330 74 1417 164Q1353 259 1320 389T1286 657Q1286 734 1300 829T1342 1011T1416 1155T1522 1212Q1577 1212 1619
1160T1685 1021T1708 848Q1708 748 1687 635T1628 415T1530 209Q1576 140 1640 107T1769 74Q1884 74 1980 187T2130 472T2185 811Q2185 906 2166 1004T2112 1179T2028 1303T1921 1350Q1897 1350 1888 1343Q1913 1320 1913 1276Q1913 1247 1894 1223T1843 1198Q1814
1198 1795 1220T1776 1278Q1776 1325 1814 1359T1921 1393Q1987 1393 2043 1352T2143 1232T2210 1046T2234 811Q2234 671 2204 525T2111 251T1953 48T1737 -27Q1575 -27 1458 109ZM1491 268Q1536 339 1573 442T1631 651T1651 848Q1651 965 1616 1062T1522 1159Q1488
1159 1460 1105T1416 939T1399 657Q1399 543 1424 445T1491 268Z" />
<glyph unicode="&#xd1;" glyph-name="afii10035" horiz-adv-x="1954" d="M1778 1268Q1753 1213 1753 1124V88Q1753 42 1728 8T1636 -27Q1580 -27 1543 -3T1464 88L944 950Q843 1118 740 1228T502 1339Q361 1339 276 1285T155 1155T119 1006Q119 845 183 782T342
719H358Q338 742 338 786Q338 818 357 839T408 860Q437 860 456 836T475 778Q475 731 436 703T338 674Q263 674 201 714T104 830T68 1006Q68 1116 123 1204T284 1342T522 1393Q642 1393 734 1350T892 1242T997 1117T1096 958L1610 92Q1629 57 1657 57Q1688 57 1688
88V1124Q1688 1189 1706 1253T1758 1355T1831 1393Q1865 1393 1887 1374T1909 1327Q1909 1295 1886 1273T1831 1251Q1804 1251 1778 1268ZM782 1026V139Q782 51 742 -18T631 -125T471 -164Q339 -164 252 -81T164 147Q164 240 206 312T318 423T475 461Q533 461 571
432T610 354Q610 320 592 296T545 272Q514 272 495 293T475 346Q475 393 498 416Q490 417 484 417T467 418Q371 418 293 350T215 147Q215 61 250 1T345 -89T471 -119Q582 -119 648 -49T715 137V1026Q715 1087 750 1087Q782 1087 782 1026ZM1262 1633Q1310 1583
1325 1573T1366 1562Q1412 1562 1433 1599T1454 1695Q1454 1717 1473 1717Q1482 1717 1486 1711T1491 1695Q1491 1605 1454 1548T1352 1490Q1324 1490 1305 1496T1269 1514T1240 1539T1204 1576Q1166 1619 1149 1631T1100 1644Q1060 1644 1040 1604T1020 1510Q1020
1490 1002 1490Q983 1490 983 1510Q983 1601 1020 1659T1122 1717Q1170 1717 1195 1699T1262 1633Z" />
<glyph unicode="&#xd2;" glyph-name="afii10036" horiz-adv-x="1397" d="M698 -27Q551 -27 435 33T239 196T121 425T82 682Q82 893 161 1048T364 1284T610 1366Q655 1366 655 1341Q655 1315 604 1315Q533 1315 465 1267T341 1131T252 928T219 682Q219 502 285
349T463 107T698 18Q821 18 932 107T1111 349T1178 682Q1178 812 1147 915T1062 1090T939 1197T795 1233Q707 1233 641 1189T535 1080T475 938T455 799Q455 656 485 558T574 413T713 365Q725 365 735 367T745 369Q721 393 721 438Q721 468 741 491T791 514Q821
514 839 493T858 436Q858 388 820 354T713 319Q621 319 553 371T446 532T408 799Q408 906 441 996T530 1150T655 1246T795 1278Q911 1278 1007 1232T1172 1104T1278 912T1315 682Q1315 551 1275 424T1158 195T963 34T698 -27ZM532 1617Q485 1636 485 1678Q485 1696
498 1711T536 1726Q551 1726 561 1722T588 1707L854 1537Q878 1521 878 1508Q878 1490 858 1490Q854 1490 833 1496L532 1617Z" />
<glyph unicode="&#xd3;" glyph-name="afii10037" horiz-adv-x="1397" d="M698 -27Q551 -27 435 33T239 196T121 425T82 682Q82 893 161 1048T364 1284T610 1366Q655 1366 655 1341Q655 1315 604 1315Q533 1315 465 1267T341 1131T252 928T219 682Q219 502 285
349T463 107T698 18Q821 18 932 107T1111 349T1178 682Q1178 812 1147 915T1062 1090T939 1197T795 1233Q707 1233 641 1189T535 1080T475 938T455 799Q455 656 485 558T574 413T713 365Q725 365 735 367T745 369Q721 393 721 438Q721 468 741 491T791 514Q821
514 839 493T858 436Q858 388 820 354T713 319Q621 319 553 371T446 532T408 799Q408 906 441 996T530 1150T655 1246T795 1278Q911 1278 1007 1232T1172 1104T1278 912T1315 682Q1315 551 1275 424T1158 195T963 34T698 -27ZM864 1617L563 1496Q551 1490 539 1490Q518
1490 518 1508Q518 1520 543 1537L809 1707Q842 1726 860 1726Q885 1726 898 1712T911 1678Q911 1636 864 1617Z" />
<glyph unicode="&#xd4;" glyph-name="afii10038" horiz-adv-x="1397" d="M698 -27Q551 -27 435 33T239 196T121 425T82 682Q82 893 161 1048T364 1284T610 1366Q655 1366 655 1341Q655 1315 604 1315Q533 1315 465 1267T341 1131T252 928T219 682Q219 502 285
349T463 107T698 18Q821 18 932 107T1111 349T1178 682Q1178 812 1147 915T1062 1090T939 1197T795 1233Q707 1233 641 1189T535 1080T475 938T455 799Q455 656 485 558T574 413T713 365Q725 365 735 367T745 369Q721 393 721 438Q721 468 741 491T791 514Q821
514 839 493T858 436Q858 388 820 354T713 319Q621 319 553 371T446 532T408 799Q408 906 441 996T530 1150T655 1246T795 1278Q911 1278 1007 1232T1172 1104T1278 912T1315 682Q1315 551 1275 424T1158 195T963 34T698 -27ZM715 1760Q754 1760 785 1713L910 1529Q922
1517 922 1506Q922 1490 903 1490Q889 1490 883 1502L719 1668H713L551 1502Q539 1490 531 1490Q512 1490 512 1506Q512 1519 522 1529L647 1713Q678 1760 715 1760Z" />
<glyph unicode="&#xd5;" glyph-name="afii10039" horiz-adv-x="1397" d="M698 -27Q551 -27 435 33T239 196T121 425T82 682Q82 893 161 1048T364 1284T610 1366Q655 1366 655 1341Q655 1315 604 1315Q533 1315 465 1267T341 1131T252 928T219 682Q219 502 285
349T463 107T698 18Q821 18 932 107T1111 349T1178 682Q1178 812 1147 915T1062 1090T939 1197T795 1233Q707 1233 641 1189T535 1080T475 938T455 799Q455 656 485 558T574 413T713 365Q725 365 735 367T745 369Q721 393 721 438Q721 468 741 491T791 514Q821
514 839 493T858 436Q858 388 820 354T713 319Q621 319 553 371T446 532T408 799Q408 906 441 996T530 1150T655 1246T795 1278Q911 1278 1007 1232T1172 1104T1278 912T1315 682Q1315 551 1275 424T1158 195T963 34T698 -27ZM746 1633Q794 1583 809 1573T850 1562Q896
1562 917 1599T938 1695Q938 1717 957 1717Q966 1717 970 1711T975 1695Q975 1605 938 1548T836 1490Q808 1490 789 1496T753 1514T724 1539T688 1576Q650 1619 633 1631T584 1644Q544 1644 524 1604T504 1510Q504 1490 486 1490Q467 1490 467 1510Q467 1601 504
1659T606 1717Q654 1717 679 1699T746 1633Z" />
<glyph unicode="&#xd6;" glyph-name="afii10040" horiz-adv-x="1397" d="M698 -27Q551 -27 435 33T239 196T121 425T82 682Q82 893 161 1048T364 1284T610 1366Q655 1366 655 1341Q655 1315 604 1315Q533 1315 465 1267T341 1131T252 928T219 682Q219 502 285
349T463 107T698 18Q821 18 932 107T1111 349T1178 682Q1178 812 1147 915T1062 1090T939 1197T795 1233Q707 1233 641 1189T535 1080T475 938T455 799Q455 656 485 558T574 413T713 365Q725 365 735 367T745 369Q721 393 721 438Q721 468 741 491T791 514Q821
514 839 493T858 436Q858 388 820 354T713 319Q621 319 553 371T446 532T408 799Q408 906 441 996T530 1150T655 1246T795 1278Q911 1278 1007 1232T1172 1104T1278 912T1315 682Q1315 551 1275 424T1158 195T963 34T698 -27ZM588 1660Q619 1660 638 1636T657 1574Q657
1539 638 1515T588 1490Q556 1490 537 1514T518 1574Q518 1610 538 1635T588 1660ZM817 1660Q848 1660 867 1636T887 1574Q887 1541 867 1516T817 1490Q786 1490 766 1514T746 1574Q746 1608 767 1634T817 1660Z" />
<glyph unicode="&#xd7;" glyph-name="afii10041" horiz-adv-x="819" d="M68 1366H752V0H68V1366ZM82 14H737V1352H82V14Z" />
<glyph unicode="&#xd8;" glyph-name="afii10042" horiz-adv-x="1397" d="M545 440L963 1182Q880 1233 795 1233Q707 1233 641 1189T535 1080T475 938T455 799Q455 545 545 440ZM348 86Q221 181 152 343T82 682Q82 893 161 1048T364 1284T610 1366Q655 1366 655
1341Q655 1315 604 1315Q533 1315 465 1267T341 1131T252 928T219 682Q219 586 240 493T301 319T395 174L522 399Q408 521 408 799Q408 906 441 996T530 1150T655 1246T795 1278Q898 1278 993 1237L1065 1366Q1076 1384 1080 1388T1096 1393Q1108 1393 1116 1387T1124
1368Q1124 1359 1114 1341L1042 1212Q1126 1162 1187 1082T1282 896T1315 682Q1315 551 1275 424T1158 195T963 34T698 -27Q527 -27 391 55L313 -82Q303 -100 299 -105T283 -111Q256 -111 256 -86Q256 -74 266 -59L348 86ZM434 133Q555 18 698 18Q821 18 932 107T1111
349T1178 682Q1178 788 1157 878T1096 1037T1006 1149L586 401Q638 365 713 365Q725 365 735 367T745 369Q721 393 721 438Q721 468 741 491T791 514Q821 514 839 493T858 436Q858 388 820 354T713 319Q630 319 563 365L434 133Z" />
<glyph unicode="&#xd9;" glyph-name="afii10043" horiz-adv-x="1700" d="M1509 369Q1552 435 1592 539T1661 777T1690 1038Q1690 1168 1662 1254T1585 1341Q1509 1341 1509 1178V369ZM410 1341Q264 1341 192 1238T119 1006Q119 851 185 785T342 719H358Q338 742
338 786Q338 818 357 839T408 860Q437 860 456 836T475 778Q475 731 436 703T338 674Q221 674 145 764T68 1006Q68 1107 111 1196T236 1339T426 1393Q522 1393 602 1359T729 1262T776 1112V272Q776 169 846 118T1012 66Q1131 66 1215 113T1380 260V1171Q1380 1268
1430 1330T1571 1393Q1664 1393 1703 1292T1743 1038Q1743 857 1682 646T1509 285V109Q1509 79 1539 58T1620 37Q1698 37 1778 76Q1821 94 1827 94Q1845 94 1845 78Q1845 51 1765 20Q1674 -14 1548 -14Q1470 -14 1425 18T1380 109V188Q1192 -27 987 -27Q895 -27
818 8T693 112T645 272V1112Q645 1186 610 1238T521 1315T410 1341ZM901 1617Q854 1636 854 1678Q854 1696 867 1711T905 1726Q920 1726 930 1722T957 1707L1223 1537Q1247 1521 1247 1508Q1247 1490 1227 1490Q1223 1490 1202 1496L901 1617Z" />
<glyph unicode="&#xda;" glyph-name="afii10044" horiz-adv-x="1700" d="M1509 369Q1552 435 1592 539T1661 777T1690 1038Q1690 1168 1662 1254T1585 1341Q1509 1341 1509 1178V369ZM410 1341Q264 1341 192 1238T119 1006Q119 851 185 785T342 719H358Q338 742
338 786Q338 818 357 839T408 860Q437 860 456 836T475 778Q475 731 436 703T338 674Q221 674 145 764T68 1006Q68 1107 111 1196T236 1339T426 1393Q522 1393 602 1359T729 1262T776 1112V272Q776 169 846 118T1012 66Q1131 66 1215 113T1380 260V1171Q1380 1268
1430 1330T1571 1393Q1664 1393 1703 1292T1743 1038Q1743 857 1682 646T1509 285V109Q1509 79 1539 58T1620 37Q1698 37 1778 76Q1821 94 1827 94Q1845 94 1845 78Q1845 51 1765 20Q1674 -14 1548 -14Q1470 -14 1425 18T1380 109V188Q1192 -27 987 -27Q895 -27
818 8T693 112T645 272V1112Q645 1186 610 1238T521 1315T410 1341ZM1215 1617L914 1496Q902 1490 890 1490Q869 1490 869 1508Q869 1520 894 1537L1160 1707Q1193 1726 1211 1726Q1236 1726 1249 1712T1262 1678Q1262 1636 1215 1617Z" />
<glyph unicode="&#xdb;" glyph-name="afii10045" horiz-adv-x="1700" d="M1509 369Q1552 435 1592 539T1661 777T1690 1038Q1690 1168 1662 1254T1585 1341Q1509 1341 1509 1178V369ZM410 1341Q264 1341 192 1238T119 1006Q119 851 185 785T342 719H358Q338 742
338 786Q338 818 357 839T408 860Q437 860 456 836T475 778Q475 731 436 703T338 674Q221 674 145 764T68 1006Q68 1107 111 1196T236 1339T426 1393Q522 1393 602 1359T729 1262T776 1112V272Q776 169 846 118T1012 66Q1131 66 1215 113T1380 260V1171Q1380 1268
1430 1330T1571 1393Q1664 1393 1703 1292T1743 1038Q1743 857 1682 646T1509 285V109Q1509 79 1539 58T1620 37Q1698 37 1778 76Q1821 94 1827 94Q1845 94 1845 78Q1845 51 1765 20Q1674 -14 1548 -14Q1470 -14 1425 18T1380 109V188Q1192 -27 987 -27Q895 -27
818 8T693 112T645 272V1112Q645 1186 610 1238T521 1315T410 1341ZM1051 1760Q1090 1760 1121 1713L1246 1529Q1258 1517 1258 1506Q1258 1490 1239 1490Q1225 1490 1219 1502L1055 1668H1049L887 1502Q875 1490 867 1490Q848 1490 848 1506Q848 1519 858 1529L983
1713Q1014 1760 1051 1760Z" />
<glyph unicode="&#xdc;" glyph-name="afii10046" horiz-adv-x="1700" d="M1509 369Q1552 435 1592 539T1661 777T1690 1038Q1690 1168 1662 1254T1585 1341Q1509 1341 1509 1178V369ZM410 1341Q264 1341 192 1238T119 1006Q119 851 185 785T342 719H358Q338 742
338 786Q338 818 357 839T408 860Q437 860 456 836T475 778Q475 731 436 703T338 674Q221 674 145 764T68 1006Q68 1107 111 1196T236 1339T426 1393Q522 1393 602 1359T729 1262T776 1112V272Q776 169 846 118T1012 66Q1131 66 1215 113T1380 260V1171Q1380 1268
1430 1330T1571 1393Q1664 1393 1703 1292T1743 1038Q1743 857 1682 646T1509 285V109Q1509 79 1539 58T1620 37Q1698 37 1778 76Q1821 94 1827 94Q1845 94 1845 78Q1845 51 1765 20Q1674 -14 1548 -14Q1470 -14 1425 18T1380 109V188Q1192 -27 987 -27Q895 -27
818 8T693 112T645 272V1112Q645 1186 610 1238T521 1315T410 1341ZM951 1660Q982 1660 1001 1636T1020 1574Q1020 1539 1001 1515T951 1490Q919 1490 900 1514T881 1574Q881 1610 901 1635T951 1660ZM1180 1660Q1211 1660 1230 1636T1250 1574Q1250 1541 1230
1516T1180 1490Q1149 1490 1129 1514T1109 1574Q1109 1608 1130 1634T1180 1660Z" />
<glyph unicode="&#xdd;" glyph-name="afii10047" horiz-adv-x="1825" d="M352 592Q277 592 231 508T184 301Q184 183 217 105T338 27Q427 27 466 112T506 332Q506 445 472 518T352 592ZM1757 295Q1757 195 1707 110T1571 -25T1384 -74Q1327 -74 1266 -60T1105
-16T931 32T791 49Q715 49 657 34T528 -16Q525 -18 518 -18Q498 -18 498 0V109Q476 46 421 13T285 -20Q207 -20 156 28T80 150T55 301Q55 383 92 460T192 583T330 629Q458 629 498 541V600Q498 623 516 639T559 655Q586 655 603 640T621 600V59Q710 106 860 106Q926
106 996 94T1153 63T1300 34T1427 23Q1497 23 1561 56T1665 148T1704 276Q1704 405 1610 473T1384 543Q1341 504 1305 504Q1270 504 1270 530Q1270 573 1366 573Q1408 593 1438 638T1468 737Q1468 797 1446 833T1390 884T1323 899H1311Q1319 892 1325 875T1331
848Q1331 823 1315 806T1272 788Q1243 788 1229 809T1214 858Q1214 889 1243 911T1321 934Q1403 934 1459 885T1516 745Q1516 698 1491 650T1430 575Q1436 575 1440 575T1453 576Q1530 576 1599 547T1713 454T1757 295Z" />
<glyph unicode="&#xde;" glyph-name="afii10048" horiz-adv-x="1407" d="M694 629Q560 629 479 705T397 883Q397 941 425 980T504 1020Q537 1020 561 1002T586 952Q586 921 567 902T514 883Q466 883 440 907V891Q440 811 506 741T694 670Q764 670 823 709T917
823T952 1008Q952 1088 918 1166T814 1296T645 1348Q534 1348 436 1258T278 1015T219 682Q219 547 260 428T372 221T532 84T713 35Q783 35 850 64T980 145T1094 260V1171Q1094 1265 1135 1329T1262 1393Q1328 1393 1368 1343T1425 1211T1442 1038Q1442 918 1417
783T1343 519T1223 285V109Q1223 79 1253 58T1333 37Q1411 37 1491 76Q1536 94 1540 94Q1559 94 1559 78Q1559 52 1479 20Q1388 -14 1262 -14Q1185 -14 1140 18T1094 109V188Q1044 132 992 87T863 8T698 -27Q551 -27 435 33T239 196T121 425T82 682Q82 850 155
1015T356 1287T641 1393Q741 1393 822 1343T951 1205T999 1008Q999 898 961 812T852 677T694 629ZM1223 369Q1286 485 1337 669T1389 1038Q1389 1155 1357 1248T1282 1341Q1245 1341 1235 1295T1225 1178L1223 369Z" />
<glyph unicode="&#xdf;" glyph-name="afii10049" horiz-adv-x="942" d="M485 649Q485 599 498 571T536 522T618 465Q767 373 828 324T889 195Q889 125 852 77T751 4T608 -20Q501 -20 437 16T373 127Q373 161 392 184T440 207Q473 207 492 185T512 127Q512 100
502 77T477 43Q519 14 608 14Q681 14 720 69T760 203Q760 338 578 444Q537 467 502 488T442 532T400 589T383 666Q383 720 416 773T521 910T623 1037T653 1124Q653 1198 628 1251T559 1332T461 1360Q396 1360 352 1318T287 1213T266 1085V0Q266 -81 235 -163T163
-300T96 -354Q80 -354 80 -340Q80 -325 96 -301Q120 -259 131 -204T143 0V573H-47Q-70 573 -70 590Q-70 608 -47 608H143V1085Q143 1215 230 1304T461 1393Q529 1393 590 1359T689 1264T727 1124Q727 1031 695 968T599 836T510 735T485 649Z" />
<glyph unicode="&#xe0;" glyph-name="afii10065" horiz-adv-x="766" d="M498 600Q498 623 516 639T559 655Q586 655 603 640T621 600V109Q621 78 652 53T731 27Q784 27 826 44T891 78Q897 82 905 82Q918 82 918 72Q918 46 836 14Q765 -14 674 -14Q599 -14 549
20T498 109Q476 46 421 13T285 -20Q207 -20 156 28T80 150T55 301Q55 383 92 460T192 583T330 629Q458 629 498 541V600ZM352 592Q277 592 231 508T184 301Q184 183 217 105T338 27Q427 27 466 112T506 332Q506 445 472 518T352 592ZM184 852Q137 871 137 913Q137
931 150 946T188 961Q203 961 213 957T240 942L506 772Q530 756 530 743Q530 725 510 725Q506 725 485 731L184 852Z" />
<glyph unicode="&#xe1;" glyph-name="afii10066" horiz-adv-x="766" d="M498 600Q498 623 516 639T559 655Q586 655 603 640T621 600V109Q621 78 652 53T731 27Q784 27 826 44T891 78Q897 82 905 82Q918 82 918 72Q918 46 836 14Q765 -14 674 -14Q599 -14 549
20T498 109Q476 46 421 13T285 -20Q207 -20 156 28T80 150T55 301Q55 383 92 460T192 583T330 629Q458 629 498 541V600ZM352 592Q277 592 231 508T184 301Q184 183 217 105T338 27Q427 27 466 112T506 332Q506 445 472 518T352 592ZM483 852L182 731Q170 725 158
725Q137 725 137 743Q137 755 162 772L428 942Q461 961 479 961Q504 961 517 947T530 913Q530 871 483 852Z" />
<glyph unicode="&#xe2;" glyph-name="afii10067" horiz-adv-x="766" d="M498 600Q498 623 516 639T559 655Q586 655 603 640T621 600V109Q621 78 652 53T731 27Q784 27 826 44T891 78Q897 82 905 82Q918 82 918 72Q918 46 836 14Q765 -14 674 -14Q599 -14 549
20T498 109Q476 46 421 13T285 -20Q207 -20 156 28T80 150T55 301Q55 383 92 460T192 583T330 629Q458 629 498 541V600ZM352 592Q277 592 231 508T184 301Q184 183 217 105T338 27Q427 27 466 112T506 332Q506 445 472 518T352 592ZM345 995Q384 995 415 948L540
764Q552 752 552 741Q552 725 533 725Q519 725 513 737L349 903H343L181 737Q169 725 161 725Q142 725 142 741Q142 754 152 764L277 948Q308 995 345 995Z" />
<glyph unicode="&#xe3;" glyph-name="afii10068" horiz-adv-x="766" d="M498 600Q498 623 516 639T559 655Q586 655 603 640T621 600V109Q621 78 652 53T731 27Q784 27 826 44T891 78Q897 82 905 82Q918 82 918 72Q918 46 836 14Q765 -14 674 -14Q599 -14 549
20T498 109Q476 46 421 13T285 -20Q207 -20 156 28T80 150T55 301Q55 383 92 460T192 583T330 629Q458 629 498 541V600ZM352 592Q277 592 231 508T184 301Q184 183 217 105T338 27Q427 27 466 112T506 332Q506 445 472 518T352 592ZM361 868Q409 818 424 808T465
797Q511 797 532 834T553 930Q553 952 572 952Q581 952 585 946T590 930Q590 840 553 783T451 725Q423 725 404 731T368 749T339 774T303 811Q265 854 248 866T199 879Q159 879 139 839T119 745Q119 725 101 725Q82 725 82 745Q82 836 119 894T221 952Q269 952
294 934T361 868Z" />
<glyph unicode="&#xe4;" glyph-name="afii10069" horiz-adv-x="766" d="M498 600Q498 623 516 639T559 655Q586 655 603 640T621 600V109Q621 78 652 53T731 27Q784 27 826 44T891 78Q897 82 905 82Q918 82 918 72Q918 46 836 14Q765 -14 674 -14Q599 -14 549
20T498 109Q476 46 421 13T285 -20Q207 -20 156 28T80 150T55 301Q55 383 92 460T192 583T330 629Q458 629 498 541V600ZM352 592Q277 592 231 508T184 301Q184 183 217 105T338 27Q427 27 466 112T506 332Q506 445 472 518T352 592ZM238 895Q269 895 288 871T307
809Q307 774 288 750T238 725Q206 725 187 749T168 809Q168 845 188 870T238 895ZM467 895Q498 895 517 871T537 809Q537 776 517 751T467 725Q436 725 416 749T396 809Q396 843 417 869T467 895Z" />
<glyph unicode="&#xe5;" glyph-name="afii10070" horiz-adv-x="766" d="M498 600Q498 623 516 639T559 655Q586 655 603 640T621 600V109Q621 78 652 53T731 27Q784 27 826 44T891 78Q897 82 905 82Q918 82 918 72Q918 46 836 14Q765 -14 674 -14Q599 -14 549
20T498 109Q476 46 421 13T285 -20Q207 -20 156 28T80 150T55 301Q55 383 92 460T192 583T330 629Q458 629 498 541V600ZM352 592Q277 592 231 508T184 301Q184 183 217 105T338 27Q427 27 466 112T506 332Q506 445 472 518T352 592ZM360 1104Q439 1104 494 1049T550
913Q550 834 495 780T360 725Q281 725 225 780T169 913Q169 992 225 1048T360 1104ZM360 1040Q309 1040 273 1002T237 913Q237 864 273 826T360 788Q410 788 445 825T481 913Q481 965 446 1002T360 1040Z" />
<glyph unicode="&#xe6;" glyph-name="afii10072" horiz-adv-x="1012" d="M524 178Q487 -20 285 -20Q207 -20 156 28T80 150T55 301Q55 383 92 460T192 583T330 629Q458 629 498 541V616Q498 640 516 656T559 672Q586 672 603 657T621 616V551Q642 586 687 607T784
629Q868 629 923 589T979 481Q979 296 621 281Q623 183 700 104T901 25Q960 25 998 30T1067 48T1137 80Q1146 86 1153 86Q1163 86 1163 76Q1163 50 1083 18Q992 -20 852 -20Q585 -20 524 178ZM352 592Q277 592 231 508T184 301Q184 183 217 105T338 27Q427 27 466
112T506 332Q506 445 472 518T352 592ZM621 307Q747 320 812 360T877 479Q877 534 850 564T784 594Q736 594 699 559T642 459T621 307Z" />
<glyph unicode="&#xe7;" glyph-name="afii10073" horiz-adv-x="614" d="M184 301Q184 229 221 165T328 62T485 23Q585 23 641 38T739 78Q751 82 754 82Q766 82 766 72Q766 46 684 14Q654 2 584 -9T449 -20Q330 -20 242 15T104 122T55 301Q55 393 98 468T213 586T373
629Q469 629 515 592T561 502Q561 467 544 442T496 416Q422 416 422 502Q422 545 451 578Q417 594 373 594Q317 594 275 556T208 451T184 301ZM238 -328Q244 -356 282 -375T365 -395Q421 -395 456 -357T492 -270Q492 -230 465 -208T403 -178L258 -141Q215 -130
215 -100Q215 -66 252 -66Q258 -66 262 -66T270 -68L434 -109Q488 -121 524 -158T561 -246Q561 -288 536 -331T465 -402T365 -430Q298 -430 244 -397T190 -307Q190 -271 210 -251T254 -231Q277 -231 290 -244T303 -272Q303 -328 238 -328Z" />
<glyph unicode="&#xe8;" glyph-name="afii10074" horiz-adv-x="573" d="M184 307Q309 320 373 360T438 479Q438 535 413 564T346 594Q299 594 262 559T205 459T184 307ZM184 281Q184 219 218 160T317 63T463 25Q509 25 537 27T596 38T653 58T698 80Q709 86 715
86Q727 86 727 76Q727 50 645 18Q558 -20 416 -20Q242 -20 149 62T55 301Q55 356 76 415T136 522T229 599T346 629Q433 629 488 590T543 481Q543 411 496 368T372 306T184 281ZM154 852Q107 871 107 913Q107 931 120 946T158 961Q173 961 183 957T210 942L476 772Q500
756 500 743Q500 725 480 725Q476 725 455 731L154 852Z" />
<glyph unicode="&#xe9;" glyph-name="afii10075" horiz-adv-x="573" d="M184 307Q309 320 373 360T438 479Q438 535 413 564T346 594Q299 594 262 559T205 459T184 307ZM184 281Q184 219 218 160T317 63T463 25Q509 25 537 27T596 38T653 58T698 80Q709 86 715
86Q727 86 727 76Q727 50 645 18Q558 -20 416 -20Q242 -20 149 62T55 301Q55 356 76 415T136 522T229 599T346 629Q433 629 488 590T543 481Q543 411 496 368T372 306T184 281ZM471 852L170 731Q158 725 146 725Q125 725 125 743Q125 755 150 772L416 942Q449 961
467 961Q492 961 505 947T518 913Q518 871 471 852Z" />
<glyph unicode="&#xea;" glyph-name="afii10076" horiz-adv-x="573" d="M184 307Q309 320 373 360T438 479Q438 535 413 564T346 594Q299 594 262 559T205 459T184 307ZM184 281Q184 219 218 160T317 63T463 25Q509 25 537 27T596 38T653 58T698 80Q709 86 715
86Q727 86 727 76Q727 50 645 18Q558 -20 416 -20Q242 -20 149 62T55 301Q55 356 76 415T136 522T229 599T346 629Q433 629 488 590T543 481Q543 411 496 368T372 306T184 281ZM321 995Q360 995 391 948L516 764Q528 752 528 741Q528 725 509 725Q495 725 489 737L325
903H319L157 737Q145 725 137 725Q118 725 118 741Q118 754 128 764L253 948Q284 995 321 995Z" />
<glyph unicode="&#xeb;" glyph-name="afii10077" horiz-adv-x="573" d="M184 307Q309 320 373 360T438 479Q438 535 413 564T346 594Q299 594 262 559T205 459T184 307ZM184 281Q184 219 218 160T317 63T463 25Q509 25 537 27T596 38T653 58T698 80Q709 86 715
86Q727 86 727 76Q727 50 645 18Q558 -20 416 -20Q242 -20 149 62T55 301Q55 356 76 415T136 522T229 599T346 629Q433 629 488 590T543 481Q543 411 496 368T372 306T184 281ZM221 895Q252 895 271 871T290 809Q290 774 271 750T221 725Q189 725 170 749T151 809Q151
845 171 870T221 895ZM450 895Q481 895 500 871T520 809Q520 776 500 751T450 725Q419 725 399 749T379 809Q379 843 400 869T450 895Z" />
<glyph unicode="&#xec;" glyph-name="afii10078" horiz-adv-x="410" d="M266 109Q266 77 297 52T377 27Q414 27 447 37T507 62T537 78Q541 82 549 82Q563 82 563 72Q563 46 481 14Q406 -14 319 -14Q243 -14 193 20T143 109V573Q143 597 161 613T205 629Q231 629
248 614T266 573V109ZM55 852Q8 873 8 913Q8 931 21 946T61 961Q75 961 83 957T111 942L377 772Q403 755 403 743Q403 725 381 725Q374 725 356 731L55 852Z" />
<glyph unicode="&#xed;" glyph-name="afii10079" horiz-adv-x="410" d="M266 109Q266 77 297 52T377 27Q414 27 447 37T507 62T537 78Q541 82 549 82Q563 82 563 72Q563 46 481 14Q406 -14 319 -14Q243 -14 193 20T143 109V573Q143 597 161 613T205 629Q231 629
248 614T266 573V109ZM354 852L53 731Q41 725 31 725Q8 725 8 743Q8 757 33 772L301 942Q330 961 350 961Q376 961 389 946T403 913Q403 872 354 852Z" />
<glyph unicode="&#xee;" glyph-name="afii10080" horiz-adv-x="410" d="M266 109Q266 77 297 52T377 27Q414 27 447 37T507 62T537 78Q541 82 549 82Q563 82 563 72Q563 46 481 14Q406 -14 319 -14Q243 -14 193 20T143 109V573Q143 597 161 613T205 629Q231 629
248 614T266 573V109ZM205 995Q245 995 274 948L399 764Q410 753 410 741Q410 725 391 725Q383 725 371 737L209 903H203L39 737Q33 725 18 725Q0 725 0 741Q0 752 12 764L137 948Q168 995 205 995Z" />
<glyph unicode="&#xef;" glyph-name="afii10081" horiz-adv-x="410" d="M266 109Q266 77 297 52T377 27Q414 27 447 37T507 62T537 78Q541 82 549 82Q563 82 563 72Q563 46 481 14Q406 -14 319 -14Q243 -14 193 20T143 109V573Q143 597 161 613T205 629Q231 629
248 614T266 573V109ZM90 895Q121 895 140 871T160 809Q160 776 140 751T90 725Q59 725 40 749T20 809Q20 845 40 870T90 895ZM319 895Q350 895 369 871T389 809Q389 776 369 751T319 725Q287 725 269 750T250 809Q250 845 270 870T319 895Z" />
<glyph unicode="&#xf0;" glyph-name="afii10082" horiz-adv-x="1335" d="M866 147Q745 244 673 291T529 363T369 387Q276 387 206 342T135 221Q135 163 193 117T348 46T547 20Q733 20 866 147ZM1040 164Q1135 88 1300 -41T1589 -253T1824 -382T2025 -430Q2131
-430 2195 -379T2259 -244Q2259 -189 2222 -149T2132 -109Q2038 -109 2005 -197Q2044 -200 2067 -222T2091 -281Q2091 -308 2071 -331T2021 -354Q1988 -354 1967 -329T1946 -270Q1946 -222 1968 -176T2034 -102T2132 -74Q2174 -74 2214 -96T2279 -158T2304 -248Q2304
-303 2267 -356T2162 -443T2005 -477Q1833 -477 1661 -401T1336 -217T934 88Q851 26 759 0T547 -27Q419 -27 313 2T145 88T82 221Q82 287 126 339T239 420T379 449Q485 449 568 431T733 371T948 236Q1029 334 1073 459T1118 700Q1118 887 1053 1035T874 1265T616
1348Q532 1348 457 1316T327 1230T241 1111T211 983Q211 890 241 817T322 693T438 616T571 590Q666 590 730 629T824 732T854 872Q854 933 822 986T737 1070T625 1102Q490 1102 426 989Q450 981 469 955T489 895Q489 865 470 844T422 823Q394 823 372 848T350 909Q350
989 426 1067T625 1145Q698 1145 762 1106T864 1003T901 872Q901 782 858 703T734 577T547 530Q443 530 344 576T183 713T121 930Q121 1062 187 1168T367 1333T616 1393Q799 1393 944 1299T1171 1045T1253 700Q1253 587 1228 487T1156 305T1040 164Z" />
<glyph unicode="&#xf1;" glyph-name="afii10083" horiz-adv-x="836" d="M692 109Q692 77 723 52T801 27Q872 27 961 78Q967 82 975 82Q987 82 987 72Q987 46 905 14Q834 -14 743 -14Q667 -14 617 20T567 109V461Q567 492 552 520T507 565T438 582Q307 582 266
399V41Q266 -14 205 -14Q183 -14 163 -1T143 41V600Q143 623 161 639T205 655Q231 655 248 640T266 600V494Q334 629 479 629Q525 629 575 611T658 553T692 461V109ZM453 868Q501 818 516 808T557 797Q603 797 624 834T645 930Q645 952 664 952Q673 952 677 946T682
930Q682 840 645 783T543 725Q515 725 496 731T460 749T431 774T395 811Q357 854 340 866T291 879Q251 879 231 839T211 745Q211 725 193 725Q174 725 174 745Q174 836 211 894T313 952Q361 952 386 934T453 868Z" />
<glyph unicode="&#xf2;" glyph-name="afii10084" horiz-adv-x="705" d="M479 573Q548 542 598 471T649 301Q649 213 612 140T507 23T352 -20Q261 -20 194 24T91 143T55 301Q55 413 103 490T215 605T326 643Q348 643 348 629Q348 612 326 608Q254 585 219 505T184
301Q184 219 196 158T246 55T352 14Q410 14 447 52T501 154T518 301Q518 379 499 442T451 539T391 573Q365 573 365 592Q365 608 391 608H594Q614 608 614 592Q614 573 598 573H479ZM194 852Q147 871 147 913Q147 931 160 946T198 961Q213 961 223 957T250 942L516
772Q540 756 540 743Q540 725 520 725Q516 725 495 731L194 852Z" />
<glyph unicode="&#xf3;" glyph-name="afii10085" horiz-adv-x="705" d="M479 573Q548 542 598 471T649 301Q649 213 612 140T507 23T352 -20Q261 -20 194 24T91 143T55 301Q55 413 103 490T215 605T326 643Q348 643 348 629Q348 612 326 608Q254 585 219 505T184
301Q184 219 196 158T246 55T352 14Q410 14 447 52T501 154T518 301Q518 379 499 442T451 539T391 573Q365 573 365 592Q365 608 391 608H594Q614 608 614 592Q614 573 598 573H479ZM497 852L196 731Q184 725 172 725Q151 725 151 743Q151 755 176 772L442 942Q475
961 493 961Q518 961 531 947T544 913Q544 871 497 852Z" />
<glyph unicode="&#xf4;" glyph-name="afii10086" horiz-adv-x="705" d="M479 573Q548 542 598 471T649 301Q649 213 612 140T507 23T352 -20Q261 -20 194 24T91 143T55 301Q55 413 103 490T215 605T326 643Q348 643 348 629Q348 612 326 608Q254 585 219 505T184
301Q184 219 196 158T246 55T352 14Q410 14 447 52T501 154T518 301Q518 379 499 442T451 539T391 573Q365 573 365 592Q365 608 391 608H594Q614 608 614 592Q614 573 598 573H479ZM344 995Q383 995 414 948L539 764Q551 752 551 741Q551 725 532 725Q518 725
512 737L348 903H342L180 737Q168 725 160 725Q141 725 141 741Q141 754 151 764L276 948Q307 995 344 995Z" />
<glyph unicode="&#xf5;" glyph-name="afii10087" horiz-adv-x="705" d="M479 573Q548 542 598 471T649 301Q649 213 612 140T507 23T352 -20Q261 -20 194 24T91 143T55 301Q55 413 103 490T215 605T326 643Q348 643 348 629Q348 612 326 608Q254 585 219 505T184
301Q184 219 196 158T246 55T352 14Q410 14 447 52T501 154T518 301Q518 379 499 442T451 539T391 573Q365 573 365 592Q365 608 391 608H594Q614 608 614 592Q614 573 598 573H479ZM629 868Q677 818 692 808T733 797Q779 797 800 834T821 930Q821 952 840 952Q849
952 853 946T858 930Q858 840 821 783T719 725Q691 725 672 731T636 749T607 774T571 811Q533 854 516 866T467 879Q427 879 407 839T387 745Q387 725 369 725Q350 725 350 745Q350 836 387 894T489 952Q537 952 562 934T629 868Z" />
<glyph unicode="&#xf6;" glyph-name="afii10088" horiz-adv-x="705" d="M479 573Q548 542 598 471T649 301Q649 213 612 140T507 23T352 -20Q261 -20 194 24T91 143T55 301Q55 413 103 490T215 605T326 643Q348 643 348 629Q348 612 326 608Q254 585 219 505T184
301Q184 219 196 158T246 55T352 14Q410 14 447 52T501 154T518 301Q518 379 499 442T451 539T391 573Q365 573 365 592Q365 608 391 608H594Q614 608 614 592Q614 573 598 573H479ZM225 895Q256 895 275 871T294 809Q294 774 275 750T225 725Q193 725 174 749T155
809Q155 845 175 870T225 895ZM454 895Q485 895 504 871T524 809Q524 776 504 751T454 725Q423 725 403 749T383 809Q383 843 404 869T454 895Z" />
<glyph unicode="&#xf7;" glyph-name="afii10089" horiz-adv-x="848" d="M995 -186L270 305Q356 404 408 463T500 559T577 612T659 629Q720 629 756 597T793 506Q793 468 774 442T725 416Q691 416 673 442T655 506Q655 526 665 551T684 584Q672 588 647 588Q610
588 577 568T511 513T381 369L1049 -88Q1153 -158 1210 -193T1334 -261T1471 -316T1604 -338Q1637 -338 1667 -328T1720 -306T1751 -289Q1757 -283 1765 -283Q1778 -283 1778 -295Q1778 -321 1690 -356Q1660 -368 1614 -377T1530 -387Q1460 -387 1373 -365T1188
-297T995 -186ZM266 780V41Q266 -14 205 -14Q183 -14 163 -1T143 41V1202Q143 1283 195 1338T344 1393Q434 1393 487 1335T541 1180Q541 1058 468 952T266 780ZM266 819Q323 852 374 903T459 1022T492 1176Q492 1227 477 1268T432 1332T360 1356Q266 1356 266 1202V819Z"
/>
<glyph unicode="&#xf8;" glyph-name="afii10090" horiz-adv-x="705" d="M213 12L166 -66Q160 -76 149 -76Q145 -76 139 -74Q130 -67 130 -57Q130 -52 133 -47L180 33Q120 77 88 149T55 301Q55 413 103 490T215 605T326 643Q348 643 348 629Q348 612 326 608Q254
585 219 505T184 301Q184 169 217 98L463 524Q452 546 431 559T391 573Q365 573 365 592Q365 608 391 608Q439 608 492 573L541 659Q547 670 558 670Q561 670 567 668Q577 662 577 653Q577 646 573 641L524 553Q578 510 613 445T649 301Q649 213 612 140T507 23T352
-20Q275 -20 213 12ZM240 61Q280 14 352 14Q410 14 447 52T501 154T518 301Q518 411 485 485L240 61Z" />
<glyph unicode="&#xf9;" glyph-name="afii10091" horiz-adv-x="821" d="M555 115Q497 -20 342 -20Q295 -20 248 -2T172 55T143 147V573Q143 597 161 613T205 629Q231 629 248 614T266 573V147Q266 96 295 62T381 27Q517 27 555 207V573Q555 597 573 613T616 629Q642
629 660 613T678 573V109Q678 77 709 52T788 27Q870 27 946 78Q952 82 961 82Q973 82 973 72Q973 46 893 14Q818 -14 731 -14Q652 -14 604 20T555 115ZM253 852Q206 871 206 913Q206 931 219 946T257 961Q272 961 282 957T309 942L575 772Q599 756 599 743Q599
725 579 725Q575 725 554 731L253 852Z" />
<glyph unicode="&#xfa;" glyph-name="afii10092" horiz-adv-x="821" d="M555 115Q497 -20 342 -20Q295 -20 248 -2T172 55T143 147V573Q143 597 161 613T205 629Q231 629 248 614T266 573V147Q266 96 295 62T381 27Q517 27 555 207V573Q555 597 573 613T616 629Q642
629 660 613T678 573V109Q678 77 709 52T788 27Q870 27 946 78Q952 82 961 82Q973 82 973 72Q973 46 893 14Q818 -14 731 -14Q652 -14 604 20T555 115ZM542 852L241 731Q229 725 217 725Q196 725 196 743Q196 755 221 772L487 942Q520 961 538 961Q563 961 576
947T589 913Q589 871 542 852Z" />
<glyph unicode="&#xfb;" glyph-name="afii10093" horiz-adv-x="821" d="M555 115Q497 -20 342 -20Q295 -20 248 -2T172 55T143 147V573Q143 597 161 613T205 629Q231 629 248 614T266 573V147Q266 96 295 62T381 27Q517 27 555 207V573Q555 597 573 613T616 629Q642
629 660 613T678 573V109Q678 77 709 52T788 27Q870 27 946 78Q952 82 961 82Q973 82 973 72Q973 46 893 14Q818 -14 731 -14Q652 -14 604 20T555 115ZM401 995Q440 995 471 948L596 764Q608 752 608 741Q608 725 589 725Q575 725 569 737L405 903H399L237 737Q225
725 217 725Q198 725 198 741Q198 754 208 764L333 948Q364 995 401 995Z" />
<glyph unicode="&#xfc;" glyph-name="afii10094" horiz-adv-x="821" d="M555 115Q497 -20 342 -20Q295 -20 248 -2T172 55T143 147V573Q143 597 161 613T205 629Q231 629 248 614T266 573V147Q266 96 295 62T381 27Q517 27 555 207V573Q555 597 573 613T616 629Q642
629 660 613T678 573V109Q678 77 709 52T788 27Q870 27 946 78Q952 82 961 82Q973 82 973 72Q973 46 893 14Q818 -14 731 -14Q652 -14 604 20T555 115ZM291 895Q322 895 341 871T360 809Q360 774 341 750T291 725Q259 725 240 749T221 809Q221 845 241 870T291
895ZM520 895Q551 895 570 871T590 809Q590 776 570 751T520 725Q489 725 469 749T449 809Q449 843 470 869T520 895Z" />
<glyph unicode="&#xfd;" glyph-name="afii10095" horiz-adv-x="766" d="M498 1202Q498 1283 551 1338T700 1393Q789 1393 843 1335T897 1180Q897 1058 823 952T621 780V109Q621 78 652 53T731 27Q784 27 826 44T891 78Q897 82 905 82Q918 82 918 72Q918 46 836
14Q765 -14 674 -14Q599 -14 549 20T498 109Q476 46 421 13T285 -20Q207 -20 156 28T80 150T55 301Q55 383 92 460T192 583T330 629Q451 629 498 543V1202ZM352 592Q277 592 231 508T184 301Q184 183 217 105T338 27Q427 27 466 112T506 332Q506 445 472 518T352
592ZM621 819Q715 875 780 964T846 1176Q846 1227 831 1268T787 1332T715 1356Q621 1356 621 1202V819Z" />
<glyph unicode="&#xfe;" glyph-name="afii10096" horiz-adv-x="1122" d="M1022 1307Q977 1252 947 1227T866 1202Q814 1202 760 1225T650 1271T543 1294Q500 1294 456 1267T383 1194T354 1096Q354 1019 397 969T537 862L780 717Q851 674 899 636T986 533T1024
385Q1024 275 946 180T748 29T508 -27Q425 -27 327 10T160 125T92 317Q92 412 142 484T269 592T420 629Q508 629 573 593T672 504T705 403Q705 366 681 337T625 307Q594 307 575 326T555 379Q555 406 575 435T627 475Q605 516 552 550T416 584Q349 584 285 550T181
454T141 317Q141 220 204 153T354 53T508 20Q612 20 704 64T851 185T905 354Q905 456 856 512T709 629L483 770Q414 814 373 851T310 940T287 1069Q287 1119 309 1176T370 1283T466 1362T586 1393Q641 1393 678 1379T765 1333T844 1289T920 1276Q950 1276 963 1285T997
1323Q1007 1333 1016 1333Q1028 1333 1028 1321Q1028 1313 1022 1307Z" />
<glyph unicode="&#xff;" glyph-name="afii10097" horiz-adv-x="786" d="M412 0Q358 -31 321 -105T283 -264Q283 -311 299 -353T348 -420T424 -444Q514 -444 518 -307L530 117Q520 87 500 65T457 28T412 0ZM96 545Q93 573 66 573H23Q0 573 0 590Q0 608 23 608H150Q213
608 217 547L252 147Q257 88 283 58T367 27Q424 27 472 80T524 211L541 567Q541 595 557 612T602 629Q631 629 647 611T664 567L635 -289Q632 -367 575 -422T424 -477Q336 -477 283 -421T229 -260Q229 -195 255 -131T330 -20Q151 -20 133 137L96 545ZM246 895Q277
895 296 871T315 809Q315 774 296 750T246 725Q214 725 195 749T176 809Q176 845 196 870T246 895ZM475 895Q506 895 525 871T545 809Q545 776 525 751T475 725Q444 725 424 749T404 809Q404 843 425 869T475 895Z" />
<glyph unicode="&#x152;" glyph-name="OE" horiz-adv-x="2185" d="M1135 221Q987 -27 678 -27Q539 -27 426 33T236 196T121 425T82 682Q82 893 161 1048T364 1284T610 1366Q655 1366 655 1341Q655 1315 604 1315Q533 1315 465 1267T341 1131T252 928T219 682Q219
501 281 349T450 107T678 18Q800 18 906 107T1074 348T1137 682Q1137 814 1110 918T1034 1092T920 1197T782 1233Q672 1233 598 1161T489 988T455 799Q455 656 485 558T574 413T713 365Q725 365 735 367T745 369Q721 393 721 438Q721 468 741 491T791 514Q821 514
839 493T858 436Q858 388 820 354T713 319Q621 319 553 371T446 532T408 799Q408 941 463 1051T604 1220T782 1278Q892 1278 982 1233T1138 1105T1239 914T1274 682Q1274 682 1274 682T1272 662Q1338 717 1417 758Q1359 801 1313 874T1266 1040Q1266 1134 1318
1215T1465 1344T1686 1393Q1776 1393 1849 1359T1963 1266T2003 1135Q2003 1084 1979 1040T1914 969T1829 942Q1741 942 1682 996T1622 1139Q1622 1176 1643 1204T1694 1233Q1725 1233 1744 1210T1763 1159Q1763 1124 1743 1096T1681 1065Q1695 1031 1734 1004T1829
977Q1865 977 1894 997T1940 1052T1958 1130Q1958 1191 1925 1240T1831 1317T1686 1346Q1555 1346 1482 1255T1409 1040Q1409 893 1493 803Q1538 826 1595 843T1706 860Q1767 860 1820 831T1874 750Q1874 715 1848 690T1782 652T1706 639Q1580 639 1454 729Q1366
678 1302 590T1237 371Q1237 201 1383 111T1729 20Q1815 20 1894 61T2022 169T2071 305Q2071 400 2006 464T1849 528Q1773 528 1721 496T1642 416Q1668 408 1687 382T1706 322Q1706 292 1687 271T1638 250Q1609 250 1587 276T1565 334Q1565 385 1600 441T1700 534T1849
571Q1922 571 1984 537T2082 441T2118 305Q2118 243 2088 183T2001 75T1874 0T1724 -27Q1242 -27 1135 221ZM1522 772Q1555 735 1602 707T1706 678Q1756 678 1794 696T1833 750Q1833 781 1798 801T1706 821Q1661 821 1610 808T1522 772Z" />
<glyph unicode="&#x153;" glyph-name="oe" horiz-adv-x="1038" d="M582 123Q551 60 489 20T352 -20Q261 -20 194 24T91 143T55 301Q55 413 103 490T215 605T326 643Q348 643 348 629Q348 612 326 608Q254 585 219 505T184 301Q184 219 196 158T246 55T352 14Q410
14 447 52T501 154T518 301Q518 379 499 442T451 539T391 573Q365 573 365 592Q365 608 391 608Q439 608 491 574T580 483Q613 547 676 588T811 629Q898 629 953 590T1008 481Q1008 411 961 368T837 306T649 281Q649 219 683 160T782 63T928 25Q974 25 1002 27T1061
38T1118 58T1163 80Q1172 86 1180 86Q1190 86 1190 76Q1190 50 1110 18Q1019 -20 879 -20Q781 -20 703 18T582 123ZM649 307Q774 320 838 360T903 479Q903 535 878 564T811 594Q764 594 727 559T670 459T649 307Z" />
<glyph unicode="&#x160;" glyph-name="Scaron" horiz-adv-x="1624" d="M1352 285Q1358 169 1414 102T1554 35Q1638 35 1710 66Q1718 69 1734 78T1757 88Q1776 88 1776 72Q1776 47 1696 12Q1626 -14 1483 -14Q1400 -14 1340 33T1249 162Q1179 77 1122 32T997 -14Q950
-14 892 -1T749 39T617 78T524 90Q449 90 418 33Q390 -14 379 -14Q356 -14 356 6Q356 13 373 51Q431 174 467 257T540 451T603 704T629 999Q629 1094 597 1173T509 1299T377 1346Q299 1346 240 1310T150 1209T119 1065Q119 940 199 875T373 809H387Q365 831 365
874Q365 905 384 929T432 954Q452 954 467 943T491 912T500 872Q500 822 462 794T365 766Q293 766 225 800T112 903T68 1065Q68 1153 105 1228T216 1348T397 1393Q490 1393 573 1345T707 1211T758 1012Q758 898 730 774T660 542T578 348T465 115Q489 138 530 157T606
176Q653 176 703 166T827 136T950 106T1051 96Q1103 96 1133 116T1235 205Q1223 229 1223 268V1171Q1223 1269 1271 1331T1413 1393Q1475 1393 1513 1344T1568 1213T1585 1038Q1585 956 1570 852T1526 652T1453 458T1352 285ZM1352 369Q1392 432 1434 540T1504
779T1532 1038Q1532 1168 1504 1254T1427 1341Q1352 1341 1352 1178V369Z" />
<glyph unicode="&#x161;" glyph-name="scaron" horiz-adv-x="1778" d="M1341 1350Q1236 1350 1171 1265T1106 1092V1077Q1126 1102 1180 1102Q1213 1102 1232 1083T1251 1030Q1251 1001 1226 983T1169 965Q1119 965 1091 1001T1063 1100Q1063 1170 1095 1238T1191
1350T1341 1393Q1417 1393 1483 1352T1602 1232T1682 1047T1710 817Q1710 697 1682 552T1591 274T1431 57T1202 -27Q1101 -27 1015 23T869 163T776 378T743 649Q743 736 767 851T831 1083T905 1262Q825 1216 803 1206T750 1196Q704 1196 658 1208T549 1244T437
1281T344 1294Q247 1294 183 1224T119 1051Q119 927 198 868T373 809H387Q365 835 365 883Q365 914 383 934T434 954Q453 954 468 942T491 911T500 872Q500 822 462 794T365 766Q292 766 224 798T112 895T68 1051Q68 1114 97 1176T175 1288T283 1365T403 1393Q453
1393 497 1380T605 1341T723 1302T840 1288Q915 1288 946 1346Q975 1393 985 1393Q1008 1393 1008 1372Q1008 1367 991 1327Q954 1232 928 1132T888 913T874 649Q874 468 918 339T1046 142T1245 74Q1372 74 1467 193T1611 486T1661 817Q1661 945 1620 1070T1504
1272T1341 1350Z" />
<glyph unicode="&#x178;" glyph-name="Ydieresis" horiz-adv-x="1479" d="M1239 510L1219 33Q1215 -48 1192 -132T1116 -296T972 -426T750 -477Q612 -477 512 -426T360 -285T307 -88Q307 9 351 82T463 194T602 233Q662 233 700 205T739 127Q739 93 720 69T672
45Q640 45 621 65T602 117Q602 170 627 190Q562 190 500 159T397 65T356 -88Q356 -235 455 -332T750 -430Q871 -430 945 -356T1052 -175T1090 33L1106 434Q1054 395 976 372T838 348Q702 348 619 418T522 608L469 1202Q454 1341 344 1341Q285 1341 233 1301T149
1191T117 1032Q117 877 183 787T387 639Q422 628 422 612Q422 592 403 592Q387 592 371 600Q263 641 197 699T99 837T68 1032Q68 1136 106 1219T211 1347T360 1393Q476 1393 533 1341T598 1202L653 608Q662 521 718 467T862 412Q923 412 995 436T1108 494L1139
1176Q1142 1268 1185 1330T1317 1393Q1393 1393 1438 1346T1502 1217T1520 1028Q1520 879 1443 741T1239 510ZM1241 573Q1310 629 1359 699T1436 855T1464 1032Q1464 1162 1435 1255T1352 1348Q1302 1348 1287 1303T1268 1176L1241 573ZM748 1655Q779 1655 798
1631T817 1569Q817 1534 798 1510T748 1485Q716 1485 697 1509T678 1569Q678 1605 698 1630T748 1655ZM977 1655Q1008 1655 1027 1631T1047 1569Q1047 1536 1027 1511T977 1485Q946 1485 926 1509T906 1569Q906 1603 927 1629T977 1655Z" />
<glyph unicode="&#x192;" glyph-name="florin" horiz-adv-x="1065" d="M610 608H834Q854 608 854 590Q854 573 834 573H606L526 -223Q518 -299 482 -354T380 -443T227 -477Q183 -477 128 -459T37 -410T0 -342Q0 -307 16 -284T57 -260Q85 -260 101 -279T117 -332Q117
-373 92 -408Q126 -427 159 -436T233 -446Q308 -446 351 -377T403 -223L483 573H295Q270 573 270 590Q270 608 295 608H487L539 1139Q545 1198 579 1257T678 1354T831 1393Q913 1393 989 1354T1065 1257Q1065 1220 1050 1198T1008 1176Q950 1176 950 1247Q950 1292
973 1323Q941 1342 909 1352T827 1362Q754 1362 713 1292T662 1139L610 608Z" />
<glyph unicode="&#x2c6;" glyph-name="circumflex" horiz-adv-x="682" d="M340 995Q379 995 410 948L535 764Q547 752 547 741Q547 725 528 725Q514 725 508 737L344 903H338L176 737Q164 725 156 725Q137 725 137 741Q137 754 147 764L272 948Q303 995 340 995Z" />
<glyph unicode="&#x2dc;" glyph-name="tilde" horiz-adv-x="782" d="M416 868Q464 818 479 808T520 797Q566 797 587 834T608 930Q608 952 627 952Q636 952 640 946T645 930Q645 840 608 783T506 725Q478 725 459 731T423 749T394 774T358 811Q320 854 303 866T254
879Q214 879 194 839T174 745Q174 725 156 725Q137 725 137 745Q137 836 174 894T276 952Q324 952 349 934T416 868Z" />
<glyph unicode="&#x410;" glyph-name="afii10017" horiz-adv-x="1382" d="M555 436Q365 436 242 361T119 143Q119 20 179 -49T342 -119Q393 -119 431 -97T492 -33T522 74L555 436ZM123 991Q123 1079 177 1172T339 1329T596 1393Q790 1393 919 1320T1109 1138T1178
924L1229 109Q1232 79 1262 57T1339 35Q1380 35 1400 41T1466 66Q1474 69 1490 78T1513 88Q1534 88 1534 72Q1534 48 1452 12Q1382 -14 1268 -14Q1194 -14 1149 19T1100 109L1040 924Q1032 1035 978 1130T823 1282T596 1339Q446 1339 352 1283T215 1146T172 991Q172
840 238 778T400 716Q416 716 424 717Q399 742 399 786Q399 818 418 839T469 860Q502 860 519 837T537 778Q537 730 497 698T399 666Q317 666 255 703T158 814T123 991ZM598 856Q609 960 649 1027T732 1126T813 1174Q841 1186 862 1186Q885 1186 885 1171Q885 1154
842 1135Q684 1062 664 858L625 483H999Q1028 483 1028 459Q1028 436 999 436H621L588 72Q582 13 560 -31T504 -105T428 -149T342 -164Q258 -164 197 -128T102 -23T68 143Q68 235 110 301T224 408T379 466T559 485L598 856ZM708 1618Q661 1637 661 1679Q661 1697
674 1712T712 1727Q727 1727 737 1723T764 1708L1030 1538Q1054 1522 1054 1509Q1054 1491 1034 1491Q1030 1491 1009 1497L708 1618Z" />
<glyph unicode="&#x411;" glyph-name="afii10018" horiz-adv-x="1382" d="M555 436Q365 436 242 361T119 143Q119 20 179 -49T342 -119Q393 -119 431 -97T492 -33T522 74L555 436ZM123 991Q123 1079 177 1172T339 1329T596 1393Q790 1393 919 1320T1109 1138T1178
924L1229 109Q1232 79 1262 57T1339 35Q1380 35 1400 41T1466 66Q1474 69 1490 78T1513 88Q1534 88 1534 72Q1534 48 1452 12Q1382 -14 1268 -14Q1194 -14 1149 19T1100 109L1040 924Q1032 1035 978 1130T823 1282T596 1339Q446 1339 352 1283T215 1146T172 991Q172
840 238 778T400 716Q416 716 424 717Q399 742 399 786Q399 818 418 839T469 860Q502 860 519 837T537 778Q537 730 497 698T399 666Q317 666 255 703T158 814T123 991ZM598 856Q609 960 649 1027T732 1126T813 1174Q841 1186 862 1186Q885 1186 885 1171Q885 1154
842 1135Q684 1062 664 858L625 483H999Q1028 483 1028 459Q1028 436 999 436H621L588 72Q582 13 560 -31T504 -105T428 -149T342 -164Q258 -164 197 -128T102 -23T68 143Q68 235 110 301T224 408T379 466T559 485L598 856ZM1050 1618L749 1497Q737 1491 725 1491Q704
1491 704 1509Q704 1521 729 1538L995 1708Q1028 1727 1046 1727Q1071 1727 1084 1713T1097 1679Q1097 1637 1050 1618Z" />
<glyph unicode="&#x412;" glyph-name="afii10019" horiz-adv-x="1382" d="M883 1760Q922 1760 953 1713L1078 1529Q1090 1517 1090 1506Q1090 1490 1071 1490Q1057 1490 1051 1502L887 1668H881L719 1502Q707 1490 699 1490Q680 1490 680 1506Q680 1519 690 1529L815
1713Q846 1760 883 1760ZM555 436Q365 436 242 361T119 143Q119 20 179 -49T342 -119Q393 -119 431 -97T492 -33T522 74L555 436ZM123 991Q123 1079 177 1172T339 1329T596 1393Q790 1393 919 1320T1109 1138T1178 924L1229 109Q1232 79 1262 57T1339 35Q1380 35
1400 41T1466 66Q1474 69 1490 78T1513 88Q1534 88 1534 72Q1534 48 1452 12Q1382 -14 1268 -14Q1194 -14 1149 19T1100 109L1040 924Q1032 1035 978 1130T823 1282T596 1339Q446 1339 352 1283T215 1146T172 991Q172 840 238 778T400 716Q416 716 424 717Q399
742 399 786Q399 818 418 839T469 860Q502 860 519 837T537 778Q537 730 497 698T399 666Q317 666 255 703T158 814T123 991ZM598 856Q609 960 649 1027T732 1126T813 1174Q841 1186 862 1186Q885 1186 885 1171Q885 1154 842 1135Q684 1062 664 858L625 483H999Q1028
483 1028 459Q1028 436 999 436H621L588 72Q582 13 560 -31T504 -105T428 -149T342 -164Q258 -164 197 -128T102 -23T68 143Q68 235 110 301T224 408T379 466T559 485L598 856Z" />
<glyph unicode="&#x413;" glyph-name="afii10020" horiz-adv-x="1382" d="M555 436Q365 436 242 361T119 143Q119 20 179 -49T342 -119Q393 -119 431 -97T492 -33T522 74L555 436ZM123 991Q123 1079 177 1172T339 1329T596 1393Q790 1393 919 1320T1109 1138T1178
924L1229 109Q1232 79 1262 57T1339 35Q1380 35 1400 41T1466 66Q1474 69 1490 78T1513 88Q1534 88 1534 72Q1534 48 1452 12Q1382 -14 1268 -14Q1194 -14 1149 19T1100 109L1040 924Q1032 1035 978 1130T823 1282T596 1339Q446 1339 352 1283T215 1146T172 991Q172
840 238 778T400 716Q416 716 424 717Q399 742 399 786Q399 818 418 839T469 860Q502 860 519 837T537 778Q537 730 497 698T399 666Q317 666 255 703T158 814T123 991ZM598 856Q609 960 649 1027T732 1126T813 1174Q841 1186 862 1186Q885 1186 885 1171Q885 1154
842 1135Q684 1062 664 858L625 483H999Q1028 483 1028 459Q1028 436 999 436H621L588 72Q582 13 560 -31T504 -105T428 -149T342 -164Q258 -164 197 -128T102 -23T68 143Q68 235 110 301T224 408T379 466T559 485L598 856ZM883 1634Q931 1584 946 1574T987 1563Q1033
1563 1054 1600T1075 1696Q1075 1718 1094 1718Q1103 1718 1107 1712T1112 1696Q1112 1606 1075 1549T973 1491Q945 1491 926 1497T890 1515T861 1540T825 1577Q787 1620 770 1632T721 1645Q681 1645 661 1605T641 1511Q641 1491 623 1491Q604 1491 604 1511Q604
1602 641 1660T743 1718Q791 1718 816 1700T883 1634Z" />
<glyph unicode="&#x414;" glyph-name="afii10021" horiz-adv-x="1382" d="M753 1660Q784 1660 803 1636T822 1574Q822 1539 803 1515T753 1490Q721 1490 702 1514T683 1574Q683 1610 703 1635T753 1660ZM982 1660Q1013 1660 1032 1636T1052 1574Q1052 1541 1032
1516T982 1490Q951 1490 931 1514T911 1574Q911 1608 932 1634T982 1660ZM555 436Q365 436 242 361T119 143Q119 20 179 -49T342 -119Q393 -119 431 -97T492 -33T522 74L555 436ZM123 991Q123 1079 177 1172T339 1329T596 1393Q790 1393 919 1320T1109 1138T1178
924L1229 109Q1232 79 1262 57T1339 35Q1380 35 1400 41T1466 66Q1474 69 1490 78T1513 88Q1534 88 1534 72Q1534 48 1452 12Q1382 -14 1268 -14Q1194 -14 1149 19T1100 109L1040 924Q1032 1035 978 1130T823 1282T596 1339Q446 1339 352 1283T215 1146T172 991Q172
840 238 778T400 716Q416 716 424 717Q399 742 399 786Q399 818 418 839T469 860Q502 860 519 837T537 778Q537 730 497 698T399 666Q317 666 255 703T158 814T123 991ZM598 856Q609 960 649 1027T732 1126T813 1174Q841 1186 862 1186Q885 1186 885 1171Q885 1154
842 1135Q684 1062 664 858L625 483H999Q1028 483 1028 459Q1028 436 999 436H621L588 72Q582 13 560 -31T504 -105T428 -149T342 -164Q258 -164 197 -128T102 -23T68 143Q68 235 110 301T224 408T379 466T559 485L598 856Z" />
<glyph unicode="&#x415;" glyph-name="afii10022" horiz-adv-x="1382" d="M832 1869Q911 1869 966 1814T1022 1678Q1022 1599 967 1545T832 1490Q753 1490 697 1545T641 1678Q641 1757 697 1813T832 1869ZM832 1805Q781 1805 745 1767T709 1678Q709 1629 745 1591T832
1553Q882 1553 917 1590T953 1678Q953 1730 918 1767T832 1805ZM555 436Q365 436 242 361T119 143Q119 20 179 -49T342 -119Q393 -119 431 -97T492 -33T522 74L555 436ZM123 991Q123 1079 177 1172T339 1329T596 1393Q790 1393 919 1320T1109 1138T1178 924L1229
109Q1232 79 1262 57T1339 35Q1380 35 1400 41T1466 66Q1474 69 1490 78T1513 88Q1534 88 1534 72Q1534 48 1452 12Q1382 -14 1268 -14Q1194 -14 1149 19T1100 109L1040 924Q1032 1035 978 1130T823 1282T596 1339Q446 1339 352 1283T215 1146T172 991Q172 840
238 778T400 716Q416 716 424 717Q399 742 399 786Q399 818 418 839T469 860Q502 860 519 837T537 778Q537 730 497 698T399 666Q317 666 255 703T158 814T123 991ZM598 856Q609 960 649 1027T732 1126T813 1174Q841 1186 862 1186Q885 1186 885 1171Q885 1154
842 1135Q684 1062 664 858L625 483H999Q1028 483 1028 459Q1028 436 999 436H621L588 72Q582 13 560 -31T504 -105T428 -149T342 -164Q258 -164 197 -128T102 -23T68 143Q68 235 110 301T224 408T379 466T559 485L598 856Z" />
<glyph unicode="&#x416;" glyph-name="afii10024" horiz-adv-x="2136" d="M555 436Q365 436 242 361T119 143Q119 20 179 -49T342 -119Q393 -119 431 -97T492 -33T522 74L555 436ZM1192 588Q1217 628 1244 658T1303 715T1368 758Q1314 798 1272 872T1229 1040Q1229
1109 1259 1174T1344 1287T1473 1364T1636 1393Q1706 1393 1764 1374T1865 1319T1931 1236T1954 1135Q1954 1084 1930 1040T1865 969T1780 942Q1692 942 1633 996T1573 1139Q1573 1176 1594 1204T1645 1233Q1676 1233 1695 1210T1714 1159Q1714 1124 1694 1096T1632
1065Q1646 1031 1685 1004T1780 977Q1816 977 1845 997T1891 1052T1909 1130Q1909 1191 1876 1240T1782 1317T1636 1346Q1559 1346 1499 1303T1405 1188T1372 1040Q1372 962 1387 905T1444 803Q1489 826 1546 843T1657 860Q1718 860 1771 831T1825 750Q1825 698
1771 669T1657 639Q1529 639 1405 729Q1325 669 1273 581T1221 399Q1221 277 1284 191T1447 62T1661 20Q1746 20 1830 61T1967 169T2019 305Q2019 400 1955 464T1800 528Q1724 528 1672 496T1593 416Q1619 408 1638 382T1657 322Q1657 292 1638 271T1589 250Q1560
250 1538 276T1516 334Q1516 385 1551 441T1651 534T1800 571Q1873 571 1935 536T2033 440T2068 305Q2068 243 2035 183T1942 75T1810 0T1655 -27Q1528 -27 1422 1T1243 83T1127 217T1077 399L1040 924Q1032 1035 978 1130T823 1282T596 1339Q450 1339 354 1283T215
1145T172 991Q172 840 238 778T400 716Q416 716 424 717Q399 742 399 786Q399 818 418 839T469 860Q502 860 519 837T537 778Q537 730 497 698T399 666Q317 666 255 703T158 814T123 991Q123 1083 178 1176T340 1331T596 1393Q789 1393 919 1320T1111 1139T1178
924L1192 588ZM598 856Q609 960 649 1027T732 1126T813 1174Q841 1186 862 1186Q885 1186 885 1171Q885 1154 842 1135Q684 1062 664 858L625 483H999Q1028 483 1028 459Q1028 436 999 436H621L588 72Q582 13 560 -31T504 -105T428 -149T342 -164Q258 -164 197
-128T102 -23T68 143Q68 235 110 301T224 408T379 466T559 485L598 856ZM1470 772Q1559 678 1657 678Q1707 678 1745 696T1784 750Q1784 781 1749 801T1657 821Q1611 821 1560 808T1470 772Z" />
<glyph unicode="&#x417;" glyph-name="afii10025" horiz-adv-x="1249" d="M588 852Q601 795 660 758T815 721Q880 721 939 756T1035 859T1073 1014Q1073 1081 1047 1140T973 1245T861 1319T725 1346Q628 1346 538 1299T378 1166T267 956T225 682Q225 505 321 357T575
125T905 41Q1034 41 1115 57T1327 121Q1385 141 1389 141Q1401 141 1401 129Q1401 104 1327 68Q1258 36 1210 19T1081 -13T901 -27Q644 -27 459 64T178 316T82 682Q82 818 126 946T255 1175T459 1334T725 1393Q807 1393 879 1363T1006 1280T1090 1158T1120 1014Q1120
913 1077 835T963 714T815 672Q675 672 595 745T514 936Q514 972 535 996T586 1020Q615 1020 634 1000T653 948Q653 916 635 888T588 852ZM614 -373Q623 -407 671 -429T776 -451Q847 -451 883 -408T920 -307Q920 -262 890 -236T821 -201L637 -156Q588 -146 588
-111Q588 -94 599 -82T629 -70Q638 -70 643 -72L856 -121Q923 -137 962 -178T1001 -268Q1001 -351 939 -421T776 -492Q692 -492 627 -455T561 -350Q561 -307 584 -285T635 -262Q662 -262 676 -276T690 -311Q690 -373 614 -373Z" />
<glyph unicode="&#x418;" glyph-name="afii10026" horiz-adv-x="1120" d="M352 758Q293 803 246 874T199 1040Q199 1134 251 1215T399 1344T621 1393Q711 1393 784 1359T898 1266T938 1135Q938 1084 914 1040T849 969T764 942Q676 942 617 996T557 1139Q557 1176
578 1204T629 1233Q659 1233 677 1210T696 1159Q696 1123 676 1096T616 1065Q630 1031 669 1004T764 977Q800 977 829 997T875 1052T893 1130Q893 1190 861 1239T766 1317T621 1346Q490 1346 416 1255T342 1040Q342 895 428 803Q473 826 530 843T641 860Q702 860
755 831T809 750Q809 715 783 690T717 652T641 639Q513 639 387 729Q320 679 273 591T225 399Q225 277 288 191T450 62T664 20Q749 20 828 61T956 169T1004 305Q1004 399 941 463T784 528Q707 528 655 496T575 416Q601 408 620 382T639 322Q639 292 621 271T573
250Q543 250 522 275T500 334Q500 385 535 441T635 534T784 571Q857 571 919 537T1017 441T1053 305Q1053 242 1022 182T936 75T810 1T657 -27Q392 -27 237 84T82 399Q82 477 125 548T230 673T352 758ZM455 772Q536 678 641 678Q692 678 730 696T768 750Q768 781
733 801T641 821Q595 821 544 808T455 772ZM448 1617Q401 1636 401 1678Q401 1696 414 1711T452 1726Q467 1726 477 1722T504 1707L770 1537Q794 1521 794 1508Q794 1490 774 1490Q770 1490 749 1496L448 1617Z" />
<glyph unicode="&#x419;" glyph-name="afii10027" horiz-adv-x="1120" d="M352 758Q293 803 246 874T199 1040Q199 1134 251 1215T399 1344T621 1393Q711 1393 784 1359T898 1266T938 1135Q938 1084 914 1040T849 969T764 942Q676 942 617 996T557 1139Q557 1176
578 1204T629 1233Q659 1233 677 1210T696 1159Q696 1123 676 1096T616 1065Q630 1031 669 1004T764 977Q800 977 829 997T875 1052T893 1130Q893 1190 861 1239T766 1317T621 1346Q490 1346 416 1255T342 1040Q342 895 428 803Q473 826 530 843T641 860Q702 860
755 831T809 750Q809 715 783 690T717 652T641 639Q513 639 387 729Q320 679 273 591T225 399Q225 277 288 191T450 62T664 20Q749 20 828 61T956 169T1004 305Q1004 399 941 463T784 528Q707 528 655 496T575 416Q601 408 620 382T639 322Q639 292 621 271T573
250Q543 250 522 275T500 334Q500 385 535 441T635 534T784 571Q857 571 919 537T1017 441T1053 305Q1053 242 1022 182T936 75T810 1T657 -27Q392 -27 237 84T82 399Q82 477 125 548T230 673T352 758ZM455 772Q536 678 641 678Q692 678 730 696T768 750Q768 781
733 801T641 821Q595 821 544 808T455 772ZM786 1617L485 1496Q473 1490 461 1490Q440 1490 440 1508Q440 1520 465 1537L731 1707Q764 1726 782 1726Q807 1726 820 1712T833 1678Q833 1636 786 1617Z" />
<glyph unicode="&#x41a;" glyph-name="afii10028" horiz-adv-x="1120" d="M352 758Q293 803 246 874T199 1040Q199 1134 251 1215T399 1344T621 1393Q711 1393 784 1359T898 1266T938 1135Q938 1084 914 1040T849 969T764 942Q676 942 617 996T557 1139Q557 1176
578 1204T629 1233Q659 1233 677 1210T696 1159Q696 1123 676 1096T616 1065Q630 1031 669 1004T764 977Q800 977 829 997T875 1052T893 1130Q893 1190 861 1239T766 1317T621 1346Q490 1346 416 1255T342 1040Q342 895 428 803Q473 826 530 843T641 860Q702 860
755 831T809 750Q809 715 783 690T717 652T641 639Q513 639 387 729Q320 679 273 591T225 399Q225 277 288 191T450 62T664 20Q749 20 828 61T956 169T1004 305Q1004 399 941 463T784 528Q707 528 655 496T575 416Q601 408 620 382T639 322Q639 292 621 271T573
250Q543 250 522 275T500 334Q500 385 535 441T635 534T784 571Q857 571 919 537T1017 441T1053 305Q1053 242 1022 182T936 75T810 1T657 -27Q392 -27 237 84T82 399Q82 477 125 548T230 673T352 758ZM455 772Q536 678 641 678Q692 678 730 696T768 750Q768 781
733 801T641 821Q595 821 544 808T455 772ZM592 1760Q631 1760 662 1713L787 1529Q799 1517 799 1506Q799 1490 780 1490Q766 1490 760 1502L596 1668H590L428 1502Q416 1490 408 1490Q389 1490 389 1506Q389 1519 399 1529L524 1713Q555 1760 592 1760Z" />
<glyph unicode="&#x41b;" glyph-name="afii10029" horiz-adv-x="1120" d="M352 758Q293 803 246 874T199 1040Q199 1134 251 1215T399 1344T621 1393Q711 1393 784 1359T898 1266T938 1135Q938 1084 914 1040T849 969T764 942Q676 942 617 996T557 1139Q557 1176
578 1204T629 1233Q659 1233 677 1210T696 1159Q696 1123 676 1096T616 1065Q630 1031 669 1004T764 977Q800 977 829 997T875 1052T893 1130Q893 1190 861 1239T766 1317T621 1346Q490 1346 416 1255T342 1040Q342 895 428 803Q473 826 530 843T641 860Q702 860
755 831T809 750Q809 715 783 690T717 652T641 639Q513 639 387 729Q320 679 273 591T225 399Q225 277 288 191T450 62T664 20Q749 20 828 61T956 169T1004 305Q1004 399 941 463T784 528Q707 528 655 496T575 416Q601 408 620 382T639 322Q639 292 621 271T573
250Q543 250 522 275T500 334Q500 385 535 441T635 534T784 571Q857 571 919 537T1017 441T1053 305Q1053 242 1022 182T936 75T810 1T657 -27Q392 -27 237 84T82 399Q82 477 125 548T230 673T352 758ZM455 772Q536 678 641 678Q692 678 730 696T768 750Q768 781
733 801T641 821Q595 821 544 808T455 772ZM495 1660Q526 1660 545 1636T564 1574Q564 1539 545 1515T495 1490Q463 1490 444 1514T425 1574Q425 1610 445 1635T495 1660ZM724 1660Q755 1660 774 1636T794 1574Q794 1541 774 1516T724 1490Q693 1490 673 1514T653
1574Q653 1608 674 1634T724 1660Z" />
<glyph unicode="&#x41c;" glyph-name="afii10030" horiz-adv-x="932" d="M795 301Q795 192 762 88T643 -90T410 -164Q307 -164 230 -122T111 0T68 182Q68 275 112 349T226 463T365 504Q424 504 462 476T500 397Q500 365 481 340T434 315Q402 315 384 335T365 387Q365
442 387 461Q287 461 203 387T119 182Q119 95 152 27T251 -79T410 -117Q548 -117 607 8T666 301V1202Q666 1263 633 1302T541 1341Q482 1341 430 1302T346 1192T313 1032Q314 874 382 782T588 641Q609 633 616 628T623 612Q623 603 616 597T600 590Q580 590 573
592Q459 633 392 692T294 835T264 1032Q264 1136 302 1219T407 1347T557 1393Q676 1393 735 1340T795 1202V301ZM397 1618Q350 1637 350 1679Q350 1697 363 1712T401 1727Q416 1727 426 1723T453 1708L719 1538Q743 1522 743 1509Q743 1491 723 1491Q719 1491 698
1497L397 1618Z" />
<glyph unicode="&#x41d;" glyph-name="afii10031" horiz-adv-x="932" d="M795 301Q795 192 762 88T643 -90T410 -164Q307 -164 230 -122T111 0T68 182Q68 275 112 349T226 463T365 504Q424 504 462 476T500 397Q500 365 481 340T434 315Q402 315 384 335T365 387Q365
442 387 461Q287 461 203 387T119 182Q119 95 152 27T251 -79T410 -117Q548 -117 607 8T666 301V1202Q666 1263 633 1302T541 1341Q482 1341 430 1302T346 1192T313 1032Q314 874 382 782T588 641Q609 633 616 628T623 612Q623 603 616 597T600 590Q580 590 573
592Q459 633 392 692T294 835T264 1032Q264 1136 302 1219T407 1347T557 1393Q676 1393 735 1340T795 1202V301ZM673 1618L372 1497Q360 1491 348 1491Q327 1491 327 1509Q327 1521 352 1538L618 1708Q651 1727 669 1727Q694 1727 707 1713T720 1679Q720 1637 673
1618Z" />
<glyph unicode="&#x41e;" glyph-name="afii10032" horiz-adv-x="932" d="M795 301Q795 192 762 88T643 -90T410 -164Q307 -164 230 -122T111 0T68 182Q68 275 112 349T226 463T365 504Q424 504 462 476T500 397Q500 365 481 340T434 315Q402 315 384 335T365 387Q365
442 387 461Q287 461 203 387T119 182Q119 95 152 27T251 -79T410 -117Q548 -117 607 8T666 301V1202Q666 1263 633 1302T541 1341Q482 1341 430 1302T346 1192T313 1032Q314 874 382 782T588 641Q609 633 616 628T623 612Q623 603 616 597T600 590Q580 590 573
592Q459 633 392 692T294 835T264 1032Q264 1136 302 1219T407 1347T557 1393Q676 1393 735 1340T795 1202V301ZM530 1761Q569 1761 600 1714L725 1530Q737 1518 737 1507Q737 1491 718 1491Q704 1491 698 1503L534 1669H528L366 1503Q354 1491 346 1491Q327 1491
327 1507Q327 1520 337 1530L462 1714Q493 1761 530 1761Z" />
<glyph unicode="&#x41f;" glyph-name="afii10033" horiz-adv-x="932" d="M795 301Q795 192 762 88T643 -90T410 -164Q307 -164 230 -122T111 0T68 182Q68 275 112 349T226 463T365 504Q424 504 462 476T500 397Q500 365 481 340T434 315Q402 315 384 335T365 387Q365
442 387 461Q287 461 203 387T119 182Q119 95 152 27T251 -79T410 -117Q548 -117 607 8T666 301V1202Q666 1263 633 1302T541 1341Q482 1341 430 1302T346 1192T313 1032Q314 874 382 782T588 641Q609 633 616 628T623 612Q623 603 616 597T600 590Q580 590 573
592Q459 633 392 692T294 835T264 1032Q264 1136 302 1219T407 1347T557 1393Q676 1393 735 1340T795 1202V301ZM420 1661Q451 1661 470 1637T489 1575Q489 1540 470 1516T420 1491Q388 1491 369 1515T350 1575Q350 1611 370 1636T420 1661ZM649 1661Q680 1661
699 1637T719 1575Q719 1542 699 1517T649 1491Q618 1491 598 1515T578 1575Q578 1609 599 1635T649 1661Z" />
<glyph unicode="&#x420;" glyph-name="afii10034" horiz-adv-x="2304" d="M1458 109Q1344 -27 1202 -27Q990 -27 867 160T743 649Q743 779 794 965T905 1262Q825 1216 803 1206T750 1196Q704 1196 658 1208T549 1244T437 1281T344 1294Q247 1294 183 1224T119
1051Q119 927 198 868T373 809H387Q365 835 365 883Q365 914 383 934T434 954Q453 954 468 942T491 911T500 872Q500 822 462 794T365 766Q292 766 224 798T112 895T68 1051Q68 1114 97 1176T175 1288T283 1365T403 1393Q453 1393 497 1380T605 1341T723 1302T840
1288Q915 1288 946 1346Q975 1393 985 1393Q1008 1393 1008 1372Q1008 1367 991 1327Q954 1232 928 1132T888 913T874 649Q874 464 918 336T1047 141T1245 74Q1330 74 1417 164Q1353 259 1320 389T1286 657Q1286 734 1300 829T1342 1011T1416 1155T1522 1212Q1577
1212 1619 1160T1685 1021T1708 848Q1708 748 1687 635T1628 415T1530 209Q1576 140 1640 107T1769 74Q1884 74 1980 187T2130 472T2185 811Q2185 906 2166 1004T2112 1179T2028 1303T1921 1350Q1897 1350 1888 1343Q1913 1320 1913 1276Q1913 1247 1894 1223T1843
1198Q1814 1198 1795 1220T1776 1278Q1776 1325 1814 1359T1921 1393Q1987 1393 2043 1352T2143 1232T2210 1046T2234 811Q2234 671 2204 525T2111 251T1953 48T1737 -27Q1575 -27 1458 109ZM1491 268Q1536 339 1573 442T1631 651T1651 848Q1651 965 1616 1062T1522
1159Q1488 1159 1460 1105T1416 939T1399 657Q1399 543 1424 445T1491 268Z" />
<glyph unicode="&#x421;" glyph-name="afii10035" horiz-adv-x="1954" d="M1778 1268Q1753 1213 1753 1124V88Q1753 42 1728 8T1636 -27Q1580 -27 1543 -3T1464 88L944 950Q843 1118 740 1228T502 1339Q361 1339 276 1285T155 1155T119 1006Q119 845 183 782T342
719H358Q338 742 338 786Q338 818 357 839T408 860Q437 860 456 836T475 778Q475 731 436 703T338 674Q263 674 201 714T104 830T68 1006Q68 1116 123 1204T284 1342T522 1393Q642 1393 734 1350T892 1242T997 1117T1096 958L1610 92Q1629 57 1657 57Q1688 57 1688
88V1124Q1688 1189 1706 1253T1758 1355T1831 1393Q1865 1393 1887 1374T1909 1327Q1909 1295 1886 1273T1831 1251Q1804 1251 1778 1268ZM782 1026V139Q782 51 742 -18T631 -125T471 -164Q339 -164 252 -81T164 147Q164 240 206 312T318 423T475 461Q533 461 571
432T610 354Q610 320 592 296T545 272Q514 272 495 293T475 346Q475 393 498 416Q490 417 484 417T467 418Q371 418 293 350T215 147Q215 61 250 1T345 -89T471 -119Q582 -119 648 -49T715 137V1026Q715 1087 750 1087Q782 1087 782 1026ZM1262 1633Q1310 1583
1325 1573T1366 1562Q1412 1562 1433 1599T1454 1695Q1454 1717 1473 1717Q1482 1717 1486 1711T1491 1695Q1491 1605 1454 1548T1352 1490Q1324 1490 1305 1496T1269 1514T1240 1539T1204 1576Q1166 1619 1149 1631T1100 1644Q1060 1644 1040 1604T1020 1510Q1020
1490 1002 1490Q983 1490 983 1510Q983 1601 1020 1659T1122 1717Q1170 1717 1195 1699T1262 1633Z" />
<glyph unicode="&#x422;" glyph-name="afii10036" horiz-adv-x="1397" d="M698 -27Q551 -27 435 33T239 196T121 425T82 682Q82 893 161 1048T364 1284T610 1366Q655 1366 655 1341Q655 1315 604 1315Q533 1315 465 1267T341 1131T252 928T219 682Q219 502 285
349T463 107T698 18Q821 18 932 107T1111 349T1178 682Q1178 812 1147 915T1062 1090T939 1197T795 1233Q707 1233 641 1189T535 1080T475 938T455 799Q455 656 485 558T574 413T713 365Q725 365 735 367T745 369Q721 393 721 438Q721 468 741 491T791 514Q821
514 839 493T858 436Q858 388 820 354T713 319Q621 319 553 371T446 532T408 799Q408 906 441 996T530 1150T655 1246T795 1278Q911 1278 1007 1232T1172 1104T1278 912T1315 682Q1315 551 1275 424T1158 195T963 34T698 -27ZM532 1617Q485 1636 485 1678Q485 1696
498 1711T536 1726Q551 1726 561 1722T588 1707L854 1537Q878 1521 878 1508Q878 1490 858 1490Q854 1490 833 1496L532 1617Z" />
<glyph unicode="&#x423;" glyph-name="afii10037" horiz-adv-x="1397" d="M698 -27Q551 -27 435 33T239 196T121 425T82 682Q82 893 161 1048T364 1284T610 1366Q655 1366 655 1341Q655 1315 604 1315Q533 1315 465 1267T341 1131T252 928T219 682Q219 502 285
349T463 107T698 18Q821 18 932 107T1111 349T1178 682Q1178 812 1147 915T1062 1090T939 1197T795 1233Q707 1233 641 1189T535 1080T475 938T455 799Q455 656 485 558T574 413T713 365Q725 365 735 367T745 369Q721 393 721 438Q721 468 741 491T791 514Q821
514 839 493T858 436Q858 388 820 354T713 319Q621 319 553 371T446 532T408 799Q408 906 441 996T530 1150T655 1246T795 1278Q911 1278 1007 1232T1172 1104T1278 912T1315 682Q1315 551 1275 424T1158 195T963 34T698 -27ZM864 1617L563 1496Q551 1490 539 1490Q518
1490 518 1508Q518 1520 543 1537L809 1707Q842 1726 860 1726Q885 1726 898 1712T911 1678Q911 1636 864 1617Z" />
<glyph unicode="&#x424;" glyph-name="afii10038" horiz-adv-x="1397" d="M698 -27Q551 -27 435 33T239 196T121 425T82 682Q82 893 161 1048T364 1284T610 1366Q655 1366 655 1341Q655 1315 604 1315Q533 1315 465 1267T341 1131T252 928T219 682Q219 502 285
349T463 107T698 18Q821 18 932 107T1111 349T1178 682Q1178 812 1147 915T1062 1090T939 1197T795 1233Q707 1233 641 1189T535 1080T475 938T455 799Q455 656 485 558T574 413T713 365Q725 365 735 367T745 369Q721 393 721 438Q721 468 741 491T791 514Q821
514 839 493T858 436Q858 388 820 354T713 319Q621 319 553 371T446 532T408 799Q408 906 441 996T530 1150T655 1246T795 1278Q911 1278 1007 1232T1172 1104T1278 912T1315 682Q1315 551 1275 424T1158 195T963 34T698 -27ZM715 1760Q754 1760 785 1713L910 1529Q922
1517 922 1506Q922 1490 903 1490Q889 1490 883 1502L719 1668H713L551 1502Q539 1490 531 1490Q512 1490 512 1506Q512 1519 522 1529L647 1713Q678 1760 715 1760Z" />
<glyph unicode="&#x425;" glyph-name="afii10039" horiz-adv-x="1397" d="M698 -27Q551 -27 435 33T239 196T121 425T82 682Q82 893 161 1048T364 1284T610 1366Q655 1366 655 1341Q655 1315 604 1315Q533 1315 465 1267T341 1131T252 928T219 682Q219 502 285
349T463 107T698 18Q821 18 932 107T1111 349T1178 682Q1178 812 1147 915T1062 1090T939 1197T795 1233Q707 1233 641 1189T535 1080T475 938T455 799Q455 656 485 558T574 413T713 365Q725 365 735 367T745 369Q721 393 721 438Q721 468 741 491T791 514Q821
514 839 493T858 436Q858 388 820 354T713 319Q621 319 553 371T446 532T408 799Q408 906 441 996T530 1150T655 1246T795 1278Q911 1278 1007 1232T1172 1104T1278 912T1315 682Q1315 551 1275 424T1158 195T963 34T698 -27ZM746 1633Q794 1583 809 1573T850 1562Q896
1562 917 1599T938 1695Q938 1717 957 1717Q966 1717 970 1711T975 1695Q975 1605 938 1548T836 1490Q808 1490 789 1496T753 1514T724 1539T688 1576Q650 1619 633 1631T584 1644Q544 1644 524 1604T504 1510Q504 1490 486 1490Q467 1490 467 1510Q467 1601 504
1659T606 1717Q654 1717 679 1699T746 1633Z" />
<glyph unicode="&#x426;" glyph-name="afii10040" horiz-adv-x="1397" d="M698 -27Q551 -27 435 33T239 196T121 425T82 682Q82 893 161 1048T364 1284T610 1366Q655 1366 655 1341Q655 1315 604 1315Q533 1315 465 1267T341 1131T252 928T219 682Q219 502 285
349T463 107T698 18Q821 18 932 107T1111 349T1178 682Q1178 812 1147 915T1062 1090T939 1197T795 1233Q707 1233 641 1189T535 1080T475 938T455 799Q455 656 485 558T574 413T713 365Q725 365 735 367T745 369Q721 393 721 438Q721 468 741 491T791 514Q821
514 839 493T858 436Q858 388 820 354T713 319Q621 319 553 371T446 532T408 799Q408 906 441 996T530 1150T655 1246T795 1278Q911 1278 1007 1232T1172 1104T1278 912T1315 682Q1315 551 1275 424T1158 195T963 34T698 -27ZM588 1660Q619 1660 638 1636T657 1574Q657
1539 638 1515T588 1490Q556 1490 537 1514T518 1574Q518 1610 538 1635T588 1660ZM817 1660Q848 1660 867 1636T887 1574Q887 1541 867 1516T817 1490Q786 1490 766 1514T746 1574Q746 1608 767 1634T817 1660Z" />
<glyph unicode="&#x427;" glyph-name="afii10041" horiz-adv-x="819" d="M68 1366H752V0H68V1366ZM82 14H737V1352H82V14Z" />
<glyph unicode="&#x428;" glyph-name="afii10042" horiz-adv-x="1397" d="M545 440L963 1182Q880 1233 795 1233Q707 1233 641 1189T535 1080T475 938T455 799Q455 545 545 440ZM348 86Q221 181 152 343T82 682Q82 893 161 1048T364 1284T610 1366Q655 1366 655
1341Q655 1315 604 1315Q533 1315 465 1267T341 1131T252 928T219 682Q219 586 240 493T301 319T395 174L522 399Q408 521 408 799Q408 906 441 996T530 1150T655 1246T795 1278Q898 1278 993 1237L1065 1366Q1076 1384 1080 1388T1096 1393Q1108 1393 1116 1387T1124
1368Q1124 1359 1114 1341L1042 1212Q1126 1162 1187 1082T1282 896T1315 682Q1315 551 1275 424T1158 195T963 34T698 -27Q527 -27 391 55L313 -82Q303 -100 299 -105T283 -111Q256 -111 256 -86Q256 -74 266 -59L348 86ZM434 133Q555 18 698 18Q821 18 932 107T1111
349T1178 682Q1178 788 1157 878T1096 1037T1006 1149L586 401Q638 365 713 365Q725 365 735 367T745 369Q721 393 721 438Q721 468 741 491T791 514Q821 514 839 493T858 436Q858 388 820 354T713 319Q630 319 563 365L434 133Z" />
<glyph unicode="&#x429;" glyph-name="afii10043" horiz-adv-x="1700" d="M1509 369Q1552 435 1592 539T1661 777T1690 1038Q1690 1168 1662 1254T1585 1341Q1509 1341 1509 1178V369ZM410 1341Q264 1341 192 1238T119 1006Q119 851 185 785T342 719H358Q338 742
338 786Q338 818 357 839T408 860Q437 860 456 836T475 778Q475 731 436 703T338 674Q221 674 145 764T68 1006Q68 1107 111 1196T236 1339T426 1393Q522 1393 602 1359T729 1262T776 1112V272Q776 169 846 118T1012 66Q1131 66 1215 113T1380 260V1171Q1380 1268
1430 1330T1571 1393Q1664 1393 1703 1292T1743 1038Q1743 857 1682 646T1509 285V109Q1509 79 1539 58T1620 37Q1698 37 1778 76Q1821 94 1827 94Q1845 94 1845 78Q1845 51 1765 20Q1674 -14 1548 -14Q1470 -14 1425 18T1380 109V188Q1192 -27 987 -27Q895 -27
818 8T693 112T645 272V1112Q645 1186 610 1238T521 1315T410 1341ZM901 1617Q854 1636 854 1678Q854 1696 867 1711T905 1726Q920 1726 930 1722T957 1707L1223 1537Q1247 1521 1247 1508Q1247 1490 1227 1490Q1223 1490 1202 1496L901 1617Z" />
<glyph unicode="&#x42a;" glyph-name="afii10044" horiz-adv-x="1700" d="M1509 369Q1552 435 1592 539T1661 777T1690 1038Q1690 1168 1662 1254T1585 1341Q1509 1341 1509 1178V369ZM410 1341Q264 1341 192 1238T119 1006Q119 851 185 785T342 719H358Q338 742
338 786Q338 818 357 839T408 860Q437 860 456 836T475 778Q475 731 436 703T338 674Q221 674 145 764T68 1006Q68 1107 111 1196T236 1339T426 1393Q522 1393 602 1359T729 1262T776 1112V272Q776 169 846 118T1012 66Q1131 66 1215 113T1380 260V1171Q1380 1268
1430 1330T1571 1393Q1664 1393 1703 1292T1743 1038Q1743 857 1682 646T1509 285V109Q1509 79 1539 58T1620 37Q1698 37 1778 76Q1821 94 1827 94Q1845 94 1845 78Q1845 51 1765 20Q1674 -14 1548 -14Q1470 -14 1425 18T1380 109V188Q1192 -27 987 -27Q895 -27
818 8T693 112T645 272V1112Q645 1186 610 1238T521 1315T410 1341ZM1215 1617L914 1496Q902 1490 890 1490Q869 1490 869 1508Q869 1520 894 1537L1160 1707Q1193 1726 1211 1726Q1236 1726 1249 1712T1262 1678Q1262 1636 1215 1617Z" />
<glyph unicode="&#x42b;" glyph-name="afii10045" horiz-adv-x="1700" d="M1509 369Q1552 435 1592 539T1661 777T1690 1038Q1690 1168 1662 1254T1585 1341Q1509 1341 1509 1178V369ZM410 1341Q264 1341 192 1238T119 1006Q119 851 185 785T342 719H358Q338 742
338 786Q338 818 357 839T408 860Q437 860 456 836T475 778Q475 731 436 703T338 674Q221 674 145 764T68 1006Q68 1107 111 1196T236 1339T426 1393Q522 1393 602 1359T729 1262T776 1112V272Q776 169 846 118T1012 66Q1131 66 1215 113T1380 260V1171Q1380 1268
1430 1330T1571 1393Q1664 1393 1703 1292T1743 1038Q1743 857 1682 646T1509 285V109Q1509 79 1539 58T1620 37Q1698 37 1778 76Q1821 94 1827 94Q1845 94 1845 78Q1845 51 1765 20Q1674 -14 1548 -14Q1470 -14 1425 18T1380 109V188Q1192 -27 987 -27Q895 -27
818 8T693 112T645 272V1112Q645 1186 610 1238T521 1315T410 1341ZM1051 1760Q1090 1760 1121 1713L1246 1529Q1258 1517 1258 1506Q1258 1490 1239 1490Q1225 1490 1219 1502L1055 1668H1049L887 1502Q875 1490 867 1490Q848 1490 848 1506Q848 1519 858 1529L983
1713Q1014 1760 1051 1760Z" />
<glyph unicode="&#x42c;" glyph-name="afii10046" horiz-adv-x="1700" d="M1509 369Q1552 435 1592 539T1661 777T1690 1038Q1690 1168 1662 1254T1585 1341Q1509 1341 1509 1178V369ZM410 1341Q264 1341 192 1238T119 1006Q119 851 185 785T342 719H358Q338 742
338 786Q338 818 357 839T408 860Q437 860 456 836T475 778Q475 731 436 703T338 674Q221 674 145 764T68 1006Q68 1107 111 1196T236 1339T426 1393Q522 1393 602 1359T729 1262T776 1112V272Q776 169 846 118T1012 66Q1131 66 1215 113T1380 260V1171Q1380 1268
1430 1330T1571 1393Q1664 1393 1703 1292T1743 1038Q1743 857 1682 646T1509 285V109Q1509 79 1539 58T1620 37Q1698 37 1778 76Q1821 94 1827 94Q1845 94 1845 78Q1845 51 1765 20Q1674 -14 1548 -14Q1470 -14 1425 18T1380 109V188Q1192 -27 987 -27Q895 -27
818 8T693 112T645 272V1112Q645 1186 610 1238T521 1315T410 1341ZM951 1660Q982 1660 1001 1636T1020 1574Q1020 1539 1001 1515T951 1490Q919 1490 900 1514T881 1574Q881 1610 901 1635T951 1660ZM1180 1660Q1211 1660 1230 1636T1250 1574Q1250 1541 1230
1516T1180 1490Q1149 1490 1129 1514T1109 1574Q1109 1608 1130 1634T1180 1660Z" />
<glyph unicode="&#x42d;" glyph-name="afii10047" horiz-adv-x="1825" d="M352 592Q277 592 231 508T184 301Q184 183 217 105T338 27Q427 27 466 112T506 332Q506 445 472 518T352 592ZM1757 295Q1757 195 1707 110T1571 -25T1384 -74Q1327 -74 1266 -60T1105
-16T931 32T791 49Q715 49 657 34T528 -16Q525 -18 518 -18Q498 -18 498 0V109Q476 46 421 13T285 -20Q207 -20 156 28T80 150T55 301Q55 383 92 460T192 583T330 629Q458 629 498 541V600Q498 623 516 639T559 655Q586 655 603 640T621 600V59Q710 106 860 106Q926
106 996 94T1153 63T1300 34T1427 23Q1497 23 1561 56T1665 148T1704 276Q1704 405 1610 473T1384 543Q1341 504 1305 504Q1270 504 1270 530Q1270 573 1366 573Q1408 593 1438 638T1468 737Q1468 797 1446 833T1390 884T1323 899H1311Q1319 892 1325 875T1331
848Q1331 823 1315 806T1272 788Q1243 788 1229 809T1214 858Q1214 889 1243 911T1321 934Q1403 934 1459 885T1516 745Q1516 698 1491 650T1430 575Q1436 575 1440 575T1453 576Q1530 576 1599 547T1713 454T1757 295Z" />
<glyph unicode="&#x42e;" glyph-name="afii10048" horiz-adv-x="1407" d="M694 629Q560 629 479 705T397 883Q397 941 425 980T504 1020Q537 1020 561 1002T586 952Q586 921 567 902T514 883Q466 883 440 907V891Q440 811 506 741T694 670Q764 670 823 709T917
823T952 1008Q952 1088 918 1166T814 1296T645 1348Q534 1348 436 1258T278 1015T219 682Q219 547 260 428T372 221T532 84T713 35Q783 35 850 64T980 145T1094 260V1171Q1094 1265 1135 1329T1262 1393Q1328 1393 1368 1343T1425 1211T1442 1038Q1442 918 1417
783T1343 519T1223 285V109Q1223 79 1253 58T1333 37Q1411 37 1491 76Q1536 94 1540 94Q1559 94 1559 78Q1559 52 1479 20Q1388 -14 1262 -14Q1185 -14 1140 18T1094 109V188Q1044 132 992 87T863 8T698 -27Q551 -27 435 33T239 196T121 425T82 682Q82 850 155
1015T356 1287T641 1393Q741 1393 822 1343T951 1205T999 1008Q999 898 961 812T852 677T694 629ZM1223 369Q1286 485 1337 669T1389 1038Q1389 1155 1357 1248T1282 1341Q1245 1341 1235 1295T1225 1178L1223 369Z" />
<glyph unicode="&#x42f;" glyph-name="afii10049" horiz-adv-x="942" d="M485 649Q485 599 498 571T536 522T618 465Q767 373 828 324T889 195Q889 125 852 77T751 4T608 -20Q501 -20 437 16T373 127Q373 161 392 184T440 207Q473 207 492 185T512 127Q512 100
502 77T477 43Q519 14 608 14Q681 14 720 69T760 203Q760 338 578 444Q537 467 502 488T442 532T400 589T383 666Q383 720 416 773T521 910T623 1037T653 1124Q653 1198 628 1251T559 1332T461 1360Q396 1360 352 1318T287 1213T266 1085V0Q266 -81 235 -163T163
-300T96 -354Q80 -354 80 -340Q80 -325 96 -301Q120 -259 131 -204T143 0V573H-47Q-70 573 -70 590Q-70 608 -47 608H143V1085Q143 1215 230 1304T461 1393Q529 1393 590 1359T689 1264T727 1124Q727 1031 695 968T599 836T510 735T485 649Z" />
<glyph unicode="&#x430;" glyph-name="afii10065" horiz-adv-x="766" d="M498 600Q498 623 516 639T559 655Q586 655 603 640T621 600V109Q621 78 652 53T731 27Q784 27 826 44T891 78Q897 82 905 82Q918 82 918 72Q918 46 836 14Q765 -14 674 -14Q599 -14 549
20T498 109Q476 46 421 13T285 -20Q207 -20 156 28T80 150T55 301Q55 383 92 460T192 583T330 629Q458 629 498 541V600ZM352 592Q277 592 231 508T184 301Q184 183 217 105T338 27Q427 27 466 112T506 332Q506 445 472 518T352 592ZM184 852Q137 871 137 913Q137
931 150 946T188 961Q203 961 213 957T240 942L506 772Q530 756 530 743Q530 725 510 725Q506 725 485 731L184 852Z" />
<glyph unicode="&#x431;" glyph-name="afii10066" horiz-adv-x="766" d="M498 600Q498 623 516 639T559 655Q586 655 603 640T621 600V109Q621 78 652 53T731 27Q784 27 826 44T891 78Q897 82 905 82Q918 82 918 72Q918 46 836 14Q765 -14 674 -14Q599 -14 549
20T498 109Q476 46 421 13T285 -20Q207 -20 156 28T80 150T55 301Q55 383 92 460T192 583T330 629Q458 629 498 541V600ZM352 592Q277 592 231 508T184 301Q184 183 217 105T338 27Q427 27 466 112T506 332Q506 445 472 518T352 592ZM483 852L182 731Q170 725 158
725Q137 725 137 743Q137 755 162 772L428 942Q461 961 479 961Q504 961 517 947T530 913Q530 871 483 852Z" />
<glyph unicode="&#x432;" glyph-name="afii10067" horiz-adv-x="766" d="M498 600Q498 623 516 639T559 655Q586 655 603 640T621 600V109Q621 78 652 53T731 27Q784 27 826 44T891 78Q897 82 905 82Q918 82 918 72Q918 46 836 14Q765 -14 674 -14Q599 -14 549
20T498 109Q476 46 421 13T285 -20Q207 -20 156 28T80 150T55 301Q55 383 92 460T192 583T330 629Q458 629 498 541V600ZM352 592Q277 592 231 508T184 301Q184 183 217 105T338 27Q427 27 466 112T506 332Q506 445 472 518T352 592ZM345 995Q384 995 415 948L540
764Q552 752 552 741Q552 725 533 725Q519 725 513 737L349 903H343L181 737Q169 725 161 725Q142 725 142 741Q142 754 152 764L277 948Q308 995 345 995Z" />
<glyph unicode="&#x433;" glyph-name="afii10068" horiz-adv-x="766" d="M498 600Q498 623 516 639T559 655Q586 655 603 640T621 600V109Q621 78 652 53T731 27Q784 27 826 44T891 78Q897 82 905 82Q918 82 918 72Q918 46 836 14Q765 -14 674 -14Q599 -14 549
20T498 109Q476 46 421 13T285 -20Q207 -20 156 28T80 150T55 301Q55 383 92 460T192 583T330 629Q458 629 498 541V600ZM352 592Q277 592 231 508T184 301Q184 183 217 105T338 27Q427 27 466 112T506 332Q506 445 472 518T352 592ZM361 868Q409 818 424 808T465
797Q511 797 532 834T553 930Q553 952 572 952Q581 952 585 946T590 930Q590 840 553 783T451 725Q423 725 404 731T368 749T339 774T303 811Q265 854 248 866T199 879Q159 879 139 839T119 745Q119 725 101 725Q82 725 82 745Q82 836 119 894T221 952Q269 952
294 934T361 868Z" />
<glyph unicode="&#x434;" glyph-name="afii10069" horiz-adv-x="766" d="M498 600Q498 623 516 639T559 655Q586 655 603 640T621 600V109Q621 78 652 53T731 27Q784 27 826 44T891 78Q897 82 905 82Q918 82 918 72Q918 46 836 14Q765 -14 674 -14Q599 -14 549
20T498 109Q476 46 421 13T285 -20Q207 -20 156 28T80 150T55 301Q55 383 92 460T192 583T330 629Q458 629 498 541V600ZM352 592Q277 592 231 508T184 301Q184 183 217 105T338 27Q427 27 466 112T506 332Q506 445 472 518T352 592ZM238 895Q269 895 288 871T307
809Q307 774 288 750T238 725Q206 725 187 749T168 809Q168 845 188 870T238 895ZM467 895Q498 895 517 871T537 809Q537 776 517 751T467 725Q436 725 416 749T396 809Q396 843 417 869T467 895Z" />
<glyph unicode="&#x435;" glyph-name="afii10070" horiz-adv-x="766" d="M498 600Q498 623 516 639T559 655Q586 655 603 640T621 600V109Q621 78 652 53T731 27Q784 27 826 44T891 78Q897 82 905 82Q918 82 918 72Q918 46 836 14Q765 -14 674 -14Q599 -14 549
20T498 109Q476 46 421 13T285 -20Q207 -20 156 28T80 150T55 301Q55 383 92 460T192 583T330 629Q458 629 498 541V600ZM352 592Q277 592 231 508T184 301Q184 183 217 105T338 27Q427 27 466 112T506 332Q506 445 472 518T352 592ZM360 1104Q439 1104 494 1049T550
913Q550 834 495 780T360 725Q281 725 225 780T169 913Q169 992 225 1048T360 1104ZM360 1040Q309 1040 273 1002T237 913Q237 864 273 826T360 788Q410 788 445 825T481 913Q481 965 446 1002T360 1040Z" />
<glyph unicode="&#x436;" glyph-name="afii10072" horiz-adv-x="1012" d="M524 178Q487 -20 285 -20Q207 -20 156 28T80 150T55 301Q55 383 92 460T192 583T330 629Q458 629 498 541V616Q498 640 516 656T559 672Q586 672 603 657T621 616V551Q642 586 687 607T784
629Q868 629 923 589T979 481Q979 296 621 281Q623 183 700 104T901 25Q960 25 998 30T1067 48T1137 80Q1146 86 1153 86Q1163 86 1163 76Q1163 50 1083 18Q992 -20 852 -20Q585 -20 524 178ZM352 592Q277 592 231 508T184 301Q184 183 217 105T338 27Q427 27 466
112T506 332Q506 445 472 518T352 592ZM621 307Q747 320 812 360T877 479Q877 534 850 564T784 594Q736 594 699 559T642 459T621 307Z" />
<glyph unicode="&#x437;" glyph-name="afii10073" horiz-adv-x="614" d="M184 301Q184 229 221 165T328 62T485 23Q585 23 641 38T739 78Q751 82 754 82Q766 82 766 72Q766 46 684 14Q654 2 584 -9T449 -20Q330 -20 242 15T104 122T55 301Q55 393 98 468T213 586T373
629Q469 629 515 592T561 502Q561 467 544 442T496 416Q422 416 422 502Q422 545 451 578Q417 594 373 594Q317 594 275 556T208 451T184 301ZM238 -328Q244 -356 282 -375T365 -395Q421 -395 456 -357T492 -270Q492 -230 465 -208T403 -178L258 -141Q215 -130
215 -100Q215 -66 252 -66Q258 -66 262 -66T270 -68L434 -109Q488 -121 524 -158T561 -246Q561 -288 536 -331T465 -402T365 -430Q298 -430 244 -397T190 -307Q190 -271 210 -251T254 -231Q277 -231 290 -244T303 -272Q303 -328 238 -328Z" />
<glyph unicode="&#x438;" glyph-name="afii10074" horiz-adv-x="573" d="M184 307Q309 320 373 360T438 479Q438 535 413 564T346 594Q299 594 262 559T205 459T184 307ZM184 281Q184 219 218 160T317 63T463 25Q509 25 537 27T596 38T653 58T698 80Q709 86 715
86Q727 86 727 76Q727 50 645 18Q558 -20 416 -20Q242 -20 149 62T55 301Q55 356 76 415T136 522T229 599T346 629Q433 629 488 590T543 481Q543 411 496 368T372 306T184 281ZM154 852Q107 871 107 913Q107 931 120 946T158 961Q173 961 183 957T210 942L476 772Q500
756 500 743Q500 725 480 725Q476 725 455 731L154 852Z" />
<glyph unicode="&#x439;" glyph-name="afii10075" horiz-adv-x="573" d="M184 307Q309 320 373 360T438 479Q438 535 413 564T346 594Q299 594 262 559T205 459T184 307ZM184 281Q184 219 218 160T317 63T463 25Q509 25 537 27T596 38T653 58T698 80Q709 86 715
86Q727 86 727 76Q727 50 645 18Q558 -20 416 -20Q242 -20 149 62T55 301Q55 356 76 415T136 522T229 599T346 629Q433 629 488 590T543 481Q543 411 496 368T372 306T184 281ZM471 852L170 731Q158 725 146 725Q125 725 125 743Q125 755 150 772L416 942Q449 961
467 961Q492 961 505 947T518 913Q518 871 471 852Z" />
<glyph unicode="&#x43a;" glyph-name="afii10076" horiz-adv-x="573" d="M184 307Q309 320 373 360T438 479Q438 535 413 564T346 594Q299 594 262 559T205 459T184 307ZM184 281Q184 219 218 160T317 63T463 25Q509 25 537 27T596 38T653 58T698 80Q709 86 715
86Q727 86 727 76Q727 50 645 18Q558 -20 416 -20Q242 -20 149 62T55 301Q55 356 76 415T136 522T229 599T346 629Q433 629 488 590T543 481Q543 411 496 368T372 306T184 281ZM321 995Q360 995 391 948L516 764Q528 752 528 741Q528 725 509 725Q495 725 489 737L325
903H319L157 737Q145 725 137 725Q118 725 118 741Q118 754 128 764L253 948Q284 995 321 995Z" />
<glyph unicode="&#x43b;" glyph-name="afii10077" horiz-adv-x="573" d="M184 307Q309 320 373 360T438 479Q438 535 413 564T346 594Q299 594 262 559T205 459T184 307ZM184 281Q184 219 218 160T317 63T463 25Q509 25 537 27T596 38T653 58T698 80Q709 86 715
86Q727 86 727 76Q727 50 645 18Q558 -20 416 -20Q242 -20 149 62T55 301Q55 356 76 415T136 522T229 599T346 629Q433 629 488 590T543 481Q543 411 496 368T372 306T184 281ZM221 895Q252 895 271 871T290 809Q290 774 271 750T221 725Q189 725 170 749T151 809Q151
845 171 870T221 895ZM450 895Q481 895 500 871T520 809Q520 776 500 751T450 725Q419 725 399 749T379 809Q379 843 400 869T450 895Z" />
<glyph unicode="&#x43c;" glyph-name="afii10078" horiz-adv-x="410" d="M266 109Q266 77 297 52T377 27Q414 27 447 37T507 62T537 78Q541 82 549 82Q563 82 563 72Q563 46 481 14Q406 -14 319 -14Q243 -14 193 20T143 109V573Q143 597 161 613T205 629Q231 629
248 614T266 573V109ZM55 852Q8 873 8 913Q8 931 21 946T61 961Q75 961 83 957T111 942L377 772Q403 755 403 743Q403 725 381 725Q374 725 356 731L55 852Z" />
<glyph unicode="&#x43d;" glyph-name="afii10079" horiz-adv-x="410" d="M266 109Q266 77 297 52T377 27Q414 27 447 37T507 62T537 78Q541 82 549 82Q563 82 563 72Q563 46 481 14Q406 -14 319 -14Q243 -14 193 20T143 109V573Q143 597 161 613T205 629Q231 629
248 614T266 573V109ZM354 852L53 731Q41 725 31 725Q8 725 8 743Q8 757 33 772L301 942Q330 961 350 961Q376 961 389 946T403 913Q403 872 354 852Z" />
<glyph unicode="&#x43e;" glyph-name="afii10080" horiz-adv-x="410" d="M266 109Q266 77 297 52T377 27Q414 27 447 37T507 62T537 78Q541 82 549 82Q563 82 563 72Q563 46 481 14Q406 -14 319 -14Q243 -14 193 20T143 109V573Q143 597 161 613T205 629Q231 629
248 614T266 573V109ZM205 995Q245 995 274 948L399 764Q410 753 410 741Q410 725 391 725Q383 725 371 737L209 903H203L39 737Q33 725 18 725Q0 725 0 741Q0 752 12 764L137 948Q168 995 205 995Z" />
<glyph unicode="&#x43f;" glyph-name="afii10081" horiz-adv-x="410" d="M266 109Q266 77 297 52T377 27Q414 27 447 37T507 62T537 78Q541 82 549 82Q563 82 563 72Q563 46 481 14Q406 -14 319 -14Q243 -14 193 20T143 109V573Q143 597 161 613T205 629Q231 629
248 614T266 573V109ZM90 895Q121 895 140 871T160 809Q160 776 140 751T90 725Q59 725 40 749T20 809Q20 845 40 870T90 895ZM319 895Q350 895 369 871T389 809Q389 776 369 751T319 725Q287 725 269 750T250 809Q250 845 270 870T319 895Z" />
<glyph unicode="&#x440;" glyph-name="afii10082" horiz-adv-x="1335" d="M866 147Q745 244 673 291T529 363T369 387Q276 387 206 342T135 221Q135 163 193 117T348 46T547 20Q733 20 866 147ZM1040 164Q1135 88 1300 -41T1589 -253T1824 -382T2025 -430Q2131
-430 2195 -379T2259 -244Q2259 -189 2222 -149T2132 -109Q2038 -109 2005 -197Q2044 -200 2067 -222T2091 -281Q2091 -308 2071 -331T2021 -354Q1988 -354 1967 -329T1946 -270Q1946 -222 1968 -176T2034 -102T2132 -74Q2174 -74 2214 -96T2279 -158T2304 -248Q2304
-303 2267 -356T2162 -443T2005 -477Q1833 -477 1661 -401T1336 -217T934 88Q851 26 759 0T547 -27Q419 -27 313 2T145 88T82 221Q82 287 126 339T239 420T379 449Q485 449 568 431T733 371T948 236Q1029 334 1073 459T1118 700Q1118 887 1053 1035T874 1265T616
1348Q532 1348 457 1316T327 1230T241 1111T211 983Q211 890 241 817T322 693T438 616T571 590Q666 590 730 629T824 732T854 872Q854 933 822 986T737 1070T625 1102Q490 1102 426 989Q450 981 469 955T489 895Q489 865 470 844T422 823Q394 823 372 848T350 909Q350
989 426 1067T625 1145Q698 1145 762 1106T864 1003T901 872Q901 782 858 703T734 577T547 530Q443 530 344 576T183 713T121 930Q121 1062 187 1168T367 1333T616 1393Q799 1393 944 1299T1171 1045T1253 700Q1253 587 1228 487T1156 305T1040 164Z" />
<glyph unicode="&#x441;" glyph-name="afii10083" horiz-adv-x="836" d="M692 109Q692 77 723 52T801 27Q872 27 961 78Q967 82 975 82Q987 82 987 72Q987 46 905 14Q834 -14 743 -14Q667 -14 617 20T567 109V461Q567 492 552 520T507 565T438 582Q307 582 266
399V41Q266 -14 205 -14Q183 -14 163 -1T143 41V600Q143 623 161 639T205 655Q231 655 248 640T266 600V494Q334 629 479 629Q525 629 575 611T658 553T692 461V109ZM453 868Q501 818 516 808T557 797Q603 797 624 834T645 930Q645 952 664 952Q673 952 677 946T682
930Q682 840 645 783T543 725Q515 725 496 731T460 749T431 774T395 811Q357 854 340 866T291 879Q251 879 231 839T211 745Q211 725 193 725Q174 725 174 745Q174 836 211 894T313 952Q361 952 386 934T453 868Z" />
<glyph unicode="&#x442;" glyph-name="afii10084" horiz-adv-x="705" d="M479 573Q548 542 598 471T649 301Q649 213 612 140T507 23T352 -20Q261 -20 194 24T91 143T55 301Q55 413 103 490T215 605T326 643Q348 643 348 629Q348 612 326 608Q254 585 219 505T184
301Q184 219 196 158T246 55T352 14Q410 14 447 52T501 154T518 301Q518 379 499 442T451 539T391 573Q365 573 365 592Q365 608 391 608H594Q614 608 614 592Q614 573 598 573H479ZM194 852Q147 871 147 913Q147 931 160 946T198 961Q213 961 223 957T250 942L516
772Q540 756 540 743Q540 725 520 725Q516 725 495 731L194 852Z" />
<glyph unicode="&#x443;" glyph-name="afii10085" horiz-adv-x="705" d="M479 573Q548 542 598 471T649 301Q649 213 612 140T507 23T352 -20Q261 -20 194 24T91 143T55 301Q55 413 103 490T215 605T326 643Q348 643 348 629Q348 612 326 608Q254 585 219 505T184
301Q184 219 196 158T246 55T352 14Q410 14 447 52T501 154T518 301Q518 379 499 442T451 539T391 573Q365 573 365 592Q365 608 391 608H594Q614 608 614 592Q614 573 598 573H479ZM497 852L196 731Q184 725 172 725Q151 725 151 743Q151 755 176 772L442 942Q475
961 493 961Q518 961 531 947T544 913Q544 871 497 852Z" />
<glyph unicode="&#x444;" glyph-name="afii10086" horiz-adv-x="705" d="M479 573Q548 542 598 471T649 301Q649 213 612 140T507 23T352 -20Q261 -20 194 24T91 143T55 301Q55 413 103 490T215 605T326 643Q348 643 348 629Q348 612 326 608Q254 585 219 505T184
301Q184 219 196 158T246 55T352 14Q410 14 447 52T501 154T518 301Q518 379 499 442T451 539T391 573Q365 573 365 592Q365 608 391 608H594Q614 608 614 592Q614 573 598 573H479ZM344 995Q383 995 414 948L539 764Q551 752 551 741Q551 725 532 725Q518 725
512 737L348 903H342L180 737Q168 725 160 725Q141 725 141 741Q141 754 151 764L276 948Q307 995 344 995Z" />
<glyph unicode="&#x445;" glyph-name="afii10087" horiz-adv-x="705" d="M479 573Q548 542 598 471T649 301Q649 213 612 140T507 23T352 -20Q261 -20 194 24T91 143T55 301Q55 413 103 490T215 605T326 643Q348 643 348 629Q348 612 326 608Q254 585 219 505T184
301Q184 219 196 158T246 55T352 14Q410 14 447 52T501 154T518 301Q518 379 499 442T451 539T391 573Q365 573 365 592Q365 608 391 608H594Q614 608 614 592Q614 573 598 573H479ZM629 868Q677 818 692 808T733 797Q779 797 800 834T821 930Q821 952 840 952Q849
952 853 946T858 930Q858 840 821 783T719 725Q691 725 672 731T636 749T607 774T571 811Q533 854 516 866T467 879Q427 879 407 839T387 745Q387 725 369 725Q350 725 350 745Q350 836 387 894T489 952Q537 952 562 934T629 868Z" />
<glyph unicode="&#x446;" glyph-name="afii10088" horiz-adv-x="705" d="M479 573Q548 542 598 471T649 301Q649 213 612 140T507 23T352 -20Q261 -20 194 24T91 143T55 301Q55 413 103 490T215 605T326 643Q348 643 348 629Q348 612 326 608Q254 585 219 505T184
301Q184 219 196 158T246 55T352 14Q410 14 447 52T501 154T518 301Q518 379 499 442T451 539T391 573Q365 573 365 592Q365 608 391 608H594Q614 608 614 592Q614 573 598 573H479ZM225 895Q256 895 275 871T294 809Q294 774 275 750T225 725Q193 725 174 749T155
809Q155 845 175 870T225 895ZM454 895Q485 895 504 871T524 809Q524 776 504 751T454 725Q423 725 403 749T383 809Q383 843 404 869T454 895Z" />
<glyph unicode="&#x447;" glyph-name="afii10089" horiz-adv-x="848" d="M995 -186L270 305Q356 404 408 463T500 559T577 612T659 629Q720 629 756 597T793 506Q793 468 774 442T725 416Q691 416 673 442T655 506Q655 526 665 551T684 584Q672 588 647 588Q610
588 577 568T511 513T381 369L1049 -88Q1153 -158 1210 -193T1334 -261T1471 -316T1604 -338Q1637 -338 1667 -328T1720 -306T1751 -289Q1757 -283 1765 -283Q1778 -283 1778 -295Q1778 -321 1690 -356Q1660 -368 1614 -377T1530 -387Q1460 -387 1373 -365T1188
-297T995 -186ZM266 780V41Q266 -14 205 -14Q183 -14 163 -1T143 41V1202Q143 1283 195 1338T344 1393Q434 1393 487 1335T541 1180Q541 1058 468 952T266 780ZM266 819Q323 852 374 903T459 1022T492 1176Q492 1227 477 1268T432 1332T360 1356Q266 1356 266 1202V819Z"
/>
<glyph unicode="&#x448;" glyph-name="afii10090" horiz-adv-x="705" d="M213 12L166 -66Q160 -76 149 -76Q145 -76 139 -74Q130 -67 130 -57Q130 -52 133 -47L180 33Q120 77 88 149T55 301Q55 413 103 490T215 605T326 643Q348 643 348 629Q348 612 326 608Q254
585 219 505T184 301Q184 169 217 98L463 524Q452 546 431 559T391 573Q365 573 365 592Q365 608 391 608Q439 608 492 573L541 659Q547 670 558 670Q561 670 567 668Q577 662 577 653Q577 646 573 641L524 553Q578 510 613 445T649 301Q649 213 612 140T507 23T352
-20Q275 -20 213 12ZM240 61Q280 14 352 14Q410 14 447 52T501 154T518 301Q518 411 485 485L240 61Z" />
<glyph unicode="&#x449;" glyph-name="afii10091" horiz-adv-x="821" d="M555 115Q497 -20 342 -20Q295 -20 248 -2T172 55T143 147V573Q143 597 161 613T205 629Q231 629 248 614T266 573V147Q266 96 295 62T381 27Q517 27 555 207V573Q555 597 573 613T616 629Q642
629 660 613T678 573V109Q678 77 709 52T788 27Q870 27 946 78Q952 82 961 82Q973 82 973 72Q973 46 893 14Q818 -14 731 -14Q652 -14 604 20T555 115ZM253 852Q206 871 206 913Q206 931 219 946T257 961Q272 961 282 957T309 942L575 772Q599 756 599 743Q599
725 579 725Q575 725 554 731L253 852Z" />
<glyph unicode="&#x44a;" glyph-name="afii10092" horiz-adv-x="821" d="M555 115Q497 -20 342 -20Q295 -20 248 -2T172 55T143 147V573Q143 597 161 613T205 629Q231 629 248 614T266 573V147Q266 96 295 62T381 27Q517 27 555 207V573Q555 597 573 613T616 629Q642
629 660 613T678 573V109Q678 77 709 52T788 27Q870 27 946 78Q952 82 961 82Q973 82 973 72Q973 46 893 14Q818 -14 731 -14Q652 -14 604 20T555 115ZM542 852L241 731Q229 725 217 725Q196 725 196 743Q196 755 221 772L487 942Q520 961 538 961Q563 961 576
947T589 913Q589 871 542 852Z" />
<glyph unicode="&#x44b;" glyph-name="afii10093" horiz-adv-x="821" d="M555 115Q497 -20 342 -20Q295 -20 248 -2T172 55T143 147V573Q143 597 161 613T205 629Q231 629 248 614T266 573V147Q266 96 295 62T381 27Q517 27 555 207V573Q555 597 573 613T616 629Q642
629 660 613T678 573V109Q678 77 709 52T788 27Q870 27 946 78Q952 82 961 82Q973 82 973 72Q973 46 893 14Q818 -14 731 -14Q652 -14 604 20T555 115ZM401 995Q440 995 471 948L596 764Q608 752 608 741Q608 725 589 725Q575 725 569 737L405 903H399L237 737Q225
725 217 725Q198 725 198 741Q198 754 208 764L333 948Q364 995 401 995Z" />
<glyph unicode="&#x44c;" glyph-name="afii10094" horiz-adv-x="821" d="M555 115Q497 -20 342 -20Q295 -20 248 -2T172 55T143 147V573Q143 597 161 613T205 629Q231 629 248 614T266 573V147Q266 96 295 62T381 27Q517 27 555 207V573Q555 597 573 613T616 629Q642
629 660 613T678 573V109Q678 77 709 52T788 27Q870 27 946 78Q952 82 961 82Q973 82 973 72Q973 46 893 14Q818 -14 731 -14Q652 -14 604 20T555 115ZM291 895Q322 895 341 871T360 809Q360 774 341 750T291 725Q259 725 240 749T221 809Q221 845 241 870T291
895ZM520 895Q551 895 570 871T590 809Q590 776 570 751T520 725Q489 725 469 749T449 809Q449 843 470 869T520 895Z" />
<glyph unicode="&#x44d;" glyph-name="afii10095" horiz-adv-x="766" d="M498 1202Q498 1283 551 1338T700 1393Q789 1393 843 1335T897 1180Q897 1058 823 952T621 780V109Q621 78 652 53T731 27Q784 27 826 44T891 78Q897 82 905 82Q918 82 918 72Q918 46 836
14Q765 -14 674 -14Q599 -14 549 20T498 109Q476 46 421 13T285 -20Q207 -20 156 28T80 150T55 301Q55 383 92 460T192 583T330 629Q451 629 498 543V1202ZM352 592Q277 592 231 508T184 301Q184 183 217 105T338 27Q427 27 466 112T506 332Q506 445 472 518T352
592ZM621 819Q715 875 780 964T846 1176Q846 1227 831 1268T787 1332T715 1356Q621 1356 621 1202V819Z" />
<glyph unicode="&#x44e;" glyph-name="afii10096" horiz-adv-x="1122" d="M1022 1307Q977 1252 947 1227T866 1202Q814 1202 760 1225T650 1271T543 1294Q500 1294 456 1267T383 1194T354 1096Q354 1019 397 969T537 862L780 717Q851 674 899 636T986 533T1024
385Q1024 275 946 180T748 29T508 -27Q425 -27 327 10T160 125T92 317Q92 412 142 484T269 592T420 629Q508 629 573 593T672 504T705 403Q705 366 681 337T625 307Q594 307 575 326T555 379Q555 406 575 435T627 475Q605 516 552 550T416 584Q349 584 285 550T181
454T141 317Q141 220 204 153T354 53T508 20Q612 20 704 64T851 185T905 354Q905 456 856 512T709 629L483 770Q414 814 373 851T310 940T287 1069Q287 1119 309 1176T370 1283T466 1362T586 1393Q641 1393 678 1379T765 1333T844 1289T920 1276Q950 1276 963 1285T997
1323Q1007 1333 1016 1333Q1028 1333 1028 1321Q1028 1313 1022 1307Z" />
<glyph unicode="&#x44f;" glyph-name="afii10097" horiz-adv-x="786" d="M412 0Q358 -31 321 -105T283 -264Q283 -311 299 -353T348 -420T424 -444Q514 -444 518 -307L530 117Q520 87 500 65T457 28T412 0ZM96 545Q93 573 66 573H23Q0 573 0 590Q0 608 23 608H150Q213
608 217 547L252 147Q257 88 283 58T367 27Q424 27 472 80T524 211L541 567Q541 595 557 612T602 629Q631 629 647 611T664 567L635 -289Q632 -367 575 -422T424 -477Q336 -477 283 -421T229 -260Q229 -195 255 -131T330 -20Q151 -20 133 137L96 545ZM246 895Q277
895 296 871T315 809Q315 774 296 750T246 725Q214 725 195 749T176 809Q176 845 196 870T246 895ZM475 895Q506 895 525 871T545 809Q545 776 525 751T475 725Q444 725 424 749T404 809Q404 843 425 869T475 895Z" />
<glyph unicode="&#x2013;" glyph-name="endash" horiz-adv-x="1503" d="M104 354H1393Q1413 354 1423 343T1434 313Q1434 294 1424 281T1393 268H104Q68 268 68 311Q68 354 104 354Z" />
<glyph unicode="&#x2014;" glyph-name="emdash" horiz-adv-x="2185" d="M104 354H2075Q2097 354 2107 343T2118 313Q2118 295 2107 282T2075 268H104Q68 268 68 311Q68 354 104 354Z" />
<glyph unicode="&#x2018;" glyph-name="quoteleft" horiz-adv-x="492" d="M180 1077L279 1368Q290 1393 313 1393Q326 1393 334 1385T342 1364Q342 1351 338 1331L293 1049Q286 1011 272 989T227 967Q172 967 172 1030Q172 1037 180 1077Z" />
<glyph unicode="&#x2019;" glyph-name="quoteright" horiz-adv-x="492" d="M324 1284L225 991Q218 967 193 967Q180 967 172 975T164 995Q164 1020 166 1028L213 1311Q224 1393 276 1393Q304 1393 319 1377T334 1331Q334 1304 324 1284Z" />
<glyph unicode="&#x201a;" glyph-name="quotesinglbase" horiz-adv-x="666" d="M332 125Q252 125 190 154T95 239T61 369Q61 472 126 557T281 643Q309 643 309 629Q309 615 291 610Q241 599 220 527T199 369Q199 275 234 218T332 160Q398 160 429 217T461 369Q461
418 450 464T412 542T340 573Q319 573 319 590Q319 608 340 608H580Q602 608 602 592Q602 573 580 573H467Q592 510 592 369Q592 301 558 245T464 157T332 125ZM78 -287Q90 -367 171 -404T328 -442Q397 -442 445 -412T517 -331T541 -219Q541 -99 385 -68L127 -16Q95
-9 78 0T61 39Q61 67 77 81T119 96Q129 96 135 94L438 29Q643 -16 643 -178Q643 -250 605 -319T495 -433T328 -477Q254 -477 186 -455T72 -384T27 -260Q27 -209 52 -181T113 -152Q137 -152 153 -168T170 -207Q170 -240 147 -263T78 -287Z" />
<glyph unicode="&#x201c;" glyph-name="quotedblleft" horiz-adv-x="696" d="M180 1077L279 1368Q290 1393 313 1393Q326 1393 334 1385T342 1364Q342 1351 338 1331L293 1049Q286 1011 272 989T227 967Q172 967 172 1030Q172 1037 180 1077ZM385 1077L483 1368Q494
1393 518 1393Q529 1393 538 1384T547 1364Q547 1351 543 1331L498 1049Q482 967 432 967Q377 967 377 1030Q377 1037 385 1077Z" />
<glyph unicode="&#x201d;" glyph-name="quotedblright" horiz-adv-x="696" d="M324 1284L225 991Q218 967 193 967Q180 967 172 975T164 995Q164 1020 166 1028L213 1311Q224 1393 276 1393Q304 1393 319 1377T334 1331Q334 1304 324 1284ZM528 1284L430 991Q423
967 397 967Q385 967 377 975T369 995Q369 1020 371 1028L418 1311Q429 1393 483 1393Q510 1393 524 1377T539 1331Q539 1306 528 1284Z" />
<glyph unicode="&#x201e;" glyph-name="quotedblbase" horiz-adv-x="690" d="M289 27L190 -264Q180 -291 156 -291Q144 -291 136 -283T127 -262Q127 -249 131 -227L176 53Q183 93 197 115T242 137Q299 137 299 74Q299 47 289 27ZM494 27L395 -264Q385 -291 360
-291Q349 -291 341 -283T332 -262Q332 -249 336 -227L381 53Q395 137 446 137Q474 137 489 121T504 74Q504 47 494 27Z" />
<glyph unicode="&#x2020;" glyph-name="dagger" horiz-adv-x="729" d="M469 612Q547 598 575 592T620 568T637 514Q637 478 614 420L535 203Q520 163 520 121Q520 83 567 55T690 27Q727 27 759 37T816 60T850 78Q856 82 864 82Q877 82 877 72Q877 46 795 14Q720
-14 633 -14Q566 -14 514 2T432 52T401 131Q401 158 428 231L498 426Q522 491 522 520Q522 575 467 584L391 600Q378 460 337 372T244 246T143 207Q113 207 91 224T68 272Q68 299 82 317T121 336Q176 336 176 279Q176 266 164 242Q217 243 260 298T330 439T360
608Q324 617 307 631T289 672Q289 679 293 705Q301 751 310 761T352 772Q384 772 395 765T406 735Q406 735 401 702Q397 666 397 659Q397 647 404 638T423 625T469 612Z" />
<glyph unicode="&#x2021;" glyph-name="daggerdbl" horiz-adv-x="1434" d="M473 565Q398 565 342 522T266 399V41Q266 -14 205 -14Q183 -14 163 -1T143 41V600Q143 623 161 639T205 655Q231 655 248 640T266 600V483Q348 629 502 629Q567 629 629 618T796 584T952
552T1065 543Q1165 543 1248 607T1331 793Q1331 861 1287 906T1194 958Q1210 938 1210 913Q1210 877 1192 857T1143 836Q1111 836 1091 857T1071 911Q1071 945 1098 969T1167 993Q1211 993 1257 969T1335 898T1366 793Q1366 690 1311 612T1175 491T1022 449Q958
449 904 461T755 503T596 549T473 565Z" />
<glyph unicode="&#x2022;" glyph-name="bullet" horiz-adv-x="512" d="M256 870Q330 870 380 820T430 696Q430 624 379 573T256 522Q186 522 134 574T82 696Q82 768 133 819T256 870Z" />
<glyph unicode="&#x2026;" glyph-name="ellipsis" horiz-adv-x="2048" d="M1024 150Q1055 150 1074 126T1094 63Q1094 28 1074 4T1024 -20Q994 -20 974 4T954 63Q954 99 974 124T1024 150ZM342 150Q373 150 392 126T412 63Q412 30 391 5T342 -20Q311 -20 292 4T272
63Q272 101 292 125T342 150ZM1708 150Q1739 150 1758 126T1778 63Q1778 30 1757 5T1708 -20Q1677 -20 1658 4T1638 63Q1638 101 1658 125T1708 150Z" />
</font>
</defs>
</svg>
