<?xml version="1.0" standalone="no"?>
<!DOCTYPE svg PUBLIC "-//W3C//DTD SVG 1.1//EN" "http://www.w3.org/Graphics/SVG/1.1/DTD/svg11.dtd" >
<svg xmlns="http://www.w3.org/2000/svg">
<metadata></metadata>
<defs>
<font id="sheilaregular" horiz-adv-x="1769" >
<font-face units-per-em="2048" ascent="1536" descent="-512" />
<missing-glyph horiz-adv-x="606" />
<glyph horiz-adv-x="2048" />
<glyph horiz-adv-x="2048" />
<glyph unicode="&#xd;" horiz-adv-x="2048" />
<glyph unicode=" "  horiz-adv-x="606" />
<glyph unicode="&#x09;" horiz-adv-x="606" />
<glyph unicode="&#xa0;" horiz-adv-x="606" />
<glyph unicode="!" horiz-adv-x="600" d="M3.5 11.5q-1.5 -8.5 5 -15.5t22.5 -16q32 -20 59.5 -5t42.5 60q9 26 -7.5 52t-49.5 32q-19 3 -25 -2.5t-6 -19.5t-2 -19q-7 -14 -18 -29.5t-15.5 -22t-6 -15zM139 229q-1 15 1.5 20l11.5 23q23 43 154 256t263.5 425.5t137.5 220.5q25 43 32.5 68t3.5 65q-4 26 10.5 60 t28.5 54t43 58q21 26 39.5 28.5t33 -12.5t32.5 -49q15 -31 -8 -66q-7 -12 -34 -55t-64.5 -102.5t-61.5 -98.5q-49 -80 -132 -215.5t-140 -228t-118 -195.5t-99.5 -172.5t-51.5 -103.5q-10 -24 -19 -34.5t-18.5 -6t-15.5 10.5t-16 20q-12 15 -13 30z" />
<glyph unicode="&#x22;" horiz-adv-x="319" d="M23 1255q-3 57 49 62q28 1 41 -13t10 -40q-12 -92 -21 -129q-6 -27 -17.5 -37t-23 0.5t-16.5 36.5q-19 89 -22 120zM188 1255q-3 57 50 62q28 1 41 -13t10 -40q-12 -92 -21 -129q-6 -27 -17.5 -37t-23 0.5t-16.5 36.5q-21 97 -23 120z" />
<glyph unicode="#" horiz-adv-x="997" d="M88.5 490q-0.5 21 12 41t28.5 20h166l135 336q-174 0 -190 4q-14 2 -15 23t11 41t28 20h201l108 270q7 17 28.5 17.5t38 -12t9.5 -29.5q-12 -29 -46.5 -114t-53.5 -132q35 0 102.5 -1t102.5 -1l108 272q9 16 30 16.5t36.5 -11.5t9.5 -29q-11 -25 -43.5 -110t-54.5 -138 h192q20 0 14 -35q-6 -36 -27 -47l-9 -2h-203l-137 -340h188q20 0 12 -35q-7 -36 -29 -47q-5 -2 -10 -2q-35 0 -84 -1t-110 -1q-101 -255 -113 -279q-14 -24 -49 -11t-26 40q8 26 98 250h-201q-27 -65 -54 -135.5t-40.5 -105.5t-15.5 -38q-14 -24 -48.5 -11t-27.5 40 q8 26 98 250q-142 0 -154 4q-15 2 -15.5 23zM383 551h201l135 336h-203q-7 -16 -133 -336z" />
<glyph unicode="$" horiz-adv-x="802" d="M57 354q21 19 35.5 40t24 39t12.5 22q6 9 19 9t21.5 -7.5t2.5 -18.5q-16 -30 -17 -70t19 -75q24 -33 77 -45.5t103 -7.5t95 18q117 34 186.5 112.5t44.5 172.5q-11 40 -56.5 70.5t-97 46.5t-115 39t-98.5 46t-44.5 59.5t6.5 77.5t50 81.5t90.5 75t123.5 53.5q33 9 71 12 q2 11 29 78q3 7 5.5 12t7 9t7.5 7t9 4.5t8.5 2.5t10.5 1.5t10 0.5h12h12q19 0 11 -16q-3 -7 -17 -29q-26 -39 -41 -68q114 -4 183 -61q41 -33 30 -54q-2 -3 -6 -6q-25 -17 -51 -53t-46 -47q-14 -8 -25.5 2.5t-2.5 23.5q25 36 16 95q-1 11 -8 22t-23.5 22t-40.5 16t-64.5 2 t-90.5 -17q-104 -29 -163 -101q-52 -64 -24 -112q15 -22 45 -35q21 -8 73 -24t93 -31.5t88 -39.5t78.5 -59.5t42.5 -79.5q28 -115 -66 -222t-253 -138q-52 -10 -99 -10q-2 -39 -12 -63.5t-27.5 -33t-29 -10.5t-31.5 -2h-6q-20 0 -14 14q3 7 17 28q26 39 40 67 q-121 15 -178 57q-33 22 -57.5 50.5t-4.5 47.5z" />
<glyph unicode="%" horiz-adv-x="1075" d="M37 166q18 23 406.5 476t514.5 597q14 10 36 2.5t36 -29t0 -36.5q-126 -142 -499.5 -577.5t-417.5 -489.5q-15 -12 -37.5 -5.5t-37.5 27t-1 35.5zM97.5 977q0.5 59 33.5 121q51 87 149.5 125t188.5 4q87 -34 113.5 -122.5t-23.5 -176.5q-51 -91 -149.5 -129.5 t-186.5 -3.5q-59 23 -92.5 73t-33 109zM203 991q0 -75 39 -126.5t98 -51.5t99 61.5t40 143.5q0 73 -44 126t-99 48q-56 -4 -94.5 -63.5t-38.5 -137.5zM527.5 332q0.5 59 33.5 121q51 87 149.5 125t188.5 4q87 -34 113.5 -122.5t-23.5 -176.5q-51 -91 -149.5 -129.5 t-186.5 -3.5q-59 23 -92.5 73t-33 109zM633 346q0 -75 39 -126.5t98 -51.5t99 61.5t40 143.5q0 73 -44 126t-99 48q-56 -4 -94.5 -63.5t-38.5 -137.5z" />
<glyph unicode="&#x26;" horiz-adv-x="1835" d="M154 242q10 79 74.5 153t154.5 126t197 94.5t199 65.5t163 32q9 1 9.5 5.5t-7.5 4.5q-23 0 -74 -2t-90 -3t-93 1.5t-93.5 9.5t-80.5 22.5t-65.5 39.5t-36.5 62.5t-5 88.5q12 76 86 149t192.5 129.5t284 93.5t348.5 42q36 2 78 -6.5t63 -30.5q25 -28 29 -48t-13.5 -33.5 t-48 -21t-79.5 -12.5q-44 -5 -71 -1t-35 10t-27 14.5t-48 11.5q-127 12 -287.5 -29.5t-282.5 -121.5t-136 -166q-7 -45 10.5 -77.5t55.5 -50.5t88 -29t112.5 -13.5t123 -2t126.5 2.5q40 2 59 2q8 0 26.5 1t24 0.5t18 -1t14.5 -2.5t7 -6t1.5 -10.5t-7.5 -16t-13.5 -22 t-23.5 -29.5q-10 -12 -23.5 -21t-23.5 -14t-30 -9t-28 -5t-34 -2.5t-33 -2.5q-59 -5 -156.5 -36.5t-199 -79.5t-180 -117t-88.5 -137q-11 -73 19 -124.5t86 -76t132 -33t152 -1.5t149 24q148 35 333 161t278 240q-151 33 -189 31q-51 -3 -86 -47q-7 -10 -14 -10t-9 7.5 t3 18.5q41 78 114 92q30 9 82.5 3.5t87.5 -13t84.5 -19.5t73.5 -16q98 -16 133 19q11 11 22 2.5t1 -23.5q-27 -39 -62.5 -59.5t-91.5 -16.5q-31 2 -115 21q-114 -140 -277 -258t-355 -168q-53 -14 -112.5 -24t-130.5 -14.5t-136 -0.5t-125.5 22t-102.5 49t-63 85.5 t-12 126.5z" />
<glyph unicode="'" horiz-adv-x="161" d="M29 1231q-3 56 49 61q28 1 41 -13t10 -40q-1 -10 -4 -36.5t-6.5 -46t-9.5 -46.5t-18 -37t-23.5 0.5t-16.5 36.5q-19 88 -22 121z" />
<glyph unicode="(" horiz-adv-x="294" d="M-122 569.5q2 127.5 30 251.5q29 127 85.5 241.5t121 197t149.5 158.5t154.5 124t152.5 96q12 6 19 -4.5t-6 -19.5q-470 -310 -566 -848q-56 -313 14 -575.5t240 -376.5q13 -9 5.5 -20t-19.5 -5q-92 48 -165 129.5t-120 184.5t-72 221t-23 245.5z" />
<glyph unicode=")" horiz-adv-x="491" d="M-268.5 -201.5q0.5 7.5 8.5 13.5q469 310 565 847q56 313 -14 576t-240 377q-13 9 -5 19.5t20 4.5q92 -48 165 -129.5t120 -184.5t72 -221t23 -245.5t-30 -251.5q-29 -127 -85.5 -241.5t-121 -197t-150 -158.5t-155 -124t-152.5 -96q-8 -4 -14.5 0t-6 11.5z" />
<glyph unicode="*" horiz-adv-x="630" d="M57 1366q4 19 21.5 34t32.5 7q31 -19 93.5 -70t86.5 -67l-17 227q0 14 21.5 21.5t42.5 2t20 -21.5l-14 -227l176 135q13 9 30.5 -6t22.5 -34.5t-8 -29.5l-207 -114l203 -109q15 -11 10 -30t-23 -33t-30 -4l-178 141l18 -232q1 -15 -19.5 -22t-41.5 0.5t-21 26.5 q0 5 8.5 89t8.5 138l-180 -141q-12 -9 -30 5t-23 32.5t10 29.5l209 109l-213 114q-13 10 -9 29z" />
<glyph unicode="+" horiz-adv-x="1114" d="M97.5 636q-6.5 24 2.5 48t29 25q55 4 416 0q-3 373 2 417q3 19 27 26t47 -1.5t24 -28.5q2 -28 -2 -415h422q18 -1 24.5 -25.5t-3 -49t-27.5 -24.5h-416q-1 -68 -1 -144.5t0.5 -159.5t0.5 -118q0 -18 -24.5 -25t-49 2t-24.5 27v418q-406 0 -422 2q-19 2 -25.5 26z" />
<glyph unicode="," horiz-adv-x="204" d="M-91 -114q-1 11 9 16q34 12 62 69q-10 12 -10 26t4 24t20 47q12 32 24 34q9 1 19 -8q17 -15 31.5 -39t9.5 -39q-16 -36 -25 -47q-20 -27 -60.5 -55t-62.5 -35q-17 -6 -21 7z" />
<glyph unicode="-" horiz-adv-x="600" d="M36.5 405q-5.5 21 4.5 41t29 21q66 2 456 2q18 0 25 -22t-2 -44t-27 -22q-108 0 -229.5 -1t-170 -1t-61.5 2q-19 3 -24.5 24z" />
<glyph unicode="." horiz-adv-x="221" d="M-62.5 12q1.5 9 5.5 15.5t15 22t19 28.5q2 5 2 19t6 19.5t25 2.5q33 -6 50 -32t8 -52q-15 -45 -43 -60t-60 5q-16 9 -22.5 16t-5 16z" />
<glyph unicode="/" horiz-adv-x="479" d="M29 7q-10 17 0 38q21 33 324 540t435 730q14 17 34.5 16t35 -19.5t2.5 -37.5q-76 -122 -260 -428.5t-339 -566.5t-167 -279q-11 -18 -33 -14t-32 21z" />
<glyph unicode="0" horiz-adv-x="1290" d="M-12 426q8 117 53 238q51 138 148 248t173 153q15 9 24 -7.5t-3 -25.5q-65 -45 -138 -146t-114 -243q-19 -65 -28.5 -130t-7.5 -137.5t30 -134t82 -96.5q108 -67 242.5 -47.5t268.5 101.5t234 202q65 79 116.5 193.5t74.5 232.5t-5 223t-114 154q-71 41 -162 47 t-183.5 -29t-156.5 -108q1 -2 3 -5t6.5 -13t6 -21t-1 -28t-10.5 -35q-42 -91 -82 -96q-23 -3 -29 22q-1 6 -1 12q0 114 80 207q78 90 193.5 137.5t228.5 46t196 -46.5q91 -49 117 -166t-4 -253t-93.5 -272t-144.5 -232q-125 -148 -276 -244.5t-301.5 -120t-274.5 52.5 q-81 51 -118 150.5t-29 216.5z" />
<glyph unicode="1" horiz-adv-x="641" d="M57 76q59 158 116.5 276.5t176.5 304.5q88 138 177.5 268t93.5 136q11 19 -5 18q-11 -1 -28 -10q-52 -27 -99 -2q-11 6 -19 14t-11.5 17t4 17.5t26.5 12.5q41 9 125 60.5t119 89.5q54 59 203 59q28 0 12 -24q-330 -415 -489 -674q-136 -220 -203.5 -353t-118.5 -294 q-5 -17 -12 -21.5t-19 2.5t-32 29q-28 30 -17 74z" />
<glyph unicode="2" horiz-adv-x="1318" d="M18 33q-1 37 8 63t17.5 35.5t28.5 26.5q272 231 915 506q95 41 161.5 92t98 101.5t44 101.5t2.5 97t-30.5 83t-50.5 63q-49 42 -126.5 59.5t-177.5 3t-197 -64.5q9 -7 16 -18t5 -36.5t-21 -55.5q-46 -73 -105 -108.5t-82 -4.5q-13 17 -15.5 42.5t8.5 60.5t50.5 78 t104.5 85q143 92 331.5 103.5t313.5 -74.5q47 -35 76.5 -87.5t38.5 -113.5t-11 -128.5t-65.5 -131t-132 -122.5t-203.5 -101q-560 -200 -889 -457q-8 -6 -3 -10q2 -2 7 0q93 44 166 66.5t163.5 22.5t174.5 -36q20 -9 62.5 -28t67 -30t66 -26.5t70 -22.5t69 -12t73 -1.5 t71 14.5t74.5 32q-6 39 33 72q68 52 92 30q11 -10 2 -28q-4 -8 -9 -15t-8.5 -12.5t-10.5 -12t-10 -10t-12 -10.5t-12 -9.5t-14 -10t-13.5 -9t-16 -10t-15.5 -9.5q-231 -145 -594 12q-85 37 -160 45t-167.5 -18t-202.5 -93q-28 -16 -42 -9t-14 30z" />
<glyph unicode="3" horiz-adv-x="1155" d="M92.5 342.5q-2.5 32.5 9.5 77.5q4 20 21 19q27 -1 40 -60l5 -29q3 -23 -1 -42.5t-9 -27.5l-6 -8q42 -110 140.5 -172.5t246.5 -58.5q134 4 253.5 92t180.5 223q25 58 28 118.5t-22.5 111t-77.5 69.5q-38 17 -134 12.5t-157 -34.5q-23 -11 -25 7.5t7 49.5q8 30 16.5 39.5 t32.5 13.5q94 16 137 27q223 55 324 156q61 62 52 154.5t-79 154.5q-32 29 -99 44t-145.5 13.5t-162 -29t-140.5 -77.5q44 -52 2 -127q-42 -74 -102 -109t-84 -4q-13 18 -17 44.5t4 63.5t44.5 83.5t99.5 91.5q97 69 241.5 103t270.5 24.5t182 -56.5q66 -55 92 -126 t1.5 -148.5t-103.5 -138.5q-106 -82 -385 -150q-4 -1 -5.5 -4.5t0.5 -6t7 -1.5q73 7 162 -8q67 -12 115 -54.5t69.5 -100.5t19 -126.5t-31.5 -130.5q-69 -149 -228.5 -232t-342.5 -83q-120 0 -211 38t-141 95t-76 133q-16 54 -18.5 86.5z" />
<glyph unicode="4" horiz-adv-x="1179" d="M49 664q1 6 2 11t4 9t4.5 7t6.5 6.5t7 5t8.5 4.5t8.5 4t10 4t9 4q145 61 256 159.5t137 213.5q-54 9 -72 92q-18 82 -10 113t41 36q28 3 49.5 -4t40.5 -31t21.5 -70.5t-7.5 -121.5q-11 -68 -47.5 -131t-89 -111.5t-107.5 -85.5t-116 -65q147 35 289.5 38t328.5 -28 q187 310 394 551q29 34 58.5 44t96.5 13q14 0 18 -9t-4 -15q-18 -15 -55 -54.5t-99.5 -114t-143 -193t-152.5 -251.5q109 -39 146.5 -96.5t37.5 -153.5q0 -18 -10.5 -18t-19.5 16q-63 105 -205 164q-189 -348 -271 -602q-4 -11 -9.5 -14t-12.5 1.5t-13 11t-14 17.5 q-34 44 -26 76q20 75 88 225t159 312q-112 23 -232.5 26t-249.5 -20.5t-226 -75.5q-21 -11 -27.5 20.5t-1.5 80.5z" />
<glyph unicode="5" horiz-adv-x="1236" d="M43 285q-1 21 16 25q30 7 63 -56q4 -7 7 -14q10 -21 11 -39t-3 -25l-4 -8q61 -70 142.5 -103t164.5 -29t165.5 31.5t151.5 74t117 102.5q48 57 75.5 118t32 113.5t-4 97t-27.5 80.5q-34 61 -102.5 104.5t-149.5 39.5q-103 -5 -163.5 -29.5t-110.5 -85.5q-8 -11 -27 13.5 t-33 55t-10 35.5q107 115 189 250t98 271q0 2 0.5 7.5t0.5 7.5t1 7t2 6t3 4t4.5 3.5t6 0.5t8.5 -1.5t11 -4.5q48 -22 74 -34t73.5 -32t78.5 -30t75.5 -22t79.5 -16t75 -4t76 7q4 2 1.5 5.5t1 14.5t8.5 23t25 31t50 39q34 22 60 30t45 1t28.5 -14t24.5 -23q11 -15 12.5 -33.5 t-16 -41t-44.5 -42.5t-73.5 -38t-103.5 -28q-126 -23 -262 11.5t-240 122.5q-5 -27 -13.5 -55.5t-17 -52.5t-24.5 -55t-26.5 -51t-31 -52t-30.5 -47.5t-33 -47.5t-31 -42.5t-31.5 -42t-27.5 -36.5q-4 -4 1 -9l3 -1q101 80 227 94q132 13 237.5 -25.5t160.5 -109.5 q57 -73 70.5 -166t-21 -194t-115.5 -187q-68 -71 -186.5 -123t-250 -72t-265 14.5t-218.5 127.5q-58 66 -61 154z" />
<glyph unicode="6" horiz-adv-x="1181" d="M22.5 482.5q8.5 125.5 56.5 250.5t128 223q92 112 213.5 194.5t242 124t226.5 59t192 12.5q52 -3 97.5 -17.5t60.5 -32.5q18 -20 1 -38q-24 -25 -95 -11q-23 4 -36.5 19t-16.5 28l-2 13q-189 8 -392 -88t-374 -312q-62 -78 -102.5 -182.5t-53 -213t20 -211t110.5 -167.5 q81 -67 187.5 -82t209.5 17t191 102q81 64 124 146t43.5 157t-31 139.5t-91.5 98.5q-79 45 -167 56t-181 -21.5t-168 -110.5q-1 -1 1 -2t6.5 -2.5t9.5 -4.5t8.5 -10.5t5 -18.5t-1.5 -29.5t-11 -41.5q-25 -81 -79 -125.5t-83 -17.5q-22 20 -27 54.5t24 98t100 136.5 q130 134 312.5 174t319.5 -37q116 -66 142 -186.5t-36.5 -251t-193.5 -234.5q-95 -76 -222 -118.5t-258.5 -36.5t-221.5 69q-103 72 -150 189t-38.5 242.5z" />
<glyph unicode="7" horiz-adv-x="720" d="M-5.5 62q-4.5 25 1.5 28q49 124 151.5 289t243.5 338q199 247 537 497q-59 -16 -124.5 -11.5t-146 16t-150.5 23.5t-138.5 10.5t-110.5 -23.5q-4 -3 -1 -6t1.5 -14.5t-4.5 -24t-19 -35t-42 -47.5q-31 -27 -55 -39.5t-44.5 -8.5t-30 9t-28.5 18q-15 12 -15.5 31t14 43 t41 49t71 50t98.5 44q67 24 148 26t151.5 -11t147 -27t139 -23.5t123.5 1t104 45.5q19 16 40 21t46.5 3.5t66.5 1.5q23 1 22 -16q-2 -22 -34 -43q-272 -182 -436 -323.5t-307 -317.5q-128 -158 -230 -327t-141 -292q-5 -17 -11.5 -22t-18 0t-34.5 24q-21 19 -25.5 44z" />
<glyph unicode="8" horiz-adv-x="958" d="M-11 316q-9 90 42 184q39 72 124.5 120.5t177 65.5t173.5 10q-94 85 -142 206t-2 220q41 87 110.5 142t149.5 72.5t154 16.5t144 -18q18 -4 22.5 -9.5t1.5 -14.5q-3 -8 -11 -9t-20 1q-59 10 -123.5 2t-121 -30t-106.5 -72t-81 -122q-85 -195 86 -372q95 5 196 49t157 112 q26 31 46 73t26.5 86t-11.5 75q-7 -7 -25 -14t-43.5 -6.5t-44.5 14.5q-70 54 -83.5 93t26.5 71q18 14 43 16t65 -20t82 -70q38 -43 60.5 -103.5t11.5 -139t-72 -138.5q-34 -34 -76.5 -57t-92.5 -35t-83.5 -17.5t-88.5 -9.5t-68 -6q344 -260 188 -530q-44 -78 -126.5 -122.5 t-170.5 -51.5t-171.5 8t-139.5 49q-77 46 -125.5 118.5t-57.5 162.5zM99 229.5q25 -108.5 118 -163.5q40 -23 99 -30t124.5 5t129.5 58.5t104 121.5q32 60 33 123.5t-24.5 121t-63 107.5t-87.5 93q-60 -7 -110.5 -19t-107.5 -35t-103.5 -64.5t-77.5 -98.5 q-59 -111 -34 -219.5z" />
<glyph unicode="9" horiz-adv-x="1277" d="M42 77q22 25 95 11q23 -4 37 -19t16 -27l3 -13q189 -8 391.5 87.5t373.5 311.5q62 78 102.5 182.5t53 213t-20 211t-110.5 167.5q-81 67 -187.5 82t-209.5 -17t-191 -102q-81 -64 -124 -146t-43.5 -156.5t31 -139t91.5 -98.5q79 -45 166.5 -56t181 21t168.5 110q1 1 -1 2 t-6.5 2.5t-9.5 4.5t-8.5 10.5t-5 18.5t1.5 29.5t11 41.5q25 81 79 125.5t83 17.5q22 -20 27 -54.5t-24 -97.5t-100 -136q-130 -134 -312.5 -174.5t-319.5 36.5q-116 66 -142 186.5t36.5 251t193.5 234.5q95 76 222 118.5t258.5 36.5t221.5 -69q103 -72 150 -189t38.5 -242.5 t-56.5 -250.5t-128 -223q-74 -90 -169.5 -162t-188.5 -115t-190.5 -70.5t-177.5 -36.5t-148 -5q-52 3 -97.5 17.5t-60.5 31.5q-18 20 -1 38z" />
<glyph unicode=":" horiz-adv-x="352" d="M93.5 97.5q1.5 8.5 6 15t15.5 22t18 29.5q2 5 2 19t6 19.5t25 2.5q33 -6 49.5 -32t7.5 -52q-15 -45 -42.5 -60t-59.5 5q-16 9 -22.5 16t-5 15.5zM93.5 381.5q1.5 8.5 6 15.5t15.5 22.5t18 29.5q2 5 2 18.5t6 19t25 2.5q33 -6 49.5 -31.5t7.5 -51.5q-15 -45 -42.5 -60.5 t-59.5 4.5q-16 9 -22.5 16t-5 15.5z" />
<glyph unicode=";" horiz-adv-x="335" d="M41 46q-2 7 8 11q33 12 62 70q-12 20 -10.5 32.5t18.5 50.5q4 8 6 13q12 33 24 35q9 0 19 -8q17 -15 29.5 -37.5t7.5 -38.5q-16 -36 -25 -47q-20 -27 -57 -52t-60 -32q-19 -7 -22 3zM70.5 384q1.5 9 6 16t15.5 22.5t19 28.5q5 10 2.5 20t4 17t25.5 4q33 -6 50 -32t8 -52 q-15 -45 -43 -60.5t-60 4.5q-16 9 -22.5 16t-5 16z" />
<glyph unicode="&#x3c;" horiz-adv-x="745" d="M35 629.5q-3 28.5 20 42.5q14 10 117 86t242 178.5t243 179.5q15 12 35.5 -3.5t26.5 -37t-8 -35.5q-144 -102 -551 -405q102 -73 230.5 -168t221.5 -164t105 -78q14 -14 10 -36.5t-24 -39t-37 -4.5q-19 12 -231 165t-367 268q-30 23 -33 51.5z" />
<glyph unicode="=" horiz-adv-x="909" d="M43 544q-6 23 3 45t28 23q59 4 762 4q18 0 23 -24.5t-5.5 -49t-28.5 -24.5q-97 0 -301 -1t-323.5 -1t-132.5 2q-19 3 -25 26zM43 866q-6 23 3 45t28 23q59 4 762 4q18 0 23 -24.5t-5.5 -49t-28.5 -24.5q-97 0 -301 -1t-323.5 -1t-132.5 2q-19 3 -25 26z" />
<glyph unicode="&#x3e;" horiz-adv-x="765" d="M49.5 188.5q-4.5 22.5 9.5 36.5q12 9 105 78t221.5 164t230.5 168q-428 318 -550 405q-14 14 -8 35.5t26 37t35 3.5q104 -77 243 -179.5t242 -178.5t117 -86q23 -14 20.5 -43t-32.5 -51q-155 -115 -367 -268t-231 -165q-17 -12 -37 4.5t-24.5 39z" />
<glyph unicode="?" horiz-adv-x="751" d="M23.5 50q1.5 9 5.5 16t15 22.5t19 28.5q2 5 2 19t6 19.5t25 2.5q33 -6 50 -32t8 -52q-15 -45 -43 -60.5t-60 4.5q-16 9 -22.5 16t-5 16zM167.5 1167.5q-1.5 30.5 33 74t116.5 112.5q163 136 345 173.5t307 -50.5q66 -51 92 -110t11 -124t-56.5 -133t-119 -146.5 t-168 -154.5t-210.5 -166q-62 -46 -113.5 -104t-83 -112.5t-48.5 -91t-27 -67.5q-5 -16 -16 -15.5t-21 13.5q-18 25 -23.5 37.5t-5.5 34.5q0 93 314 332q140 108 236 203.5t154 190t54 179t-74 152.5q-54 52 -145.5 61t-193.5 -29t-181 -114q-1 -2 5 -5.5t12.5 -10.5 t11 -18.5t0 -34t-20.5 -52.5t-35.5 -53t-38.5 -35.5t-37 -17.5t-32 0t-21 18q-19 33 -20.5 63.5z" />
<glyph unicode="@" horiz-adv-x="1171" d="M31 188.5q7 77.5 58 162t138 153.5q122 97 283.5 137t329.5 14q76 -12 132.5 -41t88 -68.5t47 -86.5t12 -95.5t-20.5 -95t-46 -86.5q-42 -57 -100 -95.5t-113 -52.5t-102 -14.5t-76 13.5q-32 16 -39 44t7.5 72t51.5 117q3 6 -0.5 9t-9.5 -3q-34 -35 -77 -72t-99.5 -78 t-107.5 -66t-101.5 -34.5t-81.5 15.5q-53 42 -36 115.5t77 152t135 131.5q108 77 222.5 105.5t201 4.5t121.5 -95q7 -10 2 -27t-19 -23t-23.5 5t-19.5 36q-16 38 -51.5 58t-87.5 19t-123.5 -33t-150.5 -93q-116 -89 -181.5 -193.5t-25.5 -136.5q32 -26 111.5 9.5t160 97 t135.5 121.5q41 44 71.5 83.5t41.5 57.5l10 17q0 1 0.5 2t2.5 4.5t3.5 6t5 4.5t6.5 1.5t7.5 -3.5t9.5 -9q18 -24 24.5 -57.5t-1.5 -63.5q-22 -74 -54 -76q-14 -1 -34.5 -30.5t-35 -66t-21.5 -70t7 -40.5q11 -7 34 -7.5t55.5 9t67.5 28t73.5 54t70.5 82.5q26 38 41 85 t14 99.5t-20 98.5t-70 82t-128 49q-154 26 -302.5 -21t-263.5 -141q-109 -88 -164 -212.5t-22 -199.5q68 -156 344 -63q16 4 26.5 19.5t24.5 19.5q52 13 52 -2l-1 -6q-4 -14 -23.5 -24.5t-70.5 -29.5q-143 -52 -244.5 -32.5t-138.5 102.5q-27 70 -20 147.5z" />
<glyph unicode="A" d="M-468 -160q24 22 120 33q5 1 10 1q27 0 58 -18q36 -21 42 -22q11 -2 24 -2q110 0 326 134q240 149 621 458q39 32 224.5 188.5t285.5 231.5q-209 93 -381 142q-111 32 -166 32q-31 0 -45 -10q-33 -23 -55 -26q-6 -1 -14 -1q-23 0 -66 6q-38 5 -58.5 15t-21 22t9.5 25 q25 29 53 35q13 3 29 3q20 0 45 -4q70 -8 107 -14.5t127 -27.5t205.5 -65t259.5 -110q438 336 856 541q6 65 63 92q40 19 93.5 34t74.5 15q22 0 33 -23q4 -7 4 -15q0 -16 -16 -31q-117 -101 -333 -382t-325 -470q111 -69 127 -82q12 -8 7 -31q-5 -21 -20 -6q-1 2 -3 4 q-11 16 -127 88q-85 -145 -146 -292t-82 -222t-22 -102q-1 -13 -25 -3q-37 17 -49 58q-3 10 -4 20v7q0 105 279 565q-35 23 -89.5 52.5t-130 68t-122.5 63.5q-100 -79 -279 -234.5t-266 -224.5q-678 -540 -987 -589q-92 -15 -151.5 -15t-82.5 23q-26 28 -26 47q0 10 9 18z M1350 842q52 -27 104 -56t79.5 -45.5t75.5 -46t60 -37.5q35 61 71.5 120.5t85.5 135t71.5 110t88 132t76.5 113.5q1 2 2 4.5t3 10.5q1 4 1 6q0 3 -2 5q-2 4 -8 7q-2 1 -4 1q-6 0 -16 -4q-28 -10 -108 -56.5t-241 -155t-339 -244.5z" />
<glyph unicode="B" horiz-adv-x="1966" d="M13 1142q4 18 14 44q17 51 77 78q49 22 88.5 39t171 61.5t262 75.5t335 62t415.5 40q85 4 159 3q111 1 199 -7q146 -14 226 -49t110 -85q23 -37 23 -85q0 -16 -2 -33q-23 -164 -252.5 -313.5t-597.5 -202.5q-7 -1 -9.5 -3.5t0 -5t9.5 -3.5q133 -13 278 -71.5t226 -160.5 q79 14 149 14q17 0 33 -1q59 -3 84.5 -8t32.5 -17q11 -18 -23 -24l-32 -3q-15 0 -29.5 9.5t-30.5 11.5q-21 2 -44 2q-53 0 -120 -12q50 -77 50 -172q0 -72 -29 -154q-40 -110 -131 -211.5t-206.5 -176.5t-250.5 -132q-135 -56 -263 -84q-126 -27 -240 -28h-5q-116 0 -194 34 q-144 60 -144 169q0 34 14 72q49 137 250 289q146 111 320 189q364 161 686 217q-69 71 -185 120.5t-230 69.5q-95 16 -178 16q-17 0 -34 -1q-40 -1 -54 8t-5.5 24t21.5 28t28 24q15 10 45 15.5t91 11t100 10.5q117 17 243 58.5t239.5 101t194 141.5t95.5 168q2 13 2 25 q1 24 -7 45q-12 32 -52 62t-108 49.5t-183 27.5q-63 5 -137 5q-61 0 -130 -3q-343 -17 -666 -103t-393 -143q-26 -21 -43.5 -47.5t-40.5 -45t-79 -38.5q-9 -3 -26 -9q-33 -13 -47.5 -17.5t-34 -9t-25 -1t-9.5 12.5q-2 5 -3 12q0 7 2 15zM308 35q-1 7 -1 14q0 16 6 31 q58 135 173 322.5t257 375.5q155 205 316.5 385.5t273.5 272.5q32 25 51 25q13 0 21 -11q13 -21 13 -44q0 -36 -29 -79q-31 -44 -75.5 -78.5t-72.5 -34.5q-121 0 -453 -456q-122 -169 -228 -380t-173 -390q-11 -31 -41 -13q-31 19 -38 60zM407 -274q14 -78 115 -121 q62 -27 150 -27q2 0 4 -1q87 0 183 24q98 24 202.5 65t203 100.5t182.5 126.5t147 146.5t92 157.5q21 58 21 111q0 94 -65 175q-340 -50 -694 -217q-250 -117 -407 -273q-137 -136 -137 -239q0 -15 3 -28z" />
<glyph unicode="C" horiz-adv-x="1230" d="M0 384q6 124 71.5 277t184.5 300q98 122 214.5 223t229 168t225 114t209.5 66q90 18 164 18h12q79 -2 130 -26q52 -24 80 -68t29 -100q-1 -49 -11 -98q-10 -52 -32.5 -101.5t-40 -82t-31.5 -52.5q-82 -115 -187 -166q-38 -18 -68 -20t-46 4.5t-46 23.5q-9 5 -9 13 q0 19 49 54q71 52 140 71q21 5 33 4q26 -3 47 8t29 23l8 12q33 37 63 95q31 58 49 124q10 34 9 67q-1 31 -9 60q-18 61 -77 92q-34 18 -90 19h-6q-55 0 -123 -16q-72 -18 -154.5 -50.5t-174.5 -86t-182.5 -120.5t-184 -158t-174.5 -194q-105 -134 -163.5 -271.5 t-66.5 -245.5q-2 -25 -1 -48q-1 -79 19 -142q26 -82 81 -121q72 -51 198 -63q43 -4 87 -4q82 0 166 14q128 22 235 66q129 53 287.5 140t213.5 138q11 10 17 26t18 25q29 27 42 27q9 0 12 -12q4 -20 -17 -43t-76 -66q-71 -56 -211.5 -138t-269.5 -136q-82 -34 -184 -57.5 t-208 -32.5q-36 -3 -71 -3q-68 0 -134 12q-100 18 -163 62q-75 53 -111 152q-30 84 -30 186q-1 19 0 38z" />
<glyph unicode="D" horiz-adv-x="2064" d="M29 1142q4 18 14 44q17 50 78 78q49 22 88.5 39t171 61.5t262 75.5t335 62t415.5 40q35 2 69 2q151 0 269 -34q145 -40 233 -124q88 -86 124 -208q23 -77 23 -167q-1 -55 -9 -115q-22 -160 -99 -345q84 -10 149 -27q103 -25 111 -49q1 -3 1 -5q0 -11 -18 -14 q-17 -1 -42 5q-15 3 -27 15.5t-27 17.5q-59 20 -161 24q-70 -158 -172 -299t-216 -244.5t-240 -187.5t-249 -135q-122 -50 -235 -78q-111 -27 -204 -28h-3q-94 0 -158 28q-131 56 -131 167q0 37 14 80q49 147 243 318q180 159 384 250q214 95 448 134q198 33 383 33 q33 0 66 -1q65 170 87 319q9 65 10 126q0 77 -16 145q-28 122 -100 207.5t-201 129.5q-107 36 -245 36q-29 0 -59 -2q-343 -17 -666 -103t-393 -143q-26 -21 -44 -47.5t-41 -45t-79 -38.5q-9 -3 -26 -9q-33 -13 -47.5 -17.5t-34 -9t-25 -1t-9.5 12.5q-2 5 -3 12q0 7 2 15z M298 35q-1 7 -1 14q0 16 6 31q58 135 173 322.5t257 375.5q155 205 316.5 385.5t273.5 272.5q32 25 51 25q13 0 21 -11q13 -20 13 -44q0 -36 -30 -79q-31 -45 -75 -79t-72 -34q-121 0 -453 -456q-122 -169 -228 -380t-173 -390q-11 -31 -41 -13q-31 19 -38 60zM424 -219 q-4 -21 -4 -40q0 -95 104 -140q50 -23 126 -23h4q74 0 161 19q89 19 190 60t202.5 98t204 137.5t192.5 173.5t169.5 211t133.5 245q-25 1 -50 1q-193 -1 -399 -35q-232 -38 -428 -130q-226 -106 -405 -277q-175 -167 -201 -300z" />
<glyph unicode="E" horiz-adv-x="1728" d="M32 -125q6 85 39.5 175t113 187.5t196.5 180.5q69 49 149.5 95t143 76.5t142.5 63t120 47t105.5 36.5t70.5 24q15 4 12 12t-18 4q-40 -14 -93 -20q-46 -6 -96 -5h-16q-59 1 -112.5 16t-94.5 41q-40 28 -56 76q-8 25 -9 53q0 28 8 60q23 92 102.5 174.5t191 142.5 t249 106.5t276.5 73t273 36.5q15 2 32 2h22q30 -2 54 -19q29 -20 41.5 -33.5t12.5 -23.5t-13.5 -17.5t-36 -15t-56.5 -17.5q-17 -4 -26 -7q-44 -13 -73.5 -14t-43.5 4.5t-38.5 12t-53.5 7.5h-5q-94 0 -228 -38q-138 -39 -267.5 -100t-231 -142t-124.5 -154q-8 -26 -8 -49 q0 -30 14 -54q25 -42 77 -60q51 -18 115 -23q28 -2 55 -2q35 -1 67 3q58 6 96 21q46 16 69 16q9 -1 15 -3q20 -8 12 -52t-15 -54q-18 -23 -104 -54q-2 -1 -49.5 -16.5t-84.5 -28.5t-104.5 -40.5t-126 -56.5t-132.5 -73t-139 -93q-118 -87 -200 -194q-81 -107 -115 -204 q-28 -80 -29 -152q0 -16 2 -30q7 -84 57 -134q38 -38 114 -54q48 -10 110 -9q35 0 74 3q107 9 252.5 59.5t299.5 139.5q173 99 296 206t189 197q6 9 10 52.5t23 72.5q30 47 57 54.5t43 -29.5q2 -4 2 -9q0 -32 -59 -108q-46 -61 -89.5 -111.5t-109.5 -115.5t-152 -128.5 t-186 -119.5q-168 -95 -320 -148.5t-268 -63.5q-37 -3 -71 -4q-72 0 -130 15q-86 22 -138 74q-43 43 -65 109q-18 53 -18 118q1 16 2 33z" />
<glyph unicode="F" horiz-adv-x="851" d="M40 35q-1 7 -1 14q0 16 6 31q56 131 169.5 316t254.5 374q-15 -1 -29 -1q-25 0 -46 4q-33 7 -51 21.5t-27 27t-13 24.5q-10 31 0.5 34t42.5 -11q11 -4 17.5 -6.5t20 -6.5t23 -6.5t24 -6t27.5 -5t28.5 -2.5t31.5 0q202 260 385 446q-330 -89 -650 -89q-33 0 -65 1 q-67 0 -102 35q-43 44 -43 64q0 6 4 11q13 13 101 20h1h1h1h1h1h1l30 3q24 2 43 2q27 0 44 -4q29 -7 56 -23.5t60 -23.5q49 -10 107 -12q13 0 26 -1q44 0 85 4q54 5 119 17t118 25t121 32q80 80 118 102q42 25 56 5q14 -22 14 -51q376 102 526 127q94 16 162 16q41 0 72 -6 q46 -8 70.5 -34t27.5 -56q1 -11 1 -22q0 -20 -4 -42q-6 -32 -14 -53.5t-14 -28.5q-10 -13 -20.5 -9.5t-7.5 18.5q3 16 3 30q0 98 -150 117q-39 5 -85 5q-200 0 -535 -95l-48 -14q-23 -47 -70 -92.5t-92 -45.5q-107 0 -395 -376q93 6 229.5 46.5t148.5 41.5q14 1 26 1 q36 0 55 -11q26 -15 32 -58q2 -13 -0.5 -17.5t-8.5 -2.5t-16 8q-12 7 -19.5 11t-22.5 8.5t-29 4.5h-3q-50 0 -197 -38q-151 -38 -236 -52q-134 -183 -242 -397t-176 -395q-7 -20 -22 -20q-8 0 -19 7q-31 19 -38 60z" />
<glyph unicode="G" horiz-adv-x="1835" d="M20 47q13 111 71 208t141.5 166t191 122.5t215 84.5t217.5 46q43 122 132 259t210 253q112 107 233.5 185.5t231.5 119.5t213 57q58 8 109 8q40 0 76 -5q82 -12 141 -46q59 -35 83 -92q19 -46 19 -91q0 -11 -1 -22q-6 -57 -28 -118t-43 -99t-39 -63q-77 -107 -200 -160 q-66 -29 -92 -29t-50 21q-8 6 -8 17q0 16 21 43q33 44 85 78q48 32 76 32h5q16 -2 30 -2q24 0 40 6q26 9 52 39q17 21 37.5 55t41 85t27.5 99q2 14 2 27q0 35 -12 69q-18 47 -65 75q-50 30 -123 36q-17 1 -35 1q-60 0 -133 -16q-94 -20 -195.5 -64t-214 -122t-216.5 -180 q-93 -92 -173.5 -214.5t-121.5 -229.5q58 4 112 4q85 0 162 -10q127 -15 187 -43q52 -25 74 -51.5t18 -44.5q-3 -28 -44 4l-10 8q-11 9 -16 26.5t-18 24.5q-62 37 -192 52q-71 9 -149 9q-65 0 -134 -6q-33 -92 -33 -173q0 -17 2 -34q8 -95 71 -143q54 -37 132 -37q24 0 51 4 q111 15 233 73t209 136q43 38 68.5 70t32 49t13 31t21 24.5t47.5 22.5q76 27 112 27q14 0 22 -4q21 -10 -14 -38q-6 -5 -9.5 -8t-8.5 -7.5t-9.5 -9t-8.5 -9.5q-17 -21 -114.5 -169.5t-223 -315t-249.5 -287.5q-322 -316 -777 -320h-6q-107 0 -202 33q-97 34 -169.5 97 t-108.5 161q-26 70 -26 151q0 31 4 64zM55 43q-3 -27 -3 -52q0 -58 16 -109q22 -75 67.5 -128t109 -91t136 -56t149.5 -19h8q174 0 355 82q185 84 354 256q103 105 201.5 230.5t154.5 208t58 84.5q8 8 8 13q0 4 -5 6q-7 3 -13 -3q-62 -51 -134.5 -98t-157.5 -85.5 t-164 -58.5q-54 -14 -107 -14q-24 0 -48 3q-75 9 -127 52q-71 58 -88 158q-5 32 -5 65q0 74 26 158q-94 -12 -194.5 -42t-203 -82.5t-185 -119.5t-139.5 -160.5t-69 -197.5z" />
<glyph unicode="H" horiz-adv-x="1998" d="M18 -422q0 11 29.5 47.5t74 70.5t77.5 34h1q150 0 646 696q175 247 321 483q-233 85 -357 119q-75 21 -117 21q-27 0 -40 -9q-33 -24 -55 -26q-5 -1 -12 0q-23 0 -68 6q-38 5 -58.5 15t-20.5 21.5t10 24.5q27 30 53 37q12 3 27 3q20 0 46 -5q1 0 53.5 -10t72.5 -14.5 t82 -20t111 -31t127.5 -42.5t162.5 -60q54 91 86 159.5t42 110t13 78.5q1 14 1 26q0 21 -3 38q-3 38 62 112q62 70 105 70h5q67 -6 77 -12q16 -10 -3 -41q-11 -17 -52.5 -92.5t-115.5 -204t-160 -267.5q274 -117 535 -270q123 174 262 342q264 318 426 449q12 9 19 14t18 10 t19.5 2.5t14.5 -12.5q13 -21 13 -44q0 -36 -29 -79q-31 -45 -75 -79t-72 -34q-92 0 -297 -253q-156 -197 -250 -345l110 -71q1 -4 2 -8.5t1.5 -16.5t-4 -12.5t-15.5 4.5q-81 57 -111 78q-175 -292 -290 -602q-11 -31 -41 -13q-31 19 -38 60q-4 24 5 45q95 225 315 541 q-211 135 -536 266q-168 -268 -324 -498q-252 -368 -449.5 -595.5t-283.5 -246.5q-29 -7 -57 -7q-23 0 -43 5q-46 10 -48 33z" />
<glyph unicode="I" horiz-adv-x="1531" d="M16 -243q4 19 19 53q12 27 31.5 41t52.5 26q190 75 334 108.5t282 45.5q-7 27 4 49q58 135 173 322.5t257 375.5q240 320 478 555q-137 -45 -227.5 -70t-249.5 -49q-136 -21 -268 -21q-22 0 -44 1q-67 0 -102 35q-43 44 -43 64q0 6 4 11q13 13 101 20h1h1h1h1h1h1l30 3 q24 2 43 2q27 0 44 -4q29 -7 56 -23.5t60 -23.5q55 -12 113 -12q4 0 7 -1q53 0 99 7q48 7 109 23t106.5 31.5t112.5 38t114 36.5q37 31 55 43t35.5 11.5t30.5 -21.5q95 25 144 37t123.5 30t117.5 25q44 8 98 14q44 5 79 5q9 -1 17 -1q42 -2 79 -8q46 -9 71 -35 q26 -25 31 -57q3 -19 3 -38q0 -12 -2 -26q-4 -32 -11.5 -54.5t-12.5 -29.5q-10 -13 -20.5 -9.5t-7.5 18.5q3 14 3 27q0 76 -102 110q-57 19 -123 24q-22 2 -46 2q-47 0 -100 -7q-80 -10 -155 -26t-182 -44q-6 -48 -67.5 -112.5t-108.5 -64.5q-121 0 -453 -456 q-209 -285 -383 -719q54 3 108 4l374 -41q117 -28 123 -57q3 -10 -2.5 -15.5t-19 -5t-32.5 7.5q-16 5 -30 20.5t-27 18.5q-152 45 -370 45q-64 0 -134 -4l-8 -24q-10 -23 -32 -16.5t-36 32.5q-189 -26 -411 -137q-26 -13 -43.5 -30t-25.5 -30t-34 -28t-69 -27 q-105 -28 -122 -28q-25 0 -25 23q0 4 1 10z" />
<glyph unicode="J" horiz-adv-x="1890" d="M12 70q18 114 80 215.5t154 177.5t199.5 131.5t226.5 89.5q121 34 247 41q39 2 75 2q81 0 146 -11q95 -15 161.5 -35.5t99.5 -41.5q47 -29 69 -55.5t19 -42.5q-2 -12 -12 -12q-13 0 -41 24q-11 10 -17 26.5t-18 24.5q-54 39 -158.5 65.5t-257.5 26.5q-2 1 -4 1 q-151 0 -299 -38q-236 -60 -420.5 -224.5t-214.5 -368.5q-5 -37 -5 -71q0 -70 21 -132q32 -93 98.5 -153t156.5 -93t190 -33q114 0 230 37.5t216 97t203 148.5t185 177.5t168.5 200t147 199.5t126.5 191q120 186 191 309t101.5 200t37.5 117q4 25 4 53q0 17 -2 36 q-14 -4 -80.5 -25.5t-91.5 -29t-91 -26t-104.5 -26.5t-104.5 -21t-118.5 -18t-119.5 -8q-43 -3 -84 -3q-24 0 -48 1q-68 0 -103 35q-42 44 -42 64q0 7 4 11q13 13 100 20h1h1h1h1h1h2q19 2 30 3q24 2 43 2q27 0 44 -4q29 -7 56 -23.5t60 -23.5q54 -12 111 -12q5 -1 9 -1 q52 0 97 7q48 6 109.5 22.5t106 31.5t112.5 38t114 37q25 45 73 86t83 45q22 3 37 3q30 0 39 -10q5 -5 5 -14q0 -18 -20 -53q210 51 339 69q66 9 123 9q54 0 101 -8q46 -9 71.5 -35t30.5 -57q4 -20 4 -39q0 -13 -2 -25q-3 -33 -11 -55t-13 -29q-10 -13 -21 -10t-8 18 q3 14 3 27q0 77 -101 111q-70 24 -158 26h-23q-77 0 -154 -11q-90 -13 -210 -42q-226 -429 -454 -793q-70 -112 -134 -205t-153.5 -207.5t-175.5 -203.5t-194.5 -178t-216.5 -147.5t-236.5 -95t-259.5 -36.5q-110 0 -205.5 35.5t-165 101t-101.5 167.5q-19 64 -19 135 q0 44 7 90z" />
<glyph unicode="K" horiz-adv-x="1294" d="M26 35q-1 7 -1 14q0 16 6 31q55 128 164.5 308.5t242.5 361.5q-111 14 -111 44q0 7 5 15q16 23 26 33.5t32 19.5t51.5 7t84.5 -3q114 151 183 241t156 193.5t147 159.5q13 11 19 15.5t17 10.5q8 5 15 5h5q8 -2 15 -12q17 -21 17 -48q0 -33 -25 -75q-30 -47 -72 -84.5 t-69 -38.5q-30 -2 -66.5 -28.5t-85 -83t-90 -111t-108.5 -146.5q37 -1 74 -1q671 0 1099 331q12 10 30.5 23t22.5 16t10.5 14t7 23t1.5 37q2 59 125 135q17 12 48 12q17 0 37 -4q55 -10 55 -36q0 -8 -7 -17q-80 -109 -291 -240q-146 -91 -259.5 -149t-260.5 -110 q-148 -52 -316 -74q-126 -16 -269 -17q-47 0 -95 2q-11 0 -14.5 -1.5t-1 -4t11.5 -6.5q25 -12 62 -40.5t65 -60.5q24 -28 58.5 -84.5t100 -180t96 -183.5t126.5 -248q252 -492 616 -491q36 0 72 4q15 2 27.5 14t27.5 16q52 16 54 -5q0 -3 -1 -7q-9 -31 -124 -45 q-49 -6 -96 -6q-174 0 -322 86q-188 110 -342 383q-60 106 -135.5 267t-134 269.5t-117.5 169.5q-61 64 -133 82q-118 -166 -220 -370.5t-168 -378.5q-11 -31 -40 -13q-31 19 -38 60z" />
<glyph unicode="L" horiz-adv-x="933" d="M17 118q12 44 41 84.5t53 47.5q28 9 40 14t45 32.5t67.5 75t96 141t142.5 230.5q50 84 87.5 153.5t62 118.5t40 93t23.5 68.5t10 54t1 41.5q0 14 -3 40q-4 37 -4 42q0 38 62 108t105 70h5q9 -1 24 -2q23 -2 32.5 -3t18.5 -6t8 -15t-9 -27q-129 -279 -414 -758 q-244 -409 -369 -586q31 -10 67.5 -28.5t68 -37t99 -58.5t126.5 -74q220 -128 285 -156q91 -41 169 -41q16 0 31 2q79 9 127.5 28t104.5 60q12 8 28 39.5t27 40.5q28 23 45 23q12 0 18 -11q8 -13 8 -25q0 -17 -13 -31q-23 -26 -75 -56q-143 -84 -268 -99q-32 -4 -65 -4 q-87 0 -179 27q-126 37 -299 147q-182 116 -202 127q-72 41 -112 41q-16 0 -28 -7q-8 -4 -14 -11q-32 -41 -53 -41q-22 0 -58 55q-8 17 -8 37q0 16 5 36z" />
<glyph unicode="M" horiz-adv-x="2482" d="M14 940q-2 9 -2 18q0 22 10 46q14 36 37 57q26 26 71.5 63.5t119.5 91.5t179 113.5t216 108.5q110 48 208 72q81 20 149 21q14 0 27 -1q78 -5 114 -45q57 -62 59 -167v-8q0 -104 -59 -254q-61 -156 -185 -345q-10 -17 -3 -18q8 0 20 12q23 28 64.5 75.5t153.5 165.5 t222 221q106 99 179.5 161.5t155.5 119.5q82 56 148 74q35 10 66 10q29 0 55 -8q65 -20 66 -113q0 -213 -345 -807q-5 -8 -7 -12q-6 -11 2 -14q6 -3 14 8q1 1 15 20.5t19.5 26t22 28.5t27 35t31 39t37.5 46l42.5 50t50 58t56 62.5t64.5 70.5q229 248 378 340q90 55 158 55 q45 0 80 -24q42 -29 54 -79q7 -26 7 -55q1 -27 -5 -57q-12 -62 -51.5 -152.5t-91.5 -184.5t-130 -224q-66 -110 -114.5 -199t-95.5 -187t-70.5 -177t-32.5 -152q-3 -22 -2 -43q0 -47 14 -87q20 -57 67 -95q37 -30 91 -44q51 -13 86 -13h5l36 2l3 9t16 18.5t36 19.5 q38 13 62 13q25 0 33 -15q9 -15 -7 -29q-65 -59 -143 -59q-160 0 -250 71q-110 89 -110 258q0 270 282 744q90 150 149 268q58 118 82 194q23 72 23 116q-1 3 -1 5q-2 45 -26 60q-28 16 -61 16q-57 -1 -131 -49q-116 -76 -318 -291q-232 -248 -362 -434q-159 -228 -328 -553 q-20 -40 -48 -15q-24 24 -24 63q0 15 6 26q62 114 163 289.5t143 249.5q31 55 68.5 128t79 161.5t75 174t55.5 159.5q22 72 22 123q0 54 -28 67q-26 13 -58 13q-60 0 -142 -45q-124 -69 -328 -267q-178 -172 -250 -248.5t-181 -202.5q-145 -168 -266 -355.5t-198 -348.5 q-15 -30 -40 -10q-27 22 -27 66q0 24 11 44q42 78 98 168t147 232.5t165 262.5q79 128 133 244.5t77 204.5q22 84 22 145v5q-1 64 -27 96q-24 30 -92 38q-22 3 -46 3q-52 -1 -116 -13q-92 -18 -176 -61q-219 -113 -302.5 -168t-103.5 -115q-4 -12 -11 -33.5t-9.5 -28.5 t-9.5 -22t-16 -26.5t-24 -29.5t-38 -42q-19 -20 -28 -29.5t-24 -22.5t-23 -16t-19 -4t-17.5 7t-13 24t-11.5 41z" />
<glyph unicode="N" horiz-adv-x="1859" d="M12 940q-2 9 -2 18q0 22 10 46q14 36 37 57q26 26 71.5 63.5t119.5 91.5t179 113.5t216 108.5q165 72 299 86q28 3 52 3q94 0 147 -42q59 -50 73 -127q5 -25 5 -52q-1 -58 -21 -126q-30 -100 -89.5 -215t-152.5 -254q-7 -9 -2 -13t11 4q48 57 101.5 114.5t93 97 l119.5 119.5l134 134q188 191 358 273q99 48 172 49q52 0 91 -25q50 -32 68 -90q11 -36 12 -78q0 -26 -4 -52q-10 -72 -50.5 -172t-94.5 -203t-134 -240q-67 -116 -112 -199.5t-93.5 -184t-70.5 -174.5q-21 -73 -31 -147q-3 -23 -3 -45q-1 -47 13 -85q20 -56 68 -93 q38 -30 93 -44q51 -13 86 -13h5l35 2l3 9t16 18.5t36 19.5q37 13 60 13q26 0 34 -16q7 -14 -6 -28q-65 -59 -143 -59q-160 0 -248 71q-117 92 -117 266q0 270 283 736q263 445 263 622q0 65 -36 93q-34 27 -82 27q-56 0 -134 -36q-144 -66 -310 -237q-74 -75 -160 -163 t-118 -120.5t-75.5 -78.5t-91.5 -99q-147 -162 -269 -349.5t-198 -350.5q-15 -30 -40 -12q-26 20 -27 62q0 25 12 46q64 117 93 168t113.5 185t205.5 310q76 112 130.5 226.5t78.5 206.5q24 93 24 163q0 67 -26 99q-24 30 -96 39q-24 3 -50 3q-52 0 -116 -12 q-96 -18 -179 -61q-206 -106 -290 -165t-105 -120q-4 -11 -10 -29.5t-8 -25t-7.5 -20t-11 -21t-16 -21.5t-23.5 -29t-33 -36q-15 -16 -22 -23l-19.5 -19.5t-19 -16.5t-16 -9.5t-15 -4.5t-13 4t-12 12.5t-9.5 23t-9 33.5z" />
<glyph unicode="O" horiz-adv-x="1220" d="M13 348q6 110 47 233.5t108 241t151 219.5q99 120 214 216t223 154t205 89.5t176 34.5h21q46 0 86 -7q50 -9 82 -23t56.5 -31t35.5 -29t14 -19q7 -16 0.5 -24.5t-25.5 6.5q-69 58 -206 58q-32 0 -68 -3q-143 -13 -346.5 -148t-376.5 -353q-75 -94 -139 -201.5 t-109 -221.5q-44 -113 -60 -212q-5 -34 -6 -67q0 -59 19 -111q29 -80 106 -117q62 -30 133 -30q22 1 44 3q96 12 196 56.5t198 115.5t180.5 150.5t145.5 160.5q81 105 144 234q64 129 94 243q25 96 25 175q0 16 -1 31q-6 91 -55 124q-50 30 -104 30q-17 0 -33 -3 q-72 -12 -132.5 -50.5t-82.5 -80.5q-15 -29 -22 -59.5t-21.5 -54t-57.5 -64.5q-6 -6 -18 -17q-25 -25 -36.5 -35t-28 -22.5t-23 -11.5t-14.5 7t-11.5 24t-5.5 47q-3 29 5.5 51t29.5 51q54 72 157 139t221 97q43 11 83 12q70 0 129 -35q81 -55 81 -174q1 -17 -1 -36 q-14 -147 -95.5 -322.5t-199.5 -327.5q-60 -77 -127 -147t-145.5 -137.5t-162.5 -114.5q-82 -47 -168 -75q-74 -24 -151 -24q-13 1 -25 1q-90 4 -171 44q-98 48 -143 139q-40 80 -40 175q0 13 1 26z" />
<glyph unicode="P" horiz-adv-x="1232" d="M13 1142q4 18 14 44q17 51 77 78q41 19 87.5 38t173 60t260 73t337 63.5t414.5 43.5q106 5 194 5q38 0 72 -1q114 -3 196 -21.5t136 -43t84 -60.5q28 -37 38 -75q5 -22 6 -46q0 -18 -3 -38q-17 -118 -91.5 -217t-178 -163.5t-234 -111.5t-251.5 -70t-238 -30 q-38 -2 -71 -2q-87 0 -134 12q-23 6 -30.5 15t2 22t17.5 21t25 22q16 11 49 10q29 0 72 -8q30 -6 47.5 -21t29.5 -26t32 -10q78 5 165.5 25t178.5 53.5t175.5 83t153.5 109t117 137t62 161.5q3 19 3 36q0 26 -6 48q-12 38 -53 71t-110.5 54.5t-184.5 30.5q-65 5 -141 5 q-60 0 -127 -3q-343 -17 -666 -103t-393 -143q-26 -21 -43.5 -47.5t-40.5 -45t-79 -38.5q-9 -3 -26 -9q-33 -13 -47.5 -17.5t-34 -9t-25 -1t-9.5 12.5q-2 5 -3 12q0 7 2 15zM308 35q-1 7 -1 14q0 16 6 31q58 135 173 322.5t257 375.5q155 205 316.5 385.5t273.5 272.5 q32 25 51 25q13 0 21 -11q13 -21 13 -44q0 -36 -29 -79q-31 -44 -75.5 -78.5t-72.5 -34.5q-121 0 -453 -456q-122 -169 -228 -380t-173 -390q-7 -20 -22 -20q-8 0 -19 7q-31 19 -38 60z" />
<glyph unicode="Q" horiz-adv-x="1449" d="M41 174q36 41 174 96q-3 28 -3 57q0 146 74 323q90 213 236 392q99 120 213 216t221 154t203.5 89.5t175.5 34.5h21q45 0 86 -7q51 -9 82.5 -23t56 -31t35.5 -29t14 -19q7 -16 1 -24.5t-25 6.5q-69 58 -206 58q-33 0 -69 -3q-142 -13 -344 -148t-375 -353 q-122 -153 -211 -336t-102 -330q85 30 173 32h14q81 0 160 -23q86 -24 160 -58.5t155 -85.5q211 147 348 327q82 106 147.5 234t101.5 241q32 105 32 190v14q-3 91 -52 124q-54 32 -116 32q-14 0 -28 -2q-77 -8 -143.5 -44.5t-87.5 -77.5q-16 -31 -20 -62t-16.5 -57 t-55.5 -67q-6 -6 -18 -17q-25 -25 -36.5 -35t-28 -22.5t-23 -11.5t-14.5 7t-11.5 24t-5.5 47q-3 29 5.5 51t29.5 51q39 52 110 107t158 96.5t171 48.5h22q71 0 129 -39q58 -42 65 -142q2 -18 2 -36q0 -86 -28 -185q-35 -122 -102.5 -255t-152.5 -242q-161 -205 -333 -332 q128 -88 325 -260q218 -191 408 -191q101 0 194 54q27 15 37 5q3 -3 3 -7q0 -12 -25 -31q-103 -80 -192 -97q-21 -4 -44 -4q-71 0 -156 39q-112 51 -270 185q-269 230 -325 274q-201 -134 -376 -134q-103 0 -196 46q-128 61 -172 217q-26 -26 -28 -41q-2 -19 -18.5 -34 t-65.5 -39q-23 -11 -56 15q-20 16 -20 30q0 9 8 18zM297 264v-8q0 -164 123 -223q58 -30 129 -30q12 0 25 1q85 6 169.5 38t174.5 89q-95 68 -195 109t-213 52q-25 3 -50 3q-85 0 -163 -31z" />
<glyph unicode="R" horiz-adv-x="1705" d="M13 1142q4 18 14 44q17 51 77 78q549 250 1272 282q81 3 153 3q117 -1 207 -9q148 -14 227.5 -50t109.5 -86q21 -36 21 -81q0 -18 -3 -37q-19 -107 -123 -211.5t-250.5 -180.5t-320 -126t-332.5 -57q57 -40 109.5 -122.5t87 -165.5t87.5 -209.5t95 -209.5 q149 -290 314 -408q127 -91 286 -92q48 0 100 9q15 2 30 22.5t30 24.5q30 12 50 7q13 -3 13 -17q0 -8 -4 -19q-12 -30 -135 -45q-56 -9 -110 -9q-54 1 -104 9q-104 16 -196.5 66.5t-181 149.5t-168.5 247q-51 95 -105.5 222t-88.5 213.5t-83 171.5t-104 130q-8 6 -20.5 9.5 t-33.5 7t-28 4.5q-24 4 -32.5 12t-1 20t15.5 20t24 21q13 8 55 8t85 -6q23 -3 36.5 -9.5t16.5 -12t12 -9.5t25 -3q113 7 256.5 62t269 133.5t218.5 177t108 184.5q2 13 2 25q1 24 -7 45q-12 32 -52 62t-108 49.5t-183 27.5q-63 5 -137 5q-61 0 -130 -3q-343 -17 -666 -103 t-393 -143q-26 -21 -43.5 -47.5t-40.5 -45t-79 -38.5q-9 -3 -26 -9q-33 -13 -47.5 -17.5t-34 -9t-25 -1t-9.5 12.5q-2 5 -3 12q0 7 2 15zM271 35q-1 7 -1 14q0 16 6 31q58 134 173 321.5t258 376.5q155 206 316 386.5t273 271.5q32 25 51 25q13 0 21 -11q13 -21 13 -44 q0 -36 -29 -79q-31 -44 -75.5 -78.5t-72.5 -34.5q-120 0 -452 -456q-123 -169 -229 -380.5t-173 -389.5q-7 -20 -22 -20q-8 0 -19 7q-31 19 -38 60z" />
<glyph unicode="S" horiz-adv-x="1632" d="M8 -106q2 94 48.5 192.5t126 188.5t194.5 172t252 143q333 148 693 148q27 0 54 -1q-26 56 -73.5 110.5t-92.5 94t-86.5 78t-62.5 78.5q-15 28 -15 55q0 12 3 23q17 78 87.5 147.5t164.5 114t190 71.5t176 33q14 1 27 1q53 -1 88 -17q44 -20 57 -55q10 -27 10 -58 q0 -10 -1 -20q-4 -43 -21.5 -82.5t-40.5 -69.5q-6 -8 -26.5 -35.5t-30.5 -39.5t-28.5 -32t-38 -34t-42.5 -25q-39 -19 -63.5 -22t-37 3t-32.5 23q-18 16 13.5 52.5t81.5 64.5q45 25 73 25h6q26 -3 46 6t27 19l7 11q24 28 42 60.5t26 67.5t0.5 63t-41.5 44q-31 15 -82 15h-13 q-63 -2 -146 -29.5t-161 -70t-133 -104t-59 -123.5v-5q0 -33 24 -69q26 -38 66.5 -74.5t84.5 -78t85.5 -101t60.5 -125.5q80 -8 186 -31q116 -26 121 -53q6 -19 -20 -17q-13 1 -35 7q-15 4 -26 16.5t-25 16.5q-77 20 -195 32q15 -80 15 -153v-17q-2 -82 -28.5 -163t-65 -153 t-92.5 -141.5t-110.5 -127t-121.5 -109.5q-130 -104 -294.5 -174t-314.5 -92q-57 -8 -109 -8q-88 0 -164 22q-122 36 -169 129q-40 86 -40 176q1 4 1 7zM55 -116q0 -4 -1 -8q0 -68 30 -128q34 -76 148 -97q48 -9 102 -9q72 0 152 16q140 28 291 96t259 158q71 59 134 126.5 t119.5 150.5t88.5 167q30 84 38 175l2 32q0 74 -29 142q-30 1 -60 1q-371 0 -684 -139q-105 -47 -198 -109t-163.5 -131t-123.5 -145t-78 -150t-27 -148z" />
<glyph unicode="T" horiz-adv-x="737" d="M8 1310q13 13 101 20h1h1h1h1h1h1l30 3q24 2 43 2q27 0 44 -4q29 -7 56 -23.5t60 -23.5q62 -14 121 -16q27 -1 51 -1q30 0 54 2q46 3 117.5 20.5t118 31t151 46t174.5 52.5q47 42 72 42q16 0 22 -17q145 38 224 57t183 33q59 8 103 9q33 0 57 -5q46 -9 71 -34.5t29 -55.5 q2 -15 2 -30q0 -16 -2 -32q-4 -32 -12 -53t-14 -28q-10 -13 -21 -10t-8 18q3 13 3 25q0 66 -78 100q-76 34 -188 34q-24 0 -50 -2q-146 -9 -287 -61q0 -38 -31 -82q-31 -45 -75 -79t-72 -34q-121 0 -453 -456q-122 -169 -228 -380t-173 -390q-7 -20 -22 -20q-8 0 -19 7 q-31 19 -38 60q-4 24 5 45q58 135 173 322.5t257 375.5q131 173 269.5 332t248.5 262q-62 -17 -192.5 -58.5t-208 -62.5t-222.5 -38q-117 -14 -248 -14q-31 0 -62 1q-68 0 -103 35q-43 44 -43 64q0 7 4 11z" />
<glyph unicode="U" d="M0 940q-2 9 -2 18q0 22 10 46q14 36 37 57q26 26 71.5 63.5t119.5 91.5t179 113.5t216 108.5q111 48 215 76q93 25 172 25h17q85 -3 118 -44q22 -29 30 -61q3 -13 3 -29q0 -21 -6 -47q-11 -44 -27 -83.5t-55.5 -107.5t-73.5 -122.5t-97 -154t-110 -177.5 q-115 -188 -165 -322q-43 -116 -43 -186q0 -11 1 -21q8 -73 62 -112q37 -27 85 -27q45 0 100 24q113 49 317 201q147 110 343.5 291.5t262.5 274.5q70 97 171 247.5t173 253t127 164.5q9 10 15 16t16 12.5t19 5.5t17 -9q21 -23 21 -55q0 -31 -19 -70q-26 -53 -64 -95 q-34 -38 -58 -38h-5q-15 2 -35 -12t-49 -51.5t-54 -73.5t-67.5 -106t-70.5 -117t-80 -138q-171 -294 -260 -762q-3 -21 -17 -21q-6 0 -14 4q-29 15 -41 55q-8 26 -2 50q81 336 250 641q3 4 0 5.5t-6 -1.5q-97 -104 -253.5 -244t-291.5 -243q-218 -167 -357 -227 q-72 -31 -131 -31q-55 0 -100 27q-84 51 -94 147q-2 16 -1 33q-1 86 43 200q52 137 171 340q41 71 87.5 147.5t79.5 129.5t67 108.5t55.5 93.5t39.5 75.5t25 63.5t6 48.5t-12 38.5q-36 45 -128 45q-23 -1 -51 -3q-134 -14 -267 -83q-204 -105 -287 -164t-104 -121 q-4 -11 -10 -29.5t-8 -25t-7.5 -20t-11 -21t-16 -21.5t-23.5 -29t-33 -36q-15 -16 -22 -23l-19.5 -19.5t-19 -16.5t-16 -9.5t-15 -4.5t-13 4t-12 12.5t-9.5 23t-9 33.5z" />
<glyph unicode="V" horiz-adv-x="1548" d="M14 940q-2 9 -2 18q0 22 10 46q14 36 37 57q26 26 71.5 63.5t119.5 91.5t179 113.5t216 108.5q164 72 318 86q33 3 61 4q107 0 158 -43q48 -44 68 -102q16 -45 16 -113q0 -20 -1 -42q-6 -96 -57 -244.5t-147 -354.5q-64 -138 -121.5 -257.5t-83.5 -169.5l-25 -50v-6 t4.5 -8.5t16.5 3.5q24 14 53.5 31t111.5 70t157 107.5t172 135.5t174 162q138 143 229.5 255.5t129.5 181.5q38 68 49 108q7 26 7 46q0 11 -2 19t-2 16q0 35 28 83q35 60 81 110q40 43 65 57q21 12 56 12q8 0 16 -1q27 0 39 -8q8 -5 8 -16q0 -4 -2 -8q-4 -16 -11 -28.5 t-25 -39.5q-2 -2 -3 -3.5t-2 -3.5q-93 -140 -156 -233q-159 -234 -483 -571q-113 -117 -273 -244.5t-297 -228t-179 -140.5q-20 -20 -37 -24l-10 -2q-12 0 -20 6q-12 10 -20 24t-16 35q-5 14 -6.5 21t-2.5 13.5t4 16t9.5 17.5t17 28t23.5 39q92 161 234 488q103 241 147 390 q44 146 44 214q0 70 -32 123q-40 64 -184.5 64t-279.5 -56q-193 -80 -279 -143t-109 -131q-21 -62 -40.5 -92.5t-85.5 -100.5q-19 -20 -28 -29.5t-24 -22.5t-23 -16t-19 -4t-17.5 7t-13 24t-11.5 41z" />
<glyph unicode="W" horiz-adv-x="2605" d="M35 936q-3 11 -3 22q0 21 8 44q12 36 36 57q64 68 214.5 177.5t356.5 201.5q179 80 329 92q26 2 50 3q110 0 158 -48q40 -37 64 -77t34 -110q3 -24 3 -50q0 -49 -12 -106q-19 -87 -76 -218.5t-155 -294.5q-83 -138 -156.5 -257.5t-105.5 -169.5l-32 -50q-1 -3 -0.5 -5.5 t4.5 -7.5t16 2q114 52 314.5 186.5t414.5 325.5q174 156 278 282t107 173q3 39 30.5 70t57.5 49q24 15 41 19.5t28.5 -2.5t17 -13.5t14.5 -22.5q11 -19 11 -44q0 -69 -83 -189q-86 -122 -144.5 -251t-80.5 -238q-20 -98 -21 -181q1 -9 1 -18q2 -90 34.5 -145.5t87.5 -67.5 q23 -5 47 -4q75 0 172 42q128 58 251.5 168t205.5 240q56 90 99.5 188.5t67.5 180.5q24 81 36 151q10 58 10 97q-1 7 -1 15q-2 42 -16 52q-36 20 -46.5 62t-10.5 110q3 57 15 84.5t51 63.5q18 18 32 18q25 0 40 -54t15 -140q0 -39 -3 -84q-5 -75 -9.5 -121t-20.5 -129.5 t-41.5 -153.5t-73 -167t-113.5 -197q-73 -113 -158.5 -207.5t-180.5 -166.5q-96 -72 -200 -104q-67 -21 -131 -20q-35 0 -70 6q-87 16 -132.5 75t-47.5 146v17q0 80 17 168q19 98 61.5 207.5t84.5 198t87 167.5q2 4 2.5 7.5t-1 5.5t-4 3t-6 -1t-6.5 -7q-29 -39 -58 -72 t-110 -110.5t-206 -185.5q-130 -113 -310 -242t-326.5 -229t-195.5 -142q-24 -20 -41 -24l-10 -2q-10 0 -18 7q-11 10 -17 23t-12 35q-3 12 -4 17.5t0 14t2 11.5t7.5 14t11.5 17.5t19 25.5t25 35q100 139 299 488q80 144 130 258t70 186q19 68 18 125v6q-1 59 -11 89t-31 63 q-42 65 -186 67h-7q-140 0 -265 -57q-351 -157 -396 -299q-18 -60 -29 -77.5t-77 -92.5q-17 -19 -24.5 -26.5l-21.5 -21.5t-20.5 -17t-17 -8t-16 -1t-13 11t-12.5 22t-10 37z" />
<glyph unicode="X" horiz-adv-x="1400" d="M-562 -215q25 33 54 43q20 6 56 10q23 3 47 3q14 -1 28 -1q40 -2 53 -16q22 -22 57 -22q14 0 30 3q57 12 135 57t169 114.5t189.5 154.5t196.5 175.5t190 178.5t170 164l27 27q-70 237 -112.5 357.5t-67.5 162.5t-54 51q-42 13 -66.5 43t-39.5 84q-15 57 -15 79 q0 23 17 71q8 26 24 26q14 0 35 -21q25 -26 45 -69q66 -136 107 -241q18 -47 31.5 -86.5t23 -66t24 -72.5t21.5 -69t29 -96t35 -116q205 211 341 379q124 155 124 215q0 5 -1 10q-3 15 -3 30q0 65 61 126q40 40 61 52t70 21q6 1 12 1q23 0 22 -23v-6q-3 -30 -36 -95 q-93 -185 -258 -395.5t-363 -409.5q94 -300 181 -472t200 -244q9 -8 29.5 -2t32.5 2q49 -11 50 -25q0 -5 -5 -10q-9 -10 -28 -16t-49 -2.5t-58 20.5q-107 65 -207 248.5t-185 462.5q-303 -277 -441 -392q-533 -445 -838 -472q-19 -2 -37 -2q-55 0 -103 14q-25 7 -25 25 q0 13 14 32z" />
<glyph unicode="Y" horiz-adv-x="1705" d="M31 70q15 76 58 142t91.5 107.5t109.5 75.5t100.5 49t74.5 25q58 16 92 16q31 0 41 -14q6 -8 3 -16t-16 -13.5t-32 -5.5q-15 0 -31 6t-30 4q-40 -7 -87.5 -26t-103 -52.5t-102.5 -75.5t-84 -101.5t-49 -124.5q-7 -36 -7 -72q0 -53 16 -104q26 -85 81.5 -144.5t126.5 -100 t147 -53.5q54 -10 109.5 -10t112.5 10q112 19 214 69.5t191 116t174 148.5q88 86 177 201.5t174 253t129.5 215t110.5 198.5q13 24 19 35q3 6 -0.5 7t-7.5 -5q-189 -220 -391 -389q-205 -170 -338 -230q-75 -34 -141 -34q-51 0 -97 21q-125 55 -125 196q0 135 115 348 q18 33 47.5 86t51.5 93.5t50.5 93t48.5 93.5t41.5 86.5t33.5 81t20.5 68t6.5 56t-13 37.5q-25 31 -93 41q-26 4 -55 4q-48 0 -106 -11q-93 -16 -176 -59q-208 -107 -296.5 -168.5t-109.5 -122.5q-4 -12 -11 -33.5t-9.5 -28.5t-9.5 -22t-16 -26.5t-24 -29.5t-38 -42 q-19 -20 -28 -29.5t-24 -22.5t-23 -16t-19 -4t-17.5 7t-13 24t-11.5 41q-2 8 -2 17q0 22 11 47q14 35 37 57q26 26 71.5 63.5t119 91.5t178.5 113.5t216 108.5t209 74q80 20 148 20h29q78 -6 112 -47q47 -57 47 -121q0 -8 -1 -17q-8 -87 -113 -292q-47 -91 -185 -342 q-51 -93 -77.5 -173.5t-28.5 -131.5q-1 -10 -1 -19q0 -39 8 -69q10 -38 24 -55t28 -23q39 -16 82 -16q62 0 135 33q122 56 317 212q107 85 269 261.5t237 281.5q42 59 95 133.5t74 104.5t52.5 72.5t58.5 74.5t64 74q21 24 55 46q21 13 35 13q9 0 15 -6q21 -23 21 -55 q0 -31 -19 -70q-24 -48 -62 -88.5t-65 -44.5q-19 -3 -38.5 -14.5t-40 -34.5t-38 -47t-42 -63.5t-42.5 -70.5t-47.5 -83t-50.5 -87q-25 -42 -89 -157t-120.5 -210t-133 -214.5t-165.5 -231t-180 -200.5q-327 -321 -698 -321q-73 0 -148 13q-95 16 -175 60t-136.5 109.5 t-79.5 157.5q-12 48 -12 99q0 47 10 97z" />
<glyph unicode="Z" horiz-adv-x="1368" d="M-88 -256q0 23 19.5 67t71 120.5t128.5 168t206.5 219t289.5 263.5q229 194 458 366t351 266t192 177q-185 -78 -530 -110q-151 -14 -302 -14q-193 0 -384 23q-73 11 -105 43q-31 31 -40.5 49t3.5 27t37 13t72 8q5 0 8.5 0.5t9 1t9.5 0.5q16 1 29 1q25 -1 43 -5 q28 -8 38.5 -19.5t30.5 -29.5t47 -29q92 -36 248 -40h39q137 0 275 21q158 24 300 75t205 116q14 15 30 15q17 0 37 -17q38 -32 64 -86q8 -16 8 -30q0 -16 -11 -30q-21 -24 -85 -65q-5 -3 -7.5 -5t-7 -5t-8.5 -5q-5 -4 -91.5 -57t-178 -114.5t-217 -150.5t-267.5 -205 t-272 -239q-164 -155 -294.5 -302t-203 -251t-106.5 -175q-26 -55 -26 -83q0 -8 2 -14q0 -1 4 -1q13 0 73 19q75 24 214.5 70.5t228.5 73.5q156 47 290 69q118 19 201 19h22q88 -3 138 -25q44 -19 68 -54.5t26 -73.5q1 -12 1 -23q1 -25 -3 -47q-6 -32 -18 -56 q-5 -10 -13.5 -12.5t-14 2t-3.5 14.5q3 14 3 28q0 30 -16 56q-22 37 -73 76q-61 42 -205 42h-30q-168 -4 -351 -52q-301 -78 -526 -209q-30 -15 -52 -15h-10q-25 4 -40.5 30t-22 54t-6.5 56z" />
<glyph unicode="[" horiz-adv-x="442" d="M45 1255q0 9 12.5 20t22.5 11h272q21 0 27.5 -20t-3 -40t-28.5 -20q-12 0 -49.5 -1t-128.5 -1v-1466h182q21 0 27.5 -20t-3 -40t-28.5 -20q-34 0 -147.5 -1t-120.5 -1q-20 0 -26.5 7.5t-6.5 27.5l-1 694q-1 694 -1 870z" />
<glyph unicode="\" horiz-adv-x="507" d="M-246 1270q-5 11 1 22t18 18.5t25 12t25 1.5t17 -13q79 -173 333 -714t267 -566q5 -12 -0.5 -23t-17.5 -17.5t-25.5 -9.5t-25.5 1t-17 14q-524 1111 -600 1274z" />
<glyph unicode="]" horiz-adv-x="458" d="M62.5 -324q-6.5 20 3 40t28.5 20q12 0 49.5 1t128.5 1v1466h-182q-21 0 -27.5 20t3 40t28.5 20q34 0 147.5 1t120.5 1q20 0 26.5 -7.5t6.5 -27.5l1 -694q1 -694 1 -870q0 -9 -12.5 -20t-22.5 -11h-272q-21 0 -27.5 20z" />
<glyph unicode="^" horiz-adv-x="1064" d="M51 705q12 20 165 232.5t267 365.5q22 30 51.5 32.5t43.5 -20.5q10 -14 86 -117t178.5 -242t179.5 -243q12 -15 -3.5 -35.5t-37 -26.5t-35.5 8q-102 144 -405 551q-73 -102 -168 -230.5t-164 -221.5t-78 -105q-14 -14 -36.5 -9.5t-39 24.5t-4.5 37z" />
<glyph unicode="_" horiz-adv-x="1236" d="M52.5 -134q-6.5 23 2 45t27.5 23q74 5 1085 5q18 0 24 -24.5t-4 -49.5t-28 -25q-85 0 -379 -1t-491.5 -1t-210.5 2q-19 3 -25.5 26z" />
<glyph unicode="`" horiz-adv-x="243" d="M29 1497q17 40 47 62q9 8 22 1t17 -22q13 -47 43.5 -90.5t64.5 -67.5q5 -5 4.5 -13.5t-11.5 -15.5t-26 -3q-23 5 -74.5 40t-74.5 66q-19 29 -12 43z" />
<glyph unicode="a" horiz-adv-x="888" d="M-69 120q17 74 77 152t135 131q109 77 223 105q62 15 116 16q44 0 84 -11q86 -24 122 -95q7 -10 2.5 -26.5t-18.5 -22.5t-23.5 5t-19.5 36q-21 52 -75 70q-21 7 -48 7q-42 1 -97 -17q-90 -28 -194 -110q-115 -89 -181 -193q-41 -65 -41 -101q0 -22 15 -35q14 -11 36 -11 q30 0 76 20q80 35 160.5 96.5t135.5 121.5q41 44 68.5 81.5t34.5 52.5l7 16l2.5 5t7 9t11 9t13 1.5t13.5 -10.5q31 -42 31 -82q0 -15 -4 -29q-25 -84 -57 -86q-14 -1 -34 -29t-34.5 -63t-21 -67t7.5 -39q13 -8 36 -8q21 -1 53 7q64 16 142 52q130 62 193 121q11 10 16 27 t17 26q28 23 41 23q10 0 10 -13q0 -12 -14 -27q-15 -16 -55 -51q-7 -7 -11 -10q-67 -58 -193 -119q-80 -39 -158 -55q-38 -8 -66 -9q-29 0 -48 9q-40 25 -40 67v9q5 48 60 157q3 6 -0.5 9.5t-9.5 -2.5q-34 -35 -77 -72t-99.5 -78.5t-107.5 -65.5q-52 -25 -102 -35 q-14 -3 -27 -3q-32 0 -54 18q-40 32 -40 82q0 16 4 34z" />
<glyph unicode="b" horiz-adv-x="708" d="M-111 51q5 26 117 234q22 41 245.5 400t229.5 370q29 52 32 73q2 16 -1 37q-3 22 9 50t24.5 45.5t36.5 48.5q17 23 32 25h5q13 0 23 -11q12 -13 26 -41q12 -25 -6 -55q-6 -11 -57.5 -91t-76.5 -122q-83 -137 -201 -334t-200 -336t-86 -147q-6 -11 1 -11q2 1 5 4 q358 335 502 335q26 0 45 -11q35 -20 40 -65q1 -10 1 -19q-1 -36 -15 -76q-18 -50 -53 -102q77 -14 129 -49q39 -25 58 -61q14 -27 14 -42q0 -6 -2 -10q-4 -7 -9 -7q-13 0 -37 40l-5 8q-7 13 -5.5 18.5t0 11t-11.5 13.5q-58 45 -145 59q-55 -76 -150 -155q-63 -50 -146 -74 q-55 -16 -106 -16q-26 0 -51 4q-56 9 -66 47q-3 9 -2 18q0 29 25 58q63 80 179 116q107 33 218 33h19q57 75 81 136q12 30 12 51q0 22 -13 36q-10 7 -26 7q-39 0 -112 -44q-104 -62 -209 -150t-183 -169q-19 -20 -38.5 -50.5t-29.5 -51.5l-10 -21q-14 -29 -38 -1 q-18 21 -18 39v5zM60 46q10 -24 55 -28h10q89 0 227 117q47 40 105 109q-14 1 -28 1q-85 1 -187 -35q-120 -42 -170 -114q-15 -18 -15 -35q0 -8 3 -15z" />
<glyph unicode="c" horiz-adv-x="679" d="M-66 73q-7 22 -6 46q0 43 20 91q32 78 107 152q81 82 177 118q91 35 168 34h8q80 -3 104 -39q2 5 5.5 12.5t19 22t36.5 18.5q11 2 18 2q17 0 19 -10q2 -16 -18 -53q-22 -43 -76 -99q-51 -53 -81 -53h-3q-10 1 -12.5 2.5t0 4.5t8.5 9q5 4 8.5 7t9.5 10t10.5 12.5t11 15 t11.5 19t10 22t9 25.5q5 16 -23 31t-69 16h-2q-54 -1 -128 -43q-75 -44 -147 -118q-65 -67 -96 -132q-27 -57 -27 -97v-11q4 -44 39 -61q28 -14 71 -14q44 1 105 15q120 28 240 85.5t207 119.5q12 8 19 24.5t18 25.5q29 23 43 23q12 0 12 -15q0 -26 -96 -90 q-93 -60 -207 -115q-113 -54 -241 -88q-72 -19 -126 -19q-42 0 -72 11q-66 24 -84 83z" />
<glyph unicode="d" horiz-adv-x="876" d="M-62 132q10 71 58.5 145t118.5 133q62 53 124 82q61 28 109 32q15 1 29 2q31 0 59 -7q40 -10 64.5 -28.5t34.5 -41.5q50 83 178 278t205 330q20 34 25 55t1 55q-3 22 9 50t24.5 45.5t36.5 48.5q17 23 32 25h5q13 0 23 -11q12 -13 26 -41q5 -10 5 -21q0 -16 -11 -34 q-3 -6 -53 -86t-76 -127q-58 -103 -190.5 -311t-192.5 -310q-72 -124 -109 -203t-41 -116.5t14 -48.5q14 -8 38 -8q24 -1 56 7q66 14 140 50q123 59 192 123q11 10 16 27t17 26q28 23 41 23q10 0 10 -13q0 -26 -79 -90q-83 -67 -191 -119q-78 -37 -158 -53q-40 -8 -69 -9 q-29 0 -47 9q-45 23 -45 77q0 66 67 179q2 2 0 3t-4 -1q-28 -28 -57.5 -55.5t-67.5 -59.5t-74 -58t-75 -49q-40 -22 -72 -33q-28 -9 -52 -9h-9q-29 2 -48 20q-38 38 -38 93q-1 12 1 25zM8 35q12 -13 33 -12q13 1 29 5q42 14 89 42t98.5 69t89 75.5t61.5 59.5q30 32 64 77.5 t48 72.5q-12 24 -42 37q-26 11 -62 11h-12q-44 -2 -104.5 -32.5t-125.5 -87.5q-99 -88 -152 -184q-31 -56 -30 -92q-1 -26 16 -41z" />
<glyph unicode="e" horiz-adv-x="657" d="M-68 102q-4 17 -3 35q0 49 27 107q37 80 118 149q80 67 169 99q79 28 134 29q7 0 14 -1q59 -4 78 -31q12 -17 12 -37q-1 -29 -27 -63q-44 -57 -130 -100q-48 -25 -106 -39.5t-99.5 -14.5t-69.5 7q-40 -52 -48 -114q-1 -11 -1 -21q0 -45 29 -64q38 -22 100 -22 q76 -1 187 33q201 60 329 165q11 9 19 30t20 30q29 23 43 23q12 0 12 -14t-27 -42q-28 -29 -71 -60q-66 -46 -147.5 -87.5t-174 -73t-173.5 -36.5q-12 -1 -24 -1q-66 0 -120 24q-56 28 -70 90zM63 264q19 -6 49 -6q26 0 61 4q75 10 134 43q57 31 99 79q31 35 30 59 q0 9 -4 16q-8 13 -25 17q-8 2 -17 3q-12 1 -27 -3q-27 -6 -60.5 -21t-76 -43.5t-87.5 -67.5q-55 -48 -76 -80z" />
<glyph unicode="f" horiz-adv-x="598" d="M-410 -700q-1 9 -1 18q0 44 10 98q12 64 41 142.5t66.5 162.5t87 179t102.5 188t114 193q76 124 208 316t165 247q31 52 41 83t11 56.5t7 44.5q18 59 71.5 116t90.5 62q17 2 29 2q29 0 37 -11q2 -4 2 -10q0 -17 -23 -50q-212 -305 -583 -901q-120 -193 -211 -367.5 t-145 -318.5q-56 -147 -56 -236q0 -85 57 -105q10 -3 20 -3q35 0 80 32q58 41 116.5 115.5t114 174t96 199.5t60.5 197q12 60 12 108q0 29 -5 54q-7 40 -23 72t-24 55.5t-2 60.5q7 40 24 40q19 0 50 -51q15 -22 30 -54q10 -20 10 -43q0 -11 -2 -22q-7 -34 2 -44 q51 -69 129 -69h7q51 2 100.5 30.5t85.5 79.5q5 8 12.5 28.5t18.5 31.5q34 32 49 32q8 0 10 -9v-3q1 -3 1 -7q0 -15 -11 -30q-14 -19 -64 -69q-101 -101 -200 -109q-8 -1 -16 -1q-74 0 -142 52q3 -13 3 -31q0 -37 -14 -96q-21 -86 -62.5 -189.5t-101.5 -211.5t-124 -193 t-136 -132q-54 -35 -101 -35q-16 0 -31 4q-44 12 -67.5 44.5t-25.5 82.5z" />
<glyph unicode="g" horiz-adv-x="815" d="M-792 -838q7 103 80 213.5t190 198.5q169 127 336 192t487 138q41 78 93.5 189.5t66.5 139.5q6 13 -1 13q-3 0 -7 -4q-43 -43 -105 -91t-135.5 -92.5t-132.5 -60.5q-26 -7 -47 -7q-29 0 -51 13q-38 32 -38 80q0 17 4 36q19 73 80 150.5t136 130.5q107 76 218 104 q63 16 117 16q41 0 77 -9q84 -22 122 -84q12 -22 8 -37.5t-20 -21.5q-14 -6 -23.5 5t-19.5 36q-21 52 -75 70q-22 7 -48 7q-42 0 -97 -17q-90 -29 -194 -110q-116 -89 -181 -193q-40 -64 -40 -101q0 -23 15 -35q11 -9 30 -9q50 0 155 64q145 89 230 176q89 91 115 152 q0 1 0.5 2t2.5 4.5t3.5 6t5 4.5t6.5 1.5t7.5 -3.5t9.5 -9q18 -24 23 -58q2 -12 2 -23q0 -22 -7 -42q-6 -16 -12.5 -31t-18.5 -30t-22 -13q-3 0 -8.5 -6.5t-14.5 -21.5t-18.5 -32t-24.5 -46t-27.5 -53.5t-32.5 -64t-36 -69.5q257 80 424 209q12 8 21 40.5t20 41.5 q16 13 24 19t18.5 11t15.5 0q8 -7 8 -21q0 -16 -26 -50q-30 -38 -69 -67q-194 -139 -452 -215q-137 -260 -250 -443q-87 -138 -197.5 -254.5t-228.5 -192.5t-227 -87q-15 -1 -28 -1q-93 0 -167 64q-70 68 -70 160q0 9 1 18zM-737 -850q2 -67 45 -104q57 -47 129 -47 q19 0 39 3q95 16 200.5 88t202.5 173t172 215q148 227 234 397q-284 -67 -456.5 -135t-326.5 -184q-68 -51 -123.5 -123.5t-86.5 -144.5q-29 -68 -29 -130v-8z" />
<glyph unicode="h" horiz-adv-x="841" d="M-127 51q6 30 129 234q16 26 131 216t221.5 366t114.5 190q29 52 32 73q2 16 -1 37q-3 22 8.5 50t24 46t36.5 48q17 23 32 25h5q12 0 22 -11q12 -13 27 -41q12 -25 -6 -55q-6 -11 -57 -91.5t-76 -121.5q-80 -133 -202 -338.5t-203.5 -344.5t-83.5 -143q-3 -5 -1.5 -7 t5.5 1t21.5 19.5t35 31.5t53 44.5t78.5 62.5q225 178 327 178q15 0 27 -4q25 -7 36.5 -22.5t9 -37t-9.5 -43.5t-23.5 -49.5t-29 -47t-29.5 -43.5q-3 -5 -5 -7q-11 -16 -41.5 -56.5t-43.5 -60t-28 -48t-13 -46t18 -28.5q16 -8 40 -8q22 0 52 7q62 14 139 50q125 60 193 123 q11 10 15.5 27t16.5 26q29 24 42 24q10 0 10 -14q0 -26 -80 -90q-83 -67 -191 -119q-79 -38 -159 -54q-39 -8 -66 -8q-30 0 -49 9q-31 16 -36 50q-1 7 -1 15q0 29 15 66q19 47 42.5 87.5t61.5 96.5q40 60 40 93q0 18 -12 28q-7 7 -22 7q-25 1 -70 -19q-72 -30 -162 -102 q-88 -69 -179.5 -164.5t-125.5 -149.5q-10 -15 -20 -15q-11 0 -22 16q-13 19 -13 36v6z" />
<glyph unicode="i" horiz-adv-x="432" d="M-65 94q14 64 98 199q26 41 28 57q1 10 -2 21q-2 8 -2 16.5t1 15.5t5 15.5t8 14.5t11 15.5t12 16t14.5 17.5t14.5 18q15 18 24 23t22 -7t30 -49q7 -14 7 -30.5t-5 -24.5q-3 -5 -95 -142q-1 -1 -12 -17.5t-17 -26t-18.5 -29.5t-20 -34t-17.5 -33.5t-14 -34t-7.5 -29 t-0.5 -25t11 -16.5q13 -10 37 -10q60 0 189 61q123 59 192 123q11 10 16 27t17 26q28 23 41 23q10 0 10 -13q0 -26 -80 -90q-85 -68 -190 -119q-80 -39 -156 -55q-37 -8 -65 -9q-29 0 -48 9q-41 24 -41 70q0 12 3 26zM276 713q6 9 8.5 13.5t4 12t2.5 9.5q3 12 17 14h2 q12 0 22 -12q33 -50 33 -85q0 -14 -5 -26q-24 -43 -49 -53q-6 -2 -13 -3q-18 0 -36 21q-20 28 -20 44t34 65z" />
<glyph unicode="j" horiz-adv-x="382" d="M-1238 -888q-3 23 -3 47q0 53 19 109q29 79 91 160t148 146q167 126 339.5 190.5t504.5 141.5q24 44 63.5 117t69 127.5t53.5 97.5q22 43 22 86q0 11 -1 22q-3 22 8.5 50t24 46t36.5 48q17 22 32 24.5t27.5 -10.5t26.5 -41q13 -26 -6 -57q-55 -103 -152.5 -279 t-113.5 -205q252 77 420 207q12 8 21 40.5t20 41.5q17 14 24 19t18 10.5t16 0.5q7 -7 7 -21q0 -16 -26 -50q-29 -39 -68 -67q-190 -136 -449 -213q-131 -252 -253 -445q-87 -138 -197.5 -254.5t-228.5 -192.5t-227 -87q-15 -1 -28 -1q-93 0 -167 64q-58 52 -71 128z M-1184 -850q4 -67 47 -104q57 -47 129 -47q19 0 39 3q96 16 201.5 88t202.5 173t172 215q107 161 237 397q-293 -68 -471 -136t-331 -183q-67 -51 -121 -123.5t-82 -144.5q-24 -62 -24 -120q0 -9 1 -18zM266 713q6 9 8.5 13.5t4 12t2.5 9.5q3 12 17 14h2q12 0 22 -12 q33 -50 33 -85q0 -14 -5 -26q-24 -44 -49 -53q-6 -3 -13 -3q-18 0 -36 21q-20 28 -20 44t34 65z" />
<glyph unicode="k" horiz-adv-x="845" d="M-115 51q2 9 23 48t55 98.5t49 87.5q22 41 240.5 399t224.5 369q29 52 32 73q2 16 -1 37q-3 22 9 50t24.5 45.5t36.5 48.5q17 23 32 25h5q13 0 23 -11q12 -13 26 -41q12 -24 -7 -55q-6 -11 -57 -91.5t-76 -121.5q-83 -137 -199.5 -333.5t-198.5 -335.5t-89 -153 q-3 -6 0 -7.5t8 1.5q4 3 33 29t73 62.5t89 70.5q63 46 94.5 68t85.5 55t94 43q21 6 40 6q16 0 30 -4q52 -17 51 -58v-10q-7 -49 -44.5 -100t-80.5 -80q-93 -63 -195 -71q-8 -6 -5 -33.5t37 -66t81 -50.5q40 -10 81 -10q71 1 145 31q116 48 194 145q8 10 10 29.5t10 31.5 q23 24 33 29t17 -8q1 -2 1 -5q0 -27 -73 -110q-82 -94 -204 -148q-83 -37 -168 -38q-39 0 -77 8q-49 10 -90.5 43.5t-63 70.5t-31 70t-1.5 45q7 11 17 15t16 3.5t24.5 -5t26.5 -6.5q6 -1 13 -1q30 -1 76 19q58 24 89 59q22 24 32 51t7.5 46t-12.5 26q-5 7 -28.5 3t-52.5 -14 t-74.5 -36t-94.5 -63q-84 -65 -175.5 -156t-133.5 -162q-9 -16 -19 -16t-22 16q-15 21 -15 37v6z" />
<glyph unicode="l" horiz-adv-x="460" d="M-42 57q-2 12 -1 25q0 30 10 66q15 51 39.5 102.5t56.5 103.5q12 20 128 207t206.5 333t98.5 161q9 16 11.5 21t8.5 16.5t7 17t3 15.5t1.5 19t-1.5 21q-3 22 9 50t24.5 45.5t36.5 48.5q17 23 32 25h5q13 0 23 -11q12 -13 26 -41q5 -10 5 -21q0 -16 -11 -34 q-6 -11 -57 -91.5t-76 -121.5q-73 -120 -171.5 -279t-162 -263t-86.5 -144q-21 -36 -34.5 -61.5t-31 -60.5t-26.5 -60t-15 -50.5t-1.5 -42.5t18.5 -26q16 -8 40 -8q23 0 53 7q62 14 138 50q125 60 193 123q11 10 15.5 27t16.5 26q29 24 42 24q10 0 10 -13q0 -24 -80 -89 q-89 -72 -191 -121q-78 -38 -158 -54q-39 -8 -67 -8q-30 0 -49 9q-32 17 -38 57z" />
<glyph unicode="m" horiz-adv-x="1273" d="M-91 104q26 44 59.5 98.5t37.5 61.5q11 20 14.5 27.5t7.5 26.5t-1 38q-3 22 8.5 50t24 46t36.5 48q17 22 32 24q2 0 5 1q13 0 23 -11q12 -13 26 -41q12 -25 -6 -55q-10 -18 -70 -116t-69 -112q-4 -7 0 -8l4 2q11 9 72.5 60.5t115.5 95.5q141 111 200 144q64 36 108 36 q14 0 26 -4q35 -11 41 -46q1 -7 2 -15q0 -31 -17 -72q-21 -52 -40 -88t-45 -80q-7 -11 -10 -16q-6 -10 -1 -13q2 -1 5 2q13 13 33.5 31.5t63 56t79.5 70.5q87 78 181 132q72 42 122 42q16 0 29 -4q46 -14 47 -57q0 -35 -31 -89q-15 -27 -68 -104q-12 -18 -35 -51 q-37 -53 -51.5 -75.5t-28.5 -50t-11 -40.5t18 -22q16 -8 40 -8q22 0 52 7q62 14 139 50q125 60 193 123q11 10 16 27t17 26q28 23 41 23q9 0 10 -11v-2q0 -26 -80 -90q-83 -67 -191 -119q-79 -38 -159 -54q-39 -8 -66 -8q-30 0 -49 9q-20 11 -30 26.5t-10 34t7 42t21 51.5 t33.5 61t43.5 72q11 18 17 28q39 63 39 96q0 16 -10 25q-10 8 -26 8q-24 0 -63 -18q-64 -30 -143 -100q-226 -201 -297 -318q-11 -18 -22 -18q-10 0 -21 14q-18 24 -15 44q0 2 1 3q7 18 50.5 102t64.5 130q38 84 38 124q0 20 -10 29q-7 6 -19 6q-22 0 -62 -20 q-62 -30 -154 -103q-225 -183 -301 -311q-10 -14 -21 -14q-2 0 -6 2q-14 6 -24 24q-9 16 -9 27q0 9 28 57z" />
<glyph unicode="n" horiz-adv-x="886" d="M-106 51q3 13 54.5 105.5t71.5 122.5q32 51 32 81q0 6 -1 11q-2 8 -2 16.5t1 15.5t5 15.5t8 14.5t11 15.5t12 16t14.5 17.5t14.5 18q15 18 23 22q2 1 6 2q7 0 16 -8q13 -12 30 -49q12 -25 -6 -55q-6 -10 -71 -109t-72 -113q-3 -6 -1 -8t7 2q65 65 217 176q115 84 216 132 q64 30 104 30q23 0 39 -10q31 -20 39.5 -47.5t-6 -61.5t-28.5 -55t-39 -55l-9 -12q-8 -11 -23.5 -31t-26 -33.5t-25 -33t-23 -33.5t-18.5 -31t-14 -30t-6 -25.5t2 -21.5t13 -15q16 -8 40 -8q23 0 53 7q62 14 138 50q125 60 193 123q11 10 15.5 27t16.5 26q29 24 42 24 q10 0 10 -14q0 -26 -80 -90q-83 -67 -191 -119q-78 -38 -158 -54q-39 -8 -67 -8q-30 0 -49 9q-30 16 -34 52q0 5 -1 11q0 31 19 75q22 50 46.5 92t63.5 100q40 61 40 94q0 17 -11 27q-8 6 -22 6q-25 0 -69 -19q-70 -30 -169 -98q-101 -69 -193 -159t-143 -173 q-10 -15 -20 -15q-11 0 -22 16q-13 19 -13 36v6z" />
<glyph unicode="o" horiz-adv-x="649" d="M-56 94l-2 20q0 49 26 111q30 76 98 144q80 77 153 108q24 40 60 68q37 29 73 39q28 8 56 7h16q36 -3 60 -26.5t34 -62.5q4 -16 5 -36q0 -29 -9 -65q-33 -134 -172 -260q54 -24 112 -24q23 -1 47 3q84 14 150 70q9 9 15 25t18 25q33 27 47 27q8 0 11 -8l1 -5 q3 -26 -94 -94q-91 -66 -190 -66q-67 0 -137 31q-28 -26 -59.5 -49.5t-71.5 -47.5q-41 -24 -77 -36q-30 -10 -60 -10h-12q-36 2 -60 26q-32 30 -38 86zM20 33q26 -19 58 -19h4q34 2 76.5 24t77 48t61.5 53q-55 37 -85 99q-26 54 -27 110q0 9 1 19q-42 -27 -77.5 -67.5 t-56.5 -81t-33 -78.5q-12 -37 -12 -65q0 -31 13 -42zM205 381l-2 -24q-1 -52 25 -103q30 -62 87 -98q109 111 142 252q6 26 6 48q0 40 -20 68q-25 35 -68 35q-9 1 -19 -1q-56 -10 -106 -71q40 12 77 12q46 0 87 -18q12 -6 8 -14t-19 -8q-91 0 -198 -78z" />
<glyph unicode="p" horiz-adv-x="704" d="M-760 -1071v6q0 18 15 41q64 105 165.5 284.5t238.5 424t200 356.5q17 31 65.5 116.5t67.5 121.5q26 54 26 77q0 9 -2 15q-2 8 -2 16.5t1 15.5t5 15.5t8 14.5t11 15.5t12 16t14.5 17.5t14.5 18q15 18 24 23q3 1 6 1q7 0 16 -8q13 -12 30 -49q12 -25 -6 -55 q-17 -36 -51.5 -93.5t-68 -111t-40.5 -66.5q-1 -3 1.5 -4.5t4.5 0.5q59 59 133.5 124t167 135.5t172.5 104.5q46 20 79 20q23 0 40 -11q36 -23 44 -66q2 -12 2 -26q0 -31 -12 -65q-18 -49 -53 -101q17 -3 33.5 -8t24.5 -8t27.5 -12.5t25.5 -12.5q42 -21 70 -49 q26 -25 26 -41q0 -13 -10 -13q-13 0 -41 23q-11 8 -19.5 26t-21.5 25q-68 39 -129 51q-62 -86 -147 -153q-63 -51 -148 -76q-58 -16 -110 -16q-26 0 -50 4q-55 9 -66 47q-2 9 -2 18q0 29 25 58q64 80 179 116q107 33 218 33h19q56 73 78 134q10 27 10 48q0 23 -14 37 q-9 6 -23 6q-27 0 -76 -25q-72 -37 -156 -103t-155 -128t-112 -104q-7 -8 -23 -24.5t-23.5 -24.5t-18.5 -20t-18.5 -21.5t-13.5 -18.5q-115 -185 -292 -505.5t-279 -532.5q-8 -16 -21 -54q-23 -63 -37 -69q-2 -1 -5 -1q-10 0 -21 14q-30 37 -33 57zM60 46q9 -24 55 -28h10 q89 0 227 117q47 40 105 109q-14 1 -28 1q-85 0 -187 -35q-119 -42 -170 -114q-15 -18 -15 -35q0 -8 3 -15z" />
<glyph unicode="q" horiz-adv-x="718" d="M-157 -972q0 4 1 7q83 303 230 598q85 171 161 302t111.5 181.5t89.5 121.5q3 4 2.5 6.5t-3 2.5t-5.5 -3q-33 -31 -77.5 -67t-102.5 -77t-110.5 -67.5t-101.5 -38.5q-17 -4 -31 -4q-26 0 -42 14q-38 32 -38 80q0 17 5 37q19 73 79.5 150t135.5 130q108 77 220 105 q60 15 112 15q45 0 84 -11q84 -25 119 -96q5 -7 5 -17q0 -4 -1 -7q-2 -15 -16 -21t-23.5 5t-19.5 36q-21 52 -75 70q-22 7 -48 7q-42 0 -97 -17q-90 -29 -194 -110q-116 -89 -181 -193q-41 -65 -41 -101q0 -23 15 -35q11 -9 30 -9q49 0 150 63q138 87 228 177q77 77 129 160 q18 32 35 6q9 -15 14 -24t10.5 -25.5t4.5 -35t-7 -40.5q-21 -69 -63 -80q-108 -31 -408 -633q-126 -254 -205 -514q12 16 55.5 80.5t95 134t103.5 125.5q103 115 180 160q42 22 51.5 18.5t12.5 -28.5q1 -6 1 -12q0 -32 -29 -62q-34 -35 -81 -55q-11 -4 -40.5 -4.5 t-57.5 -26.5q-90 -81 -177 -210.5t-124 -215.5q-10 -22 -23 -22q-11 0 -24 14q-24 27 -24 56z" />
<glyph unicode="r" horiz-adv-x="567" d="M-64 147q48 83 72 119q10 15 13 20.5t8.5 18.5t3.5 21.5t-2 29.5q-3 22 8.5 50t24 46t36.5 48q17 22 32 24q2 0 5 1q13 0 23 -11q12 -13 26 -41q12 -25 -6 -55q-8 -15 -71 -115t-66 -104t0 -5.5t6 1.5q7 6 35.5 35t76.5 77t97 94q125 119 207 119q78 0 78 -91v-7 q-2 -44 -30 -90q-17 -25 -30 -25q-10 0 -18 15q-18 41 -18 65t14 41q10 15 8 29.5t-14 19.5q-6 2 -14 2q-24 -1 -63 -19q-51 -24 -104 -77q-9 -9 -60 -59t-73.5 -74t-64.5 -69t-74 -87t-61 -86q-10 -14 -20 -14q-3 0 -7 2q-13 6 -22 24q-7 15 -7 26q-1 12 51 101z" />
<glyph unicode="s" horiz-adv-x="653" d="M-72 127q5 46 39.5 93t85.5 63q11 3 20 3q26 0 33 -28q42 20 91 65.5t90 102.5q66 90 139 115q3 1 7 1q16 0 29 -24q16 -28 -1 -51q-55 -72 -102 -72q-13 0 -25 6q22 -61 26 -132q1 -11 1 -21q0 -59 -21 -111q-25 -44 -57.5 -75.5t-59.5 -43.5h8q33 0 91 14q64 16 135 44 q111 47 192 123q11 10 16 27t17 26q28 23 41 23q10 0 10 -13q0 -27 -80 -92q-27 -22 -40.5 -32.5t-56.5 -36.5t-93 -48q-97 -44 -219 -62q-59 -9 -112 -9q-56 0 -105 10q-39 8 -63 34q-26 24 -32 50q-5 20 -4 39v12zM-43 119q-1 -5 0 -10q0 -23 15 -45q19 -27 71 -35 q13 -2 26 -2q54 1 103 37q61 46 92 106q19 37 28 75.5t9 73.5t-2 78q-101 -119 -190 -168q3 -24 -29 -67t-70 -53q-21 -5 -39 18q-11 15 -14 -8z" />
<glyph unicode="t" horiz-adv-x="329" d="M-84 45v6q3 16 70 144.5t127 230.5q56 94 138 237.5t114 198.5q-59 15 -91 15q-56 0 -88 -37q-29 -30 -76 -30q-10 0 -22 1q-32 4 -37.5 14.5t4.5 38.5q9 28 51 42q40 13 80 12h6q43 -1 76 -3q36 -3 117 -24q72 123 86 155q11 24 11 51q0 7 -1 15q-3 22 9.5 50t24 44.5 t36.5 48.5q17 23 32 25h5q12 0 22 -10q12 -12 27 -41q12 -25 -6 -55q-30 -53 -95 -153t-92 -144q143 -38 209 -46q35 -5 74 -5q22 0 46 2q66 4 97 22q18 10 20.5 25t8.5 20q26 23 47 23q8 0 10 -16q1 -4 1 -8q0 -10 -5 -15q-37 -37 -69 -50q-41 -19 -113 -25q-29 -2 -57 -2 q-40 0 -76 5q-37 5 -70 11t-81 18l-56 14q-14 -22 -42.5 -68t-37.5 -61.5t-31 -51t-34 -57t-33.5 -58.5t-43.5 -77t-50 -92q-56 -101 -113 -223.5t-63 -153.5q-4 -18 -15 -18q-9 0 -22 11q-25 22 -29 44z" />
<glyph unicode="u" horiz-adv-x="843" d="M-104 38l-2 14q0 27 16 61q20 43 37.5 71.5t34.5 51.5q2 2 12.5 16t14 19t11.5 18.5t11 22t5 21t1 23.5q-3 22 8.5 50t24 46t36.5 48q17 22 32 24q2 0 5 1q12 0 23 -11q13 -13 27 -41q12 -24 -7 -55q-12 -22 -67 -113t-74 -119q-33 -50 -42 -87t7 -46q14 -5 38.5 -1.5 t82.5 34.5t135 86q98 70 172.5 147t108.5 138q2 4 7 13t7.5 14t7.5 13t8 10.5t8.5 8t9 3.5t9.5 -3q9 -6 19 -22.5t15.5 -41.5t-7.5 -51q-11 -26 -18 -41t-23.5 -34.5t-32.5 -20.5q-17 0 -45 -47q-87 -132 -91 -183q-2 -26 13 -36q17 -10 44 -11q18 0 40 5q56 11 129 45 q125 60 193 123q11 10 15.5 27t16.5 26q29 24 42 24q10 0 10 -14q0 -26 -80 -90q-83 -67 -191 -119q-79 -38 -159 -54q-39 -8 -66 -8q-30 0 -49 9q-24 15 -24 52q-1 21 7 48q20 77 91 183q3 4 -0.5 6.5t-6.5 -0.5q-60 -60 -172 -141q-221 -157 -314 -157q-13 0 -23 3 q-35 10 -41 42z" />
<glyph unicode="v" horiz-adv-x="462" d="M-53 39q-1 2 -1 5q0 12 11 34q27 55 45 141q15 68 15 104q0 10 -1 17q-2 17 -15.5 30.5t-18.5 37.5q-12 44 -12 70q0 34 22 34q64 0 80 -39q19 -52 19 -122q-1 -7 -1 -17q-2 -82 -16 -153t-31 -111q-3 -9 0.5 -12t15.5 3q96 54 189.5 157.5t111.5 168.5q2 17 1.5 23.5 t-3.5 20.5t-4 24q-1 8 -1 17q0 36 11 72q10 31 24 31q5 0 11 -4q19 -20 27 -32q8 -13 8 -40q0 -26 -12 -65q-61 -222 -416 -434q-12 -7 -22 -7q-25 0 -37 46z" />
<glyph unicode="w" horiz-adv-x="880" d="M-88 33q-1 5 -1 10q0 17 15 33q44 44 78 122q27 63 27 121q0 14 -2 27q-2 14 -9 20t-15.5 14t-12.5 28q-12 44 -12 70q0 34 22 34q64 0 80 -39q18 -45 18 -151q-3 -141 -88 -261q-6 -10 -3.5 -14.5t14.5 0.5q69 33 157 119t150 184q30 46 50.5 60.5t68.5 25.5 q41 10 43 -3.5t-23 -45.5q-55 -77 -87 -161q-26 -70 -27 -124q0 -10 1 -20q6 -60 56 -68q11 -2 22 -2q58 0 120 46q74 56 124 142.5t57 166.5q1 14 -5 34.5t-5 49.5q5 78 13 92q5 11 14 11q6 0 14 -5q23 -13 33 -29t10 -53t-16 -98q-17 -67 -58.5 -138t-94.5 -127 q-52 -56 -118 -88q-52 -26 -101 -26q-12 0 -24 2q-40 5 -64.5 28t-33.5 51.5t-9 67t5 66t12 57.5q1 4 0 6t-3 1t-5 -5q-43 -56 -80 -96t-106.5 -90.5t-147.5 -77.5q-12 -4 -21.5 -3.5t-14 2t-8.5 9.5t-5 11t-4 14z" />
<glyph unicode="x" horiz-adv-x="573" d="M-514 46q4 22 27 24q9 0 14.5 -4.5t7 -8t4 -13.5t2.5 -11q16 -11 46 -11q21 0 47 4q66 12 141 48q115 54 223 141q-5 39 -12 71t-11.5 46t-13.5 35.5t-10 25.5q-8 22 -32 36.5t-28 31.5q-7 32 18 49.5t56 11.5t48 -27t30 -71q18 -71 31 -164q145 102 172 162q3 6 5.5 31 t16.5 43q29 33 60 44q14 5 25 5q15 0 26 -8q16 -8 14 -25t-14 -35.5t-37 -46.5q-56 -64 -111 -109t-151 -110q8 -73 22.5 -108.5t53.5 -57.5q16 -12 51 -12q16 0 37 3q64 8 133 40q123 59 192 123q11 10 16 27t17 26q28 23 41 23q10 0 10 -13q0 -31 -80 -90l-20 -16 q-20 -15 -31 -22.5t-34 -22.5t-49 -29.5t-56 -28.5q-75 -35 -157 -51q-43 -8 -73 -9q-27 0 -44 7q-44 18 -66 59t-35 115l-24 -16t-38.5 -25t-44.5 -27t-58 -31t-62 -28q-85 -35 -158 -49q-30 -6 -55 -5q-34 0 -57 11q-25 17 -25 36q-1 3 0 6z" />
<glyph unicode="y" horiz-adv-x="794" d="M-826 -888q-4 23 -4 45q0 55 20 111q29 80 91 160.5t148 145.5q116 87 239.5 146t251 96.5t352.5 89.5q131 244 199 385q2 5 0 6.5t-6 -2.5q-47 -47 -176 -141q-128 -91 -180 -120q-91 -52 -142 -52q-13 0 -24 4q-42 15 -42 58q0 62 87 183q1 2 2 3.5t2 2.5t12 16 t14.5 20t12 19t12 23t5.5 21.5t1 23.5q-3 22 9 50t24.5 45.5t36.5 48.5q17 22 32 24q2 1 5 1q12 0 22 -11q13 -13 27 -41q12 -25 -6 -55q-11 -20 -68 -112.5t-76 -121.5q-53 -80 -53 -114q0 -13 8 -19q7 -5 18.5 -5.5t33 4.5t49 17t68 36.5t87.5 58.5q197 143 273 266 q6 10 12.5 22t11 21t10 19.5t9.5 15.5t10 10t10.5 4t11.5 -4q17 -12 32 -50q7 -18 7 -36q0 -19 -8 -37q-2 -4 -7 -16.5l-7 -17.5t-8 -15t-11 -14.5t-13 -9.5t-17 -7q-6 -1 -12 -4t-11.5 -9t-9.5 -10.5t-9.5 -14t-8.5 -15t-9.5 -17.5t-9.5 -18l-25.5 -51t-53.5 -107.5 t-68 -134.5q250 78 417 207q12 8 21 40.5t20 41.5q16 13 24 19t18.5 11t16.5 0q7 -7 7 -21q0 -16 -26 -50q-29 -39 -68 -67q-190 -136 -447 -213q-114 -216 -256 -445q-87 -138 -197.5 -254.5t-228.5 -192.5t-228 -87q-14 -1 -27 -1q-93 0 -167 64q-58 52 -70 128z M-772 -850q4 -67 47 -104q57 -47 129 -47q19 0 38 3q96 16 201.5 88t202.5 173t172 215q125 196 236 397q-277 -63 -461.5 -132.5t-339.5 -186.5q-67 -51 -121 -123.5t-82 -144.5q-23 -62 -23 -120q0 -9 1 -18z" />
<glyph unicode="z" horiz-adv-x="495" d="M-190 37q-1 4 -1 8q-1 16 9 39q12 29 38.5 65.5t78 77t118.5 72.5q42 20 189.5 76t187.5 88q-62 -17 -124 -17h-10q-52 0 -72 6t-40 -3q-32 -28 -40 -30q-2 -1 -10 -1q-16 0 -55 3q-6 1 -11 1q-57 5 -69.5 14t5.5 37q18 25 41 35t33 8q169 -46 262 -46q31 0 53 5 q25 5 45 14.5t27.5 16.5t16.5 11q4 2 7 2q4 0 5 -3q23 -16 23 -28q0 -13 -32 -35q-79 -52 -236.5 -121.5t-205.5 -98.5q-95 -57 -121 -123q-12 -31 1 -36q4 -1 11 4q41 31 81 31q16 0 32 -5q21 -7 57 -23.5t67 -30t61.5 -24t51 -7.5t25.5 22q11 38 45 27q23 -7 9 -32 q-16 -27 -56 -38q-29 -8 -62 -8q-4 0 -8 -1q-28 -1 -51 3q-26 4 -60 14t-51 16t-44 17q-29 12 -57 12q-56 0 -107 -47q-15 -15 -27 -15q-21 0 -30 48z" />
<glyph unicode="{" horiz-adv-x="557" d="M-43 649q4 7 27 15q50 3 86 38t49 84q11 42 34 210.5t44 252.5q7 25 20 46t30 36.5t36 28t40.5 20.5t40.5 14t38.5 9.5t32 5.5t23.5 3l11 1q31 3 37 -2q4 -5 2 -11t-21 -11q-64 -18 -116 -63.5t-74 -94.5q-11 -26 -50 -190.5t-69 -252.5q-21 -66 -53 -97.5t-76 -45.5 q86 -27 127 -151q28 -84 70.5 -237.5t54.5 -182.5q22 -51 73 -100.5t113 -69.5q19 -5 21 -11.5t-2 -11.5q-6 -5 -37 -2l-11 1q-11 1 -23.5 3t-31.5 5.5t-38 9.5t-40 14t-40.5 20.5t-36.5 28t-29.5 36.5t-19.5 46q-21 83 -45 251t-35 210q-13 50 -49 85.5t-86 39.5 q-13 2 -19 5.5t-7 6.5t-1 8z" />
<glyph unicode="|" horiz-adv-x="417" d="M152 1255q0 18 23.5 26t47 0t23.5 -26v-1568q0 -21 -23 -27.5t-46 3t-23 28.5l-1 694q-1 694 -1 870z" />
<glyph unicode="}" horiz-adv-x="565" d="M-37 -109.5q2 6.5 21 11.5q64 18 116 63t74 94q11 26 50 190.5t69 252.5q21 66 53 97.5t76 45.5q-86 27 -127 152q-28 84 -70.5 237.5t-54.5 182.5q-22 50 -73 99.5t-113 69.5q-19 5 -21 11.5t2 11.5q5 5 37 2l11 -1q11 -1 23.5 -3t31.5 -5.5t38 -9.5t40 -14t40.5 -20.5 t36.5 -28t29.5 -36.5t19.5 -46q21 -83 45 -251t35 -210q12 -49 48 -83.5t87 -40.5q13 -2 19 -6t7 -7t1 -8q-4 -9 -27 -14q-50 -9 -86.5 -42.5t-48.5 -80.5q-11 -42 -35 -210.5t-45 -252.5q-7 -25 -19.5 -46t-29.5 -36.5t-36.5 -28t-40.5 -20.5t-40 -14t-38 -9.5t-31.5 -5.5 t-23.5 -3l-11 -1q-31 -3 -37 2q-4 5 -2 11.5z" />
<glyph unicode="~" horiz-adv-x="1105" d="M39.5 377.5q-2.5 4.5 0 13t9.5 17.5q25 38 93.5 90.5t144.5 60.5q72 7 164 -15.5t190.5 -57.5t144.5 -44q41 -8 85.5 -10.5t93.5 8.5t73 37q11 11 22.5 12.5t13.5 -7.5t-9 -25q-5 -8 -14 -20.5t-32.5 -37t-49.5 -43.5t-65 -31t-79 -8q-62 6 -187 47.5t-231.5 73 t-148.5 21.5q-45 -10 -71.5 -18t-60.5 -23.5t-52 -34.5q-8 -8 -15.5 -11t-12 -1t-7 6.5z" />
<glyph unicode="&#xa1;" horiz-adv-x="419" d="M-223 -315q-15 31 8 65q7 12 34 55t64.5 102.5t61.5 98.5q46 76 131.5 215.5t140.5 229.5t117 194t100 173t51 104q10 24 19 34.5t19 6t16 -10.5t16 -20q4 -5 6.5 -9.5t4.5 -8.5t2.5 -8.5t1 -7t-0.5 -7.5t-1.5 -6.5t-2.5 -6.5t-3 -6.5t-3.5 -7t-3.5 -6.5 q-23 -43 -154 -255.5t-263.5 -425t-137.5 -220.5q-26 -44 -33.5 -68.5t-3.5 -64.5q4 -26 -10.5 -60t-28.5 -54t-43 -58q-21 -26 -39 -28.5t-32.5 12.5t-32.5 49zM573 1096q15 45 43 60t60 -5q16 -9 22.5 -16t5 -16t-5.5 -15.5t-15 -22t-19 -28.5q-2 -5 -2 -19t-6 -19.5 t-25 -2.5q-33 6 -50 32t-8 52z" />
<glyph unicode="&#xa2;" horiz-adv-x="706" d="M24.5 89q-12.5 65 17.5 137.5t91 135.5q74 77 182 121v125q0 20 32 20t32 -20v-106q47 12 106 12q39 -1 67 -12.5t38 -26.5q2 5 5.5 12.5t19 22t36.5 18.5q34 7 36.5 -8.5t-17.5 -52.5q-22 -44 -75.5 -99.5t-84.5 -52.5q-10 1 -12.5 2.5t-0.5 4t9 9.5l8 8l9.5 9.5 t11 12.5t10.5 15t11 18.5t10 22t9 25.5q5 16 -23 31t-69 16q-46 0 -104 -28v-426q80 30 166 92q12 8 19 24t18 25q51 40 55 10q3 -28 -96 -94q-69 -46 -162 -86v-135q0 -15 -15.5 -19.5t-31 2t-15.5 19.5v115q-143 -44 -221 2q-59 34 -71.5 99zM85.5 88.5 q4.5 -43.5 35.5 -63.5q66 -43 196 -11q0 56 -1 196.5t-1 211.5q-53 -36 -108 -94q-64 -67 -95 -131.5t-26.5 -108z" />
<glyph unicode="&#xa3;" horiz-adv-x="1527" d="M17 118.5q12 43.5 41 84t53 47.5q54 17 295 385q-89 0 -99 2q-19 3 -24.5 26.5t4 46t28.5 23.5q11 0 66 1t90 1q65 99 162 256q58 94 135 186.5t163.5 172.5t179 130.5t169.5 51.5q63 1 108 -16t68.5 -44.5t35.5 -64.5t12.5 -73.5t-5 -72.5t-12.5 -60.5t-14 -39.5 q-46 -106 -89 -179.5t-62.5 -97.5t-57.5 -65q-18 -20 -33.5 -19.5t-24.5 11.5t-20 33q-22 45 -12.5 78.5t53.5 89.5q14 17 35.5 28.5t39.5 19t43 35.5t48 76q11 23 19 45.5t13 49t3.5 49.5t-11.5 45t-29.5 37.5t-53.5 25t-81 9.5q-108 0 -275.5 -142.5t-297.5 -341.5 q-33 -50 -129 -213h221q18 0 25 -24.5t-2 -49t-27 -24.5q-202 0 -274 -2q-3 -5 -31 -52.5t-33 -56.5t-30 -51t-34 -57t-31.5 -51.5t-36.5 -58t-35 -53.5t-40.5 -61t-40.5 -59q31 -10 67.5 -28.5t68 -37t99 -58.5t126.5 -74q207 -120 299.5 -157.5t185.5 -27.5q79 9 127.5 28 t104.5 60q12 8 28 39.5t27 40.5q48 39 63 12q18 -29 -5 -55.5t-75 -56.5q-138 -81 -268 -99q-141 -21 -255.5 11t-287.5 149q-181 123 -241 150q-82 37 -115 0q-32 -41 -53.5 -40.5t-57.5 54.5q-15 30 -3 73.5z" />
<glyph unicode="&#xa5;" horiz-adv-x="2170" d="M31 70q15 76 58 142t91.5 107.5t109.5 75.5t100.5 49t74.5 25q112 30 133 2q6 -8 3 -16t-16 -13.5t-32 -5.5q-15 0 -31 6t-30 4q-40 -7 -87.5 -26t-103 -52.5t-102.5 -75.5t-84 -101.5t-49 -124.5q-14 -74 0.5 -144.5t50.5 -125t86.5 -98.5t108.5 -70.5t118 -35.5 q153 -23 316.5 30.5t316.5 162.5q-213 0 -225 2q-19 3 -25 26t3 45t28 23q66 4 342 4l112 113q-301 0 -315 2q-19 3 -25 26t3 45t28 23q70 4 393 4q207 261 500 775q11 19 16 28q3 6 0 7.5t-6 -3.5q-73 -87 -113.5 -134t-111.5 -118t-145 -131q-205 -170 -338.5 -230 t-237.5 -13q-244 108 -10 544q38 71 67 127.5t61 123.5t52 119.5t33.5 102.5t11.5 86t-18 56q-25 31 -93 41t-161 -6.5t-176 -59.5q-208 -107 -296.5 -168.5t-109.5 -122.5q-4 -12 -11 -33.5t-9.5 -28.5t-9.5 -22t-16 -26.5t-24 -29.5t-38 -42q-19 -20 -28 -29.5t-24 -22.5 t-23 -16t-19 -4t-17.5 7t-13 24t-11.5 41q-6 29 8.5 64t37.5 57q26 26 71.5 63.5t119 91.5t178.5 113.5t216 108.5t209 74t176.5 19.5t112.5 -46.5q50 -61 61 -91q23 -63 -22 -181q-47 -120 -211 -420q-51 -93 -77.5 -173.5t-29 -131t7.5 -88.5t24 -55t28 -23 q94 -39 216.5 17t317.5 212q106 84 227 218.5t199 244.5q42 59 95 133.5t74 104.5t52.5 72.5t58.5 74.5t64 74q21 24 55.5 46t49.5 7q41 -45 2 -125q-24 -48 -62 -88.5t-65 -44.5t-56.5 -28t-54.5 -54.5t-60.5 -89t-60 -103.5t-67.5 -125q-235 -445 -483 -770h276 q18 0 23.5 -24.5t-5 -49t-28.5 -24.5q-49 0 -166.5 -1t-179.5 -1l-97 -113h308q18 0 23 -24.5t-5.5 -49t-28.5 -24.5q-264 0 -399 -2q-153 -130 -356 -196.5t-416 -41.5q-95 12 -176 55t-136.5 110t-78.5 160.5t-2 197.5z" />
<glyph unicode="&#xa6;" horiz-adv-x="212" d="M55 317q0 18 24.5 25.5t49.5 -1t25 -26.5q0 -102 1 -266t1 -249.5t-2 -98.5q-3 -19 -26 -25.5t-45.5 2t-23.5 27.5q-4 59 -4 612zM55 1272q0 18 24.5 25.5t49.5 -1t25 -26.5q0 -102 1 -266.5t1 -250t-2 -98.5q-3 -19 -26 -25.5t-45.5 2t-23.5 27.5q-4 59 -4 613z" />
<glyph unicode="&#xa7;" horiz-adv-x="1073" d="M12 152q21 19 39 41t33 45l16 24q9 14 20.5 9.5t2.5 -21.5q-16 -26 -15.5 -77.5t21.5 -82.5q24 -33 76.5 -45.5t102.5 -7.5t95 18q120 35 194 116t38 169q-15 36 -62.5 67t-99.5 49t-113 42t-92 45q-41 26 -47 71.5t18 93t78.5 93t126.5 71.5l-18 13q-35 23 -45 60.5 t6 79t49.5 82t90.5 74.5t124 50q150 37 273 -12q70 -28 82 -64q6 -19 -13 -31q-74 -50 -112 -106q-9 -12 -16 4q-8 17 3 29q24 47 17 94q-2 15 -13.5 28t-35.5 25t-70.5 10.5t-108.5 -18.5q-104 -29 -162 -101q-52 -64 -24 -112q15 -22 45 -35q19 -8 59.5 -21t74 -23.5 t75.5 -29.5t73 -39.5t57 -51.5t36 -68q14 -42 7.5 -81.5t-21.5 -71t-43 -61t-56 -50t-61 -39.5q11 -23 16 -39q28 -115 -66 -222.5t-253 -138.5q-75 -18 -177 -7.5t-163 54.5q-33 22 -57.5 51t-4.5 48zM318 665q6 -39 40 -65q27 -21 90 -42.5t128.5 -47.5t103.5 -59 q67 44 99 104t14 127q-8 27 -28.5 48.5t-54.5 38t-63.5 28t-75.5 26.5t-71 25q-59 -10 -104 -40t-64.5 -67t-13.5 -76z" />
<glyph unicode="&#xa8;" horiz-adv-x="385" d="M19.5 1422.5q1.5 8.5 6 15t15.5 22t18 29.5q2 5 2 19t6 19.5t25 2.5q33 -6 50 -32t8 -52q-15 -45 -43 -60t-60 5q-16 9 -22.5 16t-5 15.5zM226.5 1422.5q1.5 8.5 6 15t15.5 22t18 29.5q2 5 2 19t6 19.5t25 2.5q33 -6 49.5 -32t7.5 -52q-15 -45 -42.5 -60t-59.5 5 q-16 9 -22.5 16t-5 15.5z" />
<glyph unicode="&#xa9;" horiz-adv-x="1236" d="M92 723q0 146 72 270t195.5 196.5t269.5 72.5t270 -72.5t196 -196.5t72 -270t-72 -269.5t-196 -195.5t-270 -72t-269.5 72t-195.5 195.5t-72 269.5zM150 723q0 -97 38 -186t102 -153t153 -102t186 -38t186 38t153 102t102 153t38 186t-38 186t-102 153t-153 102t-186 38 t-186 -38t-153 -102t-102 -153t-38 -186zM241.5 567.5q-1.5 55.5 26 126.5t84.5 142q50 64 115 114.5t125 78t121 44.5t104.5 14.5t73.5 -12.5q34 -16 46 -47t4 -66.5t-20.5 -63.5t-27.5 -52q-39 -59 -84 -78q-39 -15 -53 -12.5t-27 16.5q-8 9 8 28t43 33.5t47 10.5 q11 -2 20.5 3t12.5 11l4 6q20 24 36.5 59t15 75.5t-36.5 58.5q-37 18 -116 -4t-182 -92.5t-182 -172.5q-61 -77 -83.5 -154t-10.5 -128t47 -74q31 -23 83.5 -29.5t106 1.5t101.5 26q53 20 123.5 59.5t97.5 63.5q4 5 7.5 14t9.5 13q9 9 18 10.5t10 -6.5q3 -16 -45 -54 q-108 -79 -215 -122q-50 -22 -105 -33.5t-119 -6.5t-108 35q-35 24 -54.5 66.5t-21 98z" />
<glyph unicode="&#xaa;" horiz-adv-x="905" d="M-52 924.5q17 73.5 77 152t135 131.5q108 77 222.5 105.5t201 4.5t121.5 -95q7 -10 2 -26.5t-19 -22.5t-23.5 4.5t-19.5 35.5q-21 52 -75.5 70.5t-144.5 -10t-194 -109.5q-116 -89 -181 -193t-25 -136q32 -26 111.5 9t160 96.5t135.5 121.5q41 44 71.5 83.5t40.5 57.5 l11 17q0 1 0.5 2t2.5 4.5t3.5 6t5 4.5t6.5 1.5t7.5 -3.5t9.5 -9q18 -24 24.5 -57.5t-2.5 -63.5q-22 -74 -53 -76q-14 -1 -34 -29.5t-34.5 -63.5t-21 -67t7.5 -39q25 -16 89.5 0t142.5 52q128 61 192 121q11 10 16 27t17 26q48 39 51 12q1 -13 -14 -29t-55 -51q-7 -7 -11 -10 q-68 -59 -192 -119q-80 -38 -158 -55t-115 0q-31 18 -37.5 46t7.5 71t51 116q3 6 -0.5 9t-9.5 -3q-34 -35 -77 -72t-99.5 -78t-107.5 -66t-101.5 -34.5t-81.5 15.5q-53 42 -36 115.5z" />
<glyph unicode="&#xab;" horiz-adv-x="915" d="M40.5 471q5.5 64 43.5 109q124 150 367 358q17 16 39 -13q22 -31 12 -54q-2 -4 -6 -7q-177 -143 -295 -272q-66 -70 -68 -119q0 -10 0.5 -18.5t3.5 -17t5 -14.5t7.5 -14t7.5 -12t10 -12.5t10 -10.5l11 -11l11 -11q138 -138 307 -282q12 -14 7.5 -35t-23 -36t-33.5 -3 q-12 8 -70 59.5t-151 142t-168 171.5q-33 38 -27.5 102zM394.5 471q5.5 64 43.5 109q124 150 367 358q17 16 39 -13q22 -31 12 -54q-2 -4 -6 -7q-177 -143 -295 -272q-66 -70 -68 -119q0 -10 0.5 -18.5t3.5 -17t5 -14.5t7.5 -14t7.5 -12t10 -12.5t10 -10.5l11 -11l11 -11 q138 -138 307 -282q12 -14 7.5 -35t-23 -36t-33.5 -3q-12 8 -70 59.5t-151 142t-168 171.5q-33 38 -27.5 102z" />
<glyph unicode="&#xac;" horiz-adv-x="933" d="M19 869.5q-8 23.5 0 47t26 23.5h786q33 0 45.5 -13.5t12.5 -29.5v-352q0 -21 -23 -27.5t-46 3t-23 28.5q0 6 -1 88t-1 211q-44 0 -323.5 -1t-426.5 -1q-18 0 -26 23.5z" />
<glyph unicode="&#xad;" horiz-adv-x="600" d="M36.5 405q-5.5 21 4.5 41t29 21q66 2 456 2q18 0 25 -22t-2 -44t-27 -22q-108 0 -229.5 -1t-170 -1t-61.5 2q-19 3 -24.5 24z" />
<glyph unicode="&#xae;" horiz-adv-x="1228" d="M92 723q0 146 72 270t195.5 196.5t269.5 72.5t270 -72.5t196 -196.5t72 -270q0 -144 -71 -267.5t-195.5 -196.5t-271.5 -73q-146 0 -269.5 72t-195.5 195.5t-72 269.5zM150 723q0 -147 81 -268q25 58 75 142t106 157q58 79 128 153t122 117q21 17 28 6q18 -21 -4 -53 q-30 -47 -53 -47q-28 0 -84 -52t-111 -130q-104 -143 -164 -349q67 -73 159.5 -114t195.5 -41q91 0 170 30q-56 44 -109 140q-25 46 -51.5 114t-48 108.5t-51.5 63.5q-6 4 -17.5 9t-18 8.5t-11 8t-0.5 11t16 15.5t27 11.5t23.5 1.5t24.5 -5t17 -4q51 -9 111 6.5t108 45 t82.5 69t40.5 75.5q3 21 -5.5 39t-33.5 35.5t-78.5 26t-130.5 4.5q-140 -7 -269 -46t-159 -65q-6 -5 -23.5 -22.5t-32 -27.5t-34.5 -17q-26 -71 -26 -156zM221 975q205 87 469 98q164 7 241.5 -37.5t67.5 -105.5q-11 -58 -83.5 -108t-169.5 -72t-177 -7q23 -16 47.5 -52.5 t41 -69.5t43.5 -91.5t42 -87.5q49 -101 97 -149q122 59 195 175t73 255q0 97 -38 186t-102 153t-153 102t-186 38q-126 0 -234 -61.5t-174 -165.5z" />
<glyph unicode="&#xb0;" horiz-adv-x="589" d="M71 1034q0 59 33 121q51 87 149.5 125t188.5 4q87 -34 113.5 -122.5t-23.5 -176.5q-51 -91 -149 -129.5t-186 -3.5q-59 23 -92.5 73t-33.5 109zM176 1049q0 -75 39 -127t98 -52t99.5 62t40.5 143q0 73 -44.5 126t-99.5 48q-56 -4 -94.5 -63t-38.5 -137z" />
<glyph unicode="&#xb1;" horiz-adv-x="942" d="M28.5 40q-5.5 23 4 44.5t28.5 21.5q26 2 157.5 2t345 -1t313.5 -1q18 0 25 -24.5t-1.5 -49t-26.5 -24.5q-778 0 -821 6q-19 3 -24.5 26zM108.5 569q-5.5 24 4.5 47.5t30 24.5q39 3 295 0q-3 282 2 301q2 19 26 24.5t48 -4.5t25 -30q1 -12 -2 -293h313q18 -1 23.5 -25 t-5 -48t-28.5 -25h-303q-1 -36 -0.5 -173.5t0.5 -144.5q-1 -18 -25.5 -23.5t-48.5 5t-25 28.5v308q-289 0 -305 2q-19 2 -24.5 26z" />
<glyph unicode="&#xb2;" horiz-adv-x="761" d="M33 848v18t2.5 14.5t3.5 10t5.5 7.5t5 4.5t6.5 4.5l7 4q45 26 219.5 93.5t278.5 125.5q69 38 106 89t39 97t-11 83.5t-38 58.5q-38 35 -110 36.5t-152 -36.5q23 -16 0 -59q-21 -38 -53.5 -56t-46.5 -2q-6 10 -7 23.5t4.5 32t26.5 41.5t56 45q73 47 173 52.5t167 -38.5 q37 -29 55 -80.5t12.5 -109t-51.5 -116t-129 -95.5q-103 -44 -283 -106.5t-227 -90.5q-3 -1 -2 -3.5t4 -2.5q28 10 56 11t59 -8t61 -22t72 -36q118 -65 166 -81q91 -29 166 -1q-2 19 18 35q38 31 49 14q5 -6 0 -14q-16 -35 -63 -58q-57 -28 -124 -28.5t-128.5 21 t-122.5 60.5q-65 40 -110 56.5t-73.5 14t-56.5 -20.5q-17 -5 -22.5 -2t-7.5 14z" />
<glyph unicode="&#xb3;" horiz-adv-x="720" d="M14 672q0 15 12 14q17 0 37 -39q5 -12 6 -22.5t-1 -14.5l-2 -4q42 -48 101.5 -64.5t116.5 -4t108.5 41.5t86.5 68q38 44 57.5 87.5t18.5 75.5t-12 60q-28 58 -103 58q-69 0 -112 -19q-13 -7 -14.5 4t3.5 29q5 15 10 20.5t19 8.5q58 9 103 22q103 31 153 70q28 22 39 53.5 t6.5 60t-20.5 50.5q-21 30 -85.5 46.5t-139 7t-115.5 -47.5q0 -1 3.5 -5.5t5 -7.5t3 -9t1 -12.5t-3.5 -16.5t-9 -21q-23 -41 -58 -61t-47 -2q-10 16 -11 36.5t19 55t66 67.5q57 40 153 55t183 -3.5t115 -67.5q32 -60 9 -116t-87 -89q-89 -53 -209 -71q-4 0 -3 -5q1 -3 5 -2 q67 9 112 -3t76 -52q26 -33 33 -81.5t-12.5 -107t-67.5 -106.5q-38 -39 -104.5 -67t-140 -38t-148 10.5t-121.5 72.5q-32 37 -35 86z" />
<glyph unicode="&#xb4;" horiz-adv-x="266" d="M30.5 1368.5q-0.5 8.5 4.5 13.5q34 24 64.5 67.5t43.5 90.5q4 15 17 22t22 -1q30 -22 47 -62q7 -14 -12 -43q-23 -31 -74.5 -66t-74.5 -40q-15 -4 -26 3t-11.5 15.5z" />
<glyph unicode="&#xb7;" horiz-adv-x="178" d="M19.5 612q1.5 9 5.5 15.5t15 22t19 28.5q2 5 2 19t6 19.5t25 2.5q33 -6 50 -32t8 -52q-15 -45 -43 -60t-60 5q-16 9 -22.5 16t-5 16z" />
<glyph unicode="&#xb8;" horiz-adv-x="464" d="M-26.5 -267.5q10.5 23.5 32.5 27.5q14 3 37 -22.5t59 -32.5q37 -5 77 -6.5t83.5 12.5t69.5 41q45 45 38.5 87t-65.5 32q-16 -3 -49.5 -10.5t-53 -11t-41 -4t-30 9t-4.5 28.5q6 26 5.5 54.5t2 39.5t17.5 15l96 22l10 1q7 -2 -4 -23q-4 -8 -11.5 -18t-12 -16.5t-7 -14 t1.5 -13.5t15 -12q28 -9 51.5 -7.5t59 7.5t44.5 6q29 0 42.5 -27t-5.5 -73q-57 -120 -192 -162q-91 -22 -160 -9.5t-103 44.5q-14 12 -3.5 35.5z" />
<glyph unicode="&#xb9;" horiz-adv-x="335" d="M29 582q59 153 198 376q45 71 92 139t58 87q7 7 0 8q-6 1 -17 -6q-31 -14 -55 0q-8 5 -14 11t-3.5 13.5t17.5 12.5q23 3 68.5 31t66.5 51q32 32 113 32q15 0 8 -14q-20 -30 -121 -162t-151 -215q-58 -93 -91.5 -149.5t-70 -130.5t-53.5 -134q-9 -26 -35 7q-18 18 -10 43z " />
<glyph unicode="&#xba;" horiz-adv-x="614" d="M-5.5 826q-6.5 57 26.5 135t102 147q82 79 153 109q24 40 60 68t72.5 38.5t73 7.5t60 -26.5t34 -62.5t-4.5 -101q-35 -144 -163 -260q-28 -26 -59.5 -49t-73 -48t-80 -37.5t-81 -15.5t-75.5 17q-38 21 -44.5 78zM65.5 811.5q0.5 -28.5 12.5 -39.5q29 -20 65.5 -15.5 t81 29t77 49t52.5 44.5q-55 36 -85 98t-25 129q-42 -27 -77.5 -67.5t-56.5 -81t-33 -79t-11.5 -67zM262 1120q-7 -65 24 -127t87 -98q107 110 141 252q9 45 2 79.5t-30.5 51.5t-51.5 20t-62.5 -15.5t-64.5 -55.5q90 26 164 -6q12 -6 8.5 -14.5t-18.5 -8.5q-92 0 -199 -78z " />
<glyph unicode="&#xbb;" horiz-adv-x="925" d="M43.5 35q-4.5 21 7.5 35q169 144 307 282l11 11l11 11t10 10.5t10 12.5t7.5 12t7.5 14t5 14.5t3.5 17t0.5 18.5q-2 49 -68 119q-118 129 -295 272q-18 16 0 50q15 31 35 29q5 -1 10 -5q243 -208 367 -358q38 -45 43.5 -109t-27.5 -102q-75 -81 -168 -171.5t-151 -142 t-70 -59.5q-15 -12 -33.5 3t-23 36zM398.5 35q-4.5 21 7.5 35q169 144 307 282l9.5 9.5l10 10t9 9.5t9.5 11t7.5 10.5t7 12t5 12.5t4.5 14.5t2 14.5t1 17q-2 50 -67 119q-118 129 -295 272q-18 16 0 50q15 31 35 29q5 -1 10 -5q240 -205 366 -358q38 -45 44 -109t-27 -102 q-75 -81 -168 -171.5t-151 -142t-70 -59.5q-15 -12 -33.5 3t-23 36z" />
<glyph unicode="&#xbc;" horiz-adv-x="1439" d="M56.5 8.5q-9.5 16.5 2.5 36.5q111 150 973 1270q18 23 51 9q28 -11 28 -33q-1 -9 -7 -17q-408 -536 -979 -1274q-13 -17 -36 -12.5t-32.5 21zM102 459q76 202 252 481q46 73 84.5 129.5t68.5 98.5t40 57q8 13 -3 13q-8 -1 -20 -7q-39 -19 -69 -2q-19 9 -23 22.5t23 22.5 q29 6 88 42t84 62q38 43 143 43q17 0 10 -18q-231 -286 -348 -477q-110 -178 -174.5 -298.5t-97.5 -228.5q-6 -19 -15.5 -17.5t-29.5 24.5q-23 24 -13 53zM571 405q-4 22 0 50q1 11 10.5 15.5t35 11t47.5 16.5q320 148 362 297q-12 0 -26.5 16t-26.5 53q-9 26 -10.5 44 t4.5 29t12 16t18 12q10 7 24 2.5t26.5 -18.5t22.5 -37.5t13.5 -55t-2.5 -70.5q-3 -21 -13.5 -43t-23.5 -40t-34 -37.5t-39 -34t-45 -31.5t-45 -27.5t-46 -25t-41.5 -21t-38.5 -18.5t-30 -14q99 13 163 19t154.5 5.5t165.5 -14.5q126 206 260 364q19 22 39 28.5t64 8.5 q10 0 12.5 -5.5t-2.5 -10.5q-19 -17 -54 -54t-109 -137t-136 -213q72 -26 97.5 -65t25.5 -101q0 -8 -3.5 -10.5t-8.5 0t-9 8.5q-41 70 -135 109q-55 -99 -129.5 -278t-103.5 -269q-11 -24 -33 12q-18 24 -18 50q13 55 87.5 227.5t133.5 273.5q-81 13 -187 14.5t-225 -17.5 t-182 -54q-16 -8 -21 20z" />
<glyph unicode="&#xbd;" horiz-adv-x="1458" d="M56.5 8.5q-9.5 16.5 2.5 36.5q111 150 973 1270q18 23 51 9q28 -11 28 -33q-1 -9 -7 -17q-408 -536 -979 -1274q-13 -17 -36 -12.5t-32.5 21zM102 459q76 202 252 481q46 73 84.5 129.5t68.5 98.5t40 57q8 13 -3 13q-8 -1 -20 -7q-39 -19 -69 -2q-19 9 -23 22.5t23 22.5 q29 6 88 42t84 62q38 43 143 43q17 0 10 -18q-231 -286 -348 -477q-110 -178 -174.5 -298.5t-97.5 -228.5q-6 -19 -15.5 -17.5t-29.5 24.5q-23 24 -13 53zM483 23q3 -31 37 -15q38 22 73.5 25.5t91.5 -16.5t136 -70q113 -71 236.5 -87.5t234.5 29.5q33 14 51 27t29 37 q9 14 -5 20q-18 9 -56 -22q-11 -9 -17 -19t-6 -16v-6q-40 -15 -81.5 -17.5t-79.5 5.5t-79 24t-78.5 35t-78.5 42q-13 7 -19 11q-54 29 -90.5 46t-76 28t-74.5 10t-70 -14q-5 0 -5.5 2.5t3.5 5.5q57 34 281 112t358 136q84 37 138.5 92.5t73 113.5t15.5 115.5t-27 104.5 t-61 76q-82 57 -207 49t-219 -68q-43 -28 -68.5 -57t-32.5 -51.5t-5.5 -39.5t10.5 -28q16 -21 56 2t67 72q31 56 0 74q101 49 190.5 46.5t139.5 -46.5q24 -21 41 -55t20.5 -80t-10 -93t-57.5 -97t-115 -89q-130 -71 -348 -156t-277 -119q-2 -1 -6 -3.5t-6 -3.5t-5.5 -3.5 t-5.5 -4.5t-5 -6t-4 -7.5t-3 -9t-2.5 -11t-1 -13.5t-0.5 -17z" />
<glyph unicode="&#xbe;" horiz-adv-x="1792" d="M23 727q-1 15 12 17q23 3 48 -48l1 -2q6 -16 6.5 -28.5t-2.5 -17.5l-2 -5q54 -61 129 -82.5t148 -5.5t138.5 52.5t110.5 86.5q48 56 72 110.5t23 95.5t-15 77q-34 74 -129 74q-91 0 -143 -25q-18 -8 -18.5 5t6.5 36q5 21 10 28t22 11q64 7 133 27q143 47 193 90 q101 76 43 196q-21 45 -106 68t-183.5 10t-152.5 -61q0 -1 8 -9t10 -24.5t-18 -56.5q-19 -34 -47 -59t-50 -29t-34 8q-14 19 -15.5 45.5t24 69.5t83.5 85q72 53 191.5 73.5t232 -6.5t153.5 -101q36 -75 6.5 -139t-110.5 -107q-133 -68 -264 -88q-3 -1 -4 -3.5t0.5 -5 t5.5 -2.5q84 14 141.5 -1.5t97.5 -65.5q33 -43 42 -104.5t-16 -136t-85 -134.5q-49 -50 -133 -85.5t-177.5 -48.5t-187.5 13t-155 92q-40 45 -43 111zM359.5 8.5q-9.5 16.5 2.5 36.5q111 150 973 1270q18 23 51 9q28 -11 28 -33q-1 -9 -7 -17q-408 -536 -979 -1274 q-13 -17 -36 -12.5t-32.5 21zM921 405q-3 22 1 50q1 11 10.5 15.5t34.5 11t47 16.5q320 148 362 297q-17 2 -28 15t-25 54q-9 26 -10.5 44t5 29t12.5 16t18 12q10 7 24 2.5t26.5 -18.5t22.5 -37.5t13.5 -55t-2.5 -70.5q-3 -21 -13.5 -42.5t-24 -40t-34 -38t-39 -34 t-45 -31.5t-45 -27.5t-46.5 -25t-42 -21.5t-38.5 -18t-29.5 -14q98 13 162.5 19t155.5 5.5t166 -14.5q126 206 260 364q19 22 38.5 28.5t63.5 8.5q10 0 12.5 -5.5t-2.5 -10.5q-19 -17 -54 -54t-109 -137t-136 -213q72 -26 97.5 -65t25.5 -101q0 -8 -3.5 -10.5t-8 0t-8.5 8.5 q-40 69 -136 109q-55 -99 -129.5 -278t-103.5 -269q-11 -24 -33 12q-18 24 -18 50q13 55 87.5 227.5t133.5 273.5q-81 13 -187 14.5t-225 -17.5t-182 -54q-15 -8 -21 20z" />
<glyph unicode="&#xbf;" horiz-adv-x="1179" d="M78.5 -20q-16.5 102 44 216.5t182 237t297.5 246.5q106 75 188 180.5t101 163.5q10 35 32 -8q20 -37 25 -78q5 -36 -88 -146t-192 -184q-627 -476 -371 -725q54 -52 145.5 -61t193.5 29t181 114q1 2 -5 5.5t-12.5 10.5t-11 18.5t0 34t20.5 52.5t35.5 53t38.5 35.5 t37 17.5t32 0t21 -18q19 -33 20.5 -63.5t-33 -74t-116.5 -112.5q-163 -136 -344.5 -173.5t-306.5 50.5q-98 77 -114.5 179zM1008 1204q15 45 42.5 60.5t59.5 -4.5q16 -9 22.5 -16t5 -16t-5.5 -16t-15 -22.5t-19 -28.5q-2 -5 -2 -19t-6 -19.5t-25 -2.5q-33 6 -49.5 32 t-7.5 52z" />
<glyph unicode="&#xc0;" d="M-468.5 -159.5q23.5 21.5 120.5 32.5q32 4 68 -17t42 -22q133 -19 453 198.5t846 663.5q125 105 182 148q-209 93 -380.5 142t-211.5 22q-33 -23 -54.5 -26t-80.5 5q-38 5 -58.5 15t-21 22t9.5 25q25 29 53 35.5t74 -1.5q70 -8 107 -14.5t127 -27.5t205.5 -65t259.5 -110 q438 336 856 541q0 2 0.5 9.5t1 10.5t2 9.5t5 10.5t9 10t14.5 11t21 11q146 69 178 69q22 0 33 -23t-12 -46q-117 -101 -333 -382t-325 -470q111 -69 127 -82q12 -8 7 -31q-5 -21 -20 -6q-1 2 -3 4q-11 16 -127 88q-85 -145 -146 -292t-82 -222t-22 -102q-1 -13 -25 -3 q-37 17 -49 58q-3 10 -4 20q-10 96 279 572q-35 23 -89.5 52.5t-130 68t-122.5 63.5q-28 -22 -58.5 -48t-72.5 -63t-62 -55q-952 -823 -1339 -882q-92 -15 -151.5 -15t-82.5 23q-41 44 -17.5 65.5zM1350 842q52 -27 104 -56t79.5 -45.5t75.5 -46t60 -37.5q35 61 71.5 120.5 t85.5 135t71.5 110t88 132t76.5 113.5q1 2 2 4.5t3 10.5t-0.5 11.5t-8 6.5t-20.5 -3q-28 -10 -108 -56.5t-241 -155t-339 -244.5zM2232 1769q17 40 47 62q9 8 22 1t17 -22q13 -46 43.5 -89.5t65.5 -67.5q5 -5 4.5 -14t-11.5 -16t-26 -3q-23 5 -74.5 40t-74.5 66 q-20 30 -13 43z" />
<glyph unicode="&#xc1;" d="M-468.5 -159.5q23.5 21.5 120.5 32.5q32 4 68 -17t42 -22q133 -19 453 198.5t846 663.5q125 105 182 148q-209 93 -380.5 142t-211.5 22q-33 -23 -54.5 -26t-80.5 5q-38 5 -58.5 15t-21 22t9.5 25q25 29 53 35.5t74 -1.5q70 -8 107 -14.5t127 -27.5t205.5 -65t259.5 -110 q438 336 856 541q0 2 0.5 9.5t1 10.5t2 9.5t5 10.5t9 10t14.5 11t21 11q146 69 178 69q22 0 33 -23t-12 -46q-117 -101 -333 -382t-325 -470q111 -69 127 -82q12 -8 7 -31q-5 -21 -20 -6q-1 2 -3 4q-11 16 -127 88q-85 -145 -146 -292t-82 -222t-22 -102q-1 -13 -25 -3 q-37 17 -49 58q-3 10 -4 20q-10 96 279 572q-35 23 -89.5 52.5t-130 68t-122.5 63.5q-28 -22 -58.5 -48t-72.5 -63t-62 -55q-952 -823 -1339 -882q-92 -15 -151.5 -15t-82.5 23q-41 44 -17.5 65.5zM1350 842q52 -27 104 -56t79.5 -45.5t75.5 -46t60 -37.5q35 61 71.5 120.5 t85.5 135t71.5 110t88 132t76.5 113.5q1 2 2 4.5t3 10.5t-0.5 11.5t-8 6.5t-20.5 -3q-28 -10 -108 -56.5t-241 -155t-339 -244.5zM2223.5 1612q-0.5 9 4.5 14q34 24 65 68t44 90q4 15 17 21.5t22 -1.5q30 -23 47 -61q7 -13 -13 -43q-23 -31 -74.5 -66.5t-74.5 -40.5 q-15 -4 -26 3t-11.5 16z" />
<glyph unicode="&#xc2;" d="M-468.5 -159.5q-23.5 -21.5 17.5 -65.5q23 -23 82.5 -23t151.5 15q387 59 1339 882q20 18 62 55t72.5 63t58.5 48q47 -25 122.5 -63.5t130 -68t89.5 -52.5q-289 -476 -279 -572q4 -50 46 -74q26 -15 31 -3q1 1 1 2q1 27 22 102t82 222t146 292q116 -72 127 -88 q17 -21 22 0q5 22 -6 33q-16 13 -127 82q109 189 325 470t333 382q23 23 12 46t-33 23q-32 0 -178 -69q-14 -7 -23.5 -14t-15 -11t-8.5 -13t-4 -10.5t-2 -12.5v-11q-418 -205 -856 -541q-144 66 -259.5 110t-205.5 65t-127 27.5t-107 14.5q-46 8 -74 1.5t-53 -35.5 q-10 -13 -9.5 -25t21 -22t58.5 -15q59 -8 80.5 -5t54.5 26q40 27 211.5 -22t380.5 -142q-57 -43 -182 -148q-526 -446 -846 -663.5t-453 -198.5q-6 1 -42 22t-68 17q-97 -11 -120.5 -32.5zM1350 842q178 136 339 244.5t241 155t108 56.5q21 7 27 -0.5t1 -18.5l-4 -11 q-11 -16 -76.5 -113.5t-88 -132t-71.5 -110t-85.5 -135t-71.5 -120.5q-12 8 -60 37.5t-75.5 46t-79.5 45.5t-104 56zM2099 1626q29 56 106 132.5t132 76.5q56 0 127.5 -78t101.5 -139q12 -25 -9.5 -42.5t-41.5 5.5q-40 50 -127 137q-60 60 -117 0q-10 -11 -37 -42t-49.5 -54 t-38.5 -35q-29 -21 -45.5 -6.5t-1.5 45.5z" />
<glyph unicode="&#xc3;" d="M-468.5 -159.5q-23.5 -21.5 17.5 -65.5q23 -23 82.5 -23t151.5 15q387 59 1339 882q20 18 62 55t72.5 63t58.5 48q47 -25 122.5 -63.5t130 -68t89.5 -52.5q-289 -476 -279 -572q4 -50 46 -74q26 -15 31 -3q1 1 1 2q1 27 22 102t82 222t146 292q116 -72 127 -88 q17 -21 22 0q5 22 -6 33q-16 13 -127 82q109 189 325 470t333 382q23 23 12 46t-33 23q-32 0 -178 -69q-14 -7 -23.5 -14t-15 -11t-8.5 -13t-4 -10.5t-2 -12.5v-11q-418 -205 -856 -541q-144 66 -259.5 110t-205.5 65t-127 27.5t-107 14.5q-46 8 -74 1.5t-53 -35.5 q-10 -13 -9.5 -25t21 -22t58.5 -15q59 -8 80.5 -5t54.5 26q40 27 211.5 -22t380.5 -142q-57 -43 -182 -148q-526 -446 -846 -663.5t-453 -198.5q-6 1 -42 22t-68 17q-97 -11 -120.5 -32.5zM1350 842q178 136 339 244.5t241 155t108 56.5q21 7 27 -0.5t1 -18.5l-4 -11 q-11 -16 -76.5 -113.5t-88 -132t-71.5 -110t-85.5 -135t-71.5 -120.5q-12 8 -60 37.5t-75.5 46t-79.5 45.5t-104 56zM2077.5 1638.5q-6.5 9.5 5.5 26.5q11 16 27.5 32.5t51.5 34.5t70 15q53 -4 118.5 -29t103.5 -32q89 -19 135 32q11 13 23.5 5t0.5 -25q-4 -6 -8.5 -12.5 t-20.5 -22t-32.5 -26.5t-42.5 -18.5t-53 -4.5q-59 7 -140 35.5t-102 31.5q-16 2 -33.5 -2t-27.5 -10l-27.5 -16.5t-24.5 -14.5q-17 -9 -23.5 0.5z" />
<glyph unicode="&#xc4;" d="M-468.5 -159.5q23.5 21.5 120.5 32.5q32 4 68 -17t42 -22q133 -19 453 198.5t846 663.5q125 105 182 148q-209 93 -380.5 142t-211.5 22q-33 -23 -54.5 -26t-80.5 5q-38 5 -58.5 15t-21 22t9.5 25q25 29 53 35.5t74 -1.5q70 -8 107 -14.5t127 -27.5t205.5 -65t259.5 -110 q438 336 856 541q0 2 0.5 9.5t1 10.5t2 9.5t5 10.5t9 10t14.5 11t21 11q146 69 178 69q22 0 33 -23t-12 -46q-117 -101 -333 -382t-325 -470q111 -69 127 -82q12 -8 7 -31q-5 -21 -20 -6q-1 2 -3 4q-11 16 -127 88q-85 -145 -146 -292t-82 -222t-22 -102q-1 -13 -25 -3 q-37 17 -49 58q-3 10 -4 20q-10 96 279 572q-35 23 -89.5 52.5t-130 68t-122.5 63.5q-28 -22 -58.5 -48t-72.5 -63t-62 -55q-952 -823 -1339 -882q-92 -15 -151.5 -15t-82.5 23q-41 44 -17.5 65.5zM1350 842q52 -27 104 -56t79.5 -45.5t75.5 -46t60 -37.5q35 61 71.5 120.5 t85.5 135t71.5 110t88 132t76.5 113.5q1 2 2 4.5t3 10.5t-0.5 11.5t-8 6.5t-20.5 -3q-28 -10 -108 -56.5t-241 -155t-339 -244.5zM2209 1641.5q2 8.5 6.5 15t15 22t18.5 29.5q5 10 2.5 20t4 17t25.5 4q33 -6 50 -32t8 -52q-15 -45 -43 -60t-60 5q-16 9 -22.5 16t-4.5 15.5z M2416 1641.5q2 8.5 6.5 15t15 22t18.5 29.5q5 10 2.5 20t4 17t25.5 4q33 -6 50 -32t8 -52q-15 -45 -43 -60t-60 5q-16 9 -22.5 16t-4.5 15.5z" />
<glyph unicode="&#xc5;" d="M-468.5 -159.5q-23.5 -21.5 17.5 -65.5q23 -23 82.5 -23t151.5 15q387 59 1339 882q20 18 62 55t72.5 63t58.5 48q47 -25 122.5 -63.5t130 -68t89.5 -52.5q-289 -476 -279 -572q4 -50 46 -74q26 -15 31 -3q1 1 1 2q1 27 22 102t82 222t146 292q116 -72 127 -88 q17 -21 22 0q5 22 -6 33q-16 13 -127 82q109 189 325 470t333 382q23 23 12 46t-33 23q-32 0 -178 -69q-14 -7 -23.5 -14t-15 -11t-8.5 -13t-4 -10.5t-2 -12.5v-11q-418 -205 -856 -541q-144 66 -259.5 110t-205.5 65t-127 27.5t-107 14.5q-46 8 -74 1.5t-53 -35.5 q-10 -13 -9.5 -25t21 -22t58.5 -15q59 -8 80.5 -5t54.5 26q40 27 211.5 -22t380.5 -142q-57 -43 -182 -148q-526 -446 -846 -663.5t-453 -198.5q-6 1 -42 22t-68 17q-97 -11 -120.5 -32.5zM1350 842q178 136 339 244.5t241 155t108 56.5q21 7 27 -0.5t1 -18.5l-4 -11 q-11 -16 -76.5 -113.5t-88 -132t-71.5 -110t-85.5 -135t-71.5 -120.5q-12 8 -60 37.5t-75.5 46t-79.5 45.5t-104 56zM2215 1691q-14 47 13 97q28 47 80.5 67.5t101.5 2.5q47 -19 61.5 -67t-11.5 -95q-28 -49 -81.5 -70t-101.5 -2q-48 20 -62 67zM2267 1731q0 -40 21 -68.5 t53 -28.5t55 34t21 77q0 39 -24 67.5t-54 26.5q-30 -3 -51 -34.5t-21 -73.5z" />
<glyph unicode="&#xc7;" horiz-adv-x="1230" d="M0.5 383.5q6.5 124.5 71.5 277.5t184 300q98 122 214.5 223t229 168t225 114t209.5 66t176 17.5t130 -25.5q53 -25 80.5 -68.5t28 -94.5t-10 -103t-33 -101.5t-40 -82t-31.5 -52.5q-82 -115 -187 -166q-38 -18 -68 -20t-46 4.5t-46 23.5t40 67q71 52 140 71q21 5 33 4 q26 -3 47 8t29 23l8 12q33 37 63 95t48.5 124t1 127t-77.5 92q-34 18 -90 19t-128.5 -16.5t-155 -50t-174.5 -86t-182.5 -120.5t-184 -158t-174.5 -194q-105 -134 -163.5 -271.5t-66 -245.5t18 -190t80.5 -121q72 -52 198 -63.5t253.5 10.5t234.5 66q129 53 287.5 140 t213.5 138q11 10 17 26t18 25q48 45 54 15q4 -20 -17 -43t-76 -66q-71 -56 -211.5 -138t-269.5 -136q-119 -49 -250 -72q-3 -5 -10 -14t-9.5 -13.5t-4 -11t3 -12t14.5 -10.5q28 -9 51.5 -7.5t59.5 7.5t45 6q29 0 42.5 -27.5t-5.5 -73.5q-56 -119 -193 -161 q-90 -22 -159.5 -10t-102.5 44q-14 12 -3.5 36t32.5 28q14 3 37 -22.5t59 -32.5q37 -5 76.5 -6.5t83 12.5t69.5 41q45 45 39 86.5t-65 31.5q-16 -3 -50 -10.5t-53 -10.5t-41 -3.5t-30.5 9t-4.5 28.5q5 23 6 53l1 29q-271 -25 -398 67q-75 53 -111 152t-29.5 223.5z" />
<glyph unicode="&#xc8;" horiz-adv-x="1728" d="M31.5 -125q5.5 85 39.5 175t113.5 187.5t196.5 180.5q69 49 149.5 95t143 76.5t142.5 63t120 47t105.5 36.5t70.5 24q15 4 12 12t-18 4q-49 -16 -121.5 -22.5t-153 2t-146 32.5t-99.5 78t-15 131q23 92 101 171t184 135t248 102t275 74.5t284 50.5q68 11 109 -17 q29 -20 41.5 -33.5t12.5 -23.5t-13.5 -17.5t-36 -15t-56.5 -17.5q-17 -4 -26 -7q-44 -13 -73.5 -14t-43.5 4.5t-38.5 12t-53.5 7.5q-95 1 -233 -38t-267.5 -100t-231 -142t-124.5 -154q-16 -51 4 -89.5t64 -58.5t102 -30.5t118 -10t111 7t82 17.5q64 22 84 13.5t12 -52.5 t-15 -54q-18 -23 -104 -54q-2 -1 -49.5 -16.5t-84.5 -28.5t-104.5 -40.5t-126 -56.5t-132.5 -73t-139 -93q-118 -87 -200 -194t-115.5 -204t-26.5 -181.5t57 -134.5q38 -38 114.5 -53.5t183.5 -6.5t252.5 59.5t299.5 139.5q173 99 296 206t189 197q6 9 10 52.5t23 72.5 q30 47 57 54.5t43 -29.5q11 -29 -57 -117q-46 -61 -89.5 -111.5t-109.5 -115.5t-152 -128.5t-186 -119.5q-168 -95 -320 -148.5t-267.5 -64t-201.5 11.5t-138 74q-42 43 -64.5 109t-17 151zM1358 1733q17 38 47 61q9 8 22 1.5t17 -21.5q13 -47 43.5 -90.5t64.5 -67.5 q5 -5 4.5 -14t-11 -16t-25.5 -3q-23 5 -75 40.5t-75 66.5q-19 29 -12 43z" />
<glyph unicode="&#xc9;" horiz-adv-x="1728" d="M31.5 -125q5.5 85 39.5 175t113.5 187.5t196.5 180.5q69 49 149.5 95t143 76.5t142.5 63t120 47t105.5 36.5t70.5 24q15 4 12 12t-18 4q-49 -16 -121.5 -22.5t-153 2t-146 32.5t-99.5 78t-15 131q23 92 101 171t184 135t248 102t275 74.5t284 50.5q68 11 109 -17 q29 -20 41.5 -33.5t12.5 -23.5t-13.5 -17.5t-36 -15t-56.5 -17.5q-17 -4 -26 -7q-44 -13 -73.5 -14t-43.5 4.5t-38.5 12t-53.5 7.5q-95 1 -233 -38t-267.5 -100t-231 -142t-124.5 -154q-16 -51 4 -89.5t64 -58.5t102 -30.5t118 -10t111 7t82 17.5q64 22 84 13.5t12 -52.5 t-15 -54q-18 -23 -104 -54q-2 -1 -49.5 -16.5t-84.5 -28.5t-104.5 -40.5t-126 -56.5t-132.5 -73t-139 -93q-118 -87 -200 -194t-115.5 -204t-26.5 -181.5t57 -134.5q38 -38 114.5 -53.5t183.5 -6.5t252.5 59.5t299.5 139.5q173 99 296 206t189 197q6 9 10 52.5t23 72.5 q30 47 57 54.5t43 -29.5q11 -29 -57 -117q-46 -61 -89.5 -111.5t-109.5 -115.5t-152 -128.5t-186 -119.5q-168 -95 -320 -148.5t-267.5 -64t-201.5 11.5t-138 74q-42 43 -64.5 109t-17 151zM1427.5 1581.5q-0.5 8.5 4.5 13.5q34 24 64.5 67.5t43.5 90.5q4 15 17 22t22 -1 q30 -22 47 -62q7 -14 -12 -43q-23 -31 -75 -66t-75 -40q-15 -4 -25.5 3t-11 15.5z" />
<glyph unicode="&#xca;" horiz-adv-x="1728" d="M31.5 -125q5.5 85 39.5 175t113.5 187.5t196.5 180.5q69 49 149.5 95t143 76.5t142.5 63t120 47t105.5 36.5t70.5 24q15 4 12 12t-18 4q-49 -16 -121.5 -22.5t-153 2t-146 32.5t-99.5 78t-15 131q23 92 101 171t184 135t248 102t275 74.5t284 50.5q68 11 109 -17 q29 -20 41.5 -33.5t12.5 -23.5t-13.5 -17.5t-36 -15t-56.5 -17.5q-17 -4 -26 -7q-44 -13 -73.5 -14t-43.5 4.5t-38.5 12t-53.5 7.5q-95 1 -233 -38t-267.5 -100t-231 -142t-124.5 -154q-16 -51 4 -89.5t64 -58.5t102 -30.5t118 -10t111 7t82 17.5q64 22 84 13.5t12 -52.5 t-15 -54q-18 -23 -104 -54q-2 -1 -49.5 -16.5t-84.5 -28.5t-104.5 -40.5t-126 -56.5t-132.5 -73t-139 -93q-118 -87 -200 -194t-115.5 -204t-26.5 -181.5t57 -134.5q38 -38 114.5 -53.5t183.5 -6.5t252.5 59.5t299.5 139.5q173 99 296 206t189 197q6 9 10 52.5t23 72.5 q30 47 57 54.5t43 -29.5q11 -29 -57 -117q-46 -61 -89.5 -111.5t-109.5 -115.5t-152 -128.5t-186 -119.5q-168 -95 -320 -148.5t-267.5 -64t-201.5 11.5t-138 74q-42 43 -64.5 109t-17 151zM1434 1614q29 56 105.5 132.5t131.5 76.5q56 0 128 -78t102 -139q12 -25 -10 -42.5 t-42 5.5q-40 50 -127 137q-60 60 -116 0q-10 -11 -37 -42t-49.5 -54t-38.5 -35q-29 -21 -45.5 -6.5t-1.5 45.5z" />
<glyph unicode="&#xcb;" horiz-adv-x="1728" d="M31.5 -125q5.5 85 39.5 175t113.5 187.5t196.5 180.5q69 49 149.5 95t143 76.5t142.5 63t120 47t105.5 36.5t70.5 24q15 4 12 12t-18 4q-49 -16 -121.5 -22.5t-153 2t-146 32.5t-99.5 78t-15 131q23 92 101 171t184 135t248 102t275 74.5t284 50.5q68 11 109 -17 q29 -20 41.5 -33.5t12.5 -23.5t-13.5 -17.5t-36 -15t-56.5 -17.5q-17 -4 -26 -7q-44 -13 -73.5 -14t-43.5 4.5t-38.5 12t-53.5 7.5q-95 1 -233 -38t-267.5 -100t-231 -142t-124.5 -154q-16 -51 4 -89.5t64 -58.5t102 -30.5t118 -10t111 7t82 17.5q64 22 84 13.5t12 -52.5 t-15 -54q-18 -23 -104 -54q-2 -1 -49.5 -16.5t-84.5 -28.5t-104.5 -40.5t-126 -56.5t-132.5 -73t-139 -93q-118 -87 -200 -194t-115.5 -204t-26.5 -181.5t57 -134.5q38 -38 114.5 -53.5t183.5 -6.5t252.5 59.5t299.5 139.5q173 99 296 206t189 197q6 9 10 52.5t23 72.5 q30 47 57 54.5t43 -29.5q11 -29 -57 -117q-46 -61 -89.5 -111.5t-109.5 -115.5t-152 -128.5t-186 -119.5q-168 -95 -320 -148.5t-267.5 -64t-201.5 11.5t-138 74q-42 43 -64.5 109t-17 151zM1428.5 1645.5q1.5 8.5 6 15t15.5 22t18 29.5q2 5 2 19t6 19.5t25 2.5 q33 -6 50 -32t8 -52q-15 -45 -43 -60t-60 5q-16 9 -22.5 16t-5 15.5zM1635.5 1645.5q1.5 8.5 6 15t15.5 22t18 29.5q2 5 2 19t6 19.5t25 2.5q33 -6 49.5 -32t7.5 -52q-15 -45 -42.5 -60t-59.5 5q-16 9 -22.5 16t-5 15.5z" />
<glyph unicode="&#xcc;" horiz-adv-x="1531" d="M16 -243q4 19 19 53q12 27 31.5 41t52.5 26q190 75 334 108.5t282 45.5q-7 27 4 49q58 135 173 322.5t257 375.5q240 320 478 555q-137 -45 -227.5 -70t-249.5 -49t-312 -20q-67 0 -102 35q-57 58 -39 75q13 13 101 20h1h1h1h1h1h1l30 3q58 5 87 -2t56 -23.5t60 -23.5 q55 -12 112.5 -12.5t106 6.5t109.5 23t106.5 31.5t112.5 38t114 36.5q37 31 55 43t35.5 11.5t30.5 -21.5q95 25 144 37t123.5 30t118 25t97.5 13.5t95.5 5t79.5 -8.5q46 -9 71.5 -35t30.5 -57.5t1.5 -64t-11.5 -54.5t-13 -29q-10 -13 -20.5 -9.5t-7.5 18.5q20 97 -99 137 q-57 19 -123 24t-146 -5t-155 -26t-182 -44q-6 -48 -67.5 -112.5t-108.5 -64.5q-121 0 -453 -456q-209 -285 -383 -719q63 4 124 4t101 -2.5t89.5 -9.5t67.5 -10.5t58.5 -13t41.5 -9.5q118 -28 123 -53q3 -10 -2.5 -15.5t-19 -5t-32.5 7.5q-16 5 -28 18.5t-25 16.5 q-208 62 -508 45l-8 -24q-10 -23 -32 -16.5t-36 32.5q-189 -26 -411 -137q-26 -13 -43.5 -30t-25.5 -30t-34 -28t-69 -27q-105 -28 -122 -28q-30 0 -24 33zM1696 1671q17 40 47 62q9 8 22 1t17 -22q13 -47 43.5 -90.5t64.5 -67.5q5 -5 4.5 -13.5t-11 -15.5t-25.5 -3 q-23 5 -75 40t-75 66q-19 29 -12 43z" />
<glyph unicode="&#xcd;" horiz-adv-x="1531" d="M16 -243q4 19 19 53q12 27 31.5 41t52.5 26q190 75 334 108.5t282 45.5q-7 27 4 49q58 135 173 322.5t257 375.5q240 320 478 555q-137 -45 -227.5 -70t-249.5 -49t-312 -20q-67 0 -102 35q-57 58 -39 75q13 13 101 20h1h1h1h1h1h1l30 3q58 5 87 -2t56 -23.5t60 -23.5 q55 -12 112.5 -12.5t106 6.5t109.5 23t106.5 31.5t112.5 38t114 36.5q37 31 55 43t35.5 11.5t30.5 -21.5q95 25 144 37t123.5 30t118 25t97.5 13.5t95.5 5t79.5 -8.5q46 -9 71.5 -35t30.5 -57.5t1.5 -64t-11.5 -54.5t-13 -29q-10 -13 -20.5 -9.5t-7.5 18.5q20 97 -99 137 q-57 19 -123 24t-146 -5t-155 -26t-182 -44q-6 -48 -67.5 -112.5t-108.5 -64.5q-121 0 -453 -456q-209 -285 -383 -719q63 4 124 4t101 -2.5t89.5 -9.5t67.5 -10.5t58.5 -13t41.5 -9.5q118 -28 123 -53q3 -10 -2.5 -15.5t-19 -5t-32.5 7.5q-16 5 -28 18.5t-25 16.5 q-208 62 -508 45l-8 -24q-10 -23 -32 -16.5t-36 32.5q-189 -26 -411 -137q-26 -13 -43.5 -30t-25.5 -30t-34 -28t-69 -27q-105 -28 -122 -28q-30 0 -24 33zM1625.5 1532q-0.5 9 4.5 14q34 24 65 68t44 90q4 15 17 21.5t22 -1.5q30 -23 47 -61q7 -13 -13 -43 q-23 -31 -74.5 -66.5t-74.5 -40.5q-15 -4 -26 3t-11.5 16z" />
<glyph unicode="&#xce;" horiz-adv-x="1531" d="M16 -243q4 19 19 53q12 27 31.5 41t52.5 26q190 75 334 108.5t282 45.5q-7 27 4 49q58 135 173 322.5t257 375.5q240 320 478 555q-137 -45 -227.5 -70t-249.5 -49t-312 -20q-67 0 -102 35q-57 58 -39 75q13 13 101 20h1h1h1h1h1h1l30 3q58 5 87 -2t56 -23.5t60 -23.5 q55 -12 112.5 -12.5t106 6.5t109.5 23t106.5 31.5t112.5 38t114 36.5q37 31 55 43t35.5 11.5t30.5 -21.5q95 25 144 37t123.5 30t118 25t97.5 13.5t95.5 5t79.5 -8.5q46 -9 71.5 -35t30.5 -57.5t1.5 -64t-11.5 -54.5t-13 -29q-10 -13 -20.5 -9.5t-7.5 18.5q20 97 -99 137 q-57 19 -123 24t-146 -5t-155 -26t-182 -44q-6 -48 -67.5 -112.5t-108.5 -64.5q-121 0 -453 -456q-209 -285 -383 -719q63 4 124 4t101 -2.5t89.5 -9.5t67.5 -10.5t58.5 -13t41.5 -9.5q118 -28 123 -53q3 -10 -2.5 -15.5t-19 -5t-32.5 7.5q-16 5 -28 18.5t-25 16.5 q-208 62 -508 45l-8 -24q-10 -23 -32 -16.5t-36 32.5q-189 -26 -411 -137q-26 -13 -43.5 -30t-25.5 -30t-34 -28t-69 -27q-105 -28 -122 -28q-30 0 -24 33zM1538 1567q29 56 106 132.5t132 76.5q56 0 127.5 -78t101.5 -139q12 -25 -9.5 -42.5t-41.5 5.5q-40 50 -127 137 q-60 60 -117 0q-10 -11 -37 -42t-49.5 -54t-38.5 -35q-29 -21 -45.5 -6.5t-1.5 45.5z" />
<glyph unicode="&#xcf;" horiz-adv-x="1531" d="M16 -243q4 19 19 53q12 27 31.5 41t52.5 26q190 75 334 108.5t282 45.5q-7 27 4 49q58 135 173 322.5t257 375.5q240 320 478 555q-137 -45 -227.5 -70t-249.5 -49t-312 -20q-67 0 -102 35q-57 58 -39 75q13 13 101 20h1h1h1h1h1h1l30 3q58 5 87 -2t56 -23.5t60 -23.5 q55 -12 112.5 -12.5t106 6.5t109.5 23t106.5 31.5t112.5 38t114 36.5q37 31 55 43t35.5 11.5t30.5 -21.5q95 25 144 37t123.5 30t118 25t97.5 13.5t95.5 5t79.5 -8.5q46 -9 71.5 -35t30.5 -57.5t1.5 -64t-11.5 -54.5t-13 -29q-10 -13 -20.5 -9.5t-7.5 18.5q20 97 -99 137 q-57 19 -123 24t-146 -5t-155 -26t-182 -44q-6 -48 -67.5 -112.5t-108.5 -64.5q-121 0 -453 -456q-209 -285 -383 -719q63 4 124 4t101 -2.5t89.5 -9.5t67.5 -10.5t58.5 -13t41.5 -9.5q118 -28 123 -53q3 -10 -2.5 -15.5t-19 -5t-32.5 7.5q-16 5 -28 18.5t-25 16.5 q-208 62 -508 45l-8 -24q-10 -23 -32 -16.5t-36 32.5q-189 -26 -411 -137q-26 -13 -43.5 -30t-25.5 -30t-34 -28t-69 -27q-105 -28 -122 -28q-30 0 -24 33zM1607 1567.5q2 8.5 6.5 15t15 22t18.5 29.5q5 10 2.5 20t4 17t25.5 4q33 -6 50 -32t8 -52q-15 -45 -43 -60t-60 5 q-16 9 -22.5 16t-4.5 15.5zM1813.5 1567.5q1.5 8.5 6 15t15.5 22t18 29.5q2 5 2 19t6 19.5t25 2.5q33 -6 50 -32t8 -52q-15 -45 -43 -60t-60 5q-16 9 -22.5 16t-5 15.5z" />
<glyph unicode="&#xd0;" horiz-adv-x="2064" d="M29 1141.5q4 17.5 14 44.5q17 50 78 78q49 22 88.5 39t171 61.5t262 75.5t335 62t415.5 40q193 9 338 -31.5t233 -125t124 -207t14.5 -282t-99.5 -345.5q84 -10 149 -27q103 -25 111 -49q5 -16 -17 -19q-17 -1 -42 5q-15 3 -27 15.5t-27 17.5q-59 20 -161 24 q-70 -158 -172 -299t-216 -244.5t-240 -187.5t-248.5 -135t-235.5 -78.5t-207 -27t-158 27.5q-175 74 -117 247q49 147 243 318q180 159 384 250q214 95 448 134t449 32q66 170 87.5 319t-6 271t-100 207.5t-201.5 129t-304 34.5q-343 -17 -666 -103t-393 -143 q-26 -21 -44 -47.5t-41 -45t-79 -38.5q-9 -3 -26 -9q-33 -13 -47.5 -17.5t-34 -9t-25 -1t-10 12.5t-0.5 26.5zM298 35q-4 24 5 45q56 131 167 313t249 367q-99 12 -133 12q-56 0 -88 -37q-31 -33 -123 -37q-32 -3 -37 9.5t8 46.5q15 40 92.5 52t141.5 5q61 -4 159 -23 q150 198 311 376t273 272q53 42 72 14q33 -51 -17 -123q-31 -45 -75 -79t-72 -34q-118 0 -438 -436q133 -27 194 -33q135 -13 213 19q23 9 28 25t9 20q25 22 47 22q13 0 14.5 -16t-8.5 -22q-54 -39 -80 -48q-89 -35 -223 -24q-32 3 -55.5 6.5t-66 10.5t-89.5 14h-2 q-122 -170 -227.5 -380.5t-169.5 -383.5q-11 -31 -41 -13q-31 19 -38 60zM424 -219q-25 -126 100 -180q51 -22 126.5 -22.5t164.5 18.5t190 60t202.5 98t204 137.5t192.5 173.5t169.5 211t133.5 245q-218 5 -449.5 -33.5t-427.5 -130.5q-226 -106 -405 -277 q-175 -167 -201 -300z" />
<glyph unicode="&#xd1;" horiz-adv-x="1859" d="M12 940q4 -20 9 -33.5t9.5 -23t12 -12.5t13 -4t15 4.5t16 9.5t19 16.5l19.5 19.5t22 23q23 24 38 42t24 29t16.5 27t10 21.5t9.5 28.5t11 34q21 61 105 120t290 165q83 43 178.5 61t167 9t95.5 -39q26 -32 25.5 -101.5t-24 -161t-78 -206t-130.5 -226.5 q-121 -176 -205.5 -310t-113.5 -185t-93 -168q-25 -44 -1 -88q18 -32 39 -25q10 3 17 17q76 163 198 350.5t269 349.5q48 53 91.5 99t75.5 78.5t118 120.5t160 163q167 172 310.5 237.5t215.5 8.5q133 -105 -227 -715q-465 -766 -166 -1002q88 -71 248 -71q78 0 143 59 q17 17 4 32q-21 22 -92 -1q-22 -7 -35.5 -19t-16.5 -20l-3 -8q-5 -1 -14.5 -1t-37.5 1t-53.5 6t-57.5 17.5t-56 31.5q-47 38 -67.5 93.5t-11 129t31.5 147.5t70.5 174.5t93.5 184t112 199.5q80 137 134 240t94 203.5t50.5 172t-7 129t-68.5 90.5q-93 59 -263 -23.5 t-358 -273.5q-92 -93 -229.5 -240t-218.5 -225q-9 -9 -12 -4t3 13q93 139 153 254t89.5 215.5t15.5 177.5t-73 127q-66 53 -199.5 39t-298.5 -86q-111 -49 -216 -108.5t-179 -113.5t-119.5 -91.5t-71.5 -63.5q-23 -21 -37 -56.5t-8 -64.5zM1649.5 1597.5q-6.5 9.5 5.5 26.5 q11 16 27.5 32.5t51.5 34.5t70 15q53 -4 118 -29t103 -32q90 -19 136 32q11 13 23.5 5t0.5 -25q-4 -6 -8.5 -12.5t-20.5 -22t-32.5 -26.5t-42.5 -18.5t-53 -4.5q-59 7 -140 35.5t-102 31.5q-16 2 -33.5 -2t-27.5 -10l-27.5 -16.5t-24.5 -14.5q-17 -9 -23.5 0.5z" />
<glyph unicode="&#xd2;" horiz-adv-x="1220" d="M13 348q6 110 47 233.5t108 241t151 219.5q99 120 214 216t223 154t205 89.5t176 34.5q57 2 107.5 -7t82 -23t56 -31t35.5 -29t14 -19q7 -16 0.5 -24.5t-25.5 6.5q-85 72 -274 55q-143 -13 -346.5 -148t-376.5 -353q-75 -94 -139 -201.5t-109 -221t-60.5 -212.5 t13.5 -178.5t106 -116.5q80 -39 176.5 -27.5t196.5 56.5t198 116t180.5 150.5t145.5 160.5q81 105 144 234t93.5 243.5t24.5 205.5t-55 124q-65 39 -137.5 27t-132.5 -50.5t-82 -80.5q-15 -29 -22 -59.5t-21.5 -54t-57.5 -64.5q-6 -6 -18 -17q-25 -25 -36.5 -35t-28 -22.5 t-23 -11.5t-14.5 7t-11.5 24t-5.5 47q-3 29 5.5 51t29.5 51q54 72 157 139t221.5 97.5t211.5 -23.5q93 -63 79.5 -210t-95 -322.5t-199.5 -327.5q-60 -77 -127 -147t-145.5 -137.5t-162 -114.5t-169 -75t-175 -23.5t-171.5 44.5q-98 48 -143 139t-39 201zM1120 1724 q17 40 47 62q9 8 22 1t17 -22q13 -46 43.5 -89.5t65.5 -67.5q5 -5 4.5 -14t-11.5 -16t-26 -3q-23 5 -74.5 40t-74.5 66q-20 30 -13 43z" />
<glyph unicode="&#xd3;" horiz-adv-x="1220" d="M13 348q6 110 47 233.5t108 241t151 219.5q99 120 214 216t223 154t205 89.5t176 34.5q57 2 107.5 -7t82 -23t56 -31t35.5 -29t14 -19q7 -16 0.5 -24.5t-25.5 6.5q-85 72 -274 55q-143 -13 -346.5 -148t-376.5 -353q-75 -94 -139 -201.5t-109 -221t-60.5 -212.5 t13.5 -178.5t106 -116.5q80 -39 176.5 -27.5t196.5 56.5t198 116t180.5 150.5t145.5 160.5q81 105 144 234t93.5 243.5t24.5 205.5t-55 124q-65 39 -137.5 27t-132.5 -50.5t-82 -80.5q-15 -29 -22 -59.5t-21.5 -54t-57.5 -64.5q-6 -6 -18 -17q-25 -25 -36.5 -35t-28 -22.5 t-23 -11.5t-14.5 7t-11.5 24t-5.5 47q-3 29 5.5 51t29.5 51q54 72 157 139t221.5 97.5t211.5 -23.5q93 -63 79.5 -210t-95 -322.5t-199.5 -327.5q-60 -77 -127 -147t-145.5 -137.5t-162 -114.5t-169 -75t-175 -23.5t-171.5 44.5q-98 48 -143 139t-39 201zM1130.5 1622.5 q-0.5 8.5 4.5 13.5q34 24 64.5 67.5t43.5 90.5q4 15 17 22t22 -1q30 -22 47 -62q7 -14 -12 -43q-23 -31 -75 -66t-75 -40q-15 -4 -25.5 3t-11 15.5z" />
<glyph unicode="&#xd4;" horiz-adv-x="1220" d="M13 348q-6 -110 39 -201t143 -139q82 -40 171.5 -44.5t175 23.5t169 75t162 114.5t145.5 137.5t127 147q118 152 199.5 327.5t95 322.5t-79.5 210q-93 54 -211.5 23.5t-221.5 -97.5t-157 -139q-21 -29 -29.5 -51t-5.5 -51q2 -25 5 -41t7.5 -26t12.5 -10t15.5 2t21.5 13.5 t25 22t32 30.5q12 11 18 17q43 41 57.5 64.5t21.5 54t22 59.5q22 42 82 80.5t132.5 50.5t137.5 -27q49 -33 55 -124t-24.5 -205.5t-93.5 -243.5t-144 -234q-63 -81 -145.5 -160.5t-180.5 -150.5t-198 -116t-196.5 -56.5t-176.5 27.5q-77 37 -106 116.5t-13.5 178.5 t60.5 212.5t109 221t139 201.5q173 218 376.5 353t346.5 148q189 17 274 -55q19 -16 26 -6.5t-1 24.5q-3 7 -14 19t-35.5 29t-56 31t-82 23t-107.5 7q-79 -3 -176 -34.5t-205 -89.5t-223 -154t-214 -216q-84 -102 -151 -219.5t-108 -241t-47 -233.5zM948 1632 q29 56 106 132.5t132 76.5q56 0 127.5 -78t101.5 -139q12 -25 -9.5 -42.5t-41.5 5.5q-40 50 -127 137q-60 60 -117 0q-10 -11 -37 -42t-49.5 -54t-38.5 -35q-29 -21 -45.5 -6.5t-1.5 45.5z" />
<glyph unicode="&#xd5;" horiz-adv-x="1220" d="M13 348q-6 -110 39 -201t143 -139q82 -40 171.5 -44.5t175 23.5t169 75t162 114.5t145.5 137.5t127 147q118 152 199.5 327.5t95 322.5t-79.5 210q-93 54 -211.5 23.5t-221.5 -97.5t-157 -139q-21 -29 -29.5 -51t-5.5 -51q2 -25 5 -41t7.5 -26t12.5 -10t15.5 2t21.5 13.5 t25 22t32 30.5q12 11 18 17q43 41 57.5 64.5t21.5 54t22 59.5q22 42 82 80.5t132.5 50.5t137.5 -27q49 -33 55 -124t-24.5 -205.5t-93.5 -243.5t-144 -234q-63 -81 -145.5 -160.5t-180.5 -150.5t-198 -116t-196.5 -56.5t-176.5 27.5q-77 37 -106 116.5t-13.5 178.5 t60.5 212.5t109 221t139 201.5q173 218 376.5 353t346.5 148q189 17 274 -55q19 -16 26 -6.5t-1 24.5q-3 7 -14 19t-35.5 29t-56 31t-82 23t-107.5 7q-79 -3 -176 -34.5t-205 -89.5t-223 -154t-214 -216q-84 -102 -151 -219.5t-108 -241t-47 -233.5zM1033 1608q-7 9 5 26 q11 15 28 32t52 35t70 15q53 -4 118 -29t103 -32q88 -19 135 33q11 13 24 4.5t1 -25.5q-4 -6 -9 -12.5t-20.5 -22t-32.5 -26.5t-43 -18.5t-53 -4.5q-59 7 -140 36t-102 32q-16 2 -33 -2t-27.5 -10t-27.5 -16.5t-24 -14.5q-17 -9 -24 0z" />
<glyph unicode="&#xd6;" horiz-adv-x="1220" d="M13 348q6 110 47 233.5t108 241t151 219.5q99 120 214 216t223 154t205 89.5t176 34.5q57 2 107.5 -7t82 -23t56 -31t35.5 -29t14 -19q7 -16 0.5 -24.5t-25.5 6.5q-85 72 -274 55q-143 -13 -346.5 -148t-376.5 -353q-75 -94 -139 -201.5t-109 -221t-60.5 -212.5 t13.5 -178.5t106 -116.5q80 -39 176.5 -27.5t196.5 56.5t198 116t180.5 150.5t145.5 160.5q81 105 144 234t93.5 243.5t24.5 205.5t-55 124q-65 39 -137.5 27t-132.5 -50.5t-82 -80.5q-15 -29 -22 -59.5t-21.5 -54t-57.5 -64.5q-6 -6 -18 -17q-25 -25 -36.5 -35t-28 -22.5 t-23 -11.5t-14.5 7t-11.5 24t-5.5 47q-3 29 5.5 51t29.5 51q54 72 157 139t221.5 97.5t211.5 -23.5q93 -63 79.5 -210t-95 -322.5t-199.5 -327.5q-60 -77 -127 -147t-145.5 -137.5t-162 -114.5t-169 -75t-175 -23.5t-171.5 44.5q-98 48 -143 139t-39 201zM1045.5 1661.5 q1.5 8.5 6 15.5t15.5 22.5t18 29.5q2 5 2 18.5t6 19t25 2.5q33 -6 50 -32t8 -51q-15 -45 -43 -60.5t-60 4.5q-16 9 -22.5 16t-5 15.5zM1252.5 1661.5q1.5 8.5 6 15.5t15.5 22.5t18 29.5q2 5 2 18.5t6 19t25 2.5q33 -6 49.5 -31.5t7.5 -51.5q-15 -45 -42.5 -60.5t-59.5 4.5 q-16 9 -22.5 16t-5 15.5z" />
<glyph unicode="&#xd7;" horiz-adv-x="892" d="M76 958q-11 16 2.5 38t35 30t38.5 -4q8 -7 292 -295l301 299q14 13 35.5 0t30 -34.5t-1.5 -37.5l-295 -299q71 -73 291 -293q13 -14 0.5 -36t-33.5 -30.5t-37 1.5q-76 74 -291 289q-287 -287 -299 -295q-15 -12 -36.5 1.5t-30 35.5t3.5 39q18 21 291 290 q-278 274 -297 301z" />
<glyph unicode="&#xd8;" horiz-adv-x="1220" d="M14.5 369.5q9.5 107.5 51 227t107 233t146.5 212.5q99 120 214 216t223 154t205 89.5t176 34.5q132 5 219 -45l78 98q13 17 33.5 12.5t28 -21.5t-4.5 -36l-76 -96q16 -15 18 -28.5t-9 -14.5t-31 14l-66 -84q87 -35 107.5 -135t-17.5 -227t-109.5 -261.5t-162.5 -250.5 q-49 -63 -102.5 -121.5t-117.5 -116.5t-128.5 -104.5t-136.5 -82.5t-141.5 -54.5t-143.5 -17t-142 27.5l-75 -96q-13 -17 -35 -11.5t-30.5 23t3.5 37.5l66 82q-84 53 -120.5 144t-27 198.5zM104.5 179.5q18.5 -81.5 79.5 -126.5q655 796 1039 1272q-75 1 -150 -42t-100 -91 q-15 -29 -22 -59.5t-21.5 -54t-57.5 -64.5q-6 -6 -18 -17q-25 -25 -36.5 -35t-28 -22.5t-23 -11.5t-14.5 7t-11.5 24t-5.5 47q-3 29 5.5 51t29.5 51q69 91 210.5 171.5t264.5 74.5l80 96q-85 24 -192 14q-143 -13 -346.5 -148t-376.5 -353q-71 -89 -133 -191t-107 -210.5 t-64.5 -204.5t-1 -177.5zM256 18q96 -31 219.5 1.5t241 108t221.5 169.5t180 192q82 106 144 234.5t91.5 244.5t19 209.5t-67.5 129.5q-170 -211 -1049 -1289z" />
<glyph unicode="&#xd9;" horiz-adv-x="1130" d="M-639 940q-6 29 8 64.5t37 56.5q26 26 71.5 63.5t119.5 91.5t179 113.5t216 108.5q112 49 215.5 76.5t188.5 24.5t118 -44q22 -29 30 -61t-3 -76t-27 -83.5t-55.5 -107.5t-73.5 -122.5t-97 -154t-110 -177.5q-115 -188 -165 -322t-42 -207t62 -112q72 -52 185 -3t317 201 q147 110 343.5 291.5t262.5 274.5q70 97 171 247.5t173 253t127 164.5q9 10 15 16t16 12.5t19 5.5t17 -9q41 -45 2 -125q-26 -53 -63.5 -95t-63.5 -38q-15 2 -35 -12t-49 -51.5t-54 -73.5t-67.5 -106t-70.5 -117t-80 -138q-171 -294 -260 -762q-5 -30 -31 -17q-29 15 -41 55 q-8 26 -2 50q81 336 250 641q3 4 0 5.5t-6 -1.5q-97 -104 -253.5 -244t-291.5 -243q-218 -167 -357 -227t-231 -4q-83 50 -93.5 146.5t42 233.5t170.5 340q41 71 87.5 147.5t79.5 129.5t67 108.5t55.5 93.5t39.5 75.5t25 63.5t6 48.5t-12 38.5q-45 57 -178.5 42.5 t-267.5 -83.5q-204 -105 -287 -164t-104 -121q-4 -11 -10 -29.5t-8 -25t-7.5 -20t-11 -21t-16 -21.5t-23.5 -29t-33 -36q-15 -16 -22 -23l-19.5 -19.5t-19 -16.5t-16 -9.5t-15 -4.5t-13 4t-12 12.5t-9.5 23t-9 33.5zM899 1544q17 40 47 62q9 8 22 1t17 -22q13 -46 44 -90 t65 -68q5 -5 4.5 -13.5t-11.5 -15.5t-26 -3q-23 5 -75 40t-75 66q-19 29 -12 43z" />
<glyph unicode="&#xda;" horiz-adv-x="1130" d="M-639 940q-6 29 8 64.5t37 56.5q26 26 71.5 63.5t119.5 91.5t179 113.5t216 108.5q112 49 215.5 76.5t188.5 24.5t118 -44q22 -29 30 -61t-3 -76t-27 -83.5t-55.5 -107.5t-73.5 -122.5t-97 -154t-110 -177.5q-115 -188 -165 -322t-42 -207t62 -112q72 -52 185 -3t317 201 q147 110 343.5 291.5t262.5 274.5q70 97 171 247.5t173 253t127 164.5q9 10 15 16t16 12.5t19 5.5t17 -9q41 -45 2 -125q-26 -53 -63.5 -95t-63.5 -38q-15 2 -35 -12t-49 -51.5t-54 -73.5t-67.5 -106t-70.5 -117t-80 -138q-171 -294 -260 -762q-5 -30 -31 -17q-29 15 -41 55 q-8 26 -2 50q81 336 250 641q3 4 0 5.5t-6 -1.5q-97 -104 -253.5 -244t-291.5 -243q-218 -167 -357 -227t-231 -4q-83 50 -93.5 146.5t42 233.5t170.5 340q41 71 87.5 147.5t79.5 129.5t67 108.5t55.5 93.5t39.5 75.5t25 63.5t6 48.5t-12 38.5q-45 57 -178.5 42.5 t-267.5 -83.5q-204 -105 -287 -164t-104 -121q-4 -11 -10 -29.5t-8 -25t-7.5 -20t-11 -21t-16 -21.5t-23.5 -29t-33 -36q-15 -16 -22 -23l-19.5 -19.5t-19 -16.5t-16 -9.5t-15 -4.5t-13 4t-12 12.5t-9.5 23t-9 33.5zM976.5 1477q-0.5 9 4.5 14q34 24 65 68t44 90 q4 15 16.5 21.5t21.5 -1.5q32 -24 48 -61q7 -13 -13 -43q-23 -31 -74.5 -66.5t-74.5 -40.5q-15 -4 -26 3t-11.5 16z" />
<glyph unicode="&#xdb;" horiz-adv-x="1130" d="M-639 940q-6 29 8 64.5t37 56.5q26 26 71.5 63.5t119.5 91.5t179 113.5t216 108.5q112 49 215.5 76.5t188.5 24.5t118 -44q22 -29 30 -61t-3 -76t-27 -83.5t-55.5 -107.5t-73.5 -122.5t-97 -154t-110 -177.5q-115 -188 -165 -322t-42 -207t62 -112q72 -52 185 -3t317 201 q147 110 343.5 291.5t262.5 274.5q70 97 171 247.5t173 253t127 164.5q9 10 15 16t16 12.5t19 5.5t17 -9q41 -45 2 -125q-26 -53 -63.5 -95t-63.5 -38q-15 2 -35 -12t-49 -51.5t-54 -73.5t-67.5 -106t-70.5 -117t-80 -138q-171 -294 -260 -762q-5 -30 -31 -17q-29 15 -41 55 q-8 26 -2 50q81 336 250 641q3 4 0 5.5t-6 -1.5q-97 -104 -253.5 -244t-291.5 -243q-218 -167 -357 -227t-231 -4q-83 50 -93.5 146.5t42 233.5t170.5 340q41 71 87.5 147.5t79.5 129.5t67 108.5t55.5 93.5t39.5 75.5t25 63.5t6 48.5t-12 38.5q-45 57 -178.5 42.5 t-267.5 -83.5q-204 -105 -287 -164t-104 -121q-4 -11 -10 -29.5t-8 -25t-7.5 -20t-11 -21t-16 -21.5t-23.5 -29t-33 -36q-15 -16 -22 -23l-19.5 -19.5t-19 -16.5t-16 -9.5t-15 -4.5t-13 4t-12 12.5t-9.5 23t-9 33.5zM809 1501q29 56 106 132.5t132 76.5q56 0 127.5 -78 t101.5 -139q12 -25 -9.5 -42.5t-41.5 5.5q-40 50 -127 137q-60 60 -117 0q-10 -11 -37 -42t-49.5 -54t-38.5 -35q-29 -21 -45.5 -6.5t-1.5 45.5z" />
<glyph unicode="&#xdc;" horiz-adv-x="1130" d="M-639 940q-6 29 8 64.5t37 56.5q26 26 71.5 63.5t119.5 91.5t179 113.5t216 108.5q112 49 215.5 76.5t188.5 24.5t118 -44q22 -29 30 -61t-3 -76t-27 -83.5t-55.5 -107.5t-73.5 -122.5t-97 -154t-110 -177.5q-115 -188 -165 -322t-42 -207t62 -112q72 -52 185 -3t317 201 q147 110 343.5 291.5t262.5 274.5q70 97 171 247.5t173 253t127 164.5q9 10 15 16t16 12.5t19 5.5t17 -9q41 -45 2 -125q-26 -53 -63.5 -95t-63.5 -38q-15 2 -35 -12t-49 -51.5t-54 -73.5t-67.5 -106t-70.5 -117t-80 -138q-171 -294 -260 -762q-5 -30 -31 -17q-29 15 -41 55 q-8 26 -2 50q81 336 250 641q3 4 0 5.5t-6 -1.5q-97 -104 -253.5 -244t-291.5 -243q-218 -167 -357 -227t-231 -4q-83 50 -93.5 146.5t42 233.5t170.5 340q41 71 87.5 147.5t79.5 129.5t67 108.5t55.5 93.5t39.5 75.5t25 63.5t6 48.5t-12 38.5q-45 57 -178.5 42.5 t-267.5 -83.5q-204 -105 -287 -164t-104 -121q-4 -11 -10 -29.5t-8 -25t-7.5 -20t-11 -21t-16 -21.5t-23.5 -29t-33 -36q-15 -16 -22 -23l-19.5 -19.5t-19 -16.5t-16 -9.5t-15 -4.5t-13 4t-12 12.5t-9.5 23t-9 33.5zM894.5 1530.5q1.5 8.5 6 15t15.5 22t18 29.5q2 5 2 19 t6 19.5t25 2.5q33 -6 49.5 -32t7.5 -52q-15 -45 -42.5 -60t-59.5 5q-16 9 -22.5 16t-5 15.5zM1101 1530.5q2 8.5 6.5 15t15 22t18.5 29.5q2 5 2 19t6 19.5t25 2.5q33 -6 49.5 -32t7.5 -52q-15 -45 -43 -60t-60 5q-16 9 -22.5 16t-4.5 15.5z" />
<glyph unicode="&#xdd;" horiz-adv-x="1705" d="M31 70q15 76 58 142t91.5 107.5t109.5 75.5t100.5 49t74.5 25q112 30 133 2q6 -8 3 -16t-16 -13.5t-32 -5.5q-15 0 -31 6t-30 4q-40 -7 -87.5 -26t-103 -52.5t-102.5 -75.5t-84 -101.5t-49 -124.5q-17 -92 9 -176.5t81.5 -144t126.5 -100t147 -53.5q109 -19 221.5 0 t214.5 69.5t191 116t174 148.5q88 86 177 201.5t174 253t129.5 215t110.5 198.5q13 24 19 35q3 6 -0.5 7t-7.5 -5q-189 -220 -391 -389q-205 -170 -338.5 -230t-237.5 -13q-244 108 -10 544q18 33 47.5 86t51.5 93.5t50.5 93t48.5 93.5t41.5 86.5t33.5 81t20.5 68t6.5 56 t-13 37.5q-25 31 -93 41t-161 -6.5t-176 -59.5q-208 -107 -296.5 -168.5t-109.5 -122.5q-4 -12 -11 -33.5t-9.5 -28.5t-9.5 -22t-16 -26.5t-24 -29.5t-38 -42q-19 -20 -28 -29.5t-24 -22.5t-23 -16t-19 -4t-17.5 7t-13 24t-11.5 41q-6 29 8.5 64t37.5 57q26 26 71.5 63.5 t119 91.5t178.5 113.5t216 108.5t209 74t176.5 19.5t112.5 -46.5q53 -65 46 -138q-8 -87 -113 -292q-47 -91 -185 -342q-51 -93 -77.5 -173.5t-29 -131t7.5 -88.5t24 -55t28 -23q94 -39 216.5 17t317.5 212q107 85 269 261.5t237 281.5q42 59 95 133.5t74 104.5t52.5 72.5 t58.5 74.5t64 74q21 24 55.5 46t49.5 7q41 -45 2 -125q-24 -48 -62 -88.5t-65 -44.5q-19 -3 -38.5 -14.5t-40 -34.5t-38 -47t-42 -63.5t-42.5 -70.5t-47.5 -83t-50.5 -87q-25 -42 -89 -157t-120.5 -210t-133 -214.5t-165.5 -231t-180 -200.5q-392 -384 -846 -308 q-95 16 -175 60t-136.5 109.5t-79.5 157.5t-2 196zM1588.5 1442q-0.5 9 4.5 14q34 24 65 68t44 90q4 15 17 21.5t22 -1.5q30 -23 47 -61q7 -14 -12 -43q-23 -31 -75 -66.5t-75 -40.5q-15 -4 -26 3t-11.5 16z" />
<glyph unicode="&#xde;" horiz-adv-x="888" d="M-92 48v3q3 16 70 145t126 230l273 463q71 122 85.5 155.5t10.5 67.5q-3 22 9.5 50t24 44.5t36.5 48.5q17 22 32 24.5t27.5 -10t26.5 -40.5q12 -25 -6 -55q-30 -53 -95 -153t-92 -144q-111 -183 -170 -281q-3 -5 -1.5 -6.5t5.5 2.5q53 53 120 108.5t142 107t142 74 t104 1.5q35 -20 40 -65t-13 -95.5t-53 -101.5q75 -14 129 -50q39 -24 57.5 -60t11.5 -52q-13 -24 -46 33l-5 8q-7 13 -5 18.5t0.5 11t-11.5 13.5q-58 45 -146 59q-59 -80 -149 -156q-63 -51 -146 -74.5t-157 -11.5q-55 9 -65.5 47t22.5 76q64 80 179.5 116.5t235.5 33.5 q57 75 81 136t-1 87q-34 25 -134 -29.5t-206.5 -147t-167.5 -175.5q-6 -8 -25 -33t-32.5 -45t-24.5 -41q-61 -110 -119.5 -229t-64.5 -148q-7 -33 -32 -6q-23 24 -23 46zM243.5 415q9.5 -24 55.5 -28q92 -7 238 117q46 39 104 108q-95 7 -214.5 -34t-170.5 -113 q-22 -26 -12.5 -50z" />
<glyph unicode="&#xdf;" horiz-adv-x="958" d="M-233.5 -255.5q-1.5 23.5 14.5 48.5q118 237 214.5 409.5t264.5 434.5q148 230 268.5 377t243.5 252q38 32 88 52t113 16t110 -46q36 -31 53 -87t4 -130.5t-63 -140.5q-51 -68 -109.5 -111.5t-107.5 -59t-96 -22t-80.5 -5t-57 -4t-28.5 -21.5q-3 -10 2 -23t17 -26 t23.5 -23.5t27 -23t20.5 -17.5q73 -68 90 -167t-33 -175q17 -3 33.5 -8t24.5 -8t27.5 -12.5t25.5 -12.5q42 -21 70 -48.5t26 -43.5q-3 -27 -51 12q-11 8 -19.5 26t-21.5 25q-68 39 -129 51q-62 -86 -147 -153q-63 -51 -148.5 -75.5t-159.5 -12.5q-55 9 -65.5 47t22.5 76 q64 80 179.5 116t236.5 33q53 69 57 156t-38 135q-65 75 -79 102q-19 36 -9 62q8 21 39.5 29t75.5 13.5t93.5 19t104 57.5t96.5 116t55.5 143.5t5.5 115t-26 61.5q-70 67 -211 -41q-47 -36 -96 -89t-87 -101t-96.5 -136t-92 -141t-105.5 -170q-132 -214 -194.5 -318 t-140.5 -250.5t-138 -285.5q-26 -58 -36 -65q-11 -7 -28 12q-31 32 -32.5 55.5zM235.5 46q9.5 -24 55.5 -28q91 -7 237 117q47 40 105 109q-96 7 -215 -34.5t-170 -113.5q-22 -26 -12.5 -50z" />
<glyph unicode="&#xe0;" horiz-adv-x="888" d="M-69 119.5q17 73.5 77 152t135 131.5q108 77 222.5 105.5t201 4.5t121.5 -95q7 -10 2.5 -26.5t-18.5 -22.5t-23.5 5t-19.5 36q-21 52 -75.5 70t-144.5 -10.5t-194 -109.5q-116 -89 -181.5 -193t-25.5 -136q32 -26 112 9t160.5 96.5t135.5 121.5q41 44 71.5 83.5 t40.5 56.5l11 18q0 1 0.5 2t2 4.5t3.5 6t5 4.5t6 1.5t7.5 -3.5t9.5 -9q18 -24 24.5 -57.5t-1.5 -63.5q-22 -74 -53 -76q-14 -1 -34 -29t-34.5 -63t-21 -67t7.5 -39q25 -16 89.5 -0.5t141.5 51.5q130 62 193 121q11 10 16 27t17 26q48 39 51 12q1 -13 -14 -29t-55 -51 q-7 -7 -11 -10q-67 -58 -193 -119q-80 -39 -157.5 -55.5t-114.5 0.5q-45 28 -40 76.5t60 156.5q3 6 -0.5 9.5t-9.5 -2.5q-34 -35 -77 -72t-99.5 -78.5t-107.5 -66t-101.5 -34.5t-81.5 15q-53 42 -36 115.5zM319 721q16 37 48 61q9 8 22 1.5t17 -21.5q13 -47 43.5 -90.5 t64.5 -67.5q5 -5 4.5 -14t-11.5 -16t-26 -3q-23 5 -74.5 40.5t-74.5 66.5q-20 30 -13 43z" />
<glyph unicode="&#xe1;" horiz-adv-x="888" d="M-69 119.5q17 73.5 77 152t135 131.5q108 77 222.5 105.5t201 4.5t121.5 -95q7 -10 2.5 -26.5t-18.5 -22.5t-23.5 5t-19.5 36q-21 52 -75.5 70t-144.5 -10.5t-194 -109.5q-116 -89 -181.5 -193t-25.5 -136q32 -26 112 9t160.5 96.5t135.5 121.5q41 44 71.5 83.5 t40.5 56.5l11 18q0 1 0.5 2t2 4.5t3.5 6t5 4.5t6 1.5t7.5 -3.5t9.5 -9q18 -24 24.5 -57.5t-1.5 -63.5q-22 -74 -53 -76q-14 -1 -34 -29t-34.5 -63t-21 -67t7.5 -39q25 -16 89.5 -0.5t141.5 51.5q130 62 193 121q11 10 16 27t17 26q48 39 51 12q1 -13 -14 -29t-55 -51 q-7 -7 -11 -10q-67 -58 -193 -119q-80 -39 -157.5 -55.5t-114.5 0.5q-45 28 -40 76.5t60 156.5q3 6 -0.5 9.5t-9.5 -2.5q-34 -35 -77 -72t-99.5 -78.5t-107.5 -66t-101.5 -34.5t-81.5 15q-53 42 -36 115.5zM405.5 588q-0.5 9 4.5 14q34 24 64.5 67.5t43.5 90.5q4 15 17 21.5 t22 -1.5q30 -23 47 -61q7 -14 -12 -43q-23 -31 -75 -66.5t-75 -40.5q-15 -4 -25.5 3t-11 16z" />
<glyph unicode="&#xe2;" horiz-adv-x="888" d="M-69 119.5q-17 -73.5 36 -115.5q31 -25 81.5 -15t101.5 34.5t107.5 66t99.5 78.5t77 72q6 6 9.5 2.5t0.5 -9.5q-55 -108 -60 -156.5t40 -76.5q37 -17 114.5 -0.5t157.5 55.5q126 61 193 119q65 57 74 72q7 10 6 18q-3 27 -51 -12q-12 -9 -17 -26t-16 -27 q-63 -59 -193 -121q-77 -36 -141.5 -51.5t-89.5 0.5q-14 7 -7.5 39t21 67t34.5 63t34 29q31 2 53 76q8 30 1.5 63.5t-24.5 57.5q-11 14 -19 12.5t-12 -10.5l-3 -8q-31 -60 -123 -158q-55 -60 -135.5 -121.5t-160.5 -96.5t-112 -9q-40 32 25.5 136t181.5 193 q104 81 194 109.5t144.5 10.5t75.5 -70q10 -25 19.5 -36t23.5 -5t18.5 22.5t-2.5 26.5q-35 71 -121.5 95t-201 -4.5t-222.5 -105.5q-75 -53 -135 -131.5t-77 -152zM238 590q29 56 105.5 132.5t131.5 76.5q56 0 128 -78t102 -139q12 -25 -10 -42.5t-42 5.5q-40 50 -127 137 q-60 60 -116 0q-10 -11 -37 -42t-49.5 -54t-38.5 -35q-29 -21 -45.5 -6.5t-1.5 45.5z" />
<glyph unicode="&#xe3;" horiz-adv-x="888" d="M-69 119.5q-17 -73.5 36 -115.5q31 -25 81.5 -15t101.5 34.5t107.5 66t99.5 78.5t77 72q6 6 9.5 2.5t0.5 -9.5q-55 -108 -60 -156.5t40 -76.5q37 -17 114.5 -0.5t157.5 55.5q126 61 193 119q65 57 74 72q7 10 6 18q-3 27 -51 -12q-12 -9 -17 -26t-16 -27 q-63 -59 -193 -121q-77 -36 -141.5 -51.5t-89.5 0.5q-14 7 -7.5 39t21 67t34.5 63t34 29q31 2 53 76q8 30 1.5 63.5t-24.5 57.5q-11 14 -19 12.5t-12 -10.5l-3 -8q-31 -60 -123 -158q-55 -60 -135.5 -121.5t-160.5 -96.5t-112 -9q-40 32 25.5 136t181.5 193 q104 81 194 109.5t144.5 10.5t75.5 -70q10 -25 19.5 -36t23.5 -5t18.5 22.5t-2.5 26.5q-35 71 -121.5 95t-201 -4.5t-222.5 -105.5q-75 -53 -135 -131.5t-77 -152zM212 586q-7 9 5 26q11 15 28 32t52 35t70 15q53 -4 118 -29t103 -32q88 -19 135 33q11 13 24 4.5t1 -25.5 q-4 -6 -9 -12.5t-20.5 -22t-32.5 -26.5t-43 -18.5t-53 -4.5q-59 7 -140 36t-102 32q-16 2 -33 -2t-27.5 -10t-27.5 -16.5t-24 -14.5q-17 -9 -24 0z" />
<glyph unicode="&#xe4;" horiz-adv-x="888" d="M-69 119.5q17 73.5 77 152t135 131.5q108 77 222.5 105.5t201 4.5t121.5 -95q7 -10 2.5 -26.5t-18.5 -22.5t-23.5 5t-19.5 36q-21 52 -75.5 70t-144.5 -10.5t-194 -109.5q-116 -89 -181.5 -193t-25.5 -136q32 -26 112 9t160.5 96.5t135.5 121.5q41 44 71.5 83.5 t40.5 56.5l11 18q0 1 0.5 2t2 4.5t3.5 6t5 4.5t6 1.5t7.5 -3.5t9.5 -9q18 -24 24.5 -57.5t-1.5 -63.5q-22 -74 -53 -76q-14 -1 -34 -29t-34.5 -63t-21 -67t7.5 -39q25 -16 89.5 -0.5t141.5 51.5q130 62 193 121q11 10 16 27t17 26q48 39 51 12q1 -13 -14 -29t-55 -51 q-7 -7 -11 -10q-67 -58 -193 -119q-80 -39 -157.5 -55.5t-114.5 0.5q-45 28 -40 76.5t60 156.5q3 6 -0.5 9.5t-9.5 -2.5q-34 -35 -77 -72t-99.5 -78.5t-107.5 -66t-101.5 -34.5t-81.5 15q-53 42 -36 115.5zM318.5 609.5q1.5 8.5 6 15t15.5 22t18 29.5q2 5 2 19t6 19.5 t25 2.5q33 -6 50 -32t8 -52q-15 -45 -43 -60t-60 5q-16 9 -22.5 16t-5 15.5zM525.5 609.5q1.5 8.5 6 15t15.5 22t18 29.5q2 5 2 19t6 19.5t25 2.5q33 -6 49.5 -32t7.5 -52q-15 -45 -42.5 -60t-59.5 5q-16 9 -22.5 16t-5 15.5z" />
<glyph unicode="&#xe5;" horiz-adv-x="888" d="M-69 119.5q-17 -73.5 36 -115.5q31 -25 81.5 -15t101.5 34.5t107.5 66t99.5 78.5t77 72q6 6 9.5 2.5t0.5 -9.5q-55 -108 -60 -156.5t40 -76.5q37 -17 114.5 -0.5t157.5 55.5q126 61 193 119q65 57 74 72q7 10 6 18q-3 27 -51 -12q-12 -9 -17 -26t-16 -27 q-63 -59 -193 -121q-77 -36 -141.5 -51.5t-89.5 0.5q-14 7 -7.5 39t21 67t34.5 63t34 29q31 2 53 76q8 30 1.5 63.5t-24.5 57.5q-11 14 -19 12.5t-12 -10.5l-3 -8q-31 -60 -123 -158q-55 -60 -135.5 -121.5t-160.5 -96.5t-112 -9q-40 32 25.5 136t181.5 193 q104 81 194 109.5t144.5 10.5t75.5 -70q10 -25 19.5 -36t23.5 -5t18.5 22.5t-2.5 26.5q-35 71 -121.5 95t-201 -4.5t-222.5 -105.5q-75 -53 -135 -131.5t-77 -152zM374 642q-14 47 13 97q28 47 80.5 67.5t101.5 2.5q47 -19 61.5 -67t-12.5 -95q-28 -49 -81 -70t-101 -2 q-48 20 -62 67zM426 682q0 -40 21 -68t53 -28t54.5 33.5t20.5 76.5q0 39 -23.5 68t-53.5 27q-30 -3 -51 -35t-21 -74z" />
<glyph unicode="&#xe6;" horiz-adv-x="1024" d="M-177 119.5q17 73.5 77 152t135 131.5q96 68 198.5 98.5t185.5 19t130 -61.5q67 37 132.5 51t108.5 7t58 -28q29 -42 -15.5 -99.5t-130.5 -100.5q-48 -25 -106 -39.5t-99 -14.5t-69 7q-40 -52 -48 -113.5t28 -85.5q86 -49 287 11.5t329 164.5q12 9 20 30t19 30 q51 40 55 10q1 -14 -27 -43t-71 -60q-66 -46 -147.5 -87.5t-174 -73t-173.5 -36.5t-144 23q-58 29 -70 94.5t25 141.5l-10 -8q-34 -35 -77 -72t-99.5 -78.5t-107.5 -66t-101.5 -34.5t-81.5 15q-53 42 -36 115.5zM-100 31q32 -26 111.5 9t160 96.5t135.5 121.5 q114 122 199 176q-21 30 -58 43t-87.5 7.5t-116.5 -37t-138 -87.5q-116 -89 -181 -193t-25 -136zM442 264q35 -12 110 -1.5t134 42.5q56 31 98.5 79t26.5 75q-8 13 -25 17.5t-44 -1t-60.5 -20.5t-76 -43.5t-87.5 -67.5q-55 -48 -76 -80z" />
<glyph unicode="&#xe7;" horiz-adv-x="679" d="M-65.5 73q-18.5 59 13.5 136.5t107 152.5q81 81 176.5 117.5t176.5 34.5q80 -3 104 -39q2 5 5.5 12.5t19 22t36.5 18.5q34 7 36.5 -8.5t-17.5 -52.5q-22 -44 -75.5 -99.5t-84.5 -52.5q-10 1 -12.5 2.5t0 4.5t8.5 9q5 4 8.5 7t9.5 10t10.5 12.5t11 15t11.5 19t10 22 t9 25.5q5 16 -23 31t-69 16q-55 1 -130 -42.5t-147 -118.5q-65 -67 -96 -132t-26.5 -108.5t38.5 -60.5q56 -28 176 0.5t240 86t207 119.5q12 8 19 24.5t18 25.5q51 40 55 10q3 -26 -96 -92q-133 -87 -304 -158q-19 -24 -26 -49t6 -45q11 -12 33.5 -13.5t44 3.5t45.5 10.5 t33 5.5q29 0 42 -27t-6 -73q-57 -120 -192 -162q-91 -22 -159.5 -9.5t-102.5 44.5q-14 12 -4 35.5t32 27.5q13 2 23 -8.5t28 -26t46 -20.5q37 -5 76.5 -6.5t83 12.5t69.5 41q45 45 39 87t-65 32q-17 -3 -48.5 -10.5t-50 -11.5t-39.5 -4.5t-31 9t-10 29.5q0 38 6 86 q-135 -37 -215 -10q-65 24 -83.5 83z" />
<glyph unicode="&#xe8;" horiz-adv-x="657" d="M-71 103q-11 63 28.5 142t120.5 148q80 68 166.5 99.5t143 27.5t75.5 -31q29 -42 -15.5 -99.5t-130.5 -100.5q-48 -25 -106 -39.5t-99 -14.5t-69 7q-42 -66 -49.5 -124.5t26.5 -80.5q71 -35 183 -15.5t232.5 74.5t203.5 123q11 9 19 30t20 30q51 40 55 10q1 -14 -27 -43 t-71 -60q-66 -46 -147.5 -87.5t-174 -73t-173.5 -36.5t-144 23q-56 28 -67 91zM57 264q35 -12 110 -1.5t134 42.5q56 31 98.5 79t26.5 75q-8 13 -25 17.5t-44 -1t-60.5 -20.5t-76 -43.5t-87.5 -67.5q-55 -48 -76 -80zM238 721q17 38 47 61q9 8 22 1.5t17 -21.5 q13 -47 43.5 -90.5t64.5 -67.5q5 -5 4.5 -14t-11.5 -16t-26 -3q-23 5 -74.5 40.5t-74.5 66.5q-19 29 -12 43z" />
<glyph unicode="&#xe9;" horiz-adv-x="657" d="M-69 103q-11 63 28.5 142t120.5 148q80 68 166.5 99.5t143 27.5t75.5 -31q29 -42 -15.5 -99.5t-130.5 -100.5q-48 -25 -106 -39.5t-99 -14.5t-69 7q-42 -66 -49 -124.5t27 -80.5q71 -35 182.5 -15.5t231.5 74.5t204 123q11 9 19 30t20 30q51 40 55 10q1 -14 -27 -43 t-71 -60q-66 -46 -147.5 -87.5t-174 -73t-173.5 -36.5t-144 23q-56 28 -67 91zM59 264q35 -12 110 -1.5t134 42.5q56 31 98.5 79t26.5 75q-8 13 -25 17.5t-44 -1t-60.5 -20.5t-76 -43.5t-87.5 -67.5q-55 -48 -76 -80zM241.5 576q-0.5 9 4.5 14q34 24 64.5 67.5t43.5 90.5 q4 15 17 21.5t22 -1.5q30 -23 47 -61q7 -14 -12 -43q-23 -31 -74.5 -66.5t-74.5 -40.5q-15 -4 -26 3t-11.5 16z" />
<glyph unicode="&#xea;" horiz-adv-x="657" d="M-69 103q11 -63 67 -91q63 -28 144 -23t173.5 36.5t174 73t147.5 87.5q43 31 71 60t27 43q-3 31 -51 -7l-4 -3q-12 -9 -20 -30t-19 -30q-84 -68 -204 -123t-231.5 -74.5t-182.5 15.5q-34 22 -27 80.5t49 124.5q28 -7 69 -7t99 14.5t106 39.5q86 43 130.5 100.5t15.5 99.5 q-19 27 -75.5 31t-143 -27.5t-166.5 -99.5q-81 -69 -120.5 -148t-28.5 -142zM59 264q21 32 76 80q45 39 87.5 67.5t76 43.5t60.5 20.5t44 1t25 -17.5q16 -27 -26.5 -75t-98.5 -79q-59 -32 -134 -42.5t-110 1.5zM106 590q29 56 106 132.5t132 76.5q56 0 127.5 -78t101.5 -139 q12 -25 -9.5 -42.5t-41.5 5.5q-40 50 -127 137q-60 60 -116 0q-10 -11 -37 -42t-49.5 -54t-38.5 -35q-29 -21 -46 -6.5t-2 45.5z" />
<glyph unicode="&#xeb;" horiz-adv-x="657" d="M-69 103q-11 63 28.5 142t120.5 148q80 68 166.5 99.5t143 27.5t75.5 -31q29 -42 -15.5 -99.5t-130.5 -100.5q-48 -25 -106 -39.5t-99 -14.5t-69 7q-42 -66 -49 -124.5t27 -80.5q71 -35 182.5 -15.5t231.5 74.5t204 123q11 9 19 30t20 30q51 40 55 10q1 -14 -27 -43 t-71 -60q-66 -46 -147.5 -87.5t-174 -73t-173.5 -36.5t-144 23q-56 28 -67 91zM59 264q35 -12 110 -1.5t134 42.5q56 31 98.5 79t26.5 75q-8 13 -25 17.5t-44 -1t-60.5 -20.5t-76 -43.5t-87.5 -67.5q-55 -48 -76 -80zM202 600.5q2 8.5 6.5 15.5t15.5 22.5t18 29.5 q5 10 2.5 20t4 17t25.5 4q33 -6 50 -32t8 -52q-15 -45 -43 -60.5t-60 4.5q-16 9 -22.5 16t-4.5 15.5zM409 600.5q2 8.5 6.5 15.5t15.5 22.5t18 29.5q5 10 2.5 20t4 17t25.5 4q33 -6 50 -32t8 -52q-15 -45 -43 -60.5t-60 4.5q-16 9 -22.5 16t-4.5 15.5z" />
<glyph unicode="&#xec;" horiz-adv-x="432" d="M-65 93.5q14 64.5 98 199.5q26 41 28 57q1 10 -2 21q-2 8 -2 16.5t1 15.5t5 15.5t8 14.5t11 15.5t12 16t14.5 17.5t14.5 18q15 18 24 23t22 -7t30 -49q7 -14 7 -30.5t-5 -24.5q-3 -5 -95 -142q-1 -1 -12 -17.5t-17 -26t-18.5 -29.5t-20 -34t-17.5 -33.5t-14 -34t-7.5 -29 t-0.5 -25t11 -16.5q45 -34 226 51q123 59 192 123q11 10 16 27t17 26q48 39 51 12q3 -26 -80 -92q-85 -68 -190 -119q-80 -39 -155.5 -55.5t-113.5 0.5q-52 31 -38 95.5zM178 719q-5 36 8 45q33 26 70 33q11 3 19.5 -8.5t5.5 -26.5q-9 -50 -1.5 -103t27.5 -88q6 -10 -7 -19 q-18 -12 -36 5q-19 15 -49.5 69.5t-36.5 92.5z" />
<glyph unicode="&#xed;" horiz-adv-x="432" d="M-65 93.5q14 64.5 98 199.5q26 41 28 57q1 10 -2 21q-2 8 -2 16.5t1 15.5t5 15.5t8 14.5t11 15.5t12 16t14.5 17.5t14.5 18q15 18 24 23t22 -7t30 -49q7 -14 7 -30.5t-5 -24.5q-3 -5 -95 -142q-1 -1 -12 -17.5t-17 -26t-18.5 -29.5t-20 -34t-17.5 -33.5t-14 -34t-7.5 -29 t-0.5 -25t11 -16.5q45 -34 226 51q123 59 192 123q11 10 16 27t17 26q48 39 51 12q3 -26 -80 -92q-85 -68 -190 -119q-80 -39 -155.5 -55.5t-113.5 0.5q-52 31 -38 95.5zM267.5 602.5q-0.5 8.5 4.5 13.5q34 24 65 68t44 90q4 15 17 22t22 -1q30 -22 47 -62q7 -14 -12 -43 q-23 -31 -75 -66t-75 -40q-15 -4 -26 3t-11.5 15.5z" />
<glyph unicode="&#xee;" horiz-adv-x="432" d="M-65 93.5q-14 -64.5 38 -95.5q38 -17 113.5 -0.5t155.5 55.5q105 51 190 119q83 66 80 92q-3 27 -51 -12q-12 -9 -17 -26t-16 -27q-69 -64 -192 -123q-181 -85 -226 -51q-8 6 -11 16.5t0.5 25t7.5 29t14 34t17.5 33.5t20 34t18.5 29.5t17 26t12 17.5q92 137 95 142 q5 8 5 24.5t-7 30.5q-17 37 -30 49t-22 7t-24 -23q-5 -7 -14.5 -18t-14.5 -17.5t-12 -16t-11 -15.5t-8 -14.5t-5 -15.5t-1 -15.5t2 -16.5q1 -4 1.5 -8.5t1 -7.5t-0.5 -7.5t-1.5 -7t-3 -7.5l-3.5 -7t-4.5 -8t-4.5 -7.5t-5.5 -8.5t-5.5 -9q-84 -135 -98 -199.5zM12 584 q29 56 106 132.5t132 76.5q38 0 89 -43.5t87 -91.5t53 -83q12 -25 -9.5 -42t-41.5 6q-40 50 -127 137q-60 60 -117 0q-10 -11 -37 -42t-49.5 -54t-38.5 -35q-29 -21 -45.5 -6.5t-1.5 45.5z" />
<glyph unicode="&#xef;" horiz-adv-x="432" d="M-65 93.5q14 64.5 98 199.5q26 41 28 57q1 10 -2 21q-2 8 -2 16.5t1 15.5t5 15.5t8 14.5t11 15.5t12 16t14.5 17.5t14.5 18q15 18 24 23t22 -7t30 -49q7 -14 7 -30.5t-5 -24.5q-3 -5 -95 -142q-1 -1 -12 -17.5t-17 -26t-18.5 -29.5t-20 -34t-17.5 -33.5t-14 -34t-7.5 -29 t-0.5 -25t11 -16.5q45 -34 226 51q123 59 192 123q11 10 16 27t17 26q48 39 51 12q3 -26 -80 -92q-85 -68 -190 -119q-80 -39 -155.5 -55.5t-113.5 0.5q-52 31 -38 95.5zM48.5 635.5q1.5 8.5 6 15t15.5 22t18 29.5q2 5 2 19t6 19.5t25 2.5q33 -6 49.5 -32t7.5 -52 q-15 -45 -42.5 -60t-59.5 5q-16 9 -22.5 16t-5 15.5zM255.5 635.5q1.5 8.5 6 15t15.5 22t18 29.5q2 5 2 19t6 19.5t25 2.5q33 -6 49.5 -32t7.5 -52q-15 -45 -42.5 -60t-59.5 5q-16 9 -22.5 16t-5 15.5z" />
<glyph unicode="&#xf0;" horiz-adv-x="614" d="M-33.5 92.5q-6.5 55.5 24.5 132t99 144.5q75 73 171 107t177 5q8 -3 9 -8.5t-4 -9.5t-15 -4q-71 0 -144 -41t-128 -101q-70 -77 -103.5 -167.5t-7.5 -116.5q37 -37 93 -24.5t110 50.5t100 91q99 117 178 337q29 76 47 197q-77 -22 -165 -22q-22 0 -24 17q-1 14 11 15 q91 -3 183 23q10 113 -9 164q-9 22 -34.5 27.5t-34.5 25.5q-29 60 -7 76q10 7 25 0q36 -15 79.5 -55.5t55.5 -100.5q6 -35 6 -102q93 39 134 92q6 8 18 -1q17 -13 -2 -30q-78 -75 -152 -104q-7 -122 -63 -248q-82 -184 -215 -334q-50 -57 -115.5 -97.5t-136 -53t-121.5 31.5 q-33 29 -39.5 84.5z" />
<glyph unicode="&#xf1;" horiz-adv-x="886" d="M-106 51q-3 -20 14 -43q22 -29 41 0q51 83 143 173t193 159q99 68 168.5 98t91.5 13q33 -27 -29 -121q-39 -58 -63.5 -99.5t-46.5 -92t-18.5 -86t34.5 -52.5q36 -17 115.5 -1t158.5 54q30 14 56.5 29t48.5 29.5t35 24t30.5 23t20.5 15.5q83 61 80 90q-3 28 -52 -12 q-12 -9 -16.5 -26t-15.5 -27q-68 -63 -193 -123q-76 -36 -138.5 -50t-92.5 1q-9 6 -13 15t-2 21.5t6 25.5t14 30t18.5 31t23 33.5t25 33t26 33.5t23.5 31q57 76 71 108q36 81 -28 123q-42 28 -143 -20t-216 -132q-152 -111 -217 -176q-5 -4 -7 -2t1 8q7 14 72 113t71 109 q18 30 6 55q-17 37 -30 48.5t-21.5 7t-23.5 -22.5q-5 -7 -14.5 -18t-14.5 -17.5t-12 -16t-11 -15.5t-8 -14.5t-5 -15.5t-1 -15.5t2 -16.5q8 -31 -31 -92q-20 -30 -71.5 -122.5t-54.5 -105.5zM291.5 604.5q-6.5 9.5 5.5 26.5q11 16 27.5 32.5t51.5 34.5t70 15 q53 -4 118.5 -29.5t103.5 -32.5q88 -19 135 33q11 13 23.5 5t0.5 -25q-4 -6 -8.5 -12.5t-20.5 -22t-32.5 -26.5t-42.5 -18.5t-53 -4.5q-59 7 -140 35.5t-102 31.5q-16 2 -33.5 -2t-27.5 -10l-27.5 -16.5t-24.5 -14.5q-17 -9 -23.5 0.5z" />
<glyph unicode="&#xf2;" horiz-adv-x="649" d="M-56.5 93.5q-6.5 55.5 24 131.5t98.5 144q80 77 153 108q24 40 60 68t72.5 38.5t73 7.5t60 -26.5t34 -62.5t-4.5 -101q-33 -134 -172 -260q75 -34 159 -20.5t150 69.5q9 9 15 25t18 25q50 41 58 19l1 -5q3 -26 -94 -94q-154 -111 -327 -35q-28 -26 -59.5 -49.5t-71.5 -47 t-76.5 -36t-72 -10t-60.5 25.5q-32 30 -38.5 85.5zM7.5 72.5q0.5 -28.5 12.5 -39.5q28 -20 62.5 -18.5t76.5 23.5t76.5 48t61.5 53q-55 37 -85.5 99.5t-25.5 128.5q-42 -27 -77.5 -67.5t-56.5 -81t-33 -79t-11.5 -67zM205 381q-7 -65 23.5 -127t86.5 -98q109 111 142 252 q17 74 -14 116.5t-87.5 33t-105.5 -70.5q90 26 164 -6q12 -6 8 -14t-19 -8q-91 0 -198 -78zM385 768q17 38 47 61q9 8 22 1.5t17 -21.5q13 -46 44 -90t65 -68q5 -5 4.5 -14t-11.5 -16t-26 -3q-23 5 -75 40.5t-75 66.5q-19 29 -12 43z" />
<glyph unicode="&#xf3;" horiz-adv-x="649" d="M-56.5 93.5q-6.5 55.5 24 131.5t98.5 144q80 77 153 108q24 40 60 68t72.5 38.5t73 7.5t60 -26.5t34 -62.5t-4.5 -101q-33 -134 -172 -260q75 -34 159 -20.5t150 69.5q9 9 15 25t18 25q50 41 58 19l1 -5q3 -26 -94 -94q-154 -111 -327 -35q-28 -26 -59.5 -49.5t-71.5 -47 t-76.5 -36t-72 -10t-60.5 25.5q-32 30 -38.5 85.5zM7.5 72.5q0.5 -28.5 12.5 -39.5q28 -20 62.5 -18.5t76.5 23.5t76.5 48t61.5 53q-55 37 -85.5 99.5t-25.5 128.5q-42 -27 -77.5 -67.5t-56.5 -81t-33 -79t-11.5 -67zM205 381q-7 -65 23.5 -127t86.5 -98q109 111 142 252 q17 74 -14 116.5t-87.5 33t-105.5 -70.5q90 26 164 -6q12 -6 8 -14t-19 -8q-91 0 -198 -78zM325.5 656q-0.5 9 4.5 14q34 24 64.5 67t43.5 90q4 15 17 22t22 -1q30 -22 47 -62q7 -14 -12 -43q-23 -31 -75 -66t-75 -40q-15 -4 -25.5 3t-11 16z" />
<glyph unicode="&#xf4;" horiz-adv-x="649" d="M-56.5 93.5q6.5 -55.5 38.5 -85.5q25 -23 60.5 -25.5t72 10t76.5 36t71.5 47t59.5 49.5q173 -76 327 35q97 68 94 94q-3 27 -48 -5l-11 -9q-12 -9 -18 -25t-15 -25q-66 -56 -150 -69.5t-159 20.5q139 126 172 260q15 62 4.5 101t-34 62.5t-60 26.5t-73 -7.5t-72.5 -38.5 t-60 -68q-73 -31 -153 -108q-68 -68 -98.5 -144t-24 -131.5zM7.5 72.5q-0.5 28.5 11.5 67t33 79t56.5 81t77.5 67.5q-5 -66 25.5 -128.5t85.5 -99.5q-27 -27 -61.5 -53t-76.5 -48t-76.5 -23.5t-62.5 18.5q-12 11 -12.5 39.5zM205 381q107 78 198 78q15 0 19 8t-8 14 q-74 32 -164 6q49 61 105.5 70.5t87.5 -33t14 -116.5q-33 -141 -142 -252q-56 36 -86.5 98t-23.5 127zM209 633q29 56 105.5 132.5t131.5 76.5q56 0 128 -78t102 -139q12 -25 -9.5 -42.5t-41.5 5.5q-40 50 -127 137q-60 60 -117 0q-10 -11 -37 -42t-49.5 -54t-38.5 -35 q-29 -21 -45.5 -6.5t-1.5 45.5z" />
<glyph unicode="&#xf5;" horiz-adv-x="649" d="M-56.5 93.5q6.5 -55.5 38.5 -85.5q25 -23 60.5 -25.5t72 10t76.5 36t71.5 47t59.5 49.5q173 -76 327 35q97 68 94 94q-3 27 -48 -5l-11 -9q-12 -9 -18 -25t-15 -25q-66 -56 -150 -69.5t-159 20.5q139 126 172 260q15 62 4.5 101t-34 62.5t-60 26.5t-73 -7.5t-72.5 -38.5 t-60 -68q-73 -31 -153 -108q-68 -68 -98.5 -144t-24 -131.5zM7.5 72.5q-0.5 28.5 11.5 67t33 79t56.5 81t77.5 67.5q-5 -66 25.5 -128.5t85.5 -99.5q-27 -27 -61.5 -53t-76.5 -48t-76.5 -23.5t-62.5 18.5q-12 11 -12.5 39.5zM205 381q107 78 198 78q15 0 19 8t-8 14 q-74 32 -164 6q49 61 105.5 70.5t87.5 -33t14 -116.5q-33 -141 -142 -252q-56 36 -86.5 98t-23.5 127zM214 657.5q-7 9.5 5 26.5q11 15 28 32t52 35t70 15q53 -4 118 -29t103 -32q89 -19 135 32q11 13 24 5t1 -25q-4 -6 -9 -12.5t-20.5 -22t-32.5 -26.5t-43 -18.5t-53 -4.5 q-59 7 -140 35.5t-102 31.5q-16 2 -33 -2t-27.5 -10t-27.5 -16.5t-24 -14.5q-17 -9 -24 0.5z" />
<glyph unicode="&#xf6;" horiz-adv-x="649" d="M-56.5 93.5q-6.5 55.5 24 131.5t98.5 144q80 77 153 108q24 40 60 68t72.5 38.5t73 7.5t60 -26.5t34 -62.5t-4.5 -101q-33 -134 -172 -260q75 -34 159 -20.5t150 69.5q9 9 15 25t18 25q50 41 58 19l1 -5q3 -26 -94 -94q-154 -111 -327 -35q-28 -26 -59.5 -49.5t-71.5 -47 t-76.5 -36t-72 -10t-60.5 25.5q-32 30 -38.5 85.5zM7.5 72.5q0.5 -28.5 12.5 -39.5q28 -20 62.5 -18.5t76.5 23.5t76.5 48t61.5 53q-55 37 -85.5 99.5t-25.5 128.5q-42 -27 -77.5 -67.5t-56.5 -81t-33 -79t-11.5 -67zM205 381q-7 -65 23.5 -127t86.5 -98q109 111 142 252 q17 74 -14 116.5t-87.5 33t-105.5 -70.5q90 26 164 -6q12 -6 8 -14t-19 -8q-91 0 -198 -78zM312.5 666.5q1.5 8.5 6 15t15.5 22t18 29.5q2 5 2 19t6 19.5t25 2.5q33 -6 49.5 -32t7.5 -52q-15 -45 -42.5 -60t-59.5 5q-16 9 -22.5 16t-5 15.5zM519.5 666.5q1.5 8.5 6 15 t15.5 22t18 29.5q2 5 2 19t6 19.5t25 2.5q33 -6 49.5 -32t7.5 -52q-15 -45 -42.5 -60t-59.5 5q-16 9 -22.5 16t-5 15.5z" />
<glyph unicode="&#xf7;" horiz-adv-x="843" d="M19 620q-7 23 1 45t27 23q59 4 762 4q18 0 24.5 -24.5t-3 -49t-27.5 -24.5q-97 0 -301 -1t-324 -1t-133 2q-19 3 -26 26zM344 454q2 27 23 52q27 32 63 44t64 -7q20 -16 22.5 -41.5t-7.5 -48.5t-28 -43q-21 -25 -47 -32.5t-46 3t-33 28.5t-11 45zM344 835q2 27 23 52 q27 32 63 44t64 -7q20 -16 22.5 -41.5t-7.5 -48.5t-28 -43q-21 -25 -47 -32.5t-46 3t-33 28.5t-11 45z" />
<glyph unicode="&#xf8;" horiz-adv-x="579" d="M-39.5 -116.5q-9.5 16.5 2.5 36.5l1.5 1.5t1.5 1t2 1.5t3.5 3t5.5 6t8.5 10.5t12.5 15.5t17 22t22 29q-31 31 -36.5 86.5t24.5 130t98 142.5q80 77 153 108q35 59 93.5 90t111.5 25l94 123q18 23 51 9q28 -11 28 -33q-1 -9 -7 -17l-92 -123q38 -52 16 -150 q-18 -74 -52 -133t-105 -131q-59 -59 -144 -106.5t-153 -48.5l-88 -107q-13 -17 -36 -12.5t-32.5 21zM66 47q30 39 130.5 172t161.5 211q-113 -46 -172 -108q-77 -82 -108 -158.5t-12 -116.5zM143 16q51 7 118 51t112 89q107 110 141 252q11 50 -2 88zM307 487q53 14 103 11 l43 57q-33 8 -72.5 -9t-73.5 -59z" />
<glyph unicode="&#xf9;" horiz-adv-x="843" d="M-104.5 37.5q-5.5 32.5 14.5 75.5t37.5 71.5t34.5 51.5q2 2 12.5 16t14 19t11.5 18.5t11 22t5 21t1 23.5q-3 22 8.5 50t24 46t36.5 48q17 22 32 24.5t28 -10.5t27 -41q12 -24 -7 -55q-12 -22 -67 -113t-74 -119q-33 -50 -42 -87t7 -46q14 -5 38.5 -1.5t82.5 34.5t135 86 q98 70 172.5 147t108.5 138q2 4 7 13t7.5 14t7.5 13t8 10.5t8.5 8t9 3.5t9.5 -3q9 -6 19 -22.5t15.5 -41.5t-7.5 -51q-11 -26 -18 -41t-23.5 -34.5t-32.5 -20.5q-17 0 -45 -47q-87 -132 -91 -183q-2 -26 13 -36q28 -17 84 -6t129 45q125 60 193 123q11 10 15.5 27t16.5 26 q49 40 52 12q3 -33 -80 -94q-96 -71 -191 -117q-79 -38 -158.5 -54t-115.5 1q-37 23 -16.5 100t90.5 183q3 4 -0.5 6.5t-6.5 -0.5q-60 -60 -172 -141q-251 -178 -337 -154q-36 9 -41.5 41.5zM266 680q17 38 47 61q9 8 22 1.5t17 -21.5q13 -46 44 -90t65 -68q5 -5 4.5 -14 t-11.5 -16t-26 -3q-23 5 -74.5 40.5t-74.5 66.5q-20 30 -13 43z" />
<glyph unicode="&#xfa;" horiz-adv-x="843" d="M-106.5 62q4.5 24 13.5 49t25 52t27 43t21 30q2 2 12.5 16t14 19t11.5 18.5t11 22t5 21t1 23.5q-3 22 8.5 50t24 46t36.5 48q17 22 32 24.5t27.5 -10.5t26.5 -41q12 -25 -6 -55q-12 -22 -67 -113t-74 -119q-33 -50 -42 -87t7 -46q14 -5 38.5 -1.5t82.5 34.5t135 86 q98 70 172.5 147t108.5 138q2 4 7 13t7.5 14t7.5 13t8 10.5t8.5 8t9 3.5t9.5 -3q9 -6 19 -22.5t15.5 -41.5t-7.5 -51q-11 -26 -18 -41t-23.5 -34.5t-32.5 -20.5q-17 0 -45 -47q-87 -132 -91 -183q-2 -26 13 -36q28 -17 84 -6t129 45q125 60 193 123q11 10 15.5 27t16.5 26 q49 40 52 12q3 -31 -80 -92q-2 -1 -17 -12.5t-23 -17.5t-27 -18.5t-35 -22.5t-40 -23t-49 -25q-79 -38 -158.5 -54t-115.5 1q-37 23 -16.5 100t90.5 183q3 4 -0.5 6.5t-6.5 -0.5q-60 -60 -172 -141q-251 -178 -338 -154q-25 6 -35 24t-5.5 42zM337.5 564q-0.5 9 4.5 14 q35 24 65.5 67.5t43.5 89.5q4 15 16.5 22t21.5 -1q31 -23 48 -62q7 -13 -13 -43q-23 -31 -74.5 -66t-74.5 -40q-15 -4 -26 3t-11.5 16z" />
<glyph unicode="&#xfb;" horiz-adv-x="843" d="M-106.5 62q-4.5 -24 5.5 -42t35 -24q87 -24 338 154q112 81 172 141q3 3 6.5 0.5t0.5 -6.5q-70 -106 -90.5 -183t16.5 -100q36 -17 115.5 -1t158.5 54q25 12 49 25t40 23t35 22.5t27 18.5t23 17.5t17 12.5q83 61 80 92q-3 28 -52 -12q-12 -9 -16.5 -26t-15.5 -27 q-68 -63 -193 -123q-73 -34 -129 -45t-84 6q-47 31 73 212q1 2 2 2.5t1.5 2t1.5 2.5q28 47 45 47q16 1 32.5 20.5t23.5 34.5t18 41q13 26 7.5 51t-15.5 41.5t-19 22.5q-6 1 -9.5 3t-9 -3.5t-8.5 -8t-8 -10.5t-7.5 -13t-7.5 -14t-7 -13q-34 -61 -108.5 -138t-172.5 -147 q-77 -55 -135 -86t-82.5 -34.5t-38.5 1.5q-16 9 -7 46t42 87q19 28 74 119t67 113q18 30 6 55q-14 28 -26.5 41t-27.5 10.5t-32 -24.5q-24 -30 -36.5 -48t-24 -46t-8.5 -50q1 -11 -1 -23.5t-5 -21t-11 -22t-11.5 -18.5t-14 -19t-12.5 -16q-10 -14 -21 -30t-27 -43t-25 -52 t-13.5 -49zM180 639q29 56 106 132.5t132 76.5q56 0 127.5 -78t101.5 -139q12 -25 -9.5 -42.5t-41.5 5.5q-40 50 -127 137q-60 60 -117 0q-10 -11 -37 -42t-49.5 -54t-38.5 -35q-29 -21 -45.5 -6.5t-1.5 45.5z" />
<glyph unicode="&#xfc;" horiz-adv-x="843" d="M-104.5 37.5q-5.5 32.5 14.5 75.5t37.5 71.5t34.5 51.5q2 2 12.5 16t14 19t11.5 18.5t11 22t5 21t1 23.5q-3 22 8.5 50t24 46t36.5 48q17 22 32 24.5t28 -10.5t27 -41q12 -24 -7 -55q-12 -22 -67 -113t-74 -119q-33 -50 -42 -87t7 -46q14 -5 38.5 -1.5t82.5 34.5t135 86 q98 70 172.5 147t108.5 138q2 4 7 13t7.5 14t7.5 13t8 10.5t8.5 8t9 3.5t9.5 -3q9 -6 19 -22.5t15.5 -41.5t-7.5 -51q-11 -26 -18 -41t-23.5 -34.5t-32.5 -20.5q-17 0 -45 -47q-87 -132 -91 -183q-2 -26 13 -36q28 -17 84 -6t129 45q125 60 193 123q11 10 15.5 27t16.5 26 q49 40 52 12q3 -31 -80 -92q-2 -1 -17 -12.5t-23 -17.5t-27 -18.5t-35 -22.5t-40 -23t-49 -25q-79 -38 -158.5 -54t-115.5 1q-37 23 -16.5 100t90.5 183q3 4 -0.5 6.5t-6.5 -0.5q-60 -60 -172 -141q-251 -178 -337 -154q-36 9 -41.5 41.5zM236.5 617.5q1.5 8.5 6 15t15.5 22 t18 29.5q2 5 2 19t6 19.5t25 2.5q33 -6 50 -32t8 -52q-15 -45 -43 -60t-60 5q-16 9 -22.5 16t-5 15.5zM443.5 617.5q1.5 8.5 6 15t15.5 22t18 29.5q2 5 2 19t6 19.5t25 2.5q33 -6 49.5 -32t7.5 -52q-15 -45 -42.5 -60t-59.5 5q-16 9 -22.5 16t-5 15.5z" />
<glyph unicode="&#xfd;" horiz-adv-x="794" d="M-824 -888q-12 76 16.5 156t90.5 160.5t148 145.5q116 87 239.5 146t251 96.5t352.5 89.5q131 244 199 385q2 5 0 6.5t-6 -2.5q-47 -47 -176 -141q-128 -91 -180 -120q-116 -66 -166 -48q-102 36 45 241q1 2 2 3.5t2 2.5t12 16t14.5 20t12 19t12 23t5.5 21.5t1 23.5 q-3 22 9 50t24.5 45.5t36.5 48.5q17 22 32 24.5t27.5 -10.5t26.5 -41q12 -25 -6 -55q-11 -20 -68 -112.5t-76 -121.5q-74 -112 -45 -133q7 -5 18.5 -5.5t33 4.5t49 17t68 36.5t87.5 58.5q197 143 273 266q6 10 12.5 22t11 21t10 19.5t9.5 15.5t10 10t10.5 4t11.5 -4 q17 -12 32 -50t-1 -73q-2 -4 -7 -16.5l-7 -17.5t-8 -15t-11 -14.5t-13 -9.5t-17 -7q-6 -1 -12 -4t-11.5 -9t-9.5 -10.5t-9.5 -14t-8.5 -15t-9.5 -17.5t-9.5 -18l-25.5 -51t-53.5 -107.5t-68 -134.5q250 78 417 207q12 8 21 40.5t20 41.5q16 13 24 19t18.5 11t16 0t7.5 -18 q3 -16 -26 -55t-68 -65q-2 -2 -19 -13.5t-27 -18t-32 -20.5t-41.5 -24.5t-47.5 -25.5t-57.5 -28t-64 -27.5t-75 -28.5t-83.5 -27q-114 -216 -256 -445q-87 -138 -197.5 -254.5t-228.5 -192.5t-227.5 -87t-194.5 63q-58 52 -70 128zM-770.5 -850.5q4.5 -66.5 47.5 -103.5 q72 -59 167.5 -43.5t201 87.5t202.5 173t172 215q125 196 236 397q-277 -63 -461.5 -132.5t-339.5 -186.5q-67 -51 -121 -123.5t-81.5 -144.5t-23 -138.5zM345.5 559.5q-0.5 8.5 4.5 13.5q34 24 65 68t44 90q4 15 17 22t22 -1q30 -22 47 -62q7 -13 -13 -43 q-23 -31 -74.5 -66t-74.5 -40q-15 -4 -26 3t-11.5 15.5z" />
<glyph unicode="&#xfe;" horiz-adv-x="770" d="M-248 -266q3 17 148.5 305t203.5 387l273 463q71 122 85.5 155.5t10.5 67.5q-3 22 9.5 50t24 44.5t36.5 48.5q17 22 32 24.5t27.5 -10t26.5 -40.5q12 -25 -6 -55q-30 -53 -95 -153t-92 -144q-25 -41 -62 -100.5t-58 -93.5t-52.5 -88t-64.5 -114q409 372 526 305 q35 -20 40 -65t-13.5 -95.5t-53.5 -101.5q77 -14 129 -49q39 -24 58 -60.5t12 -52.5q-13 -24 -46 33l-5 8q-7 13 -5.5 18.5t0 11t-11.5 13.5q-60 46 -145 60q-59 -80 -149 -156q-63 -51 -146.5 -74.5t-157.5 -11.5q-55 9 -65.5 47t22.5 76q64 80 179.5 116.5t236.5 33.5 q57 75 81 136t-1 87q-33 24 -142.5 -41.5t-215.5 -157t-152 -149.5q-69 -103 -214.5 -394t-152.5 -327q-7 -33 -32 -6q-23 24 -23 46v3zM190.5 319q9.5 -24 55.5 -28q91 -7 237 117q50 42 105 108q-95 7 -214.5 -34t-170.5 -113q-22 -26 -12.5 -50z" />
<glyph unicode="&#xff;" horiz-adv-x="800" d="M-811.5 -888q-12.5 76 16 155.5t90.5 160.5t148 146q167 126 339.5 190.5t504.5 141.5q122 227 198 385q2 5 0 6.5t-6 -2.5q-47 -47 -176 -141q-128 -91 -180 -120q-116 -66 -166 -48q-102 36 45 241q1 2 2 3.5t2 2.5t12 16t14.5 20t12 19t12 23t5.5 21.5t1 23.5 q-3 22 9 50t24.5 45.5t36.5 48.5q17 22 32 24.5t27.5 -10.5t26.5 -41q12 -25 -6 -55q-12 -21 -68 -113t-75 -121q-74 -112 -45 -133q7 -5 18.5 -5.5t33 4.5t49 17t68 36.5t87.5 58.5q195 142 272 266q6 9 12.5 21.5t11 21.5t10.5 19.5t10 15.5t10 10t10.5 4t11.5 -4 q17 -12 31.5 -50t-1.5 -73q-2 -4 -7 -16.5l-7 -17.5t-8 -15t-11 -14.5t-13 -9.5t-17 -7q-6 -1 -12 -4t-11.5 -9t-9.5 -10.5t-9.5 -14t-8.5 -15t-9.5 -17.5t-9.5 -18l-25.5 -51t-53.5 -107.5t-68 -134.5q252 79 418 207q12 8 21 40.5t20 41.5q17 14 24 19t18 10.5t16 0.5 t7 -18q3 -16 -26 -55t-68 -65q-2 -2 -19 -13.5t-27 -18t-32 -20.5t-41.5 -24.5t-47.5 -25.5t-57.5 -28t-64 -27.5t-75 -28.5t-83.5 -27q-114 -216 -256 -445q-87 -138 -197.5 -254.5t-228.5 -192.5t-227 -87t-194 63q-58 52 -70.5 128zM-758.5 -850.5q4.5 -66.5 47.5 -103.5 q72 -59 168 -43.5t201.5 87.5t202.5 173t172 215q118 185 235 397q-277 -63 -461 -132.5t-339 -186.5q-67 -51 -121 -123.5t-82 -144.5t-23.5 -138.5zM261.5 619.5q1.5 8.5 6 15t15.5 22t18 29.5q2 5 2 19t6 19.5t25 2.5q33 -6 49.5 -32t7.5 -52q-15 -45 -42.5 -60t-59.5 5 q-16 9 -22.5 16t-5 15.5zM468.5 619.5q1.5 8.5 6 15t15.5 22t18 29.5q2 5 2 19t6 19.5t25 2.5q33 -6 49.5 -32t7.5 -52q-15 -45 -42.5 -60t-59.5 5q-16 9 -22.5 16t-5 15.5z" />
<glyph unicode="&#x152;" horiz-adv-x="2383" d="M13 348q6 110 47 233.5t108 241t151 219.5q99 120 214 216t223 154t205 89.5t176 34.5q57 2 107.5 -7t82 -23t56 -31t35.5 -29t14 -19q7 -16 0.5 -24.5t-25.5 6.5q-85 72 -274 55q-143 -13 -346.5 -148t-376.5 -353q-75 -94 -139 -201.5t-109 -221t-60.5 -212.5 t13.5 -178.5t106 -116.5q80 -39 176.5 -27.5t196.5 56.5t198 116t180.5 150.5t145.5 160.5q81 105 144 234t93.5 243.5t24.5 205.5t-55 124q-65 39 -137.5 27t-132.5 -50.5t-82 -80.5q-15 -29 -22 -59.5t-21.5 -54t-57.5 -64.5q-6 -6 -18 -17q-25 -25 -36.5 -35t-28 -22.5 t-23 -11.5t-14.5 7t-11.5 24t-5.5 47q-3 29 5.5 51t29.5 51q54 72 157 139t221.5 97.5t211.5 -23.5q80 -51 80 -174q80 112 232.5 200t331 136.5t366.5 62.5q24 4 54 2t54 -18q36 -25 48 -40.5t1.5 -26.5t-35 -20t-69.5 -22q-15 -4 -23 -6q-44 -13 -73.5 -14t-43.5 4.5 t-38.5 12t-53.5 7.5q-95 1 -221.5 -37.5t-241.5 -100.5t-204.5 -147.5t-110.5 -168.5q-14 -55 12 -93t76 -54t110 -20t115 3t91 20q64 22 84 13.5t12 -52.5t-15 -54q-18 -23 -104 -54q-3 -1 -50 -16t-84.5 -28.5t-104.5 -41t-126 -56.5t-133 -72.5t-139 -92.5 q-118 -87 -200 -194.5t-115.5 -204.5t-26.5 -181.5t57 -134.5q38 -38 114.5 -53.5t183.5 -6.5t252.5 59.5t299.5 139.5q173 99 296.5 206.5t189.5 197.5q6 9 10 52.5t23 72.5q30 47 57 54t43 -30q11 -29 -57 -117q-46 -61 -89.5 -111.5t-109.5 -115.5t-152 -128.5 t-186 -119.5q-168 -95 -320 -148.5t-268 -64t-202 11.5t-138 74q-49 50 -69.5 126.5t-3.5 178t77 201.5q-357 -263 -628 -129q-98 48 -143 139t-39 201zM1145 461q263 172 674 315q16 5 11 14q-5 6 -18 3q-49 -16 -111 -23t-126.5 -3t-119 29.5t-77.5 71.5 q-80 -210 -233 -407z" />
<glyph unicode="&#x153;" horiz-adv-x="1132" d="M-3.5 91.5q-6.5 56.5 24.5 132.5t100 145q80 77 153 108q28 48 73.5 78.5t88.5 35.5t80.5 -11.5t51 -62t-0.5 -116.5q79 65 166.5 94.5t145.5 24.5t77 -31q30 -43 -14.5 -100t-130.5 -100q-48 -25 -106 -39.5t-99 -14.5t-69 7q-40 -52 -48.5 -113.5t27.5 -85.5 q86 -49 287.5 11.5t329.5 164.5q11 9 19 30t19 30q48 39 55 14q1 -2 1 -4q1 -14 -27.5 -43t-71.5 -60q-66 -46 -147.5 -87.5t-174 -73t-173.5 -36.5t-144 23q-41 20 -59 60t-12 90q-40 -40 -90.5 -76.5t-106.5 -64.5t-103 -32.5t-81 19.5q-34 27 -40.5 83.5zM63.5 72 q0.5 -28 12.5 -39q46 -41 145.5 14.5t171.5 134.5q35 38 69 99.5t50 126.5q9 45 2.5 79.5t-30 51.5t-52 19.5t-63 -16t-64.5 -55.5q90 26 164 -6q12 -6 8.5 -14t-18.5 -8q-83 0 -217 -92q-42 -29 -77 -69.5t-56 -81t-33.5 -78.5t-12 -66zM551 264q35 -12 110 -1.5t134 42.5 q56 31 98.5 79t26.5 75q-8 13 -25 17.5t-44 -1t-60.5 -20.5t-76 -43.5t-87.5 -67.5q-55 -48 -76 -80z" />
<glyph unicode="&#x178;" horiz-adv-x="1705" d="M31 70q15 76 58 142t91.5 107.5t109.5 75.5t100.5 49t74.5 25q112 30 133 2q6 -8 3 -16t-16 -13.5t-32 -5.5q-15 0 -31 6t-30 4q-40 -7 -87.5 -26t-103 -52.5t-102.5 -75.5t-84 -101.5t-49 -124.5q-17 -92 9 -176.5t81.5 -144t126.5 -100t147 -53.5q109 -19 221.5 0 t214.5 69.5t191 116t174 148.5q88 86 177 201.5t174 253t129.5 215t110.5 198.5q13 24 19 35q3 6 -0.5 7t-7.5 -5q-189 -220 -391 -389q-205 -170 -338.5 -230t-237.5 -13q-244 108 -10 544q18 33 47.5 86t51.5 93.5t50.5 93t48.5 93.5t41.5 86.5t33.5 81t20.5 68t6.5 56 t-13 37.5q-25 31 -93 41t-161 -6.5t-176 -59.5q-208 -107 -296.5 -168.5t-109.5 -122.5q-4 -12 -11 -33.5t-9.5 -28.5t-9.5 -22t-16 -26.5t-24 -29.5t-38 -42q-19 -20 -28 -29.5t-24 -22.5t-23 -16t-19 -4t-17.5 7t-13 24t-11.5 41q-6 29 8.5 64t37.5 57q26 26 71.5 63.5 t119 91.5t178.5 113.5t216 108.5t209 74t176.5 19.5t112.5 -46.5q53 -65 46 -138q-8 -87 -113 -292q-47 -91 -185 -342q-51 -93 -77.5 -173.5t-29 -131t7.5 -88.5t24 -55t28 -23q94 -39 216.5 17t317.5 212q107 85 269 261.5t237 281.5q42 59 95 133.5t74 104.5t52.5 72.5 t58.5 74.5t64 74q21 24 55.5 46t49.5 7q41 -45 2 -125q-24 -48 -62 -88.5t-65 -44.5q-19 -3 -38.5 -14.5t-40 -34.5t-38 -47t-42 -63.5t-42.5 -70.5t-47.5 -83t-50.5 -87q-25 -42 -89 -157t-120.5 -210t-133 -214.5t-165.5 -231t-180 -200.5q-392 -384 -846 -308 q-95 16 -175 60t-136.5 109.5t-79.5 157.5t-2 196zM1527 1422.5q-2 -8.5 4.5 -15.5t22.5 -16q32 -20 60 -5t43 60q9 26 -8 52t-50 32q-19 3 -25.5 -4t-4 -17t-2.5 -20q-8 -14 -18.5 -29.5t-15 -22t-6.5 -15zM1734 1422.5q-2 -8.5 4.5 -15.5t22.5 -16q32 -20 60 -5t43 60 q9 26 -8 52t-50 32q-19 3 -25.5 -4t-4 -17t-2.5 -20q-8 -14 -18.5 -29.5t-15 -22t-6.5 -15z" />
<glyph unicode="&#x2c6;" horiz-adv-x="516" d="M10 1321q29 56 106 132.5t132 76.5q56 0 127.5 -78t101.5 -139q12 -25 -9.5 -42.5t-41.5 5.5q-40 50 -127 137q-60 60 -117 0q-10 -11 -37 -42t-49.5 -54t-38.5 -35q-29 -21 -45.5 -6.5t-1.5 45.5z" />
<glyph unicode="&#x2dc;" horiz-adv-x="591" d="M21.5 1417.5q-6.5 9.5 5.5 26.5q11 16 27.5 32.5t51.5 34.5t70 15q53 -4 118 -29t103 -33q88 -19 135 33q11 13 24 5t1 -25q-4 -6 -9 -12.5t-20.5 -22t-32.5 -26.5t-43 -18.5t-53 -4.5q-59 7 -139.5 35.5t-101.5 31.5q-16 2 -33.5 -2t-27.5 -10l-27.5 -16.5t-24.5 -14.5 q-17 -9 -23.5 0.5z" />
<glyph unicode="&#x2000;" horiz-adv-x="933" />
<glyph unicode="&#x2001;" horiz-adv-x="1866" />
<glyph unicode="&#x2002;" horiz-adv-x="933" />
<glyph unicode="&#x2003;" horiz-adv-x="1866" />
<glyph unicode="&#x2004;" horiz-adv-x="622" />
<glyph unicode="&#x2005;" horiz-adv-x="466" />
<glyph unicode="&#x2006;" horiz-adv-x="311" />
<glyph unicode="&#x2007;" horiz-adv-x="311" />
<glyph unicode="&#x2008;" horiz-adv-x="233" />
<glyph unicode="&#x2009;" horiz-adv-x="373" />
<glyph unicode="&#x200a;" horiz-adv-x="103" />
<glyph unicode="&#x2010;" horiz-adv-x="600" d="M36.5 405q-5.5 21 4.5 41t29 21q66 2 456 2q18 0 25 -22t-2 -44t-27 -22q-108 0 -229.5 -1t-170 -1t-61.5 2q-19 3 -24.5 24z" />
<glyph unicode="&#x2011;" horiz-adv-x="600" d="M36.5 405q-5.5 21 4.5 41t29 21q66 2 456 2q18 0 25 -22t-2 -44t-27 -22q-108 0 -229.5 -1t-170 -1t-61.5 2q-19 3 -24.5 24z" />
<glyph unicode="&#x2012;" horiz-adv-x="600" d="M36.5 405q-5.5 21 4.5 41t29 21q66 2 456 2q18 0 25 -22t-2 -44t-27 -22q-108 0 -229.5 -1t-170 -1t-61.5 2q-19 3 -24.5 24z" />
<glyph unicode="&#x2013;" horiz-adv-x="819" d="M10.5 530.5q-5.5 23.5 4 46t28.5 23.5q29 2 713 2q18 0 22.5 -24.5t-6.5 -49t-29 -24.5q-99 0 -289 -1t-298 -1t-121 2q-19 3 -24.5 26.5z" />
<glyph unicode="&#x2014;" horiz-adv-x="1163" d="M12.5 534q-5.5 23 4 45t28.5 23q59 4 1055 4q18 0 22.5 -24.5t-6.5 -49t-29 -24.5q-86 0 -371 -1t-475.5 -1t-203.5 2q-19 3 -24.5 26z" />
<glyph unicode="&#x2018;" horiz-adv-x="206" d="M23 1391q14 35 24 47q20 27 57 52t60 32q18 6 22 -3q4 -8 -8 -12q-32 -12 -61 -69q12 -20 10 -32.5t-18 -49.5q-5 -9 -7 -15q-12 -32 -24 -34q-9 -1 -19 8q-16 14 -28.5 37t-7.5 39z" />
<glyph unicode="&#x2019;" horiz-adv-x="212" d="M23 1303q-4 8 8 12q32 12 61 69q-10 12 -10 26t4 24t20 47q3 8 4.5 11.5t6 11t8.5 9.5t10.5 1.5t14.5 -7.5q16 -15 28.5 -37t7.5 -38q-15 -37 -24 -48q-20 -27 -57 -52t-60 -32q-18 -6 -22 3z" />
<glyph unicode="&#x201a;" horiz-adv-x="137" d="M-49 -110q-4 8 8 12q32 12 61 69q-12 20 -10 32.5t18 49.5q5 9 7 15q12 32 24 34q9 1 19 -8q17 -15 29.5 -37.5t7.5 -38.5q-16 -36 -25 -47q-20 -27 -57 -52t-60 -32q-18 -6 -22 3z" />
<glyph unicode="&#x201c;" horiz-adv-x="262" d="M23 1391q17 39 24 47q20 27 57 52t60 32q18 6 22 -3q4 -8 -8 -12q-32 -12 -61 -69q12 -20 10 -32.5t-18 -49.5q-5 -9 -7 -15q-12 -32 -24 -34q-9 -1 -19 8q-16 14 -28.5 37t-7.5 39zM203 1391q17 39 24 47q20 27 57 52t60 32q18 6 22 -3q4 -8 -8 -12q-32 -12 -61 -69 q10 -12 10 -26t-4 -24t-20 -47q-12 -32 -24 -34q-9 -1 -19 8q-17 15 -29.5 37.5t-7.5 38.5z" />
<glyph unicode="&#x201d;" horiz-adv-x="301" d="M-67 1303q-4 8 8 12q32 12 61 69q-10 12 -10 26t4 24t20 47q12 32 24 34q9 1 19 -8q17 -15 29.5 -37t7.5 -38q-18 -41 -24 -48q-20 -27 -57 -52t-60 -32q-18 -6 -22 3zM113 1303q-4 8 8 12q32 12 61 69q-12 20 -10 32.5t18 49.5q5 9 7 15q12 32 24 34q9 0 19 -8 q16 -15 28.5 -37t7.5 -38q-18 -41 -24 -48q-20 -27 -57 -52t-60 -32q-18 -6 -22 3z" />
<glyph unicode="&#x201e;" horiz-adv-x="325" d="M-49 -110q-4 8 8 12q32 12 61 69q-12 20 -10 32.5t18 49.5q5 9 7 15q12 32 24 34q9 1 19 -8q17 -15 29.5 -37.5t7.5 -38.5q-16 -36 -25 -47q-20 -27 -57 -52t-60 -32q-18 -6 -22 3zM131 -110q-4 8 8 12q34 12 62 69q-10 12 -10 26t4 24t20 47q12 32 24 34q9 1 19 -8 q17 -15 29.5 -37.5t7.5 -38.5q-16 -36 -25 -47q-20 -27 -57 -52t-59 -32q-18 -6 -23 3z" />
<glyph unicode="&#x2022;" horiz-adv-x="294" d="M0.5 603.5q3.5 38.5 32.5 74.5q38 45 89 62.5t91 -9.5q29 -23 32.5 -59t-10.5 -69t-38 -60q-30 -36 -67.5 -47t-66 3.5t-47.5 40t-15.5 64z" />
<glyph unicode="&#x2026;" horiz-adv-x="706" d="M19.5 12q1.5 9 5.5 15.5t15 22t19 28.5q2 5 2 19t6 19.5t25 2.5q33 -6 50 -32t8 -52q-15 -45 -43 -60t-60 5q-16 9 -22.5 16t-5 16zM255.5 12q1.5 9 5.5 15.5t15 22t19 28.5q2 5 2 19t6 19.5t25 2.5q33 -6 49.5 -32t7.5 -52q-15 -45 -42.5 -60t-59.5 5q-16 9 -22.5 16 t-5 16zM490.5 12q1.5 9 5.5 15.5t15 22t19 28.5q2 5 2 19t6 19.5t25 2.5q33 -6 50 -32t8 -52q-15 -45 -43 -60t-60 5q-16 9 -22.5 16t-5 16z" />
<glyph unicode="&#x202f;" horiz-adv-x="373" />
<glyph unicode="&#x2039;" horiz-adv-x="565" d="M40.5 471q5.5 64 43.5 109q124 150 367 358q17 16 39 -13q22 -31 12 -54q-2 -4 -6 -7q-177 -143 -295 -272q-66 -70 -68 -119q0 -10 0.5 -18.5t3.5 -17t5 -14.5t7.5 -14t7.5 -12t10 -12.5t10 -10.5l11 -11l11 -11q138 -138 307 -282q12 -14 7.5 -35t-23 -36t-33.5 -3 q-12 8 -70 59.5t-151 142t-168 171.5q-33 38 -27.5 102z" />
<glyph unicode="&#x203a;" horiz-adv-x="530" d="M43.5 899q4.5 21 23 36t33.5 3q12 -8 70 -59.5t151 -142t168 -171.5q33 -38 27.5 -102t-43.5 -109q-124 -150 -367 -358q-17 -16 -39 13q-22 31 -12 54q2 4 6 7q177 143 295 272q66 70 68 119q0 10 -0.5 18.5t-3.5 17t-5 14.5t-7.5 14t-7.5 12t-10 12.5t-10 10.5l-11 11 l-11 11q-138 138 -307 282q-12 14 -7.5 35z" />
<glyph unicode="&#x205f;" horiz-adv-x="466" />
<glyph unicode="&#x20ac;" horiz-adv-x="1275" d="M-12 426q8 117 53 238q35 95 110.5 196t145 168t145.5 127q147 116 341.5 157.5t328.5 -18.5q106 -49 152 -166q10 -28 -10 -39q-36 -20 -114 55l-3 3q-22 22 -29.5 49t-4.5 43l3 16q-89 47 -203.5 40.5t-232.5 -53.5t-205 -118q-109 -90 -182 -188q135 2 702 2 q18 0 23.5 -22.5t-5 -45t-28.5 -22.5q-106 0 -300.5 -1t-289 -1.5t-162.5 0.5q-80 -131 -100 -234l751 4q18 0 23.5 -23t-5 -46t-28.5 -23h-762q-10 -74 -9 -143.5t30 -134.5t84 -101q62 -41 135 -66.5t164.5 -34.5t200 18.5t217.5 93.5q15 8 21 24.5t18 24.5q51 28 53 6 q0 -28 -90 -80q-140 -81 -294.5 -116t-283 -22t-213.5 66q-81 51 -118 150.5t-29 216.5z" />
<glyph unicode="&#x2122;" horiz-adv-x="1687" d="M-16 1252.5q-5 9.5 3 15t19.5 7.5t38.5 5q36 3 61 -11.5t39 -17.5q34 -8 63 -9.5t66 5.5t60.5 13t82.5 24.5t95 28.5q35 39 43 12q239 62 295 18q50 -38 28 -133t-112 -229q-5 -9 -2 -9q2 1 8 7q103 120 207 217q95 92 154.5 128t109.5 19q26 -9 35 -34t-0.5 -64.5 t-22 -76t-39 -88t-41.5 -78.5t-39 -68l-3 -6t-2 -6q-1 -2 -0.5 -1.5t2.5 3.5q99 125 172 204q110 120 183 165.5t120 11.5q25 -17 29.5 -47.5t-12.5 -78t-44.5 -99.5t-73.5 -128q-52 -86 -81 -140.5t-55 -119.5t-22 -109t37 -71q17 -14 41.5 -20.5t40.5 -6.5h15q3 15 26 23 q41 13 45 -5q0 -6 -4 -11q-34 -27 -67 -27q-73 0 -117 33q-132 107 80 469q34 55 58.5 102t38 81t19 59t3 39t-12.5 20q-35 21 -88.5 -15t-148.5 -139q-71 -77 -102 -114.5t-68 -92.5q-31 -44 -55 -88.5t-54.5 -111t-31.5 -68.5q-11 -20 -29 3q-19 24 -13 43q0 2 1 3 q12 23 135 264q61 123 102 231t14 120q-36 16 -85.5 -9t-143.5 -114q-56 -56 -92 -94.5t-49 -54t-53 -64.5q-115 -131 -211 -336q-7 -18 -26 1q-23 22 -18 47q1 4 3 7q77 144 186 318q49 81 74.5 144.5t27 101.5t-15.5 59q-26 24 -94 22.5t-154 -26.5q4 -16 -8 -37 q-12 -22 -31.5 -39t-31.5 -17q-61 0 -218 -219q-99 -135 -178 -356q-7 -18 -30 0q-25 19 -23 43l2 6q58 139 201 328q133 176 223 260q-22 -6 -85.5 -25.5t-94 -26t-96.5 -13t-144 -3.5q-21 0 -45 21q-15 16 -20 25.5z" />
<glyph unicode="&#xe000;" horiz-adv-x="542" d="M0 0v543h543v-543h-543z" />
</font>
</defs>
</svg>
